<?xml version="1.0" encoding="UTF-8" standalone="no"?>
<svg
   viewBox="0 0 330 200"
   version="1.1"
   id="svg216"
   sodipodi:docname="lstm_loss.svg"
   inkscape:version="1.2.2 (732a01da63, 2022-12-09)"
   xmlns:inkscape="http://www.inkscape.org/namespaces/inkscape"
   xmlns:sodipodi="http://sodipodi.sourceforge.net/DTD/sodipodi-0.dtd"
   xmlns="http://www.w3.org/2000/svg"
   xmlns:svg="http://www.w3.org/2000/svg">
  <defs
     id="defs220" />
  <sodipodi:namedview
     id="namedview218"
     pagecolor="#ffffff"
     bordercolor="#000000"
     borderopacity="0.25"
     inkscape:showpageshadow="2"
     inkscape:pageopacity="0.0"
     inkscape:pagecheckerboard="0"
     inkscape:deskcolor="#d1d1d1"
     showgrid="false"
     inkscape:zoom="4.0848485"
     inkscape:cx="165"
     inkscape:cy="80.296736"
     inkscape:window-width="1920"
     inkscape:window-height="1009"
     inkscape:window-x="-8"
     inkscape:window-y="-8"
     inkscape:window-maximized="1"
     inkscape:current-layer="svg216" />
  <g
     id="g214"
     transform="matrix(1,0,0,0.94205388,0,-0.11766747)">
    <g
       id="g212">
      <g
         id="g58">
        <g
           id="g56">
          <g
             id="g26">
            <line
               x1="51.5625"
               y1="166.25723"
               x2="46.5625"
               y2="166.25723"
               style="visibility:inherit"
               fill="#000000"
               stroke="#cccccc"
               stroke-width="1px"
               id="line2" />
            <line
               x1="51.5625"
               y1="151.42197"
               x2="46.5625"
               y2="151.42197"
               style="visibility:inherit"
               fill="#000000"
               stroke="#cccccc"
               stroke-width="1px"
               id="line4" />
            <line
               x1="51.5625"
               y1="136.5867"
               x2="46.5625"
               y2="136.5867"
               style="visibility:inherit"
               fill="#000000"
               stroke="#cccccc"
               stroke-width="1px"
               id="line6" />
            <line
               x1="51.5625"
               y1="121.75144"
               x2="46.5625"
               y2="121.75144"
               style="visibility:inherit"
               fill="#000000"
               stroke="#cccccc"
               stroke-width="1px"
               id="line8" />
            <line
               x1="51.5625"
               y1="106.91618"
               x2="46.5625"
               y2="106.91618"
               style="visibility:inherit"
               fill="#000000"
               stroke="#cccccc"
               stroke-width="1px"
               id="line10" />
            <line
               x1="51.5625"
               y1="92.080925"
               x2="46.5625"
               y2="92.080925"
               style="visibility:inherit"
               fill="#000000"
               stroke="#cccccc"
               stroke-width="1px"
               id="line12" />
            <line
               x1="51.5625"
               y1="77.245667"
               x2="46.5625"
               y2="77.245667"
               style="visibility:inherit"
               fill="#000000"
               stroke="#cccccc"
               stroke-width="1px"
               id="line14" />
            <line
               x1="51.5625"
               y1="62.410404"
               x2="46.5625"
               y2="62.410404"
               style="visibility:inherit"
               fill="#000000"
               stroke="#cccccc"
               stroke-width="1px"
               id="line16" />
            <line
               x1="51.5625"
               y1="47.575146"
               x2="46.5625"
               y2="47.575146"
               style="visibility:inherit"
               fill="#000000"
               stroke="#cccccc"
               stroke-width="1px"
               id="line18" />
            <line
               x1="51.5625"
               y1="32.739883"
               x2="46.5625"
               y2="32.739883"
               style="visibility:inherit"
               fill="#000000"
               stroke="#cccccc"
               stroke-width="1px"
               id="line20" />
            <line
               x1="51.5625"
               y1="17.904625"
               x2="46.5625"
               y2="17.904625"
               style="visibility:inherit"
               fill="#000000"
               stroke="#cccccc"
               stroke-width="1px"
               id="line22" />
            <line
               x1="51.5625"
               y1="3.0693641"
               x2="46.5625"
               y2="3.0693641"
               style="visibility:inherit"
               fill="#000000"
               stroke="#cccccc"
               stroke-width="1px"
               id="line24" />
          </g>
          <g
             transform="translate(41.5625)"
             id="g52">
            <text
               x="0"
               y="166.25723"
               dx="0em"
               dy="0.30000001em"
               style="font-weight:200;font-size:12px;font-family:Roboto, sans-serif;text-anchor:end;visibility:inherit"
               fill="#212121"
               stroke="none"
               stroke-width="1px"
               id="text28">0.64</text>
            <text
               x="0"
               y="151.42197"
               dx="0em"
               dy="0.30000001em"
               style="font-weight:200;font-size:12px;font-family:Roboto, sans-serif;text-anchor:end;visibility:hidden"
               fill="#212121"
               stroke="none"
               stroke-width="1px"
               id="text30">0.66</text>
            <text
               x="0"
               y="136.5867"
               dx="0em"
               dy="0.30000001em"
               style="font-weight:200;font-size:12px;font-family:Roboto, sans-serif;text-anchor:end;visibility:inherit"
               fill="#212121"
               stroke="none"
               stroke-width="1px"
               id="text32">0.68</text>
            <text
               x="0"
               y="121.75144"
               dx="0em"
               dy="0.30000001em"
               style="font-weight:200;font-size:12px;font-family:Roboto, sans-serif;text-anchor:end;visibility:hidden"
               fill="#212121"
               stroke="none"
               stroke-width="1px"
               id="text34">0.7</text>
            <text
               x="0"
               y="106.91618"
               dx="0em"
               dy="0.30000001em"
               style="font-weight:200;font-size:12px;font-family:Roboto, sans-serif;text-anchor:end;visibility:inherit"
               fill="#212121"
               stroke="none"
               stroke-width="1px"
               id="text36">0.72</text>
            <text
               x="0"
               y="92.080925"
               dx="0em"
               dy="0.30000001em"
               style="font-weight:200;font-size:12px;font-family:Roboto, sans-serif;text-anchor:end;visibility:hidden"
               fill="#212121"
               stroke="none"
               stroke-width="1px"
               id="text38">0.74</text>
            <text
               x="0"
               y="77.245667"
               dx="0em"
               dy="0.30000001em"
               style="font-weight:200;font-size:12px;font-family:Roboto, sans-serif;text-anchor:end;visibility:inherit"
               fill="#212121"
               stroke="none"
               stroke-width="1px"
               id="text40">0.76</text>
            <text
               x="0"
               y="62.410404"
               dx="0em"
               dy="0.30000001em"
               style="font-weight:200;font-size:12px;font-family:Roboto, sans-serif;text-anchor:end;visibility:hidden"
               fill="#212121"
               stroke="none"
               stroke-width="1px"
               id="text42">0.78</text>
            <text
               x="0"
               y="47.575146"
               dx="0em"
               dy="0.30000001em"
               style="font-weight:200;font-size:12px;font-family:Roboto, sans-serif;text-anchor:end;visibility:inherit"
               fill="#212121"
               stroke="none"
               stroke-width="1px"
               id="text44">0.8</text>
            <text
               x="0"
               y="32.739883"
               dx="0em"
               dy="0.30000001em"
               style="font-weight:200;font-size:12px;font-family:Roboto, sans-serif;text-anchor:end;visibility:hidden"
               fill="#212121"
               stroke="none"
               stroke-width="1px"
               id="text46">0.82</text>
            <text
               x="0"
               y="17.904625"
               dx="0em"
               dy="0.30000001em"
               style="font-weight:200;font-size:12px;font-family:Roboto, sans-serif;text-anchor:end;visibility:inherit"
               fill="#212121"
               stroke="none"
               stroke-width="1px"
               id="text48">0.84</text>
            <text
               x="0"
               y="3.0693641"
               dx="0em"
               dy="0.30000001em"
               style="font-weight:200;font-size:12px;font-family:Roboto, sans-serif;text-anchor:end;visibility:hidden"
               fill="#212121"
               stroke="none"
               stroke-width="1px"
               id="text50">0.86</text>
          </g>
          <line
             x1="51.5625"
             y1="0"
             x2="51.5625"
             y2="177"
             fill="#000000"
             stroke="#cccccc"
             stroke-width="1px"
             id="line54" />
        </g>
      </g>
      <g
         transform="translate(51)"
         clip-path="url(#clip_0)"
         id="g157">
        <clipPath
           id="clip_0">
          <rect
             width="278"
             height="177"
             id="rect60"
             x="0"
             y="0" />
        </clipPath>
        <g
           id="g113">
          <g
             id="g111">
            <g
               id="g83">
              <line
                 x1="2.9334247"
                 y1="0"
                 x2="2.9334247"
                 y2="177"
                 fill="#000000"
                 stroke="#424242"
                 stroke-width="1px"
                 opacity="0.25"
                 id="line63" />
              <line
                 x1="30.69525"
                 y1="0"
                 x2="30.69525"
                 y2="177"
                 fill="#000000"
                 stroke="#424242"
                 stroke-width="1px"
                 opacity="0.25"
                 id="line65" />
              <line
                 x1="58.457077"
                 y1="0"
                 x2="58.457077"
                 y2="177"
                 fill="#000000"
                 stroke="#424242"
                 stroke-width="1px"
                 opacity="0.25"
                 id="line67" />
              <line
                 x1="86.218903"
                 y1="0"
                 x2="86.218903"
                 y2="177"
                 fill="#000000"
                 stroke="#424242"
                 stroke-width="1px"
                 opacity="0.25"
                 id="line69" />
              <line
                 x1="113.98073"
                 y1="0"
                 x2="113.98073"
                 y2="177"
                 fill="#000000"
                 stroke="#424242"
                 stroke-width="1px"
                 opacity="0.25"
                 id="line71" />
              <line
                 x1="141.74255"
                 y1="0"
                 x2="141.74255"
                 y2="177"
                 fill="#000000"
                 stroke="#424242"
                 stroke-width="1px"
                 opacity="0.25"
                 id="line73" />
              <line
                 x1="169.50438"
                 y1="0"
                 x2="169.50438"
                 y2="177"
                 fill="#000000"
                 stroke="#424242"
                 stroke-width="1px"
                 opacity="0.25"
                 id="line75" />
              <line
                 x1="197.2662"
                 y1="0"
                 x2="197.2662"
                 y2="177"
                 fill="#000000"
                 stroke="#424242"
                 stroke-width="1px"
                 opacity="0.25"
                 id="line77" />
              <line
                 x1="225.02803"
                 y1="0"
                 x2="225.02803"
                 y2="177"
                 fill="#000000"
                 stroke="#424242"
                 stroke-width="1px"
                 opacity="0.25"
                 id="line79" />
              <line
                 x1="252.78986"
                 y1="0"
                 x2="252.78986"
                 y2="177"
                 fill="#000000"
                 stroke="#424242"
                 stroke-width="1px"
                 opacity="0.25"
                 id="line81" />
            </g>
            <g
               id="g109">
              <line
                 x1="0"
                 y1="166.25723"
                 x2="278.4375"
                 y2="166.25723"
                 fill="#000000"
                 stroke="#424242"
                 stroke-width="1px"
                 opacity="0.25"
                 id="line85" />
              <line
                 x1="0"
                 y1="151.42197"
                 x2="278.4375"
                 y2="151.42197"
                 fill="#000000"
                 stroke="#424242"
                 stroke-width="1px"
                 opacity="0.25"
                 id="line87" />
              <line
                 x1="0"
                 y1="136.5867"
                 x2="278.4375"
                 y2="136.5867"
                 fill="#000000"
                 stroke="#424242"
                 stroke-width="1px"
                 opacity="0.25"
                 id="line89" />
              <line
                 x1="0"
                 y1="121.75144"
                 x2="278.4375"
                 y2="121.75144"
                 fill="#000000"
                 stroke="#424242"
                 stroke-width="1px"
                 opacity="0.25"
                 id="line91" />
              <line
                 x1="0"
                 y1="106.91618"
                 x2="278.4375"
                 y2="106.91618"
                 fill="#000000"
                 stroke="#424242"
                 stroke-width="1px"
                 opacity="0.25"
                 id="line93" />
              <line
                 x1="0"
                 y1="92.080925"
                 x2="278.4375"
                 y2="92.080925"
                 fill="#000000"
                 stroke="#424242"
                 stroke-width="1px"
                 opacity="0.25"
                 id="line95" />
              <line
                 x1="0"
                 y1="77.245667"
                 x2="278.4375"
                 y2="77.245667"
                 fill="#000000"
                 stroke="#424242"
                 stroke-width="1px"
                 opacity="0.25"
                 id="line97" />
              <line
                 x1="0"
                 y1="62.410404"
                 x2="278.4375"
                 y2="62.410404"
                 fill="#000000"
                 stroke="#424242"
                 stroke-width="1px"
                 opacity="0.25"
                 id="line99" />
              <line
                 x1="0"
                 y1="47.575146"
                 x2="278.4375"
                 y2="47.575146"
                 fill="#000000"
                 stroke="#424242"
                 stroke-width="1px"
                 opacity="0.25"
                 id="line101" />
              <line
                 x1="0"
                 y1="32.739883"
                 x2="278.4375"
                 y2="32.739883"
                 fill="#000000"
                 stroke="#424242"
                 stroke-width="1px"
                 opacity="0.25"
                 id="line103" />
              <line
                 x1="0"
                 y1="17.904625"
                 x2="278.4375"
                 y2="17.904625"
                 fill="#000000"
                 stroke="#424242"
                 stroke-width="1px"
                 opacity="0.25"
                 id="line105" />
              <line
                 x1="0"
                 y1="3.0693641"
                 x2="278.4375"
                 y2="3.0693641"
                 fill="#000000"
                 stroke="#424242"
                 stroke-width="1px"
                 opacity="0.25"
                 id="line107" />
            </g>
          </g>
        </g>
        <g
           id="g119">
          <g
             id="g117">
            <line
               x1="0"
               y1="640.98553"
               x2="278.4375"
               y2="640.98553"
               fill="#000000"
               stroke="#999999"
               stroke-width="1.5px"
               id="line115" />
          </g>
        </g>
        <g
           id="g125">
          <g
             id="g123">
            <line
               x1="2.9334247"
               y1="0"
               x2="2.9334247"
               y2="177"
               fill="#000000"
               stroke="#999999"
               stroke-width="1.5px"
               id="line121" />
          </g>
        </g>
        <g
           id="g155">
          <g
             id="g139">
            <g
               id="g137">
              <g
                 id="g135">
                <g
                   id="g129">
                  <path
                     stroke="#ff7043"
                     stroke-width="2px"
                     d="m 3.2110429,127.59688 0.3053801,-0.43438 0.3053801,-0.2457 0.3053801,-0.20433 0.3053801,-0.24117 0.30538,-0.35142 0.3053801,-0.44772 0.3053801,-0.48698 0.3053801,-0.19575 0.3053801,-0.11108 0.3053801,-0.15571 0.30538,-0.29992 0.3053801,-0.27112 0.3053801,-0.2264 0.3053801,-0.23954 0.3053801,-0.3426 0.30538,-0.38697 0.3053801,-0.0738 0.3053801,-0.0158 0.3053801,0.0297 0.3053801,0.0441 0.30538,-0.0441 0.3053801,-0.11442 0.3053803,-0.1517 0.30538,-0.12761 0.30538,-0.17569 0.30538,-0.1755 0.30538,-0.0485 0.30538,0.0603 0.30538,0.0186 0.30538,0.064 0.30538,-0.0269 0.305381,-0.0325 0.30538,-0.004 0.30538,0.062 0.30538,0.043 0.30538,0.0964 0.30538,0.0943 0.30538,0.13245 0.30538,0.0839 0.30538,0.0295 0.30538,0.032 0.30538,-0.002 0.30538,0.0593 0.30538,0.0585 0.305381,0.0153 0.30538,0.0511 0.30538,0.0624 0.30538,0.13023 0.30538,0.0965 0.30538,0.0782 0.30538,0.0129 0.30538,-0.18765 0.30538,-0.23008 0.30538,-0.56772 0.30538,-0.14882 0.30538,0.10149 0.305381,-0.26189 0.30538,-0.41996 0.30538,-0.74518 0.30538,-0.31779 0.30538,-0.50223 0.30538,-0.77424 0.30538,-0.57931 0.30538,-1.56056 0.30538,-1.59419 0.30538,-1.33542 0.30538,-1.26218 0.30538,-1.19303 0.305381,-0.73985 0.30538,-0.58425 0.30538,0.0432 0.30538,-0.14631 0.30538,-0.41885 0.30538,-0.76489 0.30538,0.29226 0.30538,0.0561 0.30538,-0.0232 0.30538,0.0334 0.30538,-0.28983 0.30538,-0.68644 0.30538,-0.26667 0.305381,-0.68678 0.30538,-0.54125 0.30538,-0.77555 0.30538,-1.3228 0.30538,-1.32702 0.30538,-0.77383 0.30538,-0.16424 0.30538,-0.10488 0.30538,-0.28705 0.30538,-0.48991 0.30538,-0.33816 0.30538,-0.58578 0.305381,-0.5991 0.30538,-0.0984 0.30538,-0.836964 0.30538,-0.697556 0.30538,0.295022 0.30538,0.203562 0.30538,0.323838 0.30538,0.20587 0.30538,-0.130848 0.30538,-0.365128 0.30538,-0.659267 0.30538,-0.415464 0.305381,-0.06949 0.30538,0.107231 0.30538,-0.07811 0.30538,-0.446332 0.30538,0.187549 0.30538,-0.269832 0.30538,0.263878 0.30538,-0.03212 0.30538,-0.09233 0.30538,-0.09284 0.30538,-0.809142 0.30538,-0.59936 0.30538,-0.0032 0.305381,0.282107 0.30538,0.176816 0.30538,-0.480265 0.30538,-1.168321 0.30538,-0.755105 0.30538,-0.502323 0.30538,0.01668 0.30538,0.02253 0.30538,0.246469 0.30538,0.709973 0.30538,0.07858 0.30538,-0.204968 0.305381,-0.167228 0.30538,-0.17317 0.30538,-0.571189 0.30538,-0.704679 0.30538,-1.424577 0.30538,0.846454 0.30538,0.284176 0.30538,0.222329 0.30538,0.563241 0.30538,-0.139047 0.30538,-0.03671 0.30538,-0.393444 0.30538,-0.285553 0.305381,-0.157218 0.30538,0.295606 0.30538,0.864564 0.30538,-0.81808 0.30538,-0.228331 0.30538,-0.555242 0.30538,-0.243011 0.30538,-0.204243 0.30538,-0.364051 0.30538,-0.67426 0.30538,0.696327 0.30538,0.202651 0.305381,0.486839 0.30538,1.194529 0.30538,-0.06677 0.30538,-0.396506 0.30538,0.366045 0.30538,1.155053 0.30538,0.116023 0.30538,-0.294527 0.30538,-1.088228 0.30538,-1.299322 0.30538,-0.343924 0.30538,0.201897 0.305381,0.187127 0.30538,0.796405 0.30538,1.915803 0.30538,1.541378 0.30538,1.390574 0.30538,1.047661 0.30538,0.509984 0.30538,-0.465517 0.30538,-1.102843 0.30538,-1.328606 0.30538,-2.762893 0.30538,-2.756543 0.30538,-2.132707 0.305381,-2.50584 0.30538,-2.453138 0.30538,-1.887592 0.30538,-1.644625 0.30538,-2.140635 0.30538,-1.866615 0.30538,-1.332673 0.30538,-1.2985 0.30538,-1.282249 0.30538,-1.277248 0.30538,-1.051686 0.30538,-0.300126 0.305381,-0.08481 0.30538,-0.254055 0.30538,-0.07631 0.30538,0.275029 0.30538,0.230398 0.30538,0.313035 0.30538,0.783818 0.30538,1.330933 0.30538,0.876989 0.30538,1.412514 0.30538,1.605121 0.30538,-0.002 0.305381,1.000772 0.30538,0.189713 0.30538,0.742888 0.30538,0.327066 0.30538,0.827133 0.30538,1.872445 0.30538,1.759456 0.30538,0.0782 0.30538,0.919807 0.30538,0.08147 0.30538,0.546366 0.30538,0.51747 0.30538,0.525251 0.305381,1.489799 0.30538,2.652698 0.30538,2.336049 0.30538,1.393562 0.30538,0.685147 0.30538,0.173057 0.30538,0.03622 0.30538,0.34887 0.30538,0.176456 0.30538,1.121441 0.30538,0.490746 0.30538,-0.532362 0.305381,0.174283 0.30538,-0.0208 0.30538,-0.722509 0.30538,1.352628 0.30538,0.769792 0.30538,0.799733 0.30538,1.017331 0.30538,0.326993 0.30538,-0.42714 0.30538,-0.21832 0.30538,0.255607 0.30538,0.473181 0.30538,1.078507 0.305381,-0.0255 0.30538,0.95491 0.30538,-0.0591 0.30538,0.11885 0.30538,-1.12956 0.30538,-1.989714 0.30538,-1.823248 0.30538,-1.991789 0.30538,-0.436546 0.30538,-0.852577 0.30538,-1.230566 0.30538,-1.376732 0.305381,-0.581769 0.30538,-9.51e-4 0.30538,-1.41663 0.30538,-2.523595 0.30538,-2.240706 0.30538,0.06863 0.30538,-0.834001 0.30538,-0.134468 0.30538,-0.724186 0.30538,0.317968 0.30538,0.200289 0.30538,0.582036 0.305381,1.902317 0.30538,1.991009 0.30538,1.565448 0.30538,0.09632 0.30538,-0.482061 0.30538,-0.174376 0.30538,-0.245921 0.30538,-0.106023 0.30538,0.818966 0.30538,-0.517298 0.30538,0.05583 0.30538,0.07471 0.30538,-0.158479 0.305381,-0.01916 0.30538,-0.106048 0.30538,-0.781727 0.30538,-1.257246 0.30538,-1.665852 0.30538,-0.733828 0.30538,2.957416 0.30538,0.971651 0.30538,0.88752 0.30538,0.851575 0.30538,0.841434 0.30538,0.512104 0.305381,0.950902 0.30538,-2.011498 0.30538,-0.886135 0.30538,0.606341 0.30538,2.206989 0.30538,1.719091 0.30538,1.02474 0.30538,0.646084 0.30538,0.745468 0.30538,0.862769 0.30538,1.477755 0.30538,0.09574 0.305381,-0.222098 0.30538,0.357248 0.30538,1.014562 0.30538,1.043503 0.30538,0.0993 0.30538,-0.161616 0.30538,-1.334467 0.30538,-1.481395 0.30538,-0.811649 0.30538,-1.3427 0.30538,-1.299092 0.30538,-1.420946 0.30538,-2.372599 0.305382,-2.286037 0.30538,-2.029305 0.30538,-1.962254 0.30538,-1.231684 0.30538,-0.630145 0.30538,-0.433154 0.30538,-0.891836 0.30538,0.09231 0.30538,-0.06439 0.30538,-1.39531 0.30538,-0.156373 0.30538,0.36762 0.30538,-0.381503 0.30538,0.456337 0.30538,0.506193 0.30538,1.444776 0.30538,0.85056 0.30538,-0.545353 0.30538,0.250198 0.30538,-0.684712 0.30538,-0.595386 0.30538,0.655058 0.30538,-0.851105 0.30538,-1.111011 0.30538,-2.374252 0.30538,-0.08121 0.30538,0.983445 0.30538,1.190574 0.30538,0.652311 0.30538,0.438605 0.30538,0.10961 0.30538,-0.06404 0.30538,-0.349788 0.30538,-0.334678 0.30538,-0.43322 0.30538,-0.514405 0.30538,-0.445974 0.30538,-0.09468 0.30538,-0.443734 0.30538,-0.393998 0.30538,-0.61435 0.30538,-0.758252 0.30538,-0.701394 0.30538,0.35029 0.30538,-0.103317 0.30538,0.09112 0.30538,-0.829971 0.30538,-0.676924 0.30538,-0.50791 0.30538,-0.625591 0.30538,1.59839 0.30538,2.313367 0.30538,0.813599 0.30538,0.593558 0.30538,-0.760132 0.30538,0.165627 0.30538,0.494935 0.30538,0.221912 0.30538,-0.0284 0.30538,-0.15546 0.30538,-1.517823 0.30538,-1.433575 0.30538,-1.267789 0.30538,-0.553983 0.30538,-0.199075 0.30538,-0.06886 0.30538,-0.12088 0.30538,-0.135745 0.30538,-2.764655 0.30538,-2.133954 0.30538,-0.870922 0.30538,-0.146821 0.30538,1.745364 0.30538,4.536771 0.30538,4.204059 0.30538,4.067843 0.30538,3.751062 0.30538,2.737744 0.30538,2.091699 0.30538,1.641961 0.30539,1.774727 0.30538,1.408272 0.30538,1.070288 0.30538,0.758617 0.30538,0.440798 0.30538,0.305203 0.30538,-0.899668 0.30538,-1.456354 0.30538,-1.390739 0.30538,-1.503159 0.30538,-1.433774 0.30538,-1.321606 0.30538,-1.283782 0.30538,-1.328302 0.30538,-1.276866 0.30538,-1.603614 0.30538,-1.54647 0.30538,-1.50492 0.30538,0.215493 0.30538,-0.978904 0.30538,-0.938035 0.30538,-0.867314 0.30538,-0.563115 0.30538,-0.280767 0.30538,-0.206426 0.30538,-0.426012 0.30538,-0.392944 0.30538,-0.42083 0.30538,-0.408329 0.30538,-0.183776 0.30538,-0.02528 0.30538,0.07179 0.30538,0.111306 0.30538,0.03014 0.30538,-0.03483 0.30538,-0.162753 0.30538,-0.307782 0.30538,-0.28383 0.30538,-0.714116 0.30538,-0.396318 0.30538,-0.239779 0.30538,-0.945988 0.30538,0.663097 0.30538,-2.759364 0.30538,-1.937742 0.30538,-1.713029 0.30538,-1.044051 0.30538,0.01819 0.30538,0.13541 0.30538,0.137577 0.30538,0.299807 0.30538,0.445572 0.30538,0.367443 0.30538,0.214757 0.30538,0.04111 0.30538,0.292274 0.30538,0.751162 0.30538,0.417353 0.30538,0.397897 0.30538,0.453942 0.30538,0.803308 0.30538,0.539606 0.30538,0.334041 0.30538,0.470559 0.30538,0.840878 0.30538,0.553615 0.30538,0.546097 0.30538,0.01198 0.30538,0.08278 0.30538,-0.0504 0.30538,0.18856 0.30538,0.136527 0.30538,-0.119653 0.30538,0.09967 0.30538,0.431128 0.30538,0.777151 0.30538,0.261728 0.30538,0.346808 0.30538,-0.232461 0.30538,0.604273 0.30538,0.0487 0.30538,-0.467805 0.30538,-0.338918 0.30538,-0.29003 0.30538,0.202091 0.30538,0.739968 0.30538,0.591831 0.30538,0.117046 0.30538,-0.724409 0.30538,-1.58922 0.30538,0.485917 0.30538,-0.274019 0.30538,-0.831093 0.30538,-1.19614 0.30538,-0.633499 0.30538,1.361342 0.30538,0.956399 0.30538,-0.477434 0.30538,0.259305 0.30538,-0.351275 0.30538,0.462567 0.30538,0.455682 0.30538,-0.761398 0.30538,-0.845733 0.30538,-0.844079 0.30538,-0.502568 0.30538,-0.634116 0.30538,-0.372576 0.30538,0.340029 0.30538,0.640391 0.30538,0.63187 0.30538,0.09758 0.30538,-0.129354 0.30538,-0.464754 0.30538,-0.452757 0.30538,-0.384101 0.30538,0.653189 0.30538,0.578652 0.30538,0.174099 0.30538,0.363736 0.30538,0.677773 0.30538,0.182567 0.30538,0.933595 0.30538,0.174925 0.30539,0.36616 0.30538,0.776175 0.30538,0.67287 0.30538,0.657214 0.30538,0.523896 0.30538,0.67503 0.30538,0.191062 0.30538,0.12522 0.30538,0.02811 0.30538,-0.850463 0.30538,0.08281 0.30538,-1.356861 0.30538,1.453541 0.30538,1.601157 0.30538,0.03427 0.30538,-0.563683 0.30538,-0.303646 0.30538,-0.113713 0.30538,-0.599627 0.30538,-0.319662 0.30538,0.016 0.30538,-1.247098 0.30538,0.97233 0.30538,-1.078831 0.30538,-0.21838 0.30538,-1.284661 0.30538,-0.935132 0.30538,-1.260992 0.30538,1.095142 0.30538,2.418087 0.30538,1.012309 0.30538,-0.320935 0.30538,-0.728522 0.30538,-1.25417 0.30538,-2.043869 0.30538,0.419646 0.30538,0.510619 0.30538,0.415496 0.30538,0.585175 0.30538,-0.118367 0.30538,-0.933212 0.30538,-0.0244 0.30538,0.361154 0.30538,0.743215 0.30538,0.475286 0.30538,0.661116 0.30538,0.441812 0.30538,0.05142 0.30538,-0.470942 0.30538,-0.618321 0.30538,0.179703 0.30538,0.464411 0.30538,0.521716 0.30538,0.439841 0.30538,-0.236081 0.30538,-0.35508 0.30538,-0.281236 0.30538,-0.504982 0.30538,-0.606288 0.30538,-0.928813 0.30538,-0.264043 0.30538,0.591103 0.30538,0.270803 0.30538,-0.05606 0.30538,-0.06599 0.30538,-0.0295 0.30538,0.569438 0.30538,0.108772 0.30538,0.02291 0.30538,-0.434561 0.30538,-0.463574 0.30538,-0.760346 0.30538,-0.368872 0.30538,-0.685486 0.30538,-0.768423 0.30538,0.0167 0.30538,-0.0162 0.30538,0.0511 0.30538,0.64465 0.30538,0.304219 0.30538,0.391757 0.30538,0.856683 0.30538,1.419917 0.30538,1.014843 0.30538,1.260322 0.30538,1.041858 0.30538,3.45e-4 0.30538,-0.196598 0.30538,-1.095591 0.30538,-0.09512 0.30538,0.274774 0.30538,0.216776 0.30538,-0.176534 0.30538,-0.165565 0.30538,-0.07107 0.30538,1.085968 0.30538,1.186859 0.30538,-0.08697 0.30538,-0.68185 0.30538,-0.612092 0.30538,-1.029174 0.30538,-0.770946 0.30538,0.01265 0.30538,1.424603 0.30538,0.498162 0.30538,2.639647 0.30538,0.748542 0.30538,-1.7265 0.30538,-1.453801 0.30538,-1.175934 0.30538,-1.397508 0.30538,-0.905684 0.30538,0.393377 0.30538,0.939381 0.30538,0.161188 0.30538,-0.04857 0.30538,0.07524 0.30538,-0.173422 0.30538,0.02633 0.30538,3.158173 0.30538,2.345022 0.30538,0.639256 0.30538,3.167285 0.30538,2.257772 0.30539,-1.009012 0.30538,0.416363 0.30538,1.962641 0.30538,1.547977 0.30538,-0.624783 0.30538,0.619408 0.30538,-1.723952 0.30538,-1.436449 0.30538,-0.82592 0.30538,-0.763153 0.30538,-1.647678 0.30538,-2.030543 0.30538,-1.33937 0.30538,0.850347 0.30538,-0.710938 0.30538,-1.014002 0.30538,-1.668088 0.30538,-0.88528 0.30538,-0.911792 0.30538,-0.973809 0.30538,-0.369793 0.30538,-1.169898 0.30538,-0.406535 0.30538,-0.05752 0.30538,-0.913047 0.30538,-1.1627 0.30538,0.15772 0.30538,-2.082172 0.30538,0.293295 0.30538,-2.633595 0.30538,-0.789559 0.30538,0.699498 0.30538,-0.456169 0.30538,1.123971 0.30538,-0.979113 0.30538,1.603242 0.30538,-0.900275 0.30538,0.417657 0.30538,-2.557383 0.30538,-0.845501 0.30538,0.830514 0.30538,1.024622 0.30538,-1.107655 0.30538,1.8576 0.30538,2.192592 0.30538,1.022852 0.30538,-0.590215 0.30538,1.169963 0.30538,-1.015989 0.30538,-0.191449 0.30538,1.418754 0.30538,-3.107893 0.30538,1.975916 0.30538,0.164116 0.30538,-1.716499 0.30538,-0.28152 0.30538,0.353436 0.30538,0.226643 0.30538,-1.077818 0.30538,-0.484994 0.30538,-0.602923 0.30538,-1.652985 0.30538,-0.11513 0.30538,0.830974 0.30538,-2.09055 0.30538,-1.614735 0.30538,-1.427768 0.30538,0.04039 0.30538,-1.294796 0.30538,-0.512346 0.30538,-1.097754 0.30538,0.07671 0.30538,0.490493 0.30538,0.530279 0.30538,-1.953548 0.30538,1.184782 0.30538,-2.58252 0.30538,-1.074084 0.30538,0.604346 0.30538,-1.848743 0.30538,-2.506766 0.30538,-1.098898 0.30538,-1.757869 0.30538,-1.232302 0.30538,-0.907071 0.30538,0.341161 0.30538,-0.236858 0.30538,2.694654 0.30538,-0.03603 0.30538,0.88566 0.30538,-0.761561 0.30538,0.507392 0.30538,-2.53161 0.30538,-2.237995 0.30538,-3.415365 0.30538,-2.199685 0.30538,1.18593 0.30538,2.240486 0.30538,-3.032712 0.30538,0.333581 0.30538,-0.620358 0.30538,-0.584384 0.30538,0.401565 0.30538,0.220774 0.30538,1.41187 0.30538,2.086214 0.30538,3.767413 0.30538,0.447479 0.30538,1.229882 0.30538,-0.155344 0.30538,-1.95857 0.30538,-1.197165 0.30538,-0.420393 0.30538,0.543637 0.30538,1.34047 0.30538,1.142307 0.30538,1.727592 0.30538,1.747397 0.30538,1.619651 0.30538,-1.647444 0.30538,-0.490491 0.30538,-1.539446 0.30538,0.657934 0.30538,1.205891 0.30539,-2.062882 0.30538,-1.775336 0.30538,0.314699 0.30538,0.651683 0.30538,2.330866 0.30538,2.824974 0.30538,1.404252 0.30538,2.292369 0.30538,2.14936 0.30538,1.02431 0.30538,-0.323421 0.30538,-0.02159 0.30538,0.521323 0.30538,0.37413 0.30538,-0.08906 0.30538,-0.336595 0.30538,-0.491576 0.30538,0.770273 0.30538,0.666404 0.30538,0.868346 0.30538,0.783524 0.30538,0.717961 0.30538,-0.909439 0.30538,-1.698965 0.30538,-0.03303 0.30538,0.06747 0.30538,-0.04034 0.30538,0.19142 0.30538,0.537972 0.30538,0.73757 0.30538,0.04738 0.30538,0.533131 0.30538,-0.139467 0.30538,-0.996148 0.30538,-0.355245 0.30538,0.377521 0.30538,1.000767 0.30538,0.669079 0.30538,-0.0186 0.30538,1.314071 0.30538,0.646208 0.30538,1.268087 0.30538,0.920606 0.30538,0.01649 0.30538,0.814614 0.30538,0.451412 0.30538,-1.219427 0.30538,0.110724 0.30538,-2.121873 0.30538,-0.590879 0.30538,-2.250615 0.30538,-3.98278 0.30538,-4.045568 0.30538,-1.535274 0.30538,1.387986 0.30538,2.109625 0.30538,-0.6741 0.30538,0.01258 0.30538,0.367239 0.30538,0.988681 0.30538,0.312233 0.30538,1.118405 0.30538,-1.318931 0.30538,0.555515 0.30538,1.902565 0.30538,1.008844 0.30538,-0.03669 0.30538,0.918596 0.30538,0.395824 0.30538,-0.1827 0.30538,-0.897903 0.30538,-0.771089 0.30538,0.363857 0.30538,0.408005 0.30538,1.937616 0.30538,2.247425 0.30538,1.824965 0.30538,0.223556 0.30538,0.414516 0.30538,0.965867 0.30538,1.041673 0.30538,0.636251 0.30538,0.655617 0.30538,1.779041 0.30538,0.144232 0.30538,0.661632 0.30538,0.858662 0.30538,0.57227 0.30538,-1.519763 0.30538,-1.191202 0.30538,1.073649 0.30538,0.03095 0.30538,-0.636423 0.30538,-1.687428 0.30538,-2.135092 0.30538,-1.523391 0.30538,-1.977656 0.30538,-1.97012 0.30538,-2.376587 0.30538,-2.763748 0.30538,-1.056842 0.30538,1.624125 0.30538,-0.05919 0.30538,-0.226354 0.30538,-0.32193 0.30538,-0.307926 0.30538,-1.796178 0.30538,-2.071627 0.30538,-1.934248 0.30538,-1.393469 0.30538,-0.823407 0.30538,4.392174 0.30538,-2.245545 0.30538,-2.338777 0.30538,-2.164444 0.30538,-2.172074 0.30538,-1.549681 0.30538,-0.506054"
                     style="fill:none"
                     fill="none"
                     id="path127" />
                </g>
                <g
                   id="g133">
                  <path
                     stroke="#33bbee"
                     stroke-width="2px"
                     d="m 3.1555193,127.09604 0.2498564,-0.50197 0.2498565,-0.58802 0.2498564,-0.57032 0.2498564,-0.64374 0.2498564,-0.66984 0.2498565,-0.77516 0.2498564,-0.4976 0.2498564,-0.64847 0.2498565,-0.47415 0.2498564,-0.46628 0.2498564,-0.51769 0.2498564,-0.47764 0.2498565,-0.50736 0.2498564,-0.4426 0.2498564,-0.28528 0.2498565,-0.0902 0.2498564,-0.0841 0.2498564,-0.12621 0.2498565,-0.13648 0.2498564,0.0433 0.2498564,-0.004 0.2498564,0.028 0.2498565,0.0158 0.2498564,0.0507 0.2498564,0.0584 0.2498565,0.0219 0.2498564,0.0391 0.2498561,-0.0256 0.249857,-0.0129 0.249856,-0.0508 0.249857,-0.023 0.249856,-0.0112 0.249856,0.0359 0.249857,-0.011 0.249856,-0.10905 0.249857,-0.13324 0.249856,-0.25052 0.249857,-0.18225 0.249856,-0.0933 0.249856,-0.0732 0.249857,0.009 0.249856,-0.0973 0.249857,-0.0296 0.249856,-0.27044 0.249857,-0.40946 0.249856,-0.55388 0.249856,-1.34234 0.249857,-0.92399 0.249856,-0.73723 0.249857,-1.758 0.249856,-1.03487 0.249857,-0.58173 0.249856,-0.36485 0.249856,-0.53259 0.249857,-0.9908 0.249856,-0.0517 0.249857,-1.4038 0.249856,-0.17457 0.249857,0.64573 0.249856,-0.47103 0.249857,-0.70512 0.249856,-0.96764 0.249856,-0.63992 0.249857,-0.41594 0.249856,-0.37066 0.249857,-0.51919 0.249856,-0.70895 0.249857,-0.47339 0.249856,-0.41815 0.249856,-0.20778 0.249857,-0.35793 0.249856,-0.0211 0.249857,-0.1142 0.249856,-0.20014 0.249857,-0.42394 0.249856,-0.612701 0.249856,-0.365493 0.249857,-0.262591 0.249856,-0.03538 0.249857,-0.1235 0.249856,-0.200671 0.249857,0.04494 0.249856,-0.294083 0.249856,-0.09103 0.249857,-0.784894 0.249856,0.640375 0.249857,-0.730314 0.249856,-0.46832 0.249857,0.0098 0.249856,0.227828 0.249856,0.137419 0.249857,0.179099 0.249856,0.235287 0.249857,0.581941 0.249856,0.07251 0.249857,-0.01985 0.249856,0.529097 0.249856,0.976707 0.249857,2.330608 0.249856,1.7935 0.249857,1.28809 0.249856,0.67986 0.249857,0.0524 0.249856,-0.12892 0.249856,-0.0189 0.249857,-1.08706 0.249856,-0.24095 0.249857,0.35601 0.249856,0.0997 0.249857,0.9694 0.249856,0.88693 0.249856,0.009 0.249857,-0.74269 0.249856,1.08973 0.249857,1.17162 0.249856,-0.3616 0.249857,0.60124 0.249856,1.05689 0.249856,-0.0537 0.249857,-0.56473 0.249856,0.76367 0.249857,0.46978 0.249856,-0.88352 0.249857,-1.65212 0.249856,-0.64988 0.249856,0.47981 0.249857,0.51703 0.249856,0.46339 0.249857,0.4275 0.249856,0.84957 0.249857,0.60699 0.249856,0.47214 0.249856,0.18832 0.249857,0.48857 0.249856,0.58628 0.249857,0.70925 0.249856,0.42985 0.249857,-0.0104 0.249856,0.15219 0.249856,0.17753 0.249857,0.0261 0.249856,-0.13384 0.249857,-0.10145 0.249856,-0.21361 0.249857,-0.33456 0.249856,-0.12796 0.249856,0.27288 0.249857,-0.35251 0.249856,0.0993 0.249857,-0.45583 0.249856,-0.31351 0.249857,-0.56361 0.249856,-0.002 0.249856,-0.13702 0.249857,0.0117 0.249856,-0.10585 0.249857,0.0306 0.249856,0.22812 0.249857,-0.0329 0.249856,-0.0763 0.249856,-0.14352 0.249857,0.1238 0.249856,0.0108 0.249857,0.13384 0.249856,0.23531 0.249857,0.22485 0.249856,0.0252 0.249856,1.01544 0.249857,-0.17111 0.249856,0.60165 0.249857,0.14179 0.249856,0.61024 0.249857,0.10743 0.249856,-0.16103 0.249856,-0.17939 0.249857,-0.054 0.249856,-0.0298 0.249857,-0.32991 0.249856,-0.65792 0.249857,0.96418 0.249856,0.006 0.249857,1.06798 0.249856,0.50238 0.249856,0.93579 0.249857,-0.79882 0.249856,-0.26958 0.249857,-0.6589 0.249856,0.33913 0.249857,-0.21859 0.249856,-0.19304 0.249856,0.81244 0.249857,0.17547 0.249856,0.28185 0.249857,0.36794 0.249856,0.81535 0.249857,0.18067 0.249856,-0.0137 0.249856,-0.47609 0.249857,0.27649 0.249856,0.4958 0.249857,1.09435 0.249856,-0.0414 0.249857,-0.5863 0.249856,0.70503 0.249856,-1.19322 0.249857,-0.60868 0.249856,0.31068 0.249857,0.0728 0.249856,-0.0335 0.249857,0.53612 0.249856,-0.40258 0.249856,0.0837 0.249857,0.0395 0.249856,0.9356 0.249857,1.12334 0.249856,0.29017 0.249857,0.0334 0.249856,-0.95466 0.249856,-0.41126 0.249857,-0.79707 0.249856,0.36865 0.249857,0.14129 0.249856,-0.5246 0.249857,0.10721 0.249856,-0.38536 0.249856,-0.15853 0.249857,-0.43826 0.249856,0.52535 0.249857,0.51363 0.249856,0.28973 0.249857,-0.64565 0.249856,0.0463 0.249856,-0.73513 0.249857,0.28719 0.249856,-0.54315 0.249857,0.28029 0.249856,0.81199 0.249857,0.36427 0.249856,-0.2903 0.249856,-0.39289 0.249857,-0.37371 0.249856,0.17104 0.249857,0.4444 0.249856,0.37981 0.249857,0.50971 0.249856,0.099 0.249856,0.2768 0.249857,-0.38508 0.249856,-0.42769 0.249857,-0.29997 0.249856,0.12417 0.249857,0.86111 0.249856,-0.39379 0.249856,-0.4771 0.249857,0.4044 0.249856,0.25049 0.249857,0.33716 0.249856,-0.11391 0.249857,-0.0823 0.249856,-0.13401 0.249856,0.47536 0.249857,0.17202 0.249856,0.17213 0.249857,0.12031 0.249856,0.38392 0.249857,0.72625 0.249856,0.36094 0.249856,-0.7918 0.249857,0.73953 0.249856,-0.0892 0.249857,0.24931 0.249856,-0.28436 0.249857,-0.13909 0.249856,0.0216 0.249856,0.20287 0.249857,-0.89113 0.249856,-0.18878 0.249857,-0.044 0.249856,0.62426 0.249857,0.44532 0.249856,0.33959 0.249856,-0.13752 0.249857,0.43212 0.249856,-1.54189 0.249857,-0.26372 0.249856,-0.1857 0.249857,0.75199 0.249856,-1.05463 0.249856,-0.37558 0.249857,-1.15008 0.249856,0.84851 0.249857,0.53399 0.249856,-0.19432 0.249857,-0.12856 0.249856,0.093 0.249856,0.5511 0.249857,0.41715 0.249856,-0.0352 0.249857,-0.20906 0.249856,-0.31939 0.249857,-0.57264 0.249856,0.0756 0.249857,-0.7156 0.249856,0.34947 0.249856,0.011 0.249857,-0.74668 0.249856,0.10695 0.249857,0.65033 0.249856,-0.40493 0.249857,0.0296 0.249856,0.0852 0.249856,0.24177 0.249857,0.43903 0.249856,0.32863 0.249857,0.0474 0.249856,-0.80931 0.249857,-0.46152 0.249856,0.59248 0.249856,-0.17101 0.249857,0.0689 0.249856,1.31101 0.249857,1.15851 0.249856,-0.0514 0.249857,0.25107 0.249856,0.40313 0.249856,0.49392 0.249857,-0.713 0.249856,0.37971 0.249857,-0.43396 0.249856,-0.24475 0.249857,-0.19806 0.249856,0.24733 0.249856,0.27151 0.249857,0.56425 0.249856,0.7089 0.249857,-0.76488 0.249856,0.11617 0.249857,-0.56568 0.249856,0.13826 0.249856,0.0767 0.249857,0.28692 0.249856,0.0119 0.249857,0.38866 0.249856,-0.3272 0.249857,-0.30473 0.249856,-0.1102 0.249856,-0.50438 0.249857,0.27011 0.249856,0.47157 0.249857,-0.0456 0.249856,-0.56815 0.249857,-1.56545 0.249856,-0.73785 0.249856,-0.83506 0.249857,-0.71295 0.249856,-0.33851 0.249857,0.0306 0.249856,-0.32361 0.249857,-0.25775 0.249856,-0.0962 0.249856,0.0974 0.249857,-0.31746 0.249856,-0.5677 0.249857,0.43959 0.249856,0.83194 0.249857,0.72756 0.249856,0.19727 0.249856,0.38658 0.249857,0.80555 0.249856,0.60461 0.249857,-0.73552 0.249856,0.13179 0.249857,-0.006 0.249856,0.96734 0.249856,0.022 0.249857,0.0218 0.249856,0.0196 0.249857,0.62321 0.249856,0.10003 0.249857,0.70432 0.249856,-0.80253 0.249856,0.22466 0.249857,-0.96315 0.249856,-0.45564 0.249857,-0.10012 0.249856,0.15571 0.249857,-0.47884 0.249852,-2.08364 0.24986,-2.85549 0.24986,-2.10506 0.24985,-1.99719 0.24986,-1.62493 0.24986,-0.48459 0.24985,1.24117 0.24986,0.69521 0.24986,1.36384 0.24985,0.52281 0.24986,0.99137 0.24985,-0.2554 0.24986,0.5608 0.24986,0.81203 0.24985,0.83747 0.24986,0.33733 0.24986,0.78867 0.24985,0.75216 0.24986,0.55982 0.24986,1.47161 0.24985,0.96664 0.24986,0.6191 0.24986,0.94626 0.24985,0.95163 0.24986,0.87262 0.24985,0.46211 0.24986,0.25257 0.24986,-0.12634 0.24985,-0.86894 0.24986,0.79672 0.24986,0.10424 0.24985,-0.0219 0.24986,0.78968 0.24986,-0.28761 0.24985,0.82223 0.24986,-0.26871 0.24986,0.0788 0.24985,-0.49918 0.24986,0.0262 0.24985,-0.56831 0.24986,-1.03927 0.24986,1.71851 0.24985,1.24528 0.24986,0.18994 0.24986,0.87632 0.24985,0.94347 0.24986,-0.0315 0.24986,-0.52776 0.24985,-2.50698 0.24986,0.0301 0.24986,0.21572 0.24985,-0.88631 0.24986,-2.45744 0.24985,-0.48897 0.24986,0.34479 0.24986,-0.21658 0.24985,0.82798 0.24986,0.34891 0.24986,0.10763 0.24985,0.38857 0.24986,-0.24686 0.24986,0.65749 0.24985,1.49886 0.24986,0.16131 0.24986,-1.10834 0.24985,1.76935 0.24986,-1.93897 0.24985,0.18123 0.24986,-0.43623 0.24986,0.20758 0.24985,1.24622 0.24986,-1.15744 0.24986,1.47318 0.24985,0.17519 0.24986,-0.19013 0.24986,-0.63172 0.24985,0.39515 0.24986,0.33491 0.24986,-1.02747 0.24985,0.1471 0.24986,0.10811 0.24985,1.21665 0.24986,-0.79569 0.24986,-0.99542 0.24985,-0.25695 0.24986,0.82996 0.24986,-1.18515 0.24985,-0.16766 0.24986,0.11293 0.24986,0.6057 0.24985,-0.41682 0.24986,-0.0173 0.24986,-1.82715 0.24985,0.67197 0.24986,0.40389 0.24985,-1.1039 0.24986,-0.48813 0.24986,1.9854 0.24985,1.12735 0.24986,-1.01658 0.24986,-3.12922 0.24985,0.0239 0.24986,1.40595 0.24986,0.3689 0.24985,0.8481 0.24986,0.14192 0.24986,0.61289 0.24985,-0.14077 0.24986,-0.33824 0.24985,-0.41372 0.24986,-0.87363 0.24986,-0.91468 0.24985,1.062 0.24986,0.59842 0.24986,-2.17246 0.24985,0.17894 0.24986,-1.09806 0.24986,2.46066 0.24985,-0.28094 0.24986,1.41721 0.24986,-1.59986 0.24985,0.71108 0.24986,-0.14618 0.24985,0.11146 0.24986,0.67483 0.24986,0.0749 0.24985,-0.49985 0.24986,0.80475 0.24986,-0.82951 0.24985,0.12749 0.24986,0.13139 0.24986,-1.6455 0.24985,-0.23385 0.24986,-1.30867 0.24986,1.70178 0.24985,-2.33265 0.24986,0.52455 0.24985,2.64753 0.24986,-0.0206 0.24986,0.18478 0.24985,0.0369 0.24986,-3.21159 0.24986,3.02913 0.24985,-3.124 0.24986,-3.15328 0.24986,0.95731 0.24985,1.00478 0.24986,-0.4411 0.24986,-0.0333 0.24985,1.86692 0.24986,1.04689 0.24985,1.37668 0.24986,-0.19657 0.24986,3.04272 0.24985,-1.77996 0.24986,0.86492 0.24986,-2.75989 0.24985,0.94498 0.24986,-0.51718 0.24986,-1.17288 0.24985,0.84697 0.24986,-1.04009 0.24986,0.57248 0.24985,-4.22106 0.24986,1.17031 0.24985,-2.59002 0.24986,0.57614 0.24986,1.3876 0.24985,-0.0117 0.24986,0.84384 0.24986,0.0271 0.24985,-2.13609 0.24986,-0.914 0.24986,1.42746 0.24985,0.75033 0.24986,-1.11809 0.24986,2.32659 0.24985,-2.13933 0.24986,0.10909 0.24985,0.53226 0.24986,1.83511 0.24986,0.29481 0.24985,-2.27715 0.24986,2.28179 0.24986,1.44901 0.24985,-0.91044 0.24986,0.38802 0.24986,-1.77378 0.24985,-0.41114 0.24986,0.29252 0.24986,-3.91014 0.24985,-0.12685 0.24986,0.22668 0.24985,-0.25612 0.24986,-0.81541 0.24986,1.19756 0.24985,0.85362 0.24986,0.76251 0.24986,0.13684 0.24985,-2.16396 0.24986,-2.67362 0.24986,-0.94767 0.24985,1.49597 0.24986,-0.66831 0.24986,-3.95871 0.24985,-3.04787 0.24986,-0.0953 0.24985,1.50294 0.24986,-1.31966 0.24986,0.64583 0.24985,0.56539 0.24986,0.76004 0.24986,2.40455 0.24985,2.67083 0.24986,1.42633 0.24986,2.2758 0.24985,0.3695 0.24986,0.36039 0.24986,-1.64559 0.24985,-0.17805 0.24986,-0.0821 0.24986,-0.62136 0.24985,-1.19038 0.24986,1.87806 0.24985,1.52786 0.24986,-0.74761 0.24986,1.919 0.24985,-2.13474 0.24986,0.8934 0.24986,1.07529 0.24985,1.70346 0.24986,0.72098 0.24986,1.76472 0.24985,0.43723 0.24986,-1.27215 0.24986,1.0156 0.24985,2.99581 0.24986,-0.62053 0.24985,0.79651 0.24986,0.61875 0.24986,0.401 0.24985,0.19392 0.24986,-0.0728 0.24986,0.71656 0.24985,0.83694 0.24986,-0.10453 0.24986,-0.82585 0.24985,-1.4507 0.24986,0.65079 0.24986,-0.23783 0.24985,0.83753 0.24986,-0.43437 0.24985,-0.64573 0.24986,0.67738 0.24986,-0.34417 0.24985,0.34125 0.24986,0.94854 0.24986,0.92848 0.24985,0.90541 0.24986,0.71445 0.24986,-0.59821 0.24985,-1.26897 0.24986,1.68246 0.24986,-0.11288 0.24985,0.57759 0.24986,-0.69406 0.24985,-0.5229 0.24986,-0.1698 0.24986,1.20584 0.24985,-1.85833 0.24986,0.4311 0.24986,-0.35821 0.24985,0.62874 0.24986,0.0966 0.24986,-1.45619 0.24985,-1.01015 0.24986,0.75485 0.24986,-0.3323 0.24985,3.02172 0.24986,0.11403 0.24985,0.56691 0.24986,-1.46684 0.24986,-0.32768 0.24985,0.97058 0.24986,0.72062 0.24986,-0.61529 0.24985,0.83204 0.24986,-0.39324 0.24986,0.50473 0.24985,0.90022 0.24986,0.83955 0.24986,0.86979 0.24985,-0.35533 0.24986,0.29952 0.24985,-1.15098 0.24986,0.34051 0.24986,0.0595 0.24985,-0.68718 0.24986,-0.43735 0.24986,-0.58878 0.24985,0.99757 0.24986,-2.57828 0.24986,-1.55609 0.24985,-1.67642 0.24986,-0.40201 0.24986,-0.14379 0.24985,-0.31633 0.24986,1.41944 0.24985,0.54522 0.24986,-0.60096 0.24986,1.17054 0.24985,1.06859 0.24986,0.8722 0.24986,-0.26798 0.24985,0.59402 0.24986,0.63775 0.24986,-1.81624 0.24985,0.94301 0.24986,-0.80794 0.24986,1.63402 0.24985,-2.86521 0.24986,-0.4298 0.24985,0.8846 0.24986,0.47731 0.24986,1.82403 0.24985,-0.29386 0.24986,3.34846 0.24986,-0.43479 0.24985,-0.45848 0.24986,-2.74539 0.24986,0.1055 0.24985,-0.77365 0.24986,0.378 0.24986,-0.22038 0.24985,0.23842 0.24986,0.27827 0.24985,0.17973 0.24986,-1.03127 0.24986,-0.86375 0.24985,-0.78729 0.24986,-1.74074 0.24986,-0.9437 0.24985,1.29702 0.24986,0.0167 0.24986,-0.19861 0.24985,1.4183 0.24986,0.56284 0.24986,0.5356 0.24985,-0.73175 0.24986,-0.68224 0.24985,-0.26553 0.24986,-0.65392 0.24986,-0.0963 0.24985,0.85397 0.24986,-0.0685 0.24986,1.75731 0.24985,-1.82371 0.24986,-1.74995 0.24986,-2.07688 0.24985,0.62995 0.24986,-1.25452 0.24986,0.35867 0.24985,-0.93849 0.24986,-1.29686 0.24985,0.38627 0.24986,1.51622 0.24986,0.46298 0.24985,1.33973 0.24986,1.69555 0.24986,-0.008 0.24985,-1.70677 0.24986,-1.16742 0.24986,-0.1262 0.24985,-0.84029 0.24986,0.6898 0.24986,-2.90612 0.24985,-1.56857 0.24986,-1.84615 0.24985,-1.11853 0.24986,-3.12362 0.24986,-2.48333 0.24985,-1.82964 0.24986,-1.55157 0.24986,-1.04491 0.24985,-0.43444 0.24986,-0.27869 0.24986,-0.85269 0.24985,-0.61192 0.24986,0.60999 0.24986,-0.39981 0.24985,0.39338 0.24986,1.71323 0.24985,0.81787 0.24986,0.46775 0.24986,0.39269 0.24985,1.04227 0.24986,1.09287 0.24986,0.35027 0.24985,1.22372 0.24986,0.53738 0.24986,0.24642 0.24985,1.74183 0.24986,0.45953 0.24986,1.25161 0.24985,1.56678 0.24986,0.82389 0.24985,2.65164 0.24986,0.99107 0.24986,0.90409 0.24985,0.23928 0.24986,0.93673 0.24986,1.68192 0.24985,0.21704 0.24986,0.71696 0.24986,1.307 0.24985,-0.4531 0.24986,0.3708 0.24986,-0.73959 0.24985,0.15928 0.24986,0.60255 0.24985,0.43322 0.24986,0.76943 0.24986,0.7999 0.24985,0.53664 0.24986,0.75615 0.24986,-0.76994 0.24985,-0.005 0.24986,-0.47092 0.24986,-1.81659 0.24985,0.49115 0.24986,0.67908 0.24986,-0.27324 0.24985,1.70633 0.24986,0.25651 0.24985,1.68639 0.24986,0.98202 0.24986,0.62301 0.24985,0.70972 0.24986,1.68579 0.24986,-0.22084 0.24985,0.0985 0.24986,-0.22882 0.24986,0.15264 0.24985,0.09 0.24986,1.01229 0.24986,1.25582 0.24985,0.15112 0.24986,-0.55977 0.24985,0.98733 0.24986,-0.29677 0.24986,-0.006 0.24985,-0.72993 0.24986,-0.29311 0.24986,0.78313 0.24985,0.44515 0.24986,0.20811 0.24986,-0.15301 0.24985,-1.25264 0.24986,0.7074 0.24986,-1.91844 0.24985,0.99574 0.24986,0.2193 0.24985,0.75892 0.24986,0.29 0.24986,0.75069 0.24985,0.47629 0.24986,0.0409 0.24986,0.61417 0.24985,0.29671 0.24986,-0.0828 0.24986,-0.46384 0.24985,-0.49382 0.24986,1.03426 0.24986,0.61928 0.24985,-1.82014 0.24986,0.8715 0.24985,0.006 0.24986,0.0212 0.24986,0.846 0.24985,-1.02063 0.24986,0.88084 0.24986,-0.57905 0.24985,0.96447 0.24986,-0.79866 0.24986,-0.46405 0.24985,-0.58386 0.24986,-1.78314 0.24986,-0.14502 0.24985,-2.09226 0.24986,0.3881 0.24985,-0.17606 0.24986,-1.60342 0.24986,-0.44164 0.24985,-0.45728 0.24986,1.40629 0.24986,1.01996 0.24985,0.30355 0.24986,0.47712 0.24986,0.88106"
                     style="fill:none"
                     fill="none"
                     id="path131" />
                </g>
              </g>
            </g>
          </g>
          <g
             opacity="0.2"
             id="g153">
            <g
               id="g151">
              <g
                 id="g149">
                <g
                   id="g143">
                  <path
                     stroke="#ff7043"
                     stroke-width="2px"
                     d="m 3.2110429,127.59688 0.3053801,-0.82532 0.3053801,-0.27491 0.3053801,-0.28256 0.3053801,-0.48921 0.30538,-0.90021 0.3053801,-1.04055 0.3053801,-0.88548 0.3053801,1.08745 0.3053801,0.27982 0.3053801,-0.45601 0.30538,-1.23941 0.3053801,-0.16978 0.3053801,0.005 0.3053801,-0.38248 0.3053801,-1.12848 0.30538,-0.7758 0.3053801,2.21005 0.3053801,0.41679 0.3053801,0.38204 0.3053801,0.16125 0.30538,-0.7464 0.3053801,-0.68901 0.3053803,-0.46772 0.30538,0.0599 0.30538,-0.58657 0.30538,-0.18525 0.30538,1.01778 0.30538,0.98554 0.30538,-0.33615 0.30538,0.45654 0.30538,-0.81161 0.305381,-0.0826 0.30538,0.23981 0.30538,0.6429 0.30538,-0.12159 0.30538,0.56628 0.30538,0.0785 0.30538,0.471 0.30538,-0.34349 0.30538,-0.45176 0.30538,0.055 0.30538,-0.30065 0.30538,0.60147 0.30538,0.0522 0.305381,-0.36971 0.30538,0.37059 0.30538,0.16381 0.30538,0.73746 0.30538,-0.20452 0.30538,-0.0855 0.30538,-0.57188 0.30538,-1.98466 0.30538,-0.61124 0.30538,-3.59691 0.30538,3.60805 0.30538,2.34764 0.305381,-3.52387 0.30538,-1.84017 0.30538,-3.66698 0.30538,3.52038 0.30538,-2.16005 0.30538,-3.21947 0.30538,1.17172 0.30538,-10.38198 0.30538,-1.89827 0.30538,0.98974 0.30538,-0.60473 0.30538,-0.57207 0.305381,3.33504 0.30538,0.81479 0.30538,5.68697 0.30538,-1.85118 0.30538,-2.87063 0.30538,-3.87819 0.30538,9.80276 0.30538,-2.06827 0.30538,-0.73684 0.30538,0.54244 0.30538,-3.19798 0.30538,-4.25523 0.30538,3.51034 0.305381,-4.46715 0.30538,0.76829 0.30538,-2.884119 0.30538,-6.247451 0.30538,-1.365194 0.30538,4.204301 0.30538,5.321423 0.30538,0.4293 0.30538,-1.926516 0.30538,-2.315499 0.30538,1.027499 0.30538,-2.814259 0.305381,-0.719028 0.30538,4.408076 0.30538,-7.484118 0.30538,0.557033 0.30538,9.227902 0.30538,-0.61955 0.30538,1.40631 0.30538,-0.85582 0.30538,-3.161236 0.30538,-2.473603 0.30538,-3.306477 0.30538,1.778714 0.305381,3.044253 0.30538,1.697672 0.30538,-1.746129 0.30538,-3.760319 0.30538,5.892424 0.30538,-4.386236 0.30538,5.067237 0.30538,-2.696031 0.30538,-0.634229 0.30538,-0.09749 0.30538,-7.255806 0.30538,1.288663 0.30538,5.362669 0.305381,2.849453 0.30538,-0.770801 0.30538,-6.393971 0.30538,-7.36081 0.30538,2.963831 0.30538,1.772701 0.30538,4.687676 0.30538,0.07521 0.30538,2.261912 0.30538,4.881505 0.30538,-5.603981 0.30538,-2.756872 0.305381,0.172429 0.30538,-0.226634 0.30538,-4.153368 0.30538,-1.90609 0.30538,-7.903651 0.30538,21.28572 0.30538,-4.776323 0.30538,-0.334291 0.30538,3.63144 0.30538,-6.459627 0.30538,0.884295 0.30538,-3.604028 0.30538,0.685471 0.305381,0.997788 0.30538,4.371027 0.30538,5.985185 0.30538,-15.961873 0.30538,5.0794 0.30538,-3.497432 0.30538,2.567068 0.30538,0.144663 0.30538,-1.802323 0.30538,-3.466129 0.30538,13.031596 0.30538,-4.240423 0.305381,3.044518 0.30538,7.563745 0.30538,-11.418413 0.30538,-3.364175 0.30538,7.229012 0.30538,8.256116 0.30538,-9.235246 0.30538,-3.989473 0.30538,-8.231531 0.30538,-3.199174 0.30538,8.254655 0.30538,5.114283 0.305381,0.0542 0.30538,6.279903 0.30538,11.990389 0.30538,-1.82845 0.30538,0.0333 0.30538,-2.03856 0.30538,-4.32911 0.30538,-9.245014 0.30538,-6.838792 0.30538,-3.360461 0.30538,-15.671482 0.30538,-2.699395 0.30538,3.481824 0.305381,-5.864039 0.30538,-1.97882 0.30538,3.202313 0.30538,0.54209 0.30538,-6.604732 0.30538,0.599566 0.30538,3.472805 0.30538,-0.990935 0.30538,-1.135997 0.30538,-1.232247 0.30538,0.978379 0.30538,6.463915 0.305381,1.853079 0.30538,-1.777299 0.30538,1.523342 0.30538,3.437126 0.30538,-0.171279 0.30538,1.056767 0.30538,5.020863 0.30538,6.254966 0.30538,-3.208503 0.30538,6.232241 0.30538,3.338576 0.30538,-14.466425 0.305381,10.026029 0.30538,-7.109815 0.30538,5.721454 0.30538,-3.415329 0.30538,5.327741 0.30538,11.28025 0.30538,0.742549 0.30538,-15.053125 0.30538,8.494286 0.30538,-7.463604 0.30538,4.730475 0.30538,0.257405 0.30538,0.595277 0.305381,10.170737 0.30538,13.118788 0.30538,-0.5138 0.30538,-7.08881 0.30538,-5.690596 0.30538,-4.435754 0.30538,-1.19533 0.30538,3.162743 0.30538,-1.375275 0.30538,9.626302 0.30538,-5.18551 0.30538,-9.740326 0.305381,6.53408 0.30538,-1.776591 0.30538,-7.037838 0.30538,20.028845 0.30538,-4.47572 0.30538,1.06919 0.30538,2.97572 0.30538,-5.88605 0.30538,-7.214336 0.30538,1.661064 0.30538,4.520952 0.30538,2.43133 0.30538,6.52644 0.305381,-9.9617 0.30538,9.7787 0.30538,-9.18511 0.30538,1.72027 0.30538,-12.365138 0.30538,-9.731132 0.30538,-0.32505 0.30538,-3.508662 0.30538,13.560643 0.30538,-4.596864 0.30538,-4.632455 0.30538,-2.692233 0.305381,6.572899 0.30538,5.226406 0.30538,-14.157733 0.30538,-12.486279 0.30538,0.305287 0.30538,20.852614 0.30538,-8.957633 0.30538,6.161324 0.30538,-6.031649 0.30538,9.697353 0.30538,-0.858828 0.30538,4.017769 0.305381,13.784841 0.30538,2.78924 0.30538,-2.26461 0.30538,-13.12577 0.30538,-5.687542 0.30538,2.594788 0.30538,-0.889821 0.30538,1.153063 0.30538,9.143856 0.30538,-12.543667 0.30538,5.213983 0.30538,0.244628 0.30538,-2.257182 0.305381,1.234679 0.30538,-0.888009 0.30538,-6.862844 0.30538,-5.536911 0.30538,-5.343304 0.30538,7.654381 0.30538,36.178622 0.30538,-16.900239 0.30538,0.130339 0.30538,0.528074 0.30538,0.750154 0.30538,-2.45185 0.305381,4.900074 0.30538,-28.673102 0.30538,9.242141 0.30538,14.038625 0.30538,16.612814 0.30538,-2.67199 0.30538,-5.22441 0.30538,-2.76183 0.30538,1.63993 0.30538,1.91847 0.30538,7.01264 0.30538,-12.342456 0.305381,-3.082585 0.30538,5.571351 0.30538,6.9304 0.30538,1.30396 0.30538,-8.39834 0.30538,-2.509992 0.30538,-11.890162 0.30538,-2.803737 0.30538,5.216061 0.30538,-6.122152 0.30538,-0.906622 0.30538,-2.517638 0.30538,-10.93747 0.305382,-1.506984 0.30538,0.28128 0.30538,-1.358783 0.30538,5.343437 0.30538,4.783706 0.30538,1.339772 0.30538,-5.019978 0.30538,8.949631 0.30538,-1.474709 0.30538,-13.37358 0.30538,10.994062 0.30538,5.083556 0.30538,-7.12361 0.30538,7.996896 0.30538,0.954902 0.30538,9.892021 0.30538,-4.497386 0.30538,-13.108571 0.30538,7.410151 0.30538,-9.098892 0.30538,0.20855 0.30538,11.909041 0.30538,-14.406562 0.30538,-3.450168 0.30538,-13.743418 0.30538,20.556125 0.30538,10.565378 0.30538,3.054731 0.30538,-4.192054 0.30538,-1.484745 0.30538,-2.851354 0.30538,-1.626932 0.30538,-2.921475 0.30538,-0.198691 0.30538,-1.320097 0.30538,-1.245069 0.30538,0.169909 0.30538,3.066934 0.30538,-3.585194 0.30538,0.05363 0.30538,-2.59753 0.30538,-2.053362 0.30538,-0.189671 0.30538,9.815444 0.30538,-4.185776 0.30538,1.84101 0.30538,-9.119761 0.30538,0.700503 0.30538,1.013218 0.30538,-1.684718 0.30538,21.614219 0.30538,8.748155 0.30538,-12.684307 0.30538,-1.386814 0.30538,-12.943348 0.30538,8.497469 0.30538,3.458702 0.30538,-2.235297 0.30538,-2.281189 0.30538,-1.299008 0.30538,-13.779097 0.30538,-0.675347 0.30538,0.22429 0.30538,5.870274 0.30538,2.995088 0.30538,1.103059 0.30538,-0.589044 0.30538,-0.269519 0.30538,-26.424851 0.30538,3.542351 0.30538,10.496362 0.30538,6.370096 0.30538,18.775023 0.30538,29.659438 0.30538,1.20966 0.30538,2.84189 0.30538,0.90003 0.30538,-6.38212 0.30538,-3.72269 0.30538,-2.40569 0.30539,2.96962 0.30538,-1.88982 0.30538,-1.97157 0.30538,-2.04642 0.30538,-2.41958 0.30538,-0.91515 0.30538,-11.74351 0.30538,-6.466523 0.30538,-0.800203 0.30538,-2.514941 0.30538,-0.80931 0.30538,-0.312096 0.30538,-0.943363 0.30538,-1.728974 0.30538,-0.813953 0.30538,-4.54434 0.30538,-1.032185 0.30538,-1.130956 0.30538,15.699202 0.30538,-11.728476 0.30538,-0.570209 0.30538,-0.230833 0.30538,2.174681 0.30538,2.260365 0.30538,0.46264 0.30538,-2.402287 0.30538,-0.09532 0.30538,-0.671809 0.30538,-0.295826 0.30538,1.837207 0.30538,1.401139 0.30538,0.945485 0.30538,0.466928 0.30538,-0.700326 0.30538,-0.61955 0.30538,-1.314085 0.30538,-1.613049 0.30538,-0.06826 0.30538,-4.586696 0.30538,2.463876 0.30538,1.169067 0.30538,-7.301874 0.30538,15.144866 0.30538,-33.561503 0.30538,5.456842 0.30538,0.309399 0.30538,4.976738 0.30538,9.578421 0.30538,1.190334 0.30538,0.157087 0.30538,1.75988 0.30538,1.757447 0.30538,-0.335705 0.30538,-1.15943 0.30538,-1.52175 0.30538,2.552786 0.30538,4.881151 0.30538,-2.586919 0.30538,0.222787 0.30538,0.958351 0.30538,3.947603 0.30538,-1.833714 0.30538,-1.516047 0.30538,1.699219 0.30538,4.173751 0.30538,-2.031742 0.30538,0.478423 0.30538,-4.795113 0.30538,0.720001 0.30538,-1.249048 0.30538,2.33924 0.30538,-0.33177 0.30538,-2.425278 0.30538,2.073611 0.30538,3.414224 0.30538,3.891365 0.30538,-4.377084 0.30538,1.11252 0.30538,-5.445878 0.30538,8.134883 0.30538,-4.951404 0.30538,-5.116406 0.30538,0.821071 0.30538,0.149969 0.30538,4.631173 0.30538,5.580858 0.30538,-0.7414 0.30538,-4.156021 0.30538,-8.297496 0.30538,-9.372524 0.30538,19.162148 0.30538,-7.113441 0.30538,-5.844762 0.30538,-4.481558 0.30538,4.430271 0.30538,19.314903 0.30538,-2.688077 0.30538,-13.381936 0.30538,6.889946 0.30538,-5.846486 0.30538,7.787151 0.30538,0.393712 0.30538,-11.715124 0.30538,-1.604738 0.30538,-0.829205 0.30538,2.571046 0.30538,-1.818063 0.30538,1.981296 0.30538,6.753462 0.30538,3.343661 0.30538,0.555176 0.30538,-4.711065 0.30538,-2.171719 0.30538,-3.483372 0.30538,-0.344769 0.30538,0.233796 0.30538,9.988802 0.30538,-0.09218 0.30538,-3.466881 0.30538,2.070473 0.30538,3.504107 0.30538,-4.27429 0.30538,7.692846 0.30538,-6.6531 0.30539,2.087273 0.30538,4.466305 0.30538,-0.256875 0.30538,0.516314 0.30538,-0.675965 0.30538,2.035235 0.30538,-4.164643 0.30538,-0.46737 0.30538,-0.84583 0.30538,-8.75766 0.30538,8.482304 0.30538,-14.313936 0.30538,26.74716 0.30538,2.929699 0.30538,-14.067761 0.30538,-5.945213 0.30538,2.036693 0.30538,1.595675 0.30538,-4.972848 0.30538,2.200015 0.30538,3.036914 0.30538,-12.614937 0.30538,20.947184 0.30538,-19.539281 0.30538,7.525678 0.30538,-10.881187 0.30538,2.210626 0.30538,-4.193735 0.30538,22.300354 0.30538,14.324591 0.30538,-11.639698 0.30538,-12.320128 0.30538,-4.396803 0.30538,-5.985004 0.30538,-9.151152 0.30538,22.591272 0.30538,1.329382 0.30538,-0.440622 0.30538,2.112297 0.30538,-6.450253 0.30538,-8.266813 0.30538,8.154955 0.30538,3.831104 0.30538,4.181753 0.30538,-1.936067 0.30538,2.333581 0.30538,-1.531919 0.30538,-3.462106 0.30538,-5.172202 0.30538,-1.944732 0.30538,7.361916 0.30538,3.026789 0.30538,1.037447 0.30538,-0.29702 0.30538,-6.319384 0.30538,-1.426075 0.30538,0.383367 0.30538,-2.518699 0.30538,-1.518037 0.30538,-3.831545 0.30538,5.718889 0.30538,8.287416 0.30538,-2.611899 0.30538,-2.997786 0.30538,-0.155362 0.30538,0.298921 0.30538,5.959847 0.30538,-4.037222 0.30538,-0.749888 0.30538,-4.551768 0.30538,-0.724687 0.30538,-3.43129 0.30538,3.154387 0.30538,-3.535012 0.30538,-1.514854 0.30538,7.082802 0.30538,-0.312273 0.30538,0.656732 0.30538,5.986641 0.30538,-2.759657 0.30538,1.17959 0.30538,5.041023 0.30538,6.489028 0.30538,-2.630822 0.30538,3.469621 0.30538,-0.924307 0.30538,-9.373275 0.30538,-1.969093 0.30538,-9.186522 0.30538,8.909133 0.30538,3.603806 0.30538,-0.305199 0.30538,-3.716327 0.30538,-0.06685 0.30538,0.779423 0.30538,11.499279 0.30538,2.094877 0.30538,-11.551449 0.30538,-6.035761 0.30538,0.01574 0.30538,-4.782911 0.30538,1.553098 0.30538,7.065072 0.30538,14.132134 0.30538,-7.839808 0.30538,21.913006 0.30538,-16.2714 0.30538,-24.001872 0.30538,1.000485 0.30538,1.324873 0.30538,-3.391675 0.30538,3.520731 0.30538,12.084918 0.30538,5.853428 0.30538,-6.842551 0.30538,-1.936376 0.30538,1.189538 0.30538,-2.411395 0.30538,1.824076 0.30538,31.34478 0.30538,-4.97334 0.30538,-14.712642 0.30538,25.919542 0.30538,-5.92783 0.30539,-30.410083 0.30538,13.244744 0.30538,15.879149 0.30538,-2.18401 0.30538,-20.179612 0.30538,11.817122 0.30538,-22.814191 0.30538,1.151073 0.30538,4.668842 0.30538,-0.198249 0.30538,-9.608397 0.30538,-5.47634 0.30538,4.881195 0.30538,20.557805 0.30538,-14.762516 0.30538,-3.741573 0.30538,-7.554859 0.30538,6.159998 0.30538,-1.15041 0.30538,-1.531964 0.30538,5.066357 0.30538,-8.370845 0.30538,6.463738 0.30538,3.083647 0.30538,-8.61282 0.30538,-3.409581 0.30538,12.041501 0.30538,-22.241197 0.30538,21.672491 0.30538,-28.975604 0.30538,15.806772 0.30538,14.101009 0.30538,-10.857181 0.30538,15.345238 0.30538,-19.906864 0.30538,24.84443 0.30538,-23.431929 0.30538,12.279055 0.30538,-29.332752 0.30538,14.561437 0.30538,15.914651 0.30538,2.771594 0.30538,-20.298145 0.30538,28.544886 0.30538,5.207527 0.30538,-9.504807 0.30538,-15.107817 0.30538,17.011564 0.30538,-20.689559 0.30538,7.22941 0.30538,15.910583 0.30538,-43.847723 0.30538,47.730202 0.30538,-16.14208 0.30538,-18.642032 0.30538,12.633285 0.30538,6.068036 0.30538,-0.914492 0.30538,-12.817961 0.30538,4.850423 0.30538,-1.664292 0.30538,-11.103532 0.30538,13.725555 0.30538,9.345908 0.30538,-28.384261 0.30538,2.667607 0.30538,0.254929 0.30538,13.253853 0.30538,-13.311506 0.30538,6.529703 0.30538,-6.366426 0.30538,10.646861 0.30538,4.214559 0.30538,0.888362 0.30538,-24.308 0.30538,29.429755 0.30538,-36.48824 0.30538,12.501842 0.30538,15.710212 0.30538,-23.926534 0.30538,-8.428984 0.30538,11.57192 0.30538,-7.688602 0.30538,3.497785 0.30538,2.020026 0.30538,11.575236 0.30538,-5.439025 0.30538,29.078266 0.30538,-24.612182 0.30538,9.180863 0.30538,-15.58655 0.30538,11.927963 0.30538,-29.882623 0.30538,0.404544 0.30538,-14.011699 0.30538,8.741434 0.30538,31.656474 0.30538,11.731483 0.30538,-50.491494 0.30538,30.630213 0.30538,-9.205798 0.30538,-0.260633 0.30538,9.275124 0.30538,-1.406356 0.30538,12.131738 0.30538,8.155309 0.30538,18.8982 0.30538,-29.431921 0.30538,8.271499 0.30538,-12.622365 0.30538,-18.187616 0.30538,5.655489 0.30538,6.570555 0.30538,9.219902 0.30538,8.511972 0.30538,-0.64117 0.30538,6.995172 0.30538,1.925632 0.30538,0.469935 0.30538,-31.051293 0.30538,9.922085 0.30538,-10.980047 0.30538,20.434364 0.30538,6.137494 0.30539,-31.481835 0.30538,0.812582 0.30538,19.12501 0.30538,3.684539 0.30538,17.443519 0.30538,7.271943 0.30538,-11.382248 0.30538,10.285424 0.30538,0.862276 0.30538,-9.101147 0.30538,-12.452987 0.30538,2.69493 0.30538,5.407501 0.30538,-0.950613 0.30538,-4.257755 0.30538,-2.564414 0.30538,-1.886416 0.30538,12.12692 0.30538,-0.268414 0.30538,2.685822 0.30538,0.02012 0.30538,0.127907 0.30538,-15.556042 0.30538,-8.804703 0.30538,14.960368 0.30538,0.972012 0.30538,-1.010654 0.30538,2.277254 0.30538,3.65695 0.30538,2.533953 0.30538,-6.164287 0.30538,4.904849 0.30538,-6.192848 0.30538,-8.706285 0.30538,5.412894 0.30538,6.972403 0.30538,6.609993 0.30538,-2.316117 0.30538,-6.207747 0.30538,13.308145 0.30538,-5.36457 0.30538,6.86501 0.30538,-2.206735 0.30538,-8.120558 0.30538,7.997736 0.30538,-2.817399 0.30538,-16.256988 0.30538,12.082088 0.30538,-22.215244 0.30538,13.188064 0.30538,-17.188236 0.30538,-19.572264 0.30538,-4.610658 0.30538,21.057362 0.30538,27.697332 0.30538,8.604375 0.30538,-25.727619 0.30538,6.19267 0.30538,3.559197 0.30538,6.581652 0.30538,-5.775791 0.30538,8.37394 0.30538,-23.254945 0.30538,17.425524 0.30538,14.026025 0.30538,-7.034655 0.30538,-9.446491 0.30538,9.51617 0.30538,-4.309129 0.30538,-5.389417 0.30538,-7.334725 0.30538,0.370236 0.30538,10.578376 0.30538,0.805331 0.30538,15.70411 0.30538,5.035718 0.30538,-1.977184 0.30538,-14.189124 0.30538,2.133165 0.30538,5.928015 0.30538,1.723935 0.30538,-3.012553 0.30538,0.829913 0.30538,11.889852 0.30538,-14.569042 0.30538,5.318236 0.30538,2.631927 0.30538,-2.005259 0.30538,-20.348061 0.30538,1.765848 0.30538,21.457309 0.30538,-9.35338 0.30538,-6.642754 0.30538,-11.146463 0.30538,-6.164065 0.30538,3.981912 0.30538,-6.066046 0.30538,-1.902288 0.30538,-6.034788 0.30538,-6.248202 0.30538,14.305315 0.30538,25.75282 0.30538,-15.209019 0.30538,-1.730831 0.30538,-1.18211 0.30538,-0.181891 0.30538,-15.190449 0.30538,-4.550662 0.30538,-0.697851 0.30538,3.473557 0.30538,4.30714 0.30538,51.332416 0.30538,-61.985025 0.30538,-3.177864 0.30538,-0.595454 0.30538,-2.240735 0.30538,4.051857 0.30538,8.886584"
                     style="fill:none"
                     fill="none"
                     id="path141" />
                </g>
                <g
                   id="g147">
                  <path
                     stroke="#33bbee"
                     stroke-width="2px"
                     d="m 3.1555193,127.09604 0.2498564,-0.95375 0.2498565,-1.14175 0.2498564,-0.95583 0.2498564,-1.24515 0.2498564,-1.14617 0.2498565,-1.57529 0.2498564,0.43492 0.2498564,-1.63604 0.2498565,0.23574 0.2498564,-0.58555 0.2498564,-0.98143 0.2498564,-0.36529 0.2498565,-0.82818 0.2498564,-0.10917 0.2498564,0.7479 0.2498565,1.28756 0.2498564,-0.0532 0.2498564,-0.46123 0.2498565,-0.23353 0.2498564,1.44827 0.2498564,-0.37518 0.2498564,0.2838 0.2498565,-0.0815 0.2498564,0.34079 0.2498564,0.12693 0.2498565,-0.28212 0.2498564,0.18676 0.2498561,-0.57596 0.249857,0.095 0.249856,-0.37797 0.249857,0.21553 0.249856,0.0913 0.249856,0.4462 0.249857,-0.42108 0.249856,-0.96927 0.249857,-0.34858 0.249856,-1.28724 0.249857,0.41635 0.249856,0.69108 0.249856,0.10386 0.249857,0.73552 0.249856,-1.04037 0.249857,0.57176 0.249856,-2.41697 0.249857,-1.65213 0.249856,-1.84663 0.249856,-8.3922 0.249857,2.80865 0.249856,0.92859 0.249857,-10.901212 0.249856,5.434822 0.249857,3.47524 0.249856,1.5775 0.249856,-2.03833 0.249857,-5.103759 0.249856,8.374249 0.249857,-13.542736 0.249856,10.860806 0.249857,8.01339 0.249856,-10.50273 0.249857,-2.809178 0.249856,-3.328009 0.249856,2.304534 0.249857,1.596693 0.249856,0.0359 0.249857,-1.854894 0.249856,-2.415905 0.249857,1.644574 0.249856,0.0783 0.249856,1.684143 0.249857,-1.708769 0.249856,3.008791 0.249857,-0.95176 0.249856,-0.973338 0.249857,-2.437569 0.249856,-2.310989 0.249856,1.858474 0.249857,0.663187 0.249856,2.008973 0.249857,-0.916437 0.249856,-0.895082 0.249857,2.254971 0.249856,-3.344766 0.249856,1.736182 0.249857,-7.028907 0.249856,13.466201 0.249857,-13.065149 0.249856,1.889334 0.249857,4.312223 0.249856,2.190156 0.249856,-0.676186 0.249857,0.554204 0.249856,0.740957 0.249857,3.701691 0.249856,-4.512195 0.249857,-0.850958 0.249856,5.469403 0.249856,5.00507 0.249857,14.51542 0.249856,-3.04032 0.249857,-3.26045 0.249856,-4.79406 0.249857,-5.59496 0.249856,-1.76054 0.249856,0.97099 0.249857,-10.700044 0.249856,7.373944 0.249857,5.72857 0.249856,-2.20682 0.249857,8.79639 0.249856,0.14479 0.249856,-7.89565 0.249857,-7.50494 0.249856,17.58142 0.249857,1.9087 0.249856,-14.16052 0.249857,9.26672 0.249856,5.15779 0.249856,-10.04884 0.249857,-5.16411 0.249856,12.71914 0.249857,-2.17512 0.249856,-13.06325 0.249857,-8.569495 0.249856,8.370315 0.249856,10.64691 0.249857,0.85201 0.249856,-0.0193 0.249857,0.10452 0.249856,4.6482 0.249857,-1.57627 0.249856,-0.74153 0.249856,-2.36599 0.249857,3.19069 0.249856,1.46577 0.249857,1.81603 0.249856,-2.08488 0.249857,-3.9725 0.249856,1.61544 0.249856,0.40565 0.249857,-1.33708 0.249856,-1.57312 0.249857,0.19016 0.249856,-1.22314 0.249857,-1.42312 0.249856,1.73154 0.249856,3.88032 0.249857,-5.98094 0.249856,4.16561 0.249857,-5.45211 0.249856,0.96746 0.249857,-2.81448 0.249856,5.05004 0.249856,-1.35011 0.249857,1.3502 0.249856,-1.16376 0.249857,1.25904 0.249856,2.00544 0.249857,-2.38173 0.249856,-0.46724 0.249856,-0.74848 0.249857,2.52971 0.249856,-1.00588 0.249857,1.24096 0.249856,1.14842 0.249857,0.13078 0.249856,-1.77204 0.249856,9.92797 0.249857,-10.85011 0.249856,7.5565 0.249857,-3.99695 0.249856,4.82629 0.249857,-4.41781 0.249856,-2.57723 0.249856,-0.34464 0.249857,1.07419 0.249856,0.18825 0.249857,-3.03076 0.249856,-3.61009 0.249857,15.56307 0.249856,-8.61914 0.249857,10.62714 0.249856,-4.58797 0.249856,4.83645 0.249857,-16.41027 0.249856,4.49362 0.249857,-4.16287 0.249856,9.32146 0.249857,-5.23817 0.249856,0.037 0.249856,9.86173 0.249857,-5.55729 0.249856,1.23932 0.249857,1.14276 0.249856,4.84198 0.249857,-5.53143 0.249856,-1.76297 0.249856,-4.63772 0.249857,7.04986 0.249856,2.46949 0.249857,6.48134 0.249856,-10.26305 0.249857,-5.49058 0.249856,12.32707 0.249856,-18.27741 0.249857,4.65213 0.249856,8.58488 0.249857,-2.0684 0.249856,-0.99032 0.249857,5.66305 0.249856,-8.85086 0.249856,4.45999 0.249857,-0.35852 0.249856,9.00091 0.249857,2.81294 0.249856,-7.20832 0.249857,-2.27783 0.249856,-9.84688 0.249856,4.47926 0.249857,-4.26939 0.249856,10.86019 0.249857,-1.9049 0.249856,-6.51767 0.249857,5.79343 0.249856,-4.81841 0.249856,1.88296 0.249857,-2.95583 0.249856,9.1978 0.249857,0.40808 0.249856,-1.72521 0.249857,-9.06415 0.249856,6.27425 0.249856,-7.76836 0.249857,9.48805 0.249856,-8.01617 0.249857,7.69121 0.249856,5.5973 0.249857,-3.66517 0.249856,-6.18149 0.249856,-1.31616 0.249857,-0.20112 0.249856,5.07383 0.249857,2.90463 0.249856,-0.20148 0.249857,1.67879 0.249856,-3.59717 0.249856,1.87682 0.249857,-6.34198 0.249856,-0.81121 0.249857,0.84946 0.249856,3.9415 0.249857,7.49349 0.249856,-11.6878 0.249856,-1.2269 0.249857,8.33782 0.249856,-1.13463 0.249857,1.11721 0.249856,-4.17362 0.249857,0.20245 0.249856,-0.59965 0.249856,5.9598 0.249857,-2.55818 0.249856,0.17322 0.249857,-0.34609 0.249856,2.75647 0.249857,3.80714 0.249856,-2.92687 0.249856,-11.1664 0.249857,14.52143 0.249856,-7.54796 0.249857,3.29608 0.249856,-5.08731 0.249857,1.16823 0.249856,1.46741 0.249856,1.83469 0.249857,-10.73706 0.249856,6.13223 0.249857,1.25874 0.249856,6.6389 0.249857,-1.16504 0.249856,-0.61208 0.249856,-4.43151 0.249857,5.55893 0.249856,-19.30801 0.249857,11.23984 0.249856,0.51645 0.249857,9.19116 0.249856,-17.3141 0.249856,5.73582 0.249857,-8.12065 0.249856,18.83591 0.249857,-2.29676 0.249856,-6.74899 0.249857,0.46312 0.249856,2.0871 0.249856,4.67401 0.249857,-0.78844 0.249856,-4.10659 0.249857,-1.77354 0.249856,-1.3124 0.249857,-2.85184 0.249856,5.90988 0.249857,-7.83649 0.249856,9.93504 0.249856,-3.03537 0.249857,-7.56569 0.249856,7.78972 0.249857,5.54067 0.249856,-9.90224 0.249857,3.93991 0.249856,0.58617 0.249856,1.65077 0.249857,2.21429 0.249856,-0.66491 0.249857,-2.48364 0.249856,-8.51975 0.249857,2.66858 0.249856,10.07851 0.249856,-7.04244 0.249857,2.22778 0.249856,12.49022 0.249857,-0.21386 0.249856,-10.94087 0.249857,2.97346 0.249856,1.77173 0.249856,1.31104 0.249857,-11.57533 0.249856,10.21411 0.249857,-7.75695 0.249856,1.45813 0.249857,0.22208 0.249856,4.25589 0.249856,0.48917 0.249857,3.19882 0.249856,2.01083 0.249857,-14.0289 0.249856,8.04558 0.249857,-6.70236 0.249856,6.47373 0.249856,-0.47723 0.249857,2.17875 0.249856,-2.4633 0.249857,3.77964 0.249856,-6.77009 0.249857,-0.10235 0.249856,1.64051 0.249856,-4.05199 0.249857,7.24051 0.249856,2.28468 0.249857,-4.70059 0.249856,-5.27062 0.249857,-10.54119 0.249856,6.71049 0.249856,-1.70983 0.249857,0.38597 0.249856,3.03148 0.249857,3.35277 0.249856,-3.51172 0.249857,0.335 0.249856,1.35812 0.249856,1.83924 0.249857,-4.05092 0.249856,-2.81988 0.249857,9.50516 0.249856,4.36311 0.249857,-0.21195 0.249856,-4.57524 0.249856,2.09032 0.249857,4.5763 0.249856,-1.20381 0.249857,-12.7967 0.249856,7.93756 0.249857,-1.24144 0.249856,9.72317 0.249856,-8.48632 0.249857,0.0201 h 0.249856 l 0.249857,6.05561 0.249856,-4.60849 0.249857,6.1428 0.249856,-14.36407 0.249856,9.46926 0.249857,-11.65332 0.249856,4.11181 0.249857,3.09965 0.249856,2.45818 0.249857,-6.18976 0.249852,-16.526947 0.24986,-9.802048 0.24986,4.64877 0.24985,-1.02635 0.24986,1.725482 0.24986,9.778353 0.24985,16.77303 0.24986,-4.21836 0.24986,7.38142 0.24985,-7.04633 0.24986,5.20832 0.24985,-11.47633 0.24986,7.90657 0.24986,3.07312 0.24985,1.06645 0.24986,-4.16389 0.24986,4.85065 0.24985,0.4236 0.24986,-1.17115 0.24986,9.67759 0.24985,-3.57807 0.24986,-2.50871 0.24986,3.8907 0.24985,0.99991 0.24986,0.16156 0.24985,-3.23243 0.24986,-1.63334 0.24986,-3.5366 0.24985,-7.55225 0.24986,15.78767 0.24986,-6.12808 0.24985,-1.15708 0.24986,8.09381 0.24986,-9.98328 0.24985,10.81089 0.24986,-10.08726 0.24986,3.20624 0.24985,-5.70085 0.24986,4.75418 0.24985,-5.91847 0.24986,-5.278 0.24986,26.53861 0.24985,-3.01379 0.24986,-9.30811 0.24986,7.05367 0.24985,1.54792 0.24986,-8.80598 0.24986,-4.99434 0.24985,-20.32003 0.24986,22.86406 0.24986,1.88611 0.24985,-10.80461 0.24986,-16.597558 0.24985,17.227228 0.24986,7.84866 0.24986,-5.2689 0.24985,10.22905 0.24986,-3.96285 0.24986,-2.0638 0.24985,2.91705 0.24986,-5.96581 0.24986,8.79674 0.24985,9.07117 0.24986,-11.87672 0.24986,-12.53509 0.24985,27.66846 0.24986,-35.31382 0.24985,19.26304 0.24986,-5.99336 0.24986,6.00185 0.24985,10.59403 0.24986,-22.79036 0.24986,25.14865 0.24985,-11.50666 0.24986,-3.47802 0.24986,-4.60602 0.24985,9.63696 0.24986,-0.20718 0.24986,-13.289 0.24985,10.71831 0.24986,-0.24277 0.24985,11.19346 0.24986,-18.90678 0.24986,-2.79299 0.24985,6.38933 0.24986,10.61211 0.24986,-19.32114 0.24985,8.98978 0.24986,2.63825 0.24986,5.04058 0.24985,-9.61945 0.24986,3.57865 0.24986,-18.11604 0.24985,23.164 0.24986,-2.00879 0.24985,-14.67396 0.24986,5.05375 0.24986,24.24712 0.24985,-6.59509 0.24986,-20.31194 0.24986,-22.142957 0.24985,28.402037 0.24986,13.84435 0.24986,-8.96457 0.24985,5.16088 0.24986,-6.21367 0.24986,4.85166 0.24985,-6.92377 0.24986,-2.11544 0.24985,-1.09311 0.24986,-5.01272 0.24986,-1.28416 0.24985,18.85205 0.24986,-3.57375 0.24986,-27.11036 0.24985,21.3416 0.24986,-12.59119 0.24986,34.48921 0.24985,-24.95536 0.24986,16.70062 0.24986,-28.75357 0.24985,21.50961 0.24986,-7.86165 0.24985,2.43037 0.24986,5.74506 0.24986,-5.32447 0.24985,-5.67264 0.24986,12.54623 0.24986,-15.53787 0.24985,8.74055 0.24986,0.16646 0.24986,-17.63753 0.24985,12.47098 0.24986,-10.98199 0.24986,28.79575 0.24985,-38.642496 0.24986,26.239376 0.24985,21.75438 0.24986,-24.03419 0.24986,2.03351 0.24985,-1.29393 0.24986,-32.448053 0.24986,59.195613 0.24985,-58.502184 0.24986,-3.416743 0.24986,37.952607 0.24985,1.43195 0.24986,-13.45396 0.24986,3.63639 0.24985,18.96943 0.24986,-6.33353 0.24985,4.34489 0.24986,-14.35589 0.24986,32.1964 0.24985,-45.18414 0.24986,24.66882 0.24986,-35.383146 0.24985,34.288796 0.24986,-13.67652 0.24986,-7.07427 0.24985,19.02562 0.24986,-18.02363 0.24986,15.08558 0.24985,-47.3628 0.24986,49.69249 0.24985,-36.432845 0.24986,29.071505 0.24986,8.69067 0.24985,-12.60565 0.24986,8.54394 0.24986,-7.32359 0.24985,-21.604797 0.24986,10.084917 0.24986,22.50051 0.24985,-5.34375 0.24986,-17.93392 0.24986,33.32868 0.24985,-42.332608 0.24986,20.344968 0.24985,4.34065 0.24986,13.56086 0.24986,-13.56793 0.24985,-25.424767 0.24986,43.312217 0.24986,-6.04601 0.24985,-22.14548 0.24986,12.07417 0.24986,-21.22992 0.24985,11.85254 0.24986,6.62546 0.24986,-41.734008 0.24985,33.922628 0.24986,3.40857 0.24985,-4.60138 0.24986,-5.84896 0.24986,19.31424 0.24985,-2.2418 0.24986,-0.0575 0.24986,-5.49424 0.24985,-22.87105 0.24986,-7.260668 0.24986,14.586018 0.24985,23.48857 0.24986,-20.14668 0.24986,-33.57242 0.24985,5.149786 0.24986,26.477814 0.24985,15.88711 0.24986,-26.723109 0.24986,18.335199 0.24985,-0.15846 0.24986,2.51176 0.24986,17.2053 0.24985,5.0672 0.24986,-9.77406 0.24986,9.92093 0.24985,-16.78709 0.24986,0.27836 0.24986,-19.699466 0.24985,13.029826 0.24986,0.78159 0.24986,-5.47479 0.24985,-6.31165 0.24986,29.49417 0.24985,-1.6241 0.24986,-21.22674 0.24986,25.91844 0.24985,-38.618309 0.24986,28.146529 0.24986,2.71244 0.24985,7.35687 0.24986,-8.12126 0.24986,11.15836 0.24985,-11.5102 0.24986,-16.65654 0.24986,21.60533 0.24985,20.81764 0.24986,-33.16752 0.24985,13.5499 0.24986,-0.98117 0.24986,-1.55866 0.24985,-1.66982 0.24986,-2.47334 0.24986,7.82084 0.24985,1.92033 0.24986,-8.57772 0.24986,-7.31774 0.24985,-7.07436 0.24986,19.56422 0.24986,-8.23547 0.24985,10.51577 0.24986,-11.88136 0.24985,-2.54806 0.24986,12.58541 0.24986,-9.53819 0.24985,6.51011 0.24986,6.41409 0.24986,0.74794 0.24985,0.69781 0.24986,-1.00415 0.24986,-12.41223 0.24985,-7.30576 0.24986,28.24534 0.24986,-16.271 0.24985,6.79188 0.24986,-12.1389 0.24985,1.01746 0.24986,3.00822 0.24986,13.58647 0.24985,-29.43581 0.24986,21.03605 0.24986,-7.46215 0.24985,9.51144 0.24986,-4.69285 0.24986,-15.43118 0.24985,3.00415 0.24986,16.63991 0.24986,-10.11666 0.24985,33.20789 0.24986,-26.05519 0.24985,4.64289 0.24986,-19.7706 0.24986,9.92469 0.24985,12.65495 0.24986,-1.529 0.24986,-12.6385 0.24985,13.85801 0.24986,-11.42075 0.24986,8.58646 0.24985,4.45963 0.24986,0.29357 0.24986,1.14188 0.24985,-11.38136 0.24986,6.19315 0.24985,-14.20557 0.24986,13.76402 0.24986,-2.46953 0.24985,-7.40737 0.24986,1.81117 0.24986,-1.95172 0.24985,15.27472 0.24986,-34.76094 0.24986,7.64368 0.24985,-2.75944 0.24986,11.06768 0.24986,2.18029 0.24985,-1.86926 0.24986,17.04132 0.24985,-7.3227 0.24986,-10.9166 0.24986,17.114 0.24985,0.15108 0.24986,-0.89531 0.24986,-10.52961 0.24985,8.35206 0.24986,1.03126 0.24986,-23.90213 0.24985,25.77629 0.24986,-16.56647 0.24986,23.61161 0.24985,-43.358293 0.24986,21.488963 0.24985,12.71415 0.24986,-3.18838 0.24986,13.94467 0.24985,-19.35496 0.24986,36.12937 0.24986,-34.48413 0.24985,-0.67155 0.24986,-23.32767 0.24986,25.76347 0.24985,-8.6859 0.24986,10.7428 0.24986,-5.60575 0.24985,4.36754 0.24986,0.63697 0.24985,-0.70714 0.24986,-11.93026 0.24986,0.64395 0.24985,-0.0992 0.24986,-10.32173 0.24986,6.22968 0.24985,21.46354 0.24986,-11.50653 0.24986,-2.13612 0.24985,15.97044 0.24986,-7.1363 0.24986,0.29053 0.24985,-12.13793 0.24986,-0.23672 0.24985,3.48492 0.24986,-4.14939 0.24986,4.92232 0.24985,9.40634 0.24986,-8.37111 0.24986,18.18996 0.24985,-34.05297 0.24986,-1.08599 0.24986,-5.01932 0.24985,24.99135 0.24986,-18.21463 0.24986,14.87734 0.24985,-12.61295 0.24986,-4.52219 0.24985,15.53442 0.24986,11.68586 0.24986,-9.01626 0.24985,9.23051 0.24986,4.89787 0.24986,-15.3394 0.24985,-16.99614 0.24986,3.68675 0.24986,9.24471 0.24985,-7.26704 0.24986,14.46064 0.24986,-35.269481 0.24985,10.469391 0.24986,-4.344322 0.24985,5.430002 0.24986,-21.169394 0.24986,3.279287 0.24985,4.053537 0.24986,0.951011 0.24986,3.515117 0.24985,5.059769 0.24986,1.123086 0.24986,-6.018739 0.24985,1.554999 0.24986,11.607247 0.24986,-9.488097 0.24985,7.532137 0.24986,13.5919 0.24985,-7.24042 0.24986,-2.6833 0.24986,-0.28279 0.24985,6.88836 0.24986,1.54837 0.24986,-6.33318 0.24985,9.08483 0.24986,-5.63975 0.24986,-2.37218 0.24985,15.20053 0.24986,-11.0812 0.24986,8.3803 0.24985,4.40335 0.24986,-5.86205 0.24985,19.10127 0.24986,-13.95396 0.24986,0.12123 0.24985,-5.74409 0.24986,7.21389 0.24986,8.38858 0.24985,-12.96683 0.24986,5.21615 0.24986,6.61738 0.24985,-16.29391 0.24986,7.78583 0.24986,-10.73312 0.24985,8.24912 0.24986,4.592 0.24985,-1.09072 0.24986,3.79525 0.24986,1.07423 0.24985,-1.83279 0.24986,2.73181 0.24986,-14.50485 0.24985,6.88115 0.24986,-4.66566 0.24986,-13.92761 0.24985,21.26079 0.24986,2.37045 0.24986,-8.84418 0.24985,19.52257 0.24986,-12.79192 0.24985,14.55529 0.24986,-5.35732 0.24986,-2.60805 0.24985,1.49014 0.24986,10.47041 0.24986,-17.38057 0.24985,2.97272 0.24986,-3.17486 0.24986,3.58591 0.24985,-0.47405 0.24986,9.3131 0.24986,3.44756 0.24985,-9.79117 0.24986,-6.95777 0.24985,14.9112 0.24986,-11.85364 0.24986,2.60713 0.24985,-7.24184 0.24986,3.63825 0.24986,10.46926 0.24985,-2.59669 0.24986,-1.92524 0.24986,-3.40308 0.24985,-11.14929 0.24986,18.34775 0.24986,-25.55103 0.24985,27.22346 0.24986,-6.76876 0.24985,5.61557 0.24986,-3.93036 0.24986,4.89697 0.24985,-1.99336 0.24986,-3.87713 0.24986,5.77318 0.24985,-2.56034 0.24986,-3.49814 0.24986,-3.89349 0.24985,-0.76359 0.24986,14.78692 0.24986,-3.11548 0.24985,-23.77498 0.24986,25.09622 0.24985,-7.78759 0.24986,0.16186 0.24986,8.26912 0.24985,-17.82039 0.24986,17.9941 0.24986,-13.718 0.24985,14.85607 0.24986,-16.66675 0.24986,2.54739 0.24985,-1.66212 0.24986,-12.5767 0.24986,14.59809 0.24985,-19.61749 0.24986,22.71144 0.24985,-5.25351 0.24986,-14.44975 0.24986,10.01449 0.24985,-0.59807 0.24986,18.17838 0.24986,-2.45698 0.24985,-6.14421 0.24986,2.03934 0.24986,4.51649"
                     style="fill:none"
                     fill="none"
                     id="path145" />
                </g>
              </g>
            </g>
          </g>
        </g>
      </g>
      <g
         transform="translate(51,177)"
         clip-path="url(#clip_1)"
         id="g210">
        <clipPath
           id="clip_1">
          <rect
             width="278"
             height="23"
             id="rect159"
             x="0"
             y="0" />
        </clipPath>
        <g
           id="g208">
          <g
             id="g182">
            <line
               x1="2.9334247"
               y1="0"
               x2="2.9334247"
               y2="5"
               style="visibility:inherit"
               fill="#000000"
               stroke="#cccccc"
               stroke-width="1px"
               id="line162" />
            <line
               x1="30.69525"
               y1="0"
               x2="30.69525"
               y2="5"
               style="visibility:inherit"
               fill="#000000"
               stroke="#cccccc"
               stroke-width="1px"
               id="line164" />
            <line
               x1="58.457077"
               y1="0"
               x2="58.457077"
               y2="5"
               style="visibility:inherit"
               fill="#000000"
               stroke="#cccccc"
               stroke-width="1px"
               id="line166" />
            <line
               x1="86.218903"
               y1="0"
               x2="86.218903"
               y2="5"
               style="visibility:inherit"
               fill="#000000"
               stroke="#cccccc"
               stroke-width="1px"
               id="line168" />
            <line
               x1="113.98073"
               y1="0"
               x2="113.98073"
               y2="5"
               style="visibility:inherit"
               fill="#000000"
               stroke="#cccccc"
               stroke-width="1px"
               id="line170" />
            <line
               x1="141.74255"
               y1="0"
               x2="141.74255"
               y2="5"
               style="visibility:inherit"
               fill="#000000"
               stroke="#cccccc"
               stroke-width="1px"
               id="line172" />
            <line
               x1="169.50438"
               y1="0"
               x2="169.50438"
               y2="5"
               style="visibility:inherit"
               fill="#000000"
               stroke="#cccccc"
               stroke-width="1px"
               id="line174" />
            <line
               x1="197.2662"
               y1="0"
               x2="197.2662"
               y2="5"
               style="visibility:inherit"
               fill="#000000"
               stroke="#cccccc"
               stroke-width="1px"
               id="line176" />
            <line
               x1="225.02803"
               y1="0"
               x2="225.02803"
               y2="5"
               style="visibility:inherit"
               fill="#000000"
               stroke="#cccccc"
               stroke-width="1px"
               id="line178" />
            <line
               x1="252.78986"
               y1="0"
               x2="252.78986"
               y2="5"
               style="visibility:inherit"
               fill="#000000"
               stroke="#cccccc"
               stroke-width="1px"
               id="line180" />
          </g>
          <g
             transform="translate(0,8)"
             id="g204">
            <text
               x="2.9334247"
               y="0"
               dx="0em"
               dy="0.94999999em"
               style="font-weight:200;font-size:12px;font-family:Roboto, sans-serif;text-anchor:middle;visibility:inherit"
               fill="#212121"
               stroke="none"
               stroke-width="1px"
               id="text184">0</text>
            <text
               x="30.69525"
               y="0"
               dx="0em"
               dy="0.94999999em"
               style="font-weight:200;font-size:12px;font-family:Roboto, sans-serif;text-anchor:middle;visibility:inherit"
               fill="#212121"
               stroke="none"
               stroke-width="1px"
               id="text186">1k</text>
            <text
               x="58.457077"
               y="0"
               dx="0em"
               dy="0.94999999em"
               style="font-weight:200;font-size:12px;font-family:Roboto, sans-serif;text-anchor:middle;visibility:inherit"
               fill="#212121"
               stroke="none"
               stroke-width="1px"
               id="text188">2k</text>
            <text
               x="86.218903"
               y="0"
               dx="0em"
               dy="0.94999999em"
               style="font-weight:200;font-size:12px;font-family:Roboto, sans-serif;text-anchor:middle;visibility:inherit"
               fill="#212121"
               stroke="none"
               stroke-width="1px"
               id="text190">3k</text>
            <text
               x="113.98073"
               y="0"
               dx="0em"
               dy="0.94999999em"
               style="font-weight:200;font-size:12px;font-family:Roboto, sans-serif;text-anchor:middle;visibility:inherit"
               fill="#212121"
               stroke="none"
               stroke-width="1px"
               id="text192">4k</text>
            <text
               x="141.74255"
               y="0"
               dx="0em"
               dy="0.94999999em"
               style="font-weight:200;font-size:12px;font-family:Roboto, sans-serif;text-anchor:middle;visibility:inherit"
               fill="#212121"
               stroke="none"
               stroke-width="1px"
               id="text194">5k</text>
            <text
               x="169.50438"
               y="0"
               dx="0em"
               dy="0.94999999em"
               style="font-weight:200;font-size:12px;font-family:Roboto, sans-serif;text-anchor:middle;visibility:inherit"
               fill="#212121"
               stroke="none"
               stroke-width="1px"
               id="text196">6k</text>
            <text
               x="197.2662"
               y="0"
               dx="0em"
               dy="0.94999999em"
               style="font-weight:200;font-size:12px;font-family:Roboto, sans-serif;text-anchor:middle;visibility:inherit"
               fill="#212121"
               stroke="none"
               stroke-width="1px"
               id="text198">7k</text>
            <text
               x="225.02803"
               y="0"
               dx="0em"
               dy="0.94999999em"
               style="font-weight:200;font-size:12px;font-family:Roboto, sans-serif;text-anchor:middle;visibility:inherit"
               fill="#212121"
               stroke="none"
               stroke-width="1px"
               id="text200">8k</text>
            <text
               x="252.78986"
               y="0"
               dx="0em"
               dy="0.94999999em"
               style="font-weight:200;font-size:12px;font-family:Roboto, sans-serif;text-anchor:middle;visibility:inherit"
               fill="#212121"
               stroke="none"
               stroke-width="1px"
               id="text202">9k</text>
          </g>
          <line
             x1="0"
             y1="0"
             x2="278.4375"
             y2="0"
             fill="#000000"
             stroke="#cccccc"
             stroke-width="1px"
             id="line206" />
        </g>
      </g>
    </g>
  </g>
  <text
     xml:space="preserve"
     style="fill:#000000"
     x="164.75519"
     y="194.86647"
     id="text484"><tspan
       sodipodi:role="line"
       x="164.75519"
       y="194.86647"
       id="tspan486">Step</tspan></text>
  <text
     xml:space="preserve"
     style="fill:#000000"
     x="-130.30441"
     y="14.932883"
     id="text492"
     transform="rotate(-90)"><tspan
       sodipodi:role="line"
       id="tspan490"
       x="-130.30441"
       y="14.932883">CrossEntropyLoss</tspan></text>
</svg>
