<?xml version="1.0" encoding="UTF-8" standalone="no"?>
<svg
   viewBox="0 0 330 200"
   version="1.1"
   id="svg228"
   sodipodi:docname="lstm_acc.svg"
   inkscape:version="1.2.2 (732a01da63, 2022-12-09)"
   xmlns:inkscape="http://www.inkscape.org/namespaces/inkscape"
   xmlns:sodipodi="http://sodipodi.sourceforge.net/DTD/sodipodi-0.dtd"
   xmlns="http://www.w3.org/2000/svg"
   xmlns:svg="http://www.w3.org/2000/svg">
  <defs
     id="defs232" />
  <sodipodi:namedview
     id="namedview230"
     pagecolor="#ffffff"
     bordercolor="#000000"
     borderopacity="0.25"
     inkscape:showpageshadow="2"
     inkscape:pageopacity="0.0"
     inkscape:pagecheckerboard="0"
     inkscape:deskcolor="#d1d1d1"
     showgrid="false"
     inkscape:zoom="4.0848485"
     inkscape:cx="165"
     inkscape:cy="99.881306"
     inkscape:window-width="1920"
     inkscape:window-height="1009"
     inkscape:window-x="-8"
     inkscape:window-y="-8"
     inkscape:window-maximized="1"
     inkscape:current-layer="svg228" />
  <g
     id="g226"
     transform="scale(1,0.93273571)">
    <g
       id="g224">
      <g
         id="g66">
        <g
           id="g64">
          <g
             id="g30">
            <line
               x1="51.5625"
               y1="166.14792"
               x2="46.5625"
               y2="166.14792"
               style="visibility:inherit"
               fill="#000000"
               stroke="#cccccc"
               stroke-width="1px"
               id="line2" />
            <line
               x1="51.5625"
               y1="153.82494"
               x2="46.5625"
               y2="153.82494"
               style="visibility:inherit"
               fill="#000000"
               stroke="#cccccc"
               stroke-width="1px"
               id="line4" />
            <line
               x1="51.5625"
               y1="141.50194"
               x2="46.5625"
               y2="141.50194"
               style="visibility:inherit"
               fill="#000000"
               stroke="#cccccc"
               stroke-width="1px"
               id="line6" />
            <line
               x1="51.5625"
               y1="129.17894"
               x2="46.5625"
               y2="129.17894"
               style="visibility:inherit"
               fill="#000000"
               stroke="#cccccc"
               stroke-width="1px"
               id="line8" />
            <line
               x1="51.5625"
               y1="116.85596"
               x2="46.5625"
               y2="116.85596"
               style="visibility:inherit"
               fill="#000000"
               stroke="#cccccc"
               stroke-width="1px"
               id="line10" />
            <line
               x1="51.5625"
               y1="104.53297"
               x2="46.5625"
               y2="104.53297"
               style="visibility:inherit"
               fill="#000000"
               stroke="#cccccc"
               stroke-width="1px"
               id="line12" />
            <line
               x1="51.5625"
               y1="92.209969"
               x2="46.5625"
               y2="92.209969"
               style="visibility:inherit"
               fill="#000000"
               stroke="#cccccc"
               stroke-width="1px"
               id="line14" />
            <line
               x1="51.5625"
               y1="79.886978"
               x2="46.5625"
               y2="79.886978"
               style="visibility:inherit"
               fill="#000000"
               stroke="#cccccc"
               stroke-width="1px"
               id="line16" />
            <line
               x1="51.5625"
               y1="67.563988"
               x2="46.5625"
               y2="67.563988"
               style="visibility:inherit"
               fill="#000000"
               stroke="#cccccc"
               stroke-width="1px"
               id="line18" />
            <line
               x1="51.5625"
               y1="55.240997"
               x2="46.5625"
               y2="55.240997"
               style="visibility:inherit"
               fill="#000000"
               stroke="#cccccc"
               stroke-width="1px"
               id="line20" />
            <line
               x1="51.5625"
               y1="42.918007"
               x2="46.5625"
               y2="42.918007"
               style="visibility:inherit"
               fill="#000000"
               stroke="#cccccc"
               stroke-width="1px"
               id="line22" />
            <line
               x1="51.5625"
               y1="30.595015"
               x2="46.5625"
               y2="30.595015"
               style="visibility:inherit"
               fill="#000000"
               stroke="#cccccc"
               stroke-width="1px"
               id="line24" />
            <line
               x1="51.5625"
               y1="18.272022"
               x2="46.5625"
               y2="18.272022"
               style="visibility:inherit"
               fill="#000000"
               stroke="#cccccc"
               stroke-width="1px"
               id="line26" />
            <line
               x1="51.5625"
               y1="5.9490304"
               x2="46.5625"
               y2="5.9490304"
               style="visibility:inherit"
               fill="#000000"
               stroke="#cccccc"
               stroke-width="1px"
               id="line28" />
          </g>
          <g
             transform="translate(41.5625)"
             id="g60">
            <text
               x="0"
               y="166.14792"
               dx="0em"
               dy="0.30000001em"
               style="font-weight:200;font-size:12px;font-family:Roboto, sans-serif;text-anchor:end;visibility:inherit"
               fill="#212121"
               stroke="none"
               stroke-width="1px"
               id="text32">0.38</text>
            <text
               x="0"
               y="153.82494"
               dx="0em"
               dy="0.30000001em"
               style="font-weight:200;font-size:12px;font-family:Roboto, sans-serif;text-anchor:end;visibility:hidden"
               fill="#212121"
               stroke="none"
               stroke-width="1px"
               id="text34">0.4</text>
            <text
               x="0"
               y="141.50194"
               dx="0em"
               dy="0.30000001em"
               style="font-weight:200;font-size:12px;font-family:Roboto, sans-serif;text-anchor:end;visibility:inherit"
               fill="#212121"
               stroke="none"
               stroke-width="1px"
               id="text36">0.42</text>
            <text
               x="0"
               y="129.17894"
               dx="0em"
               dy="0.30000001em"
               style="font-weight:200;font-size:12px;font-family:Roboto, sans-serif;text-anchor:end;visibility:hidden"
               fill="#212121"
               stroke="none"
               stroke-width="1px"
               id="text38">0.44</text>
            <text
               x="0"
               y="116.85596"
               dx="0em"
               dy="0.30000001em"
               style="font-weight:200;font-size:12px;font-family:Roboto, sans-serif;text-anchor:end;visibility:inherit"
               fill="#212121"
               stroke="none"
               stroke-width="1px"
               id="text40">0.46</text>
            <text
               x="0"
               y="104.53297"
               dx="0em"
               dy="0.30000001em"
               style="font-weight:200;font-size:12px;font-family:Roboto, sans-serif;text-anchor:end;visibility:hidden"
               fill="#212121"
               stroke="none"
               stroke-width="1px"
               id="text42">0.48</text>
            <text
               x="0"
               y="92.209969"
               dx="0em"
               dy="0.30000001em"
               style="font-weight:200;font-size:12px;font-family:Roboto, sans-serif;text-anchor:end;visibility:inherit"
               fill="#212121"
               stroke="none"
               stroke-width="1px"
               id="text44">0.5</text>
            <text
               x="0"
               y="79.886978"
               dx="0em"
               dy="0.30000001em"
               style="font-weight:200;font-size:12px;font-family:Roboto, sans-serif;text-anchor:end;visibility:hidden"
               fill="#212121"
               stroke="none"
               stroke-width="1px"
               id="text46">0.52</text>
            <text
               x="0"
               y="67.563988"
               dx="0em"
               dy="0.30000001em"
               style="font-weight:200;font-size:12px;font-family:Roboto, sans-serif;text-anchor:end;visibility:inherit"
               fill="#212121"
               stroke="none"
               stroke-width="1px"
               id="text48">0.54</text>
            <text
               x="0"
               y="55.240997"
               dx="0em"
               dy="0.30000001em"
               style="font-weight:200;font-size:12px;font-family:Roboto, sans-serif;text-anchor:end;visibility:hidden"
               fill="#212121"
               stroke="none"
               stroke-width="1px"
               id="text50">0.56</text>
            <text
               x="0"
               y="42.918007"
               dx="0em"
               dy="0.30000001em"
               style="font-weight:200;font-size:12px;font-family:Roboto, sans-serif;text-anchor:end;visibility:inherit"
               fill="#212121"
               stroke="none"
               stroke-width="1px"
               id="text52">0.58</text>
            <text
               x="0"
               y="30.595015"
               dx="0em"
               dy="0.30000001em"
               style="font-weight:200;font-size:12px;font-family:Roboto, sans-serif;text-anchor:end;visibility:hidden"
               fill="#212121"
               stroke="none"
               stroke-width="1px"
               id="text54">0.6</text>
            <text
               x="0"
               y="18.272022"
               dx="0em"
               dy="0.30000001em"
               style="font-weight:200;font-size:12px;font-family:Roboto, sans-serif;text-anchor:end;visibility:inherit"
               fill="#212121"
               stroke="none"
               stroke-width="1px"
               id="text56">0.62</text>
            <text
               x="0"
               y="5.9490304"
               dx="0em"
               dy="0.30000001em"
               style="font-weight:200;font-size:12px;font-family:Roboto, sans-serif;text-anchor:end;visibility:hidden"
               fill="#212121"
               stroke="none"
               stroke-width="1px"
               id="text58">0.64</text>
          </g>
          <line
             x1="51.5625"
             y1="0"
             x2="51.5625"
             y2="177"
             fill="#000000"
             stroke="#cccccc"
             stroke-width="1px"
             id="line62" />
        </g>
      </g>
      <g
         transform="translate(51)"
         clip-path="url(#clip_0)"
         id="g169">
        <clipPath
           id="clip_0">
          <rect
             width="278"
             height="177"
             id="rect68"
             x="0"
             y="0" />
        </clipPath>
        <g
           id="g125">
          <g
             id="g123">
            <g
               id="g91">
              <line
                 x1="2.0957091"
                 y1="0"
                 x2="2.0957091"
                 y2="177"
                 fill="#000000"
                 stroke="#424242"
                 stroke-width="1px"
                 opacity="0.25"
                 id="line71" />
              <line
                 x1="29.963335"
                 y1="0"
                 x2="29.963335"
                 y2="177"
                 fill="#000000"
                 stroke="#424242"
                 stroke-width="1px"
                 opacity="0.25"
                 id="line73" />
              <line
                 x1="57.830959"
                 y1="0"
                 x2="57.830959"
                 y2="177"
                 fill="#000000"
                 stroke="#424242"
                 stroke-width="1px"
                 opacity="0.25"
                 id="line75" />
              <line
                 x1="85.698586"
                 y1="0"
                 x2="85.698586"
                 y2="177"
                 fill="#000000"
                 stroke="#424242"
                 stroke-width="1px"
                 opacity="0.25"
                 id="line77" />
              <line
                 x1="113.56621"
                 y1="0"
                 x2="113.56621"
                 y2="177"
                 fill="#000000"
                 stroke="#424242"
                 stroke-width="1px"
                 opacity="0.25"
                 id="line79" />
              <line
                 x1="141.43384"
                 y1="0"
                 x2="141.43384"
                 y2="177"
                 fill="#000000"
                 stroke="#424242"
                 stroke-width="1px"
                 opacity="0.25"
                 id="line81" />
              <line
                 x1="169.30145"
                 y1="0"
                 x2="169.30145"
                 y2="177"
                 fill="#000000"
                 stroke="#424242"
                 stroke-width="1px"
                 opacity="0.25"
                 id="line83" />
              <line
                 x1="197.16908"
                 y1="0"
                 x2="197.16908"
                 y2="177"
                 fill="#000000"
                 stroke="#424242"
                 stroke-width="1px"
                 opacity="0.25"
                 id="line85" />
              <line
                 x1="225.03671"
                 y1="0"
                 x2="225.03671"
                 y2="177"
                 fill="#000000"
                 stroke="#424242"
                 stroke-width="1px"
                 opacity="0.25"
                 id="line87" />
              <line
                 x1="252.90434"
                 y1="0"
                 x2="252.90434"
                 y2="177"
                 fill="#000000"
                 stroke="#424242"
                 stroke-width="1px"
                 opacity="0.25"
                 id="line89" />
            </g>
            <g
               id="g121">
              <line
                 x1="0"
                 y1="166.14792"
                 x2="278.4375"
                 y2="166.14792"
                 fill="#000000"
                 stroke="#424242"
                 stroke-width="1px"
                 opacity="0.25"
                 id="line93" />
              <line
                 x1="0"
                 y1="153.82494"
                 x2="278.4375"
                 y2="153.82494"
                 fill="#000000"
                 stroke="#424242"
                 stroke-width="1px"
                 opacity="0.25"
                 id="line95" />
              <line
                 x1="0"
                 y1="141.50194"
                 x2="278.4375"
                 y2="141.50194"
                 fill="#000000"
                 stroke="#424242"
                 stroke-width="1px"
                 opacity="0.25"
                 id="line97" />
              <line
                 x1="0"
                 y1="129.17894"
                 x2="278.4375"
                 y2="129.17894"
                 fill="#000000"
                 stroke="#424242"
                 stroke-width="1px"
                 opacity="0.25"
                 id="line99" />
              <line
                 x1="0"
                 y1="116.85596"
                 x2="278.4375"
                 y2="116.85596"
                 fill="#000000"
                 stroke="#424242"
                 stroke-width="1px"
                 opacity="0.25"
                 id="line101" />
              <line
                 x1="0"
                 y1="104.53297"
                 x2="278.4375"
                 y2="104.53297"
                 fill="#000000"
                 stroke="#424242"
                 stroke-width="1px"
                 opacity="0.25"
                 id="line103" />
              <line
                 x1="0"
                 y1="92.209969"
                 x2="278.4375"
                 y2="92.209969"
                 fill="#000000"
                 stroke="#424242"
                 stroke-width="1px"
                 opacity="0.25"
                 id="line105" />
              <line
                 x1="0"
                 y1="79.886978"
                 x2="278.4375"
                 y2="79.886978"
                 fill="#000000"
                 stroke="#424242"
                 stroke-width="1px"
                 opacity="0.25"
                 id="line107" />
              <line
                 x1="0"
                 y1="67.563988"
                 x2="278.4375"
                 y2="67.563988"
                 fill="#000000"
                 stroke="#424242"
                 stroke-width="1px"
                 opacity="0.25"
                 id="line109" />
              <line
                 x1="0"
                 y1="55.240997"
                 x2="278.4375"
                 y2="55.240997"
                 fill="#000000"
                 stroke="#424242"
                 stroke-width="1px"
                 opacity="0.25"
                 id="line111" />
              <line
                 x1="0"
                 y1="42.918007"
                 x2="278.4375"
                 y2="42.918007"
                 fill="#000000"
                 stroke="#424242"
                 stroke-width="1px"
                 opacity="0.25"
                 id="line113" />
              <line
                 x1="0"
                 y1="30.595015"
                 x2="278.4375"
                 y2="30.595015"
                 fill="#000000"
                 stroke="#424242"
                 stroke-width="1px"
                 opacity="0.25"
                 id="line115" />
              <line
                 x1="0"
                 y1="18.272022"
                 x2="278.4375"
                 y2="18.272022"
                 fill="#000000"
                 stroke="#424242"
                 stroke-width="1px"
                 opacity="0.25"
                 id="line117" />
              <line
                 x1="0"
                 y1="5.9490304"
                 x2="278.4375"
                 y2="5.9490304"
                 fill="#000000"
                 stroke="#424242"
                 stroke-width="1px"
                 opacity="0.25"
                 id="line119" />
            </g>
          </g>
        </g>
        <g
           id="g131">
          <g
             id="g129">
            <line
               x1="0"
               y1="400.28476"
               x2="278.4375"
               y2="400.28476"
               fill="#000000"
               stroke="#999999"
               stroke-width="1.5px"
               id="line127" />
          </g>
        </g>
        <g
           id="g137">
          <g
             id="g135">
            <line
               x1="2.0957091"
               y1="0"
               x2="2.0957091"
               y2="177"
               fill="#000000"
               stroke="#999999"
               stroke-width="1.5px"
               id="line133" />
          </g>
        </g>
        <g
           id="g167">
          <g
             id="g151">
            <g
               id="g149">
              <g
                 id="g147">
                <g
                   id="g141">
                  <path
                     stroke="#ff7043"
                     stroke-width="2px"
                     d="m 2.3743853,58.904572 0.3065439,35.058306 0.3065439,11.642982 0.3065439,5.78933 0.3065438,3.44806 0.3065439,2.27764 0.3065439,1.60905 0.3065439,1.1914 0.3065438,0.91319 0.3065439,0.71867 0.3065439,0.57741 0.3065439,0.4717 0.3065439,0.39058 0.3065438,0.32707 0.3065439,0.27646 0.3065439,0.23554 0.3065439,0.20203 0.3065438,0.1743 0.3065439,0.15112 0.3065439,0.13159 0.3065439,0.11502 0.3065438,0.10087 0.3065439,0.0887 0.3065439,0.0782 0.3065439,0.0691 0.3065436,0.0612 0.306544,0.0543 0.306544,0.0482 0.306544,0.0429 0.306544,0.0382 0.306544,0.0341 0.306544,0.0304 0.306543,0.0272 0.306544,0.0243 0.306544,0.0217 0.306544,0.0194 0.306544,0.0174 0.306544,0.0156 0.306544,0.014 0.306544,0.0126 0.306543,0.0113 0.306544,0.0101 0.306544,0.009 0.306544,0.008 0.306544,0.007 0.306544,0.007 0.306544,0.006 0.306544,0.005 0.306543,0.005 0.306544,0.004 0.306544,0.004 0.306544,0.003 0.306544,0.003 0.306544,0.003 0.306544,0.003 0.306544,-4.17234 0.306543,-6.25701 0.306544,-0.62145 0.306544,-0.55905 0.306544,-1.33706 0.306544,-1.2029 0.306544,-2.74993 0.306544,-4.14163 0.306544,-1.22559 0.306543,-1.10275 0.306544,-0.99226 0.306544,-0.89285 0.306544,0.0299 0.306544,0.86009 0.306544,0.77396 0.306544,-2.635941 0.306544,0.127105 0.306543,0.947396 0.306544,-0.813376 0.306544,0.100965 0.306544,-0.74205 0.306544,0.165086 0.306544,-1.517149 0.306544,-1.365357 0.306544,1.269692 0.306543,1.142669 0.306544,1.028361 0.306544,0.925489 0.306544,1.66567 0.306544,-0.16643 0.306544,0.68294 0.306544,-1.88352 0.306544,-1.695138 0.306543,-0.692887 0.306544,0.209109 0.306544,0.188196 0.306544,0.169374 0.306544,-0.680246 0.306544,0.220461 0.306544,0.198414 0.306544,1.01124 0.306544,-0.755223 0.306543,-1.512356 0.306544,-0.528453 0.306544,-0.475605 0.306544,0.404613 0.306544,-2.133807 0.306544,-1.920417 0.306544,-1.728369 0.306544,-1.555526 0.306543,-1.399968 0.306544,-1.259969 0.306544,-1.133968 0.306544,-0.187926 0.306544,-0.169133 0.306544,-0.984861 0.306544,-0.886373 0.306544,-0.797735 0.306543,1.779958 0.306544,0.769321 0.306544,-0.972889 0.306544,-0.04296 0.306544,-0.03866 0.306544,-0.0348 0.306544,0.801318 0.306544,-0.11145 0.306543,0.732331 0.306544,0.659097 0.306544,0.593188 0.306544,-0.298767 0.306544,0.563745 0.306544,0.50737 0.306544,-0.376002 0.306544,-1.171037 0.306543,-1.053932 0.306544,-0.94854 0.306544,-0.02105 0.306544,-0.01895 0.306544,-0.01705 0.306544,0.817289 0.306544,-0.09708 0.306544,-1.752636 0.306543,0.0879 0.306544,2.577012 0.306544,-0.178594 0.306544,-0.99337 0.306544,-0.0614 0.306544,-0.887892 0.306544,0.866165 0.306544,0.779549 0.306543,0.701594 0.306544,1.464069 0.306544,1.317661 0.306544,0.353262 0.306544,0.317935 0.306544,1.951412 0.306544,0.091 0.306544,-0.750733 0.306543,0.989607 0.306544,-0.774621 0.306544,0.135475 0.306544,0.121928 0.306544,-0.722899 0.306544,-0.65061 0.306544,-0.585548 0.306544,0.30564 0.306544,1.107711 0.306543,0.164306 0.306544,0.980509 0.306544,0.882458 0.306544,-0.03842 0.306544,-0.867214 0.306544,-0.780492 0.306544,-0.702443 0.306544,0.200435 0.306543,-2.317511 0.306544,-1.253125 0.306544,-0.295179 0.306544,-1.098295 0.306544,-0.155831 0.306544,0.692386 0.306544,-0.209487 0.306544,-0.188538 0.306543,1.495584 0.306544,1.346025 0.306544,1.211423 0.306544,1.090281 0.306544,0.981252 0.306544,1.715763 0.306544,0.711551 0.306544,1.473032 0.306543,0.493093 0.306544,0.443783 0.306544,1.232041 0.306544,1.108837 0.306544,-0.667317 0.306544,-0.600585 0.306544,1.124744 0.306544,1.012269 0.306543,-0.754228 0.306544,-0.678805 0.306544,-0.610925 0.306544,-0.549832 0.306544,0.337785 0.306544,-0.528627 0.306544,-0.475765 0.306544,0.404446 0.306543,0.364001 0.306544,-1.337667 0.306544,0.461368 0.306544,-1.250037 0.306544,-0.292399 0.306544,-1.095793 0.306544,0.679054 0.306544,1.443784 0.306543,-1.198498 0.306544,-2.743916 0.306544,0.861011 0.306544,-0.890357 0.306544,0.03131 0.306544,0.02818 0.306544,1.690633 0.306544,-0.143701 0.306543,-1.794598 0.306544,-1.615139 0.306544,-0.620991 0.306544,-0.558891 0.306544,-1.335637 0.306544,-0.369439 0.306544,-1.165129 0.306544,-0.215982 0.306543,-0.194384 0.306544,-1.007579 0.306544,0.758446 0.306544,-0.150032 0.306544,-0.135029 0.306544,-0.121526 0.306544,0.723261 0.306544,-2.679606 0.306544,-1.579007 0.306543,-1.421106 0.306544,-1.278996 0.306544,-0.318462 0.306544,0.546018 0.306544,0.491416 0.306544,0.442275 0.306544,0.398047 0.306544,-0.474391 0.306543,0.405681 0.306544,1.197748 0.306544,1.077973 0.306544,1.802809 0.306544,1.622529 0.306544,1.460276 0.306544,1.314248 0.306544,1.182824 0.306543,-0.600728 0.306544,-0.540654 0.306544,-0.486589 0.306544,0.394704 0.306544,-0.4774 0.306544,-0.429661 0.306544,2.11121 0.306544,3.565357 0.306543,3.208821 0.306544,-0.442599 0.306544,0.434295 0.306544,-0.441769 0.306544,0.435042 0.306544,-0.441096 0.306544,-0.396986 0.306544,-0.357288 0.306543,-2.819461 0.306544,-1.704881 0.306544,-1.534393 0.306544,1.116949 0.306544,1.005253 0.306544,0.904729 0.306544,0.814255 0.306544,-0.0998 0.306543,-0.08982 0.306544,0.751792 0.306544,-0.15602 0.306544,-0.140419 0.306544,0.706258 0.306544,-1.029637 0.306544,-0.926673 0.306544,0.831263 0.306543,1.580772 0.306544,3.087963 0.306544,1.946533 0.306544,-3.243927 0.306544,-1.254266 0.306544,-1.128839 0.306544,-1.015956 0.306544,-0.914359 0.306543,-0.822924 0.306544,-1.573266 0.306544,1.914599 0.306544,0.05787 0.306544,0.05208 0.306544,0.04687 0.306544,0.04219 0.306544,0.870602 0.306544,0.783542 0.306543,0.705188 0.306544,0.634669 0.306544,0.571202 0.306544,1.346718 0.306544,0.37941 0.306544,1.174105 0.306544,-0.608576 0.306544,-0.547718 0.306543,0.339688 0.306544,1.138355 0.306544,2.689783 0.306544,0.75555 0.306544,-0.98529 0.306544,-0.0541 0.306544,-0.88134 0.306544,-0.79321 0.306543,0.95138 0.306544,1.68888 0.306544,0.68736 0.306542,0.61862 0.30655,-0.27588 0.30654,-1.08092 0.30654,-0.97284 0.30655,0.78973 0.30654,-0.95452 0.30655,-0.859073 0.30654,0.892113 0.30654,-0.862376 0.30655,-1.60877 0.30654,-0.615258 0.30654,-0.553732 0.30655,-0.498359 0.30654,-2.113792 0.30655,-1.069778 0.30654,-0.130166 0.30654,-0.949784 0.30655,-0.02217 0.30654,-0.01995 0.30655,-1.683227 0.30654,0.982998 0.30654,0.884698 0.30655,1.628864 0.30654,-0.199292 0.30655,-1.011997 0.30654,-0.910797 0.30654,-0.819718 0.30655,-0.737745 0.30654,0.168663 0.30654,0.151796 0.30655,0.136617 0.30654,0.122955 0.30655,0.11066 0.30654,0.09959 0.30654,0.08963 0.30655,0.08067 0.30654,0.0726 0.30655,0.06534 0.30654,0.05881 0.30654,0.05293 0.30655,0.880269 0.30654,-0.04039 0.30654,0.796282 0.30655,-0.11598 0.30654,0.728251 0.30655,0.655426 0.30654,0.589884 0.30654,1.363532 0.30655,-0.438092 0.30654,-2.059551 0.30655,-1.020962 0.30654,0.746403 0.30654,0.671762 0.30655,0.604587 0.30654,-0.288507 0.30655,-0.259656 0.30654,0.598944 0.30654,-0.293585 0.30655,1.401044 0.30654,1.260939 0.30654,1.134846 0.30655,0.188725 0.30654,0.169852 0.30655,0.152868 0.30654,0.13758 0.30654,0.123823 0.30655,1.776709 0.30654,1.59904 0.30655,2.27177 0.30654,2.04459 0.30654,-0.65777 0.30655,-3.92253 0.30654,-2.697642 0.30655,-3.260513 0.30654,-2.934461 0.30654,-2.641016 0.30655,-1.544279 0.30654,-1.389852 0.30654,-1.250867 0.30655,-1.12578 0.30654,-1.013202 0.30655,-0.911881 0.30654,-1.653328 0.30654,-0.655361 0.30655,0.242809 0.30654,1.883797 0.30655,1.695417 0.30654,1.525875 0.30654,1.373288 0.30655,1.235959 0.30654,1.112363 0.30654,1.001126 0.30655,0.901015 0.30654,1.643548 0.30655,-0.186076 0.30654,1.497801 0.30654,-0.317249 0.30655,1.379746 0.30654,1.241772 0.30655,0.284958 0.30654,0.256463 0.30654,0.230816 0.30655,-0.624899 0.30654,0.270224 0.30655,-0.589431 0.30654,0.302145 0.30654,0.271931 0.30655,0.244737 0.30654,0.220264 0.30654,-0.634396 0.30655,-0.570957 0.30654,-0.513861 0.30655,0.370159 0.30654,-0.499491 0.30654,-0.449542 0.30655,-0.404588 0.30654,0.468506 0.30655,-0.41098 0.30654,-1.202515 0.30654,0.583004 0.30655,-0.307931 0.30654,2.220767 0.30655,1.99869 0.30654,1.798818 0.30654,2.45158 0.30655,0.54114 0.30654,-0.3456 0.30654,-0.31104 0.30655,-0.27994 0.30654,-0.25195 0.30655,-0.22675 0.30654,-0.20407 0.30654,-0.18367 0.30655,-0.1653 0.30654,-0.9814 0.30655,-0.88327 0.30654,-0.794936 0.30654,-0.715444 0.30655,-0.6439 0.30654,-0.57951 0.30654,-0.521559 0.30655,0.363232 0.30654,-0.505726 0.30655,-0.455154 0.30654,-0.409638 0.30654,-0.368674 0.30655,-0.331807 0.30654,-0.298626 0.30655,-0.268764 0.30654,-0.241887 0.30654,-0.217698 0.30655,-0.195929 0.30654,-1.00897 0.30655,-0.908073 0.30654,0.01537 0.30654,0.01383 0.30655,0.01245 0.30654,0.0112 0.30654,0.842717 0.30655,0.758445 0.30654,0.682602 0.30655,0.614341 0.30654,0.552906 0.30654,-0.335018 0.30655,0.531118 0.30654,0.478007 0.30655,-0.402429 0.30654,1.303084 0.30654,-0.492494 0.30655,0.38939 0.30654,0.35045 0.30654,0.315405 0.30655,0.283865 0.30654,-1.409789 0.30655,0.396457 0.30654,0.356812 0.30654,1.153766 0.30655,1.871025 0.30654,2.51655 0.30655,2.2649 0.30654,2.03841 0.30654,1.83457 0.30655,-0.0142 0.30654,-0.0127 0.30655,-0.0115 0.30654,-0.84296 0.30654,-1.59129 0.30655,-1.43216 0.30654,-1.28895 0.30654,-1.16006 0.30655,-1.04404 0.30654,-0.10701 0.30655,-0.0963 0.30654,-0.0867 0.30654,-0.91064 0.30655,-0.819583 0.30654,-0.737621 0.30655,-0.66386 0.30654,-0.597473 0.30654,-0.537726 0.30655,-2.149222 0.30654,-1.101665 0.30655,-0.158865 0.30654,-0.142978 0.30654,-0.961315 0.30655,-0.865183 0.30654,-0.778665 0.30654,0.131836 0.30655,0.118652 0.30654,0.106787 0.30655,0.09611 0.30654,0.919131 0.30654,-0.0054 0.30655,1.660395 0.30654,-1.836181 0.30655,-1.652564 0.30654,0.177961 0.30654,0.160164 0.30655,0.144149 0.30654,0.129733 0.30654,0.949394 0.30655,0.854455 0.30654,0.769009 0.30655,0.692109 0.30654,-1.875005 0.30654,1.643034 0.30655,0.646095 0.30654,1.414121 0.30655,1.272709 0.30654,1.145438 0.30654,-0.634376 0.30655,-0.570938 0.30654,0.31879 0.30655,0.28691 0.30654,1.090856 0.30654,0.149134 0.30655,0.966854 0.30654,0.0375 0.30654,0.86642 0.30655,-0.0529 0.30654,-0.0476 0.30655,-0.0428 0.30654,-0.0385 0.30654,0.79795 0.30655,0.71816 0.30654,0.64635 0.30655,-0.25093 0.30654,0.6068 0.30654,0.54612 0.30655,0.49151 0.30654,0.44236 0.30655,0.39812 0.30654,0.35831 0.30654,0.32248 0.30655,0.29023 0.30654,0.26121 0.30654,0.23509 0.30655,0.21158 0.30654,0.19042 0.30655,0.17137 0.30654,0.15425 0.30654,0.13881 0.30655,0.12494 0.30654,-0.7202 0.30655,0.18446 0.30654,0.16602 0.30654,0.14941 0.30655,0.13447 0.30654,-0.71161 0.30654,0.19219 0.30655,0.17297 0.30654,0.15567 0.30655,-0.69254 0.30654,0.20936 0.30654,-0.64421 0.30655,-0.5798 0.30654,0.31082 0.30655,0.27974 0.30654,0.25177 0.30654,-0.60605 0.30655,-0.54544 0.30654,-0.4909 0.30655,-0.4418 0.30654,-0.39763 0.30654,-1.1905 0.30655,-0.23881 0.30654,-0.21494 0.30654,-0.19344 0.30655,-0.17409 0.30654,-0.15669 0.30655,0.69162 0.30654,-0.21018 0.30654,0.64347 0.30655,0.57913 0.30654,0.52121 0.30655,-0.36354 0.30654,-0.32719 0.30654,-0.29447 0.30655,-0.26502 0.30654,0.59411 0.30655,0.53471 0.30654,0.48123 0.30654,0.43311 0.30655,0.3898 0.30654,-0.48182 0.30654,-1.26627 0.30655,-0.307 0.30654,-0.27631 0.30655,-1.08131 0.30654,-0.14055 0.30654,-0.12649 0.30655,0.7188 0.30654,0.64691 0.30655,-0.25041 0.30654,-0.22537 0.30654,-1.03547 0.30655,-0.0993 0.30654,-0.0894 0.30654,-0.0804 0.30655,-0.0724 0.30654,0.76749 0.30655,-2.639792 0.30654,-3.208449 0.30654,-2.05497 0.30655,-4.347379 0.30654,-2.247369 0.30655,0.47527 0.30654,-0.404891 0.30654,-1.197036 0.30655,-1.909966 0.30654,-0.0537 0.30655,-0.880965 0.30654,0.872399 0.30654,0.785159 0.30655,-0.125991 0.30654,-0.113391 0.30654,0.730581 0.30655,1.490158 0.30654,0.508507 0.30655,-0.374977 0.30654,1.327789 0.30654,1.19501 0.30655,1.075509 0.30654,0.967958 0.30655,0.03853 0.30654,0.867309 0.30654,0.780578 0.30655,0.702521 0.30654,-0.200366 0.30655,-0.180329 0.30654,0.670338 0.30654,0.603305 0.30655,-0.289661 0.30654,1.404576 0.30654,-0.401152 0.30655,1.304233 0.30654,1.17381 0.30655,-0.608841 0.30654,0.284678 0.30654,-1.409059 0.30655,0.397115 0.30654,-0.47523 0.30655,0.404927 0.30654,-0.4682 0.30654,1.24389 0.30655,1.119501 0.30654,-0.657719 0.30654,1.073323 0.30655,0.133354 0.30654,-1.545249 0.30655,-2.223358 0.30654,-1.168388 0.30654,2.278989 0.30655,-2.112083 0.30654,0.597028 0.30655,-0.295309 0.30654,-1.098412 0.30654,1.509334 0.30655,0.525764 0.30654,0.473187 0.30655,1.258505 0.30654,0.300019 0.30654,-1.395252 0.30655,-0.423092 0.30654,-0.380784 0.30654,-1.175338 0.30655,0.607463 0.30654,1.379352 0.30655,0.408782 0.30654,1.200539 0.30654,1.080486 0.30655,1.805066 0.30654,1.62457 0.30655,-0.20316 0.30654,1.48242 0.30654,2.16682 0.30655,-0.54778 0.30654,-0.49299 0.30655,-1.27633 0.30654,-1.14869 0.30654,0.63144 0.30655,-1.09697 0.30654,1.51063 0.30654,1.35957 0.30655,0.39098 0.30654,2.01715 0.30655,1.81543 0.30654,-0.0314 0.30654,0.80439 0.30655,-0.10868 0.30654,-0.0978 0.30655,-0.92067 0.30654,-0.8286 0.30654,-2.411 0.30655,-0.50464 0.30654,-1.28681 0.30654,0.50714 0.30655,-1.20884 0.30654,2.24258 0.30655,2.01832 0.30654,4.31439 0.30654,2.21769 0.30655,-1.33463 0.30654,-2.03379 0.30655,2.33276 0.30654,-0.39842 0.30654,0.47405 0.30655,0.42665 0.30654,-0.44865 0.30655,0.42885 0.30654,-2.11194 0.30654,-1.90074 0.30655,-3.37594 0.30654,0.29219 0.30654,-1.40229 0.30655,-0.42944 0.30654,2.11142 0.30655,1.90027 0.30654,0.87762 0.30654,-0.87542 0.30655,-1.62052 0.30654,-1.45846 0.30655,-2.14524 0.30654,-1.93073 0.30654,-1.737649 0.30655,0.934019 0.30654,0.008 0.30654,0.83982 0.30655,-0.90944 0.30654,-1.65112 0.30655,1.84453 0.30654,0.82744 0.30654,-0.92058 0.30655,-0.828515 0.30654,-1.5783 0.30655,-1.420469 0.30654,-0.445788 0.30654,-1.233844 0.30655,-1.110459 0.30654,-0.166779 0.30655,0.682532 0.30654,0.61428 0.30654,-0.279783 0.30655,-0.251804 0.30654,-0.226624 0.30654,-0.203961 0.30655,0.649068 0.30654,-0.248472 0.30655,-0.223625 0.30654,-0.201262 0.30654,0.651498 0.30655,-0.246287 0.30654,0.610977 0.30655,2.215149 0.30654,0.328364 0.30654,0.295528 0.30655,-0.566659 0.30654,-0.509993 0.30655,-1.291628 0.30654,-1.162466 0.30654,-0.213584 0.30655,-0.192226 0.30654,-0.173004 0.30654,0.676931 0.30655,0.609238 0.30654,-0.28432 0.30655,-1.088522 0.30654,-0.147036 0.30654,-0.132332 0.30655,-1.784368 0.30654,-0.773296 0.30655,-1.528601 0.30654,-1.375741 0.30654,-0.405532 0.30655,-1.197614 0.30654,-0.245218 0.30654,0.611938 0.30655,-0.28189 0.30654,1.411568 0.30655,0.437776 0.30654,2.059269 0.30654,2.685976 0.30655,3.250012 0.30654,1.259743 0.30655,-1.364135 0.30654,-2.060356 0.30654,1.476218 0.30655,0.49596 0.30654,-0.38627 0.30655,-1.180277 0.30654,-0.229615 0.30654,-1.039288 0.30655,0.729909 0.30654,-0.175716 0.30654,-0.158144 0.30655,-0.14233 0.30654,0.704537 0.30655,1.46672 0.30654,-0.345223 0.30654,0.521934 0.30655,1.302376 0.30654,1.172139 0.30655,0.222289 0.30654,1.032696 0.30654,-0.735844 0.30655,-1.494893 0.30654,-2.178038 0.30655,0.537668 0.30654,-0.348733 0.30654,0.518774 0.30655,0.466897 0.30654,1.252843 0.30654,-1.370345 0.30655,-2.065945 0.30654,-0.194082 0.30655,-1.007308 0.30654,0.758691 0.30654,1.515458 0.30655,2.196546 0.30654,1.976892 0.30655,-0.718702 0.30654,1.018438 0.30654,1.749234 0.30655,2.40693 0.30654,1.33362 0.30654,0.36761 0.30655,0.33086 0.30654,1.1304 0.30655,0.18473 0.30654,2.66416 0.30654,1.56511 0.30655,-1.08931 0.30654,-0.14774 0.30655,-1.79823 0.30654,-0.78578 0.30654,-1.53984 0.30655,2.77732 0.30654,1.66696 0.30655,0.66762 0.30654,0.60087 0.30654,0.54077 0.30655,-4.5091 0.30654,1.77024 0.30654,1.59322 0.30655,2.26653 0.30654,2.03988 0.30655,1.00326 0.30654,-0.76234"
                     style="fill:none"
                     fill="none"
                     id="path139" />
                </g>
                <g
                   id="g145">
                  <path
                     stroke="#33bbee"
                     stroke-width="2px"
                     d="m 2.3186501,55.240996 0.2508086,38.914712 0.2508086,12.923702 0.2508087,6.42615 0.2508086,3.82736 0.2508086,2.52818 0.2508086,1.78604 0.2508087,1.32246 0.2508086,1.01364 0.2508086,0.79772 0.2508086,0.64093 0.2508087,0.52358 0.2508086,0.43355 0.2508086,0.36304 0.2508087,0.30687 0.2508086,0.26145 0.2508086,0.22426 0.2508086,0.19347 0.2508087,0.16774 0.2508086,0.14607 0.2508086,0.12767 0.2508086,0.11196 0.2508087,0.0985 0.2508086,0.0868 0.2508086,0.0767 0.2508086,0.0679 0.2508087,0.0602 0.2508086,0.0535 0.2508086,0.0476 0.2508086,0.0424 0.2508087,0.0378 0.2508091,0.0337 0.250808,0.0301 0.250809,0.0269 0.250808,0.0241 0.250809,0.0216 0.250809,0.0193 0.250808,0.0173 0.250809,0.0155 0.250809,0.0139 0.250808,0.0125 0.250809,0.0112 0.250808,0.0101 0.250809,0.009 0.250809,0.008 0.250808,0.007 0.250809,2.48869 0.250809,3.89005 0.250808,-2.28753 0.250809,-2.88207 0.250808,-1.76567 0.250809,-2.41251 0.250809,-4.64323 0.250808,-1.70263 0.250809,-4.00338 0.250809,-1.12936 0.250808,-2.66296 0.250809,-1.57206 0.250808,-1.41418 0.250809,-1.27223 0.250809,-1.14457 0.250808,-2.67523 0.250809,-1.58434 0.250809,-1.42552 0.250808,-0.46025 0.250809,-0.41412 0.250808,-0.372639 0.250809,-0.335314 0.250809,-1.123837 0.250808,-1.011304 0.250809,-0.910054 0.250809,-0.81895 0.250808,-0.736977 0.250809,0.158655 0.250808,0.142777 0.250809,-0.693316 0.250809,-0.623941 0.250808,-0.561511 0.250809,-0.505332 0.250809,-0.454774 0.250808,-0.409279 0.250809,-0.368335 0.250808,-0.33149 0.250809,0.52332 0.250809,-0.350665 0.250808,1.327667 0.250809,-1.269985 0.250809,1.321869 0.250808,1.189658 0.250809,0.249077 0.250808,0.224166 0.250809,0.201746 0.250809,0.181569 0.250808,0.16341 0.250809,0.147068 0.250809,0.13236 0.250808,0.940686 0.250809,0.846611 0.250808,1.583502 0.250809,-1.039522 0.250809,-0.935563 0.250808,-0.842004 0.250809,-1.579347 0.250809,-1.421407 0.250808,-0.457716 0.250809,-1.233487 0.250808,0.53295 0.250809,-0.341888 0.250809,-1.129239 0.250808,-0.194773 0.250809,-1.818377 0.250809,-1.636536 0.250808,-0.651339 0.250809,1.05687 0.250809,-1.513432 0.250808,-1.362087 0.250809,-0.404338 0.250808,-0.363903 0.250809,-1.149052 0.250809,0.608928 0.250808,-0.273501 0.250809,-1.889221 0.250809,-0.878765 0.250808,0.03065 0.250809,2.492187 0.250808,1.421432 0.250809,0.457756 0.250809,0.411979 0.250808,0.370782 0.250809,0.333703 0.250809,-0.5212 0.250808,-0.46908 0.250809,-0.422172 0.250808,-0.379954 0.250809,-0.341959 0.250809,-0.307764 0.250808,-0.276986 0.250809,-0.249288 0.250809,-1.045896 0.250808,-0.119769 0.250809,-0.107793 0.250808,-0.09701 0.250809,-0.08731 0.250809,-0.07858 0.250808,-0.07072 0.250809,-0.06365 0.250809,-0.878822 0.250808,-1.612471 0.250809,-1.451224 0.250808,-2.127634 0.250809,0.54973 0.250809,-0.326779 0.250808,0.527434 0.250809,0.474692 0.250809,0.427222 0.250808,0.384499 0.250809,0.34605 0.250808,0.311445 0.250809,0.2803 0.250809,0.252271 0.250808,0.227043 0.250809,0.204339 0.250809,0.183905 0.250808,0.165515 0.250809,0.148963 0.250808,0.134066 0.250809,0.12066 0.250809,0.108595 0.250808,-0.723801 0.250809,0.170114 0.250809,-0.668432 0.250808,0.219947 0.250809,0.197951 0.250808,0.178157 0.250809,0.160341 0.250809,0.965839 0.250808,0.04772 0.250809,0.864483 0.250809,-0.0435 0.250808,-0.03915 0.250809,-0.856768 0.250808,0.05044 0.250809,0.0454 0.250809,-0.780676 0.250808,-0.702609 0.250809,0.189188 0.250809,0.17027 0.250808,0.153242 0.250809,0.137918 0.250808,0.124126 0.250809,0.111714 0.250809,-0.720994 0.250808,-0.648894 0.250809,-0.584004 0.250809,-0.525605 0.250808,-0.473043 0.250809,-0.42574 0.250809,0.43837 0.250808,0.394534 0.250809,0.35508 0.250808,-0.501964 0.250809,-0.451768 0.250809,0.414945 0.250808,-0.448085 0.250809,-0.403276 0.250809,0.458586 0.250808,0.412728 0.250809,-0.45008 0.250808,0.416463 0.250809,0.374817 0.250809,-0.4842 0.250808,0.385755 0.250809,-0.474356 0.250809,-0.42692 0.250808,-0.384229 0.250809,-0.345805 0.250808,-0.311225 0.250809,0.541433 0.250809,0.48729 0.250808,0.438561 0.250809,0.394705 0.250809,-0.466301 0.250808,0.401864 0.250809,0.361678 0.250808,-0.496025 0.250809,0.375112 0.250809,0.337602 0.250808,0.303841 0.250809,-0.548078 0.250809,-0.493271 0.250808,-0.443943 0.250809,0.421986 0.250808,0.379788 0.250809,1.163341 0.250809,-0.596061 0.250808,0.285081 0.250809,-0.564963 0.250809,-0.508466 0.250808,-0.45762 0.250809,0.409678 0.250808,-0.452826 0.250809,0.413993 0.250809,-0.448942 0.250808,-0.404048 0.250809,0.457892 0.250809,-1.230965 0.250808,0.5352 0.250809,-0.339856 0.250808,0.515665 0.250809,0.464099 0.250809,0.417689 0.250808,0.37592 0.250809,0.338328 0.250809,-0.517041 0.250808,-1.286868 0.250809,-1.979714 0.250808,-0.96021 0.250809,-0.04266 0.250809,-1.681456 0.250808,0.95129 0.250809,0.03463 0.250809,0.852698 0.250808,-0.875639 0.250809,0.03346 0.250808,-1.612953 0.250809,0.191406 0.250809,-0.649266 0.250808,-0.58434 0.250809,0.295626 0.250809,-0.555468 0.250808,1.143146 0.250809,-0.614236 0.250808,1.090255 0.250809,-3.126434 0.250809,-1.992259 0.250808,0.671564 0.250809,0.604407 0.250809,0.543966 0.250808,-1.153495 0.250809,-1.038145 0.250809,-0.112798 0.250808,-0.101519 0.250809,-0.09137 0.250808,-0.08223 0.250809,-0.07401 0.250809,-0.06661 0.250808,-0.881478 0.250809,-0.79333 0.250809,0.107535 0.250808,0.918314 0.250809,-0.816582 0.250808,1.729676 0.250809,-0.907891 0.250809,-0.817102 0.250808,0.08614 0.250809,0.07753 0.250809,-0.751759 0.250808,0.14495 0.250809,0.130454 0.250808,0.117409 0.250809,0.105668 0.250809,0.916633 0.250808,0.82497 0.250809,-0.07906 0.250809,1.571915 0.250808,-1.049877 0.250809,0.698175 0.250808,0.628358 0.250809,-0.25601 0.250809,-0.23041 0.250808,-0.207368 0.250809,1.456436 0.250809,1.310793 0.250808,-0.463354 0.250809,-0.417019 0.250808,0.446215 0.250809,-0.419939 0.250809,-1.199476 0.250808,-0.257997 0.250809,0.589334 0.250809,0.530402 0.250808,-1.987235 0.250809,-0.96698 0.250808,-0.04875 0.250809,-0.865407 0.250809,0.04267 0.250808,-0.783132 0.250809,0.116713 0.250809,0.926573 0.250808,0.833916 0.250809,-0.07101 0.250808,-0.885439 0.250809,-0.796895 0.250809,-0.717205 0.250808,-0.645485 0.250809,-0.580936 0.250809,0.298689 0.250808,-0.552712 0.250809,0.324092 0.250808,0.291682 0.250809,-0.559017 0.250809,-0.503117 0.250808,0.368728 0.250809,-0.489677 0.250809,1.202354 0.250808,1.082119 0.250809,0.152375 0.250808,0.137138 0.250809,0.123424 0.250809,0.111081 0.250808,0.09997 0.250809,0.911508 0.250809,-0.0012 0.250808,-0.822589 0.250809,0.902733 0.250808,1.633996 0.250809,-0.172471 0.250809,1.487843 0.250808,0.517524 0.250809,0.465771 0.250809,0.419194 0.250808,1.19881 0.250809,0.257394 0.250809,1.874721 0.250808,-2.420413 0.250809,0.286223 0.250808,-1.385463 0.250809,-2.068449 0.250809,-0.218539 0.250808,-0.196686 0.250809,1.46605 0.250809,0.49791 0.250808,-0.373413 0.250809,-0.336072 0.250808,-1.123997 0.250809,-0.190065 0.250809,-0.171058 0.250808,-0.153953 0.250809,-0.138558 0.250809,-0.124701 0.250808,-0.933764 0.250809,0.802677 0.250808,-1.742187 0.250809,-0.746436 0.250809,-0.671792 0.250808,-1.426146 0.250809,-0.461998 0.250809,1.227265 0.250808,5.212204 0.250809,2.226386 0.250804,0.360679 0.25081,-0.49692 0.25081,0.374304 0.25081,1.158409 0.25081,1.042568 0.25081,0.116775 0.25081,0.926634 0.2508,-0.809097 0.25081,-3.192784 0.25081,0.412623 0.25081,-0.450172 0.25081,-0.405154 0.25081,-2.829235 0.25081,-0.903247 0.25081,-0.812923 0.2508,-0.73163 0.25081,-1.48 0.25081,-2.153531 0.25081,-2.759714 0.25081,-2.483743 0.25081,-0.5923 0.25081,-1.354603 0.2508,-1.219142 0.25081,-0.275696 0.25081,-0.248127 0.25081,-0.223314 0.25081,0.62055 0.25081,-1.08457 0.25081,0.666952 0.2508,-0.221276 0.25081,-1.842215 0.25081,0.806605 0.25081,-2.560187 0.25081,0.160432 0.25081,-0.677143 0.25081,0.212102 0.2508,-1.452175 0.25081,1.157642 0.25081,1.041878 0.25081,-0.705374 0.25081,-1.456372 0.25081,0.332333 0.25081,-0.522433 0.25081,0.351343 0.2508,-0.505324 0.25081,2.009805 0.25081,2.630356 0.25081,-0.09728 0.25081,-0.90908 0.25081,1.646424 0.25081,2.303314 0.2508,-0.391614 0.25081,-0.352452 0.25081,0.504325 0.25081,-2.010707 0.25081,-1.809637 0.25081,-0.807137 0.25081,0.09511 0.2508,0.0856 0.25081,0.07704 0.25081,-0.752197 0.25081,0.966085 0.25081,1.69101 0.25081,-0.942688 0.25081,2.437709 0.25081,-0.270657 0.2508,-1.065124 0.25081,-0.958612 0.25081,-1.684286 0.25081,2.591806 0.25081,-2.59657 0.25081,-0.693845 0.25081,-1.445997 0.2508,0.341671 0.25081,-0.514028 0.25081,0.358906 0.25081,1.144548 0.25081,0.208561 0.25081,-0.633827 0.25081,-1.39198 0.2508,2.03335 0.25081,1.008482 0.25081,0.0861 0.25081,-1.565576 0.25081,1.877114 0.25081,-0.775194 0.25081,-0.697674 0.2508,0.193625 0.25081,0.995795 0.25081,0.896215 0.25081,2.449658 0.25081,-1.902972 0.25081,-0.06961 0.25081,0.758886 0.25081,-0.138535 0.2508,-2.589281 0.25081,-1.508821 0.25081,0.285129 0.25081,3.542748 0.25081,-0.09766 0.25081,-1.730961 0.25081,0.0852 0.2508,0.07668 0.25081,1.712079 0.25081,-1.745261 0.25081,0.07233 0.25081,0.0651 0.25081,0.880122 0.25081,-0.02942 0.2508,0.795052 0.25081,-1.749053 0.25081,-0.752613 0.25081,2.608777 0.25081,-0.938228 0.25081,3.263258 0.25081,-1.170732 0.25081,0.589406 0.2508,-0.291067 0.25081,1.381103 0.25081,-2.043138 0.25081,0.625775 0.25081,-1.079866 0.25081,-0.97188 0.25081,0.768372 0.2508,1.513067 0.25081,-0.281303 0.25081,0.568358 0.25081,-0.310009 0.25081,-1.10054 0.25081,0.652578 0.25081,-0.234212 0.2508,0.610741 0.25081,-3.557997 0.25081,3.370067 0.25081,-0.253072 0.25081,-2.692364 0.25081,0.863003 0.25081,0.776704 0.2508,-0.122499 0.25081,3.175882 0.25081,-3.713969 0.25081,1.586624 0.25081,3.071029 0.25081,0.299326 0.25081,-0.552138 0.25081,-0.496925 0.2508,0.3743 0.25081,-2.12773 0.25081,0.549643 0.25081,-1.148385 0.25081,0.609517 0.25081,-3.559098 0.25081,1.726007 0.2508,0.731875 0.25081,2.301751 0.25081,-1.214552 0.25081,0.549967 0.25081,2.138035 0.25081,-0.540365 0.25081,1.978267 0.2508,-0.684155 0.25081,4.313456 0.25081,-1.047086 0.25081,2.343755 0.25081,-1.176752 0.25081,-1.880609 0.25081,-0.04948 0.25081,-2.509135 0.2508,-0.615155 0.25081,1.910958 0.25081,0.0768 0.25081,-1.573946 0.25081,0.226512 0.25081,1.025393 0.25081,-1.541742 0.2508,2.720096 0.25081,-0.838046 0.25081,-0.75424 0.25081,-2.321885 0.25081,0.374904 0.25081,2.802012 0.25081,-3.228919 0.2508,-2.084496 0.25081,1.410085 0.25081,0.447545 0.25081,2.86739 0.25081,0.116052 0.25081,-0.717086 0.25081,3.462287 0.2508,-0.170074 0.25081,-0.974599 0.25081,-0.05561 0.25081,-0.05005 0.25081,-1.688105 0.25081,-0.697763 0.25081,-0.627987 0.25081,0.256345 0.2508,1.873773 0.25081,2.507932 0.25081,0.614071 0.25081,-2.733467 0.25081,0.826011 0.25081,3.208009 0.25081,1.244141 0.2508,-0.523338 0.25081,-2.935603 0.25081,1.465621 0.25081,-0.324005 0.25081,-0.291605 0.25081,-0.262444 0.25081,-1.057732 0.2508,-2.595027 0.25081,-1.513988 0.25081,-2.184125 0.25081,0.498888 0.25081,-1.194066 0.25081,0.568405 0.25081,0.511565 0.2508,-0.361124 0.25081,0.49652 0.25081,0.446869 0.25081,-2.062418 0.25081,-1.856177 0.25081,1.615573 0.25081,-1.01058 0.25081,0.733542 0.2508,-0.161344 0.25081,-0.14521 0.25081,-0.130689 0.25081,-0.11762 0.25081,-0.927391 0.25081,0.808413 0.25081,1.549104 0.2508,-1.070403 0.25081,-2.60643 0.25081,0.940345 0.25081,0.02478 0.25081,0.0223 0.25081,0.02007 0.25081,0.01806 0.2508,0.01626 0.25081,-0.806901 0.25081,-1.547747 0.25081,0.250096 0.25081,1.868151 0.25081,1.681335 0.25081,-0.951394 0.25081,0.786809 0.2508,-1.756471 0.25081,-0.759289 0.25081,-0.68336 0.25081,-0.615023 0.25081,0.26801 0.25081,0.24121 0.25081,-0.604444 0.2508,-0.543999 0.25081,-0.489599 0.25081,-0.440639 0.25081,0.424957 0.25081,1.203993 0.25081,-2.202538 0.25081,-0.339217 0.2508,-0.305295 0.25081,0.546767 0.25081,0.49209 0.25081,1.264413 0.25081,-1.326628 0.25081,2.092166 0.25081,-0.581646 0.2508,0.298051 0.25081,0.268245 0.25081,0.241421 0.25081,0.217279 0.25081,-0.625981 0.25081,-2.206451 0.25081,1.300326 0.25081,-2.93737 0.2508,0.642498 0.25081,-0.243283 0.25081,1.424109 0.25081,1.281698 0.25081,0.331996 0.25081,0.298797 0.25081,0.268917 0.2508,-2.222574 0.25081,-0.35725 0.25081,-0.321524 0.25081,-1.93244 0.25081,-0.917663 0.25081,-0.0044 0.25081,0.817607 0.2508,-0.08569 0.25081,0.744414 0.25081,-0.151559 0.25081,-0.136403 0.25081,0.698769 0.25081,0.628893 0.25081,0.566003 0.25081,-1.955197 0.2508,1.526455 0.25081,3.016873 0.25081,1.072121 0.25081,1.786442 0.25081,-0.03527 0.25081,1.611324 0.25081,-2.657472 0.2508,0.894407 0.25081,0.804966 0.25081,-0.09706 0.25081,-0.908888 0.25081,0.0035 0.25081,1.646244 0.25081,-0.161445 0.2508,-0.145301 0.25081,2.333826 0.25081,-1.185685 0.25081,1.397479 0.25081,-1.206864 0.25081,3.021485 0.25081,0.254738 0.2508,-0.592268 0.25081,-0.533042 0.25081,-2.122805 0.25081,-0.267457 0.25081,-4.348375 0.25081,-0.627405 0.25081,-1.386201 0.25081,2.860083 0.2508,-1.533589 0.25081,-0.558694 0.25081,-1.324361 0.25081,-0.370389 0.25081,-1.154886 0.25081,-1.860929 0.25081,-0.853304 0.2508,1.696626 0.25081,-0.116101 0.25081,-0.10449 0.25081,1.549022 0.25081,-0.248944 0.25081,-1.867117 0.25081,-0.858873 0.2508,0.04855 0.25081,-1.599373 0.25081,-0.617903 0.25081,-0.556114 0.25081,1.142566 0.25081,0.206777 0.25081,0.186099 0.25081,0.16749 0.2508,0.15074 0.25081,-0.685869 0.25081,0.204253 0.25081,-1.459239 0.25081,1.972816 0.25081,1.775534 0.25081,2.419513 0.2508,-1.10857 0.25081,1.466887 0.25081,-0.322866 0.25081,1.352484 0.25081,1.217237 0.25081,-0.547552 0.25081,-2.957396 0.2508,-1.018592 0.25081,-0.0952 0.25081,-0.907213 0.25081,0.826575 0.25081,2.386982 0.25081,1.326752 0.25081,0.372545 0.2508,1.978354 0.25081,-0.684077 0.25081,3.491994 0.25081,2.321259 0.25081,4.553733 0.25081,4.098359 0.25081,4.510058 0.25081,4.880584 0.2508,1.927927 0.25081,0.913603 0.25081,0.822242 0.25081,0.740018 0.25081,-0.155519 0.25081,1.5031 0.25081,0.531259 0.2508,-1.164935 0.25081,1.416158 0.25081,-0.368526 0.25081,-1.153205 0.25081,-1.037884 0.25081,-0.934096 0.25081,-0.840687 0.2508,-0.756617 0.25081,-0.680956 0.25081,-0.612861 0.25081,-1.373106 0.25081,-0.414264 0.25081,-0.372837 0.25081,-1.157086 0.25081,0.601687 0.2508,-1.101546 0.25081,-1.812923 0.25081,-0.810099 0.25081,-1.550621 0.25081,-0.574026 0.25081,-1.338157 0.25081,0.438724 0.2508,-0.426681 0.25081,-2.027077 0.25081,-0.181305 0.25081,-0.984707 0.25081,-2.529303 0.25081,1.009758 0.25081,0.08725 0.2508,-1.564539 0.25081,0.23498 0.25081,0.211481 0.25081,0.190333 0.25081,-3.114831 0.25081,-1.160281 0.25081,-1.865789 0.2508,-0.03614 0.25081,0.789005 0.25081,-0.111429 0.25081,0.721247 0.25081,1.470654 0.25081,-0.319475 0.25081,0.534004 0.25081,-1.162461 0.2508,-3.510814 0.25081,-2.3382 0.25081,-2.104381 0.25081,-1.893942 0.25081,-1.704548 0.25081,-1.534094 0.25081,-3.023748 0.2508,1.386291 0.25081,0.426129 0.25081,-0.438019 0.25081,-1.215749 0.25081,-0.272643 0.25081,-1.888442 0.25081,-2.52113 0.2508,1.838647 0.25081,0.83325 0.25081,-2.536206 0.25081,0.18201 0.25081,0.163809 0.25081,1.790496 0.25081,-0.03162 0.2508,-2.493055 0.25081,1.042382 0.25081,-0.704924 0.25081,1.008636 0.25081,1.729304 0.25081,-0.08669 0.25081,2.386575 0.25081,-1.959746 0.2508,-0.120707 0.25081,-0.930168 0.25081,-0.837152 0.25081,-0.753436 0.25081,-2.321157 0.25081,-0.445977 0.25081,-1.222912 0.2508,-0.279088 0.25081,-0.25118 0.25081,1.417007 0.25081,1.275305 0.25081,0.326239 0.25081,-0.527916 0.25081,1.167942 0.2508,-0.591919 0.25081,-1.354259 0.25081,-1.218833 0.25081,0.546114 0.25081,1.313038 0.25081,-0.461334 0.25081,1.227868 0.25081,-1.359518 0.2508,0.419497 0.25081,-0.443985 0.25081,0.421946 0.25081,2.022819 0.25081,0.999005 0.25081,2.542169 0.25081,0.644887 0.2508,-0.241136 0.25081,1.426044 0.25081,1.28344 0.25081,1.976629 0.25081,-1.507167 0.25081,-1.356449 0.25081,-0.399273 0.2508,-0.359346 0.25081,-0.323411"
                     style="fill:none"
                     fill="none"
                     id="path143" />
                </g>
              </g>
            </g>
          </g>
          <g
             opacity="0.2"
             id="g165">
            <g
               id="g163">
              <g
                 id="g161">
                <g
                   id="g155">
                  <path
                     stroke="#ff7043"
                     stroke-width="2px"
                     d="M 2.3743853,58.904572 2.6809292,125.51535 H 2.9874731 3.294017 3.6005608 3.9071047 4.2136486 4.5201925 4.8267363 5.1332802 5.4398241 5.746368 6.0529119 6.3594557 6.6659996 6.9725435 7.2790874 7.5856312 7.8921751 8.198719 h 0.3065439 0.3065438 0.3065439 0.3065439 0.3065439 0.3065436 0.306544 0.306544 0.306544 0.306544 0.306544 0.306544 0.306543 0.306544 0.306544 0.306544 0.306544 0.306544 0.306544 0.306544 0.306543 0.306544 0.306544 0.306544 0.306544 0.306544 0.306544 0.306544 0.306543 0.306544 0.306544 0.306544 0.306544 0.306544 0.306544 l 0.306544,-41.631718 0.306543,-24.97906 0.306544,49.958098 h 0.306544 l 0.306544,-8.32636 h 0.306544 L 21.073562,83.883632 21.380106,67.23095 21.68665,92.209972 h 0.306543 0.306544 0.306544 l 0.306544,8.326338 0.306544,8.32636 h 0.306544 l 0.306544,-33.305379 0.306544,24.979019 0.306543,8.32636 0.306544,-16.652698 0.306544,8.326338 0.306544,-8.326338 0.306544,8.326338 0.306544,-16.652678 h 0.306544 l 0.306544,24.979038 h 0.306543 0.306544 0.306544 l 0.306544,8.32634 0.306544,-16.6527 0.306544,8.32636 0.306544,-24.979038 h 0.306544 l 0.306543,8.32634 0.306544,8.326338 h 0.306544 0.306544 l 0.306544,-8.326338 0.306544,8.326338 h 0.306544 l 0.306544,8.32636 0.306544,-16.652698 0.306543,-8.32634 0.306544,8.32634 h 0.306544 l 0.306544,8.326338 0.306544,-24.979019 h 0.306544 0.306544 0.306544 0.306543 0.306544 0.306544 l 0.306544,8.326341 h 0.306544 l 0.306544,-8.326341 h 0.306544 0.306544 l 0.306543,24.979019 0.306544,-8.326338 0.306544,-16.652681 0.306544,8.326341 h 0.306544 0.306544 l 0.306544,8.32634 0.306544,-8.32634 0.306543,8.32634 h 0.306544 0.306544 l 0.306544,-8.32634 0.306544,8.32634 h 0.306544 l 0.306544,-8.32634 0.306544,-8.326341 h 0.306543 0.306544 l 0.306544,8.326341 h 0.306544 0.306544 l 0.306544,8.32634 0.306544,-8.32634 0.306544,-16.652682 0.306543,16.652682 0.306544,24.979038 0.306544,-24.979038 0.306544,-8.326341 0.306544,8.326341 0.306544,-8.326341 0.306544,16.652681 h 0.306544 0.306543 l 0.306544,8.326338 h 0.306544 l 0.306544,-8.326338 h 0.306544 l 0.306544,16.652698 0.306544,-16.652698 0.306544,-8.32634 0.306543,16.652678 0.306544,-16.652678 0.306544,8.32634 h 0.306544 l 0.306544,-8.32634 h 0.306544 0.306544 l 0.306544,8.32634 0.306544,8.326338 0.306543,-8.326338 0.306544,8.326338 h 0.306544 l 0.306544,-8.326338 0.306544,-8.32634 h 0.306544 0.306544 l 0.306544,8.32634 0.306543,-24.979022 0.306544,8.326341 0.306544,8.326341 0.306544,-8.326341 0.306544,8.326341 0.306544,8.32634 0.306544,-8.32634 h 0.306544 l 0.306543,16.652678 h 0.306544 0.306544 0.306544 0.306544 l 0.306544,8.32636 0.306544,-8.32636 0.306544,8.32636 0.306543,-8.32636 h 0.306544 l 0.306544,8.32636 h 0.306544 l 0.306544,-16.652698 h 0.306544 l 0.306544,16.652698 h 0.306544 l 0.306543,-16.652698 h 0.306544 0.306544 0.306544 l 0.306544,8.326338 0.306544,-8.326338 h 0.306544 l 0.306544,8.326338 h 0.306543 l 0.306544,-16.652678 0.306544,16.652678 0.306544,-16.652678 0.306544,8.32634 0.306544,-8.32634 0.306544,16.652678 0.306544,8.32636 0.306543,-24.979038 0.306544,-16.652682 0.306544,33.30536 0.306544,-16.652678 0.306544,8.32634 h 0.306544 l 0.306544,16.652698 0.306544,-16.652698 0.306543,-16.652681 h 0.306544 l 0.306544,8.326341 h 0.306544 l 0.306544,-8.326341 0.306544,8.326341 0.306544,-8.326341 0.306544,8.326341 h 0.306543 l 0.306544,-8.326341 0.306544,16.652681 0.306544,-8.32634 h 0.306544 0.306544 l 0.306544,8.32634 0.306544,-33.3054 0.306544,8.326378 h 0.306543 0.306544 l 0.306544,8.326341 0.306544,8.326341 h 0.306544 0.306544 0.306544 l 0.306544,-8.326341 0.306543,8.326341 0.306544,8.32634 h 0.306544 l 0.306544,8.326338 h 0.306544 0.306544 0.306544 0.306544 l 0.306543,-16.652678 h 0.306544 0.306544 l 0.306544,8.32634 0.306544,-8.32634 h 0.306544 l 0.306544,24.979038 0.306544,16.65268 h 0.306543 l 0.306544,-33.305378 0.306544,8.326338 0.306544,-8.326338 0.306544,8.326338 0.306544,-8.326338 h 0.306544 0.306544 L 84.2216,67.23095 l 0.306544,8.326341 h 0.306544 l 0.306544,24.979019 h 0.306544 0.306544 0.306544 l 0.306544,-8.326338 h 0.306543 l 0.306544,8.326338 0.306544,-8.326338 h 0.306544 l 0.306544,8.326338 0.306544,-16.652678 h 0.306544 l 0.306544,16.652678 0.306543,8.32636 0.306544,16.65268 0.306544,-8.32634 0.306544,-49.95806 0.306544,16.652682 h 0.306544 0.306544 0.306544 0.306543 l 0.306544,-8.326341 0.306544,33.305379 0.306544,-16.652698 h 0.306544 0.306544 0.306544 l 0.306544,8.326338 h 0.306544 0.306543 0.306544 0.306544 l 0.306544,8.32636 0.306544,-8.32636 0.306544,8.32636 0.306544,-16.652698 h 0.306544 l 0.306543,8.326338 0.306544,8.32636 0.306544,16.65268 0.306544,-16.65268 0.306544,-16.652698 0.306544,8.326338 0.306544,-8.326338 h 0.306544 l 0.306543,16.652698 0.306544,8.32634 0.306544,-8.32634 h 0.306542 l 0.30655,-8.32636 0.30654,-8.326338 h 0.30654 l 0.30655,16.652698 0.30654,-16.652698 h 0.30655 l 0.30654,16.652698 0.30654,-16.652698 0.30655,-8.32634 0.30654,8.32634 h 0.30654 0.30655 l 0.30654,-16.652681 0.30655,8.326341 0.30654,8.32634 0.30654,-8.32634 0.30655,8.32634 h 0.30654 l 0.30655,-16.652681 0.30654,24.979019 h 0.30654 l 0.30655,8.32636 0.30654,-16.652698 0.30655,-8.32634 h 0.30654 0.30654 0.30655 l 0.30654,8.32634 h 0.30654 0.30655 0.30654 0.30655 0.30654 0.30654 0.30655 0.30654 0.30655 0.30654 0.30654 l 0.30655,8.326338 0.30654,-8.326338 0.30654,8.326338 0.30655,-8.326338 0.30654,8.326338 h 0.30655 0.30654 l 0.30654,8.32636 0.30655,-16.652698 0.30654,-16.652681 0.30655,8.326341 0.30654,16.652678 h 0.30654 0.30655 l 0.30654,-8.326338 h 0.30655 l 0.30654,8.326338 0.30654,-8.326338 0.30655,16.652698 h 0.30654 0.30654 l 0.30655,-8.32636 h 0.30654 0.30655 0.30654 0.30654 l 0.30655,16.6527 h 0.30654 l 0.30655,8.32634 h 0.30654 l 0.30654,-24.97904 0.30655,-33.30536 0.30654,8.326341 0.30655,-8.326341 h 0.30654 0.30654 l 0.30655,8.326341 h 0.30654 0.30654 0.30655 0.30654 0.30655 l 0.30654,-8.326341 0.30654,8.326341 0.30655,8.326341 0.30654,16.652678 h 0.30655 0.30654 0.30654 0.30655 0.30654 0.30654 0.30655 l 0.30654,8.32636 0.30655,-16.652698 0.30654,16.652698 0.30654,-16.652698 0.30655,16.652698 h 0.30654 l 0.30655,-8.32636 h 0.30654 0.30654 l 0.30655,-8.326338 0.30654,8.326338 0.30655,-8.326338 0.30654,8.326338 h 0.30654 0.30655 0.30654 l 0.30654,-8.326338 h 0.30655 0.30654 l 0.30655,8.326338 0.30654,-8.326338 h 0.30654 0.30655 l 0.30654,8.326338 0.30655,-8.326338 0.30654,-8.32634 0.30654,16.652678 0.30655,-8.326338 0.30654,24.979038 h 0.30655 0.30654 l 0.30654,8.32634 0.30655,-16.65268 0.30654,-8.32636 h 0.30654 0.30655 0.30654 0.30655 0.30654 0.30654 0.30655 l 0.30654,-8.326338 h 0.30655 0.30654 0.30654 0.30655 0.30654 0.30654 l 0.30655,8.326338 0.30654,-8.326338 h 0.30655 0.30654 0.30654 0.30655 0.30654 0.30655 0.30654 0.30654 0.30655 l 0.30654,-8.32634 h 0.30655 l 0.30654,8.32634 h 0.30654 0.30655 0.30654 l 0.30654,8.326338 h 0.30655 0.30654 0.30655 0.30654 l 0.30654,-8.326338 0.30655,8.326338 h 0.30654 l 0.30655,-8.326338 0.30654,16.652698 0.30654,-16.652698 0.30655,8.326338 h 0.30654 0.30654 0.30655 l 0.30654,-16.652678 0.30655,16.652678 h 0.30654 l 0.30654,8.32636 0.30655,8.32634 0.30654,8.32634 h 0.30655 0.30654 0.30654 l 0.30655,-16.65268 h 0.30654 0.30655 l 0.30654,-8.32636 0.30654,-8.326338 h 0.30655 0.30654 0.30654 0.30655 l 0.30654,8.326338 h 0.30655 0.30654 l 0.30654,-8.326338 h 0.30655 0.30654 0.30655 0.30654 0.30654 l 0.30655,-16.652681 0.30654,8.326341 0.30655,8.32634 h 0.30654 l 0.30654,-8.32634 h 0.30655 0.30654 l 0.30654,8.32634 h 0.30655 0.30654 0.30655 l 0.30654,8.326338 0.30654,-8.326338 0.30655,16.652698 0.30654,-33.305379 h 0.30655 l 0.30654,16.652681 h 0.30654 0.30655 0.30654 l 0.30654,8.326338 h 0.30655 0.30654 0.30655 l 0.30654,-24.979019 0.30654,33.305379 0.30655,-8.32636 0.30654,8.32636 h 0.30655 0.30654 l 0.30654,-16.652698 h 0.30655 l 0.30654,8.326338 h 0.30655 l 0.30654,8.32636 0.30654,-8.32636 0.30655,8.32636 0.30654,-8.32636 0.30654,8.32636 0.30655,-8.32636 h 0.30654 0.30655 0.30654 l 0.30654,8.32636 h 0.30655 0.30654 l 0.30655,-8.32636 0.30654,8.32636 h 0.30654 0.30655 0.30654 0.30655 0.30654 0.30654 0.30655 0.30654 0.30654 0.30655 0.30654 0.30655 0.30654 0.30654 0.30655 l 0.30654,-8.32636 0.30655,8.32636 h 0.30654 0.30654 0.30655 l 0.30654,-8.32636 0.30654,8.32636 h 0.30655 0.30654 l 0.30655,-8.32636 0.30654,8.32636 0.30654,-8.32636 h 0.30655 l 0.30654,8.32636 h 0.30655 0.30654 l 0.30654,-8.32636 h 0.30655 0.30654 0.30655 0.30654 l 0.30654,-8.326338 0.30655,8.326338 h 0.30654 0.30654 0.30655 0.30654 l 0.30655,8.32636 0.30654,-8.32636 0.30654,8.32636 h 0.30655 0.30654 l 0.30655,-8.32636 h 0.30654 0.30654 0.30655 l 0.30654,8.32636 h 0.30655 0.30654 0.30654 0.30655 l 0.30654,-8.32636 0.30654,-8.326338 0.30655,8.326338 h 0.30654 l 0.30655,-8.326338 0.30654,8.326338 h 0.30654 l 0.30655,8.32636 h 0.30654 l 0.30655,-8.32636 h 0.30654 l 0.30654,-8.326338 0.30655,8.326338 h 0.30654 0.30654 0.30655 l 0.30654,8.32636 0.30655,-33.305379 0.30654,-8.326341 0.30654,8.326341 0.30655,-24.979059 0.30654,16.652718 0.30655,24.979022 0.30654,-8.32634 0.30654,-8.326341 0.30655,-8.326341 0.30654,16.652682 0.30655,-8.326341 0.30654,16.652681 h 0.30654 l 0.30655,-8.32634 h 0.30654 l 0.30654,8.32634 0.30655,8.326338 0.30654,-8.326338 0.30655,-8.32634 0.30654,16.652678 h 0.30654 0.30655 0.30654 l 0.30655,-8.326338 0.30654,8.326338 h 0.30654 0.30655 l 0.30654,-8.326338 h 0.30655 l 0.30654,8.326338 h 0.30654 l 0.30655,-8.326338 0.30654,16.652698 0.30654,-16.652698 0.30655,16.652698 h 0.30654 l 0.30655,-16.652698 0.30654,8.326338 0.30654,-16.652678 0.30655,16.652678 0.30654,-8.326338 0.30655,8.326338 0.30654,-8.326338 0.30654,16.652698 h 0.30655 l 0.30654,-16.652698 0.30654,16.652698 0.30655,-8.32636 0.30654,-16.652678 0.30655,-8.326341 0.30654,8.326341 0.30654,33.305378 0.30655,-41.631719 0.30654,24.979019 0.30655,-8.326338 0.30654,-8.32634 0.30654,24.979038 0.30655,-8.32636 h 0.30654 l 0.30655,8.32636 0.30654,-8.32636 0.30654,-16.652678 0.30655,8.32634 h 0.30654 l 0.30654,-8.32634 0.30655,16.652678 0.30654,8.32636 0.30655,-8.32636 0.30654,8.32636 h 0.30654 l 0.30655,8.32634 h 0.30654 l 0.30655,-16.6527 0.30654,16.6527 0.30654,8.32634 0.30655,-24.97904 h 0.30654 l 0.30655,-8.326338 h 0.30654 l 0.30654,16.652698 0.30655,-16.652698 0.30654,24.979038 h 0.30654 l 0.30655,-8.32634 0.30654,16.65268 h 0.30655 l 0.30654,-16.65268 0.30654,8.32634 0.30655,-8.32634 h 0.30654 l 0.30655,-8.32636 h 0.30654 l 0.30654,-16.652678 0.30655,16.652678 0.30654,-8.326338 0.30654,16.652698 0.30655,-16.652698 0.30654,33.305378 h 0.30655 l 0.30654,24.97904 0.30654,-16.6527 0.30655,-33.30538 0.30654,-8.326338 0.30655,41.631718 0.30654,-24.97902 0.30654,8.32634 h 0.30655 l 0.30654,-8.32634 0.30655,8.32634 0.30654,-24.979038 h 0.30654 l 0.30655,-16.652681 0.30654,33.305379 0.30654,-16.652698 0.30655,8.326338 0.30654,24.97904 h 0.30655 l 0.30654,-8.32634 0.30654,-16.6527 0.30655,-8.326338 h 0.30654 l 0.30655,-8.32634 h 0.30654 0.30654 l 0.30655,24.979038 0.30654,-8.32636 0.30654,8.32636 0.30655,-16.652698 0.30654,-8.32634 0.30655,33.305378 0.30654,-8.32634 0.30654,-16.652698 h 0.30655 l 0.30654,-8.32634 h 0.30655 l 0.30654,8.32634 0.30654,-8.32634 h 0.30655 l 0.30654,8.32634 0.30655,8.326338 h 0.30654 l 0.30654,-8.326338 h 0.30655 0.30654 0.30654 l 0.30655,8.326338 0.30654,-8.326338 h 0.30655 0.30654 l 0.30654,8.326338 0.30655,-8.326338 0.30654,8.326338 0.30655,16.6527 0.30654,-16.6527 h 0.30654 l 0.30655,-8.326338 h 0.30654 l 0.30655,-8.32634 h 0.30654 l 0.30654,8.32634 h 0.30655 0.30654 l 0.30654,8.326338 h 0.30655 l 0.30654,-8.326338 0.30655,-8.32634 0.30654,8.32634 h 0.30654 l 0.30655,-16.652681 0.30654,8.326341 0.30655,-8.326341 h 0.30654 l 0.30654,8.326341 0.30655,-8.326341 0.30654,8.326341 0.30654,8.32634 0.30655,-8.32634 0.30654,16.652678 0.30655,-8.326338 0.30654,16.652698 0.30654,8.32634 0.30655,8.32634 0.30654,-16.65268 0.30655,-24.979038 0.30654,-8.326341 0.30654,33.305379 0.30655,-8.32636 0.30654,-8.326338 0.30655,-8.32634 0.30654,8.32634 0.30654,-8.32634 0.30655,16.652678 0.30654,-8.326338 h 0.30654 0.30655 l 0.30654,8.326338 0.30655,8.32636 0.30654,-16.652698 0.30654,8.326338 0.30655,8.32636 h 0.30654 l 0.30655,-8.32636 0.30654,8.32636 0.30654,-16.652698 0.30655,-8.32634 0.30654,-8.326341 0.30655,24.979019 0.30654,-8.326338 0.30654,8.326338 h 0.30655 l 0.30654,8.32636 0.30654,-24.979038 0.30655,-8.326341 0.30654,16.652681 0.30655,-8.32634 0.30654,16.652678 0.30654,8.32636 0.30655,8.32634 h 0.30654 l 0.30655,-24.979038 0.30654,16.652698 0.30654,8.32634 0.30655,8.32634 0.30654,-8.32634 0.30654,-8.32634 h 0.30655 l 0.30654,8.32634 0.30655,-8.32634 0.30654,24.97902 0.30654,-8.32634 0.30655,-24.97904 0.30654,8.32636 0.30655,-16.652698 0.30654,8.326338 0.30654,-8.326338 0.30655,41.631718 0.30654,-8.32634 0.30655,-8.32634 h 0.30654 0.30654 l 0.30655,-49.95806 0.30654,58.2844 h 0.30654 l 0.30655,8.32634 h 0.30654 l 0.30655,-8.32634 0.30654,-16.65268"
                     style="fill:none"
                     fill="none"
                     id="path153" />
                </g>
                <g
                   id="g159">
                  <path
                     stroke="#33bbee"
                     stroke-width="2px"
                     d="M 2.3186501,55.240996 2.5694587,129.17895 H 2.8202673 3.071076 3.3218846 3.5726932 3.8235018 4.0743105 4.3251191 4.5759277 4.8267363 5.077545 5.3283536 5.5791622 5.8299709 6.0807795 6.3315881 6.5823967 6.8332054 7.084014 7.3348226 7.5856312 7.8364399 8.0872485 8.3380571 8.5888657 8.8396744 9.090483 h 0.2508086 0.2508086 0.2508087 0.2508091 0.250808 0.250809 0.250808 0.250809 0.250809 0.250808 0.250809 0.250809 0.250808 0.250809 0.250808 0.250809 0.250809 0.250808 l 0.250809,24.64598 0.250809,16.43066 0.250808,-57.5073 0.250809,-8.21532 0.250808,8.21532 0.250809,-8.21532 0.250809,-24.645978 0.250808,24.645978 0.250809,-24.645978 0.250809,24.645978 0.250808,-16.430658 0.250809,8.21532 h 0.250808 0.250809 0.250809 l 0.250808,-16.43064 0.250809,8.21532 h 0.250809 l 0.250808,8.21532 h 0.250809 0.250808 0.250809 l 0.250809,-8.21532 h 0.250808 0.250809 0.250809 0.250808 l 0.250809,8.21532 h 0.250808 l 0.250809,-8.21532 h 0.250809 0.250808 0.250809 0.250809 0.250808 0.250809 0.250808 l 0.250809,8.21532 0.250809,-8.21532 0.250808,16.430658 0.250809,-24.645978 0.250809,24.645978 h 0.250808 l 0.250809,-8.215338 h 0.250808 0.250809 0.250809 0.250808 0.250809 0.250809 l 0.250808,8.215338 h 0.250809 l 0.250808,8.21532 0.250809,-24.645978 h 0.250809 0.250808 l 0.250809,-8.21532 h 0.250809 l 0.250808,8.21532 0.250809,-8.21532 0.250808,16.43064 0.250809,-8.21532 0.250809,-8.21532 0.250808,8.21532 0.250809,-16.430676 h 0.250809 l 0.250808,8.215356 0.250809,16.43064 0.250809,-24.645996 h 0.250808 l 0.250809,8.215356 h 0.250808 l 0.250809,-8.215356 0.250809,16.430676 0.250808,-8.21532 0.250809,-16.430676 0.250809,8.21532 0.250808,8.215356 0.250809,24.645978 0.250808,-8.215338 0.250809,-8.21532 h 0.250809 0.250808 0.250809 l 0.250809,-8.21532 h 0.250808 0.250809 0.250808 0.250809 0.250809 0.250808 0.250809 l 0.250809,-8.215356 0.250808,8.215356 h 0.250809 0.250808 0.250809 0.250809 0.250808 0.250809 l 0.250809,-8.215356 0.250808,-8.21532 h 0.250809 l 0.250808,-8.21532 0.250809,24.645996 0.250809,-8.215356 0.250808,8.215356 h 0.250809 0.250809 0.250808 0.250809 0.250808 0.250809 0.250809 0.250808 0.250809 0.250809 0.250808 0.250809 0.250808 0.250809 0.250809 l 0.250808,-8.215356 0.250809,8.215356 0.250809,-8.215356 0.250808,8.215356 h 0.250809 0.250808 0.250809 l 0.250809,8.21532 0.250808,-8.21532 0.250809,8.21532 0.250809,-8.21532 h 0.250808 l 0.250809,-8.215356 0.250808,8.215356 h 0.250809 l 0.250809,-8.215356 h 0.250808 l 0.250809,8.215356 h 0.250809 0.250808 0.250809 0.250808 0.250809 l 0.250809,-8.215356 h 0.250808 0.250809 0.250809 0.250808 0.250809 l 0.250809,8.215356 h 0.250808 0.250809 l 0.250808,-8.215356 h 0.250809 l 0.250809,8.215356 0.250808,-8.215356 h 0.250809 l 0.250809,8.215356 h 0.250808 l 0.250809,-8.215356 0.250808,8.215356 h 0.250809 l 0.250809,-8.215356 0.250808,8.215356 0.250809,-8.215356 h 0.250809 0.250808 0.250809 0.250808 l 0.250809,8.215356 h 0.250809 0.250808 0.250809 l 0.250809,-8.215356 0.250808,8.215356 h 0.250809 l 0.250808,-8.215356 0.250809,8.215356 h 0.250809 0.250808 l 0.250809,-8.215356 h 0.250809 0.250808 l 0.250809,8.215356 h 0.250808 l 0.250809,8.21532 0.250809,-16.430676 0.250808,8.215356 0.250809,-8.215356 h 0.250809 0.250808 l 0.250809,8.215356 0.250808,-8.215356 0.250809,8.215356 0.250809,-8.215356 h 0.250808 l 0.250809,8.215356 0.250809,-16.430676 0.250808,16.430676 0.250809,-8.215356 0.250808,8.215356 h 0.250809 0.250809 0.250808 0.250809 l 0.250809,-8.215356 0.250808,-8.21532 0.250809,-8.21532 0.250808,8.21532 0.250809,8.21532 0.250809,-16.43064 0.250808,24.645996 0.250809,-8.215356 0.250809,8.215356 0.250808,-16.430676 0.250809,8.21532 0.250808,-16.43064 0.250809,16.43064 0.250809,-8.21532 h 0.250808 l 0.250809,8.21532 0.250809,-8.21532 0.250808,16.430676 0.250809,-16.430676 0.250808,16.430676 0.250809,-41.076636 0.250809,8.21532 0.250808,24.64596 h 0.250809 0.250809 l 0.250808,-16.43064 h 0.250809 l 0.250809,8.21532 h 0.250808 0.250809 0.250808 0.250809 0.250809 l 0.250808,-8.21532 h 0.250809 l 0.250809,8.21532 0.250808,8.21532 0.250809,-16.43064 0.250808,24.645996 0.250809,-24.645996 h 0.250809 l 0.250808,8.21532 h 0.250809 l 0.250809,-8.21532 0.250808,8.21532 h 0.250809 0.250808 0.250809 l 0.250809,8.21532 h 0.250808 l 0.250809,-8.21532 0.250809,16.430676 0.250808,-24.645996 0.250809,16.43064 h 0.250808 l 0.250809,-8.21532 h 0.250809 0.250808 l 0.250809,16.430676 h 0.250809 L 80.82175,63.456316 h 0.250809 l 0.250808,8.21532 0.250809,-8.21532 0.250809,-8.21532 0.250808,8.21532 0.250809,8.21532 h 0.250809 l 0.250808,-24.64596 0.250809,8.21532 0.250808,8.21532 0.250809,-8.21532 0.250809,8.21532 0.250808,-8.21532 0.250809,8.21532 0.250809,8.21532 h 0.250808 l 0.250809,-8.21532 0.250808,-8.21532 h 0.250809 0.250809 0.250808 0.250809 l 0.250809,8.21532 0.250808,-8.21532 0.250809,8.21532 h 0.250808 l 0.250809,-8.21532 h 0.250809 l 0.250808,8.21532 0.250809,-8.21532 0.250809,16.43064 h 0.250808 l 0.250809,-8.21532 h 0.250808 0.250809 0.250809 0.250808 l 0.250809,8.21532 0.250809,-8.21532 0.250808,-8.21532 0.250809,16.43064 0.250808,8.215356 0.250809,-16.430676 0.250809,16.430676 0.250808,-8.215356 h 0.250809 0.250809 l 0.250808,8.215356 0.250809,-8.215356 0.250809,16.430676 0.250808,-41.076636 0.250809,24.64596 0.250808,-16.43064 0.250809,-8.21532 0.250809,16.43064 h 0.250808 l 0.250809,16.430676 0.250809,-8.215356 0.250808,-8.21532 h 0.250809 l 0.250808,-8.21532 0.250809,8.21532 h 0.250809 0.250808 0.250809 0.250809 l 0.250808,-8.21532 0.250809,16.43064 0.250808,-24.64596 0.250809,8.21532 h 0.250809 l 0.250808,-8.21532 0.250809,8.21532 0.250809,16.43064 0.250808,41.076654 0.250809,-24.645978 0.250804,-16.430676 0.25081,-8.21532 0.25081,8.21532 0.25081,8.215356 h 0.25081 l 0.25081,-8.215356 0.25081,8.215356 0.2508,-16.430676 0.25081,-24.64596 0.25081,32.86128 0.25081,-8.21532 h 0.25081 l 0.25081,-24.64596 0.25081,16.43064 h 0.25081 0.2508 l 0.25081,-8.21532 0.25081,-8.21532 0.25081,-8.215357 h 0.25081 l 0.25081,16.430677 0.25081,-8.21532 h 0.2508 l 0.25081,8.21532 h 0.25081 0.25081 l 0.25081,8.21532 0.25081,-16.43064 0.25081,16.43064 0.2508,-8.21532 0.25081,-16.430677 0.25081,24.645997 0.25081,-32.861317 0.25081,24.645997 0.25081,-8.21532 0.25081,8.21532 0.2508,-16.430677 0.25081,24.645997 h 0.25081 l 0.25081,-16.43064 0.25081,-8.215357 0.25081,16.430677 0.25081,-8.21532 0.25081,8.21532 0.2508,-8.21532 0.25081,24.64596 0.25081,8.21532 0.25081,-24.64596 0.25081,-8.21532 0.25081,24.64596 0.25081,8.21532 0.2508,-24.64596 h 0.25081 l 0.25081,8.21532 0.25081,-24.645997 h 0.25081 l 0.25081,8.215357 0.25081,8.21532 h 0.2508 0.25081 l 0.25081,-8.21532 0.25081,16.43064 0.25081,8.21532 0.25081,-24.64596 0.25081,32.86128 0.25081,-24.64596 0.2508,-8.21532 h 0.25081 l 0.25081,-8.215357 0.25081,41.076637 0.25081,-49.291957 0.25081,16.430677 0.25081,-8.215357 0.2508,16.430677 0.25081,-8.21532 0.25081,8.21532 0.25081,8.21532 0.25081,-8.21532 0.25081,-8.21532 0.25081,-8.215357 0.2508,32.861317 0.25081,-8.21532 0.25081,-8.21532 0.25081,-16.430677 0.25081,32.861317 0.25081,-24.64596 h 0.25081 l 0.2508,8.21532 0.25081,8.21532 h 0.25081 l 0.25081,16.43064 0.25081,-41.076637 0.25081,16.430677 0.25081,8.21532 0.25081,-8.21532 0.2508,-24.645997 0.25081,8.21532 0.25081,16.430677 0.25081,32.861316 0.25081,-32.861316 0.25081,-16.430677 0.25081,16.430677 h 0.2508 l 0.25081,16.43064 0.25081,-32.861317 0.25081,16.430677 h 0.25081 l 0.25081,8.21532 0.25081,-8.21532 0.2508,8.21532 0.25081,-24.645997 0.25081,8.215357 0.25081,32.86128 0.25081,-32.86128 0.25081,41.076636 0.25081,-41.076636 0.25081,16.43064 0.2508,-8.21532 0.25081,16.43064 0.25081,-32.861317 0.25081,24.645997 0.25081,-16.43064 h 0.25081 l 0.25081,16.43064 0.2508,8.21532 0.25081,-16.43064 0.25081,8.21532 0.25081,-8.21532 0.25081,-8.21532 0.25081,16.43064 0.25081,-8.21532 0.2508,8.21532 0.25081,-41.076637 0.25081,65.722633 0.25081,-32.861316 0.25081,-24.645997 0.25081,32.861317 h 0.25081 l 0.2508,-8.21532 0.25081,32.861316 0.25081,-65.722633 0.25081,49.291957 0.25081,16.430676 0.25081,-24.645996 0.25081,-8.21532 h 0.25081 l 0.2508,8.21532 0.25081,-24.645997 0.25081,24.645997 0.25081,-16.43064 0.25081,16.43064 0.25081,-41.076637 0.25081,49.291957 0.2508,-8.21532 0.25081,16.43064 0.25081,-32.86128 0.25081,16.43064 0.25081,16.43064 0.25081,-24.64596 0.25081,24.64596 0.2508,-24.64596 0.25081,49.291956 0.25081,-49.291956 0.25081,32.861316 0.25081,-32.861316 0.25081,-8.21532 0.25081,16.43064 0.25081,-24.645997 0.2508,16.430677 0.25081,24.64596 0.25081,-16.43064 0.25081,-16.43064 0.25081,16.43064 0.25081,8.21532 0.25081,-24.64596 0.2508,41.076636 0.25081,-32.861316 h 0.25081 l 0.25081,-16.430677 0.25081,24.645997 0.25081,24.645996 0.25081,-57.507313 0.2508,8.21532 0.25081,32.861317 0.25081,-8.21532 0.25081,24.645996 0.25081,-24.645996 0.25081,-8.21532 0.25081,41.076636 0.2508,-32.861316 0.25081,-8.21532 0.25081,8.21532 h 0.25081 l 0.25081,-16.43064 0.25081,8.21532 h 0.25081 l 0.25081,8.21532 0.2508,16.43064 0.25081,8.215356 0.25081,-16.430676 0.25081,-32.861317 0.25081,32.861317 0.25081,24.645996 0.25081,-16.430676 0.2508,-16.43064 0.25081,-24.645997 0.25081,41.076637 0.25081,-16.43064 h 0.25081 0.25081 l 0.25081,-8.21532 0.2508,-16.430677 0.25081,8.215357 0.25081,-8.215357 0.25081,24.645997 0.25081,-16.43064 0.25081,16.43064 h 0.25081 l 0.2508,-8.21532 0.25081,8.21532 h 0.25081 l 0.25081,-24.645997 h 0.25081 l 0.25081,32.861317 0.25081,-24.64596 0.25081,16.43064 0.2508,-8.21532 h 0.25081 0.25081 0.25081 l 0.25081,-8.21532 0.25081,16.43064 0.25081,8.21532 0.2508,-24.64596 0.25081,-16.430677 0.25081,32.861317 0.25081,-8.21532 h 0.25081 0.25081 0.25081 0.2508 l 0.25081,-8.21532 0.25081,-8.215357 0.25081,16.430677 0.25081,16.43064 h 0.25081 l 0.25081,-24.64596 0.25081,16.43064 0.2508,-24.645997 0.25081,8.215357 h 0.25081 0.25081 l 0.25081,8.21532 h 0.25081 l 0.25081,-8.21532 h 0.2508 0.25081 0.25081 l 0.25081,8.21532 0.25081,8.21532 0.25081,-32.861317 0.25081,16.430677 h 0.2508 l 0.25081,8.21532 h 0.25081 l 0.25081,8.21532 0.25081,-24.645997 0.25081,32.861317 0.25081,-24.64596 0.2508,8.21532 h 0.25081 0.25081 0.25081 l 0.25081,-8.21532 0.25081,-16.430677 0.25081,32.861317 0.25081,-41.076637 0.2508,32.861317 0.25081,-8.21532 0.25081,16.43064 h 0.25081 l 0.25081,-8.21532 h 0.25081 0.25081 l 0.2508,-24.645997 0.25081,16.430677 h 0.25081 l 0.25081,-16.430677 0.25081,8.21532 0.25081,8.215357 0.25081,8.21532 0.2508,-8.21532 0.25081,8.21532 0.25081,-8.21532 h 0.25081 l 0.25081,8.21532 h 0.25081 0.25081 l 0.25081,-24.645997 0.2508,32.861317 0.25081,16.43064 0.25081,-16.43064 0.25081,8.21532 0.25081,-16.43064 0.25081,16.43064 0.25081,-41.076637 0.2508,32.861317 h 0.25081 l 0.25081,-8.21532 0.25081,-8.21532 0.25081,8.21532 0.25081,16.43064 0.25081,-16.43064 h 0.2508 l 0.25081,24.64596 0.25081,-32.86128 0.25081,24.64596 0.25081,-24.64596 0.25081,41.076636 0.25081,-24.645996 0.2508,-8.21532 h 0.25081 l 0.25081,-16.430677 0.25081,16.430677 0.25081,-41.0766367 0.25081,32.8613167 0.25081,-8.215357 0.25081,41.076637 0.2508,-41.076637 0.25081,8.215357 0.25081,-8.215357 0.25081,8.215357 0.25081,-8.215357 0.25081,-8.21532 0.25081,8.21532 0.2508,24.645997 0.25081,-16.43064 h 0.25081 l 0.25081,16.43064 0.25081,-16.43064 0.25081,-16.430677 0.25081,8.21532 0.2508,8.215357 0.25081,-16.430677 0.25081,8.21532 h 0.25081 l 0.25081,16.430677 0.25081,-8.21532 h 0.25081 0.25081 0.2508 l 0.25081,-8.215357 0.25081,8.215357 0.25081,-16.430677 0.25081,32.861317 h 0.25081 l 0.25081,8.21532 0.2508,-32.861317 0.25081,24.645997 0.25081,-16.43064 0.25081,16.43064 h 0.25081 l 0.25081,-16.43064 0.25081,-24.645997 0.2508,16.43064 0.25081,8.215357 0.25081,-8.215357 0.25081,16.430677 0.25081,16.43064 0.25081,-8.21532 0.25081,-8.21532 0.2508,16.43064 0.25081,-24.64596 0.25081,41.076636 0.25081,-8.215356 0.25081,24.645996 h 0.25081 l 0.25081,8.215338 0.25081,8.21532 0.2508,-24.645978 0.25081,-8.21532 h 0.25081 0.25081 l 0.25081,-8.215356 0.25081,16.430676 0.25081,-8.21532 0.2508,-16.430676 0.25081,24.645996 0.25081,-16.430676 0.25081,-8.21532 h 0.25081 0.25081 0.25081 0.2508 0.25081 0.25081 l 0.25081,-8.21532 0.25081,8.21532 h 0.25081 l 0.25081,-8.21532 0.25081,16.43064 0.2508,-16.43064 0.25081,-8.21532 0.25081,8.21532 0.25081,-8.21532 0.25081,8.21532 0.25081,-8.21532 0.25081,16.43064 0.2508,-8.21532 0.25081,-16.43064 0.25081,16.43064 0.25081,-8.21532 0.25081,-16.430677 0.25081,32.861317 0.25081,-8.21532 0.2508,-16.43064 0.25081,16.43064 h 0.25081 0.25081 l 0.25081,-32.861317 0.25081,16.430677 0.25081,-8.215357 0.2508,16.430677 0.25081,8.21532 0.25081,-8.21532 0.25081,8.21532 0.25081,8.21532 0.25081,-16.43064 0.25081,8.21532 0.25081,-16.43064 0.2508,-24.645997 0.25081,8.21532 h 0.25081 0.25081 0.25081 0.25081 l 0.25081,-16.4306397 0.2508,41.0766367 0.25081,-8.21532 0.25081,-8.215357 0.25081,-8.21532 0.25081,8.21532 0.25081,-16.43064 0.25081,-8.2153197 0.2508,41.0766367 0.25081,-8.21532 0.25081,-32.8613167 0.25081,24.6459597 h 0.25081 l 0.25081,16.430677 0.25081,-16.430677 0.2508,-24.6459597 0.25081,32.8613167 0.25081,-16.430677 0.25081,16.430677 0.25081,8.21532 0.25081,-16.430677 0.25081,24.645997 0.25081,-41.076637 0.2508,16.43064 0.25081,-8.21532 h 0.25081 0.25081 l 0.25081,-16.4306397 0.25081,16.4306397 0.25081,-8.21532 0.2508,8.21532 h 0.25081 l 0.25081,16.430677 h 0.25081 l 0.25081,-8.215357 0.25081,-8.21532 0.25081,16.430677 0.2508,-16.430677 0.25081,-8.21532 h 0.25081 l 0.25081,16.43064 0.25081,8.215357 0.25081,-16.430677 0.25081,16.430677 0.25081,-24.645997 0.2508,16.43064 0.25081,-8.21532 0.25081,8.21532 0.25081,16.430677 0.25081,-8.21532 0.25081,16.43064 0.25081,-16.43064 0.2508,-8.215357 0.25081,16.430677 h 0.25081 l 0.25081,8.21532 0.25081,-32.861317 h 0.25081 l 0.25081,8.21532 h 0.2508 0.25081"
                     style="fill:none"
                     fill="none"
                     id="path157" />
                </g>
              </g>
            </g>
          </g>
        </g>
      </g>
      <g
         transform="translate(51,177)"
         clip-path="url(#clip_1)"
         id="g222">
        <clipPath
           id="clip_1">
          <rect
             width="278"
             height="23"
             id="rect171"
             x="0"
             y="0" />
        </clipPath>
        <g
           id="g220">
          <g
             id="g194">
            <line
               x1="2.0957091"
               y1="0"
               x2="2.0957091"
               y2="5"
               style="visibility:inherit"
               fill="#000000"
               stroke="#cccccc"
               stroke-width="1px"
               id="line174" />
            <line
               x1="29.963335"
               y1="0"
               x2="29.963335"
               y2="5"
               style="visibility:inherit"
               fill="#000000"
               stroke="#cccccc"
               stroke-width="1px"
               id="line176" />
            <line
               x1="57.830959"
               y1="0"
               x2="57.830959"
               y2="5"
               style="visibility:inherit"
               fill="#000000"
               stroke="#cccccc"
               stroke-width="1px"
               id="line178" />
            <line
               x1="85.698586"
               y1="0"
               x2="85.698586"
               y2="5"
               style="visibility:inherit"
               fill="#000000"
               stroke="#cccccc"
               stroke-width="1px"
               id="line180" />
            <line
               x1="113.56621"
               y1="0"
               x2="113.56621"
               y2="5"
               style="visibility:inherit"
               fill="#000000"
               stroke="#cccccc"
               stroke-width="1px"
               id="line182" />
            <line
               x1="141.43384"
               y1="0"
               x2="141.43384"
               y2="5"
               style="visibility:inherit"
               fill="#000000"
               stroke="#cccccc"
               stroke-width="1px"
               id="line184" />
            <line
               x1="169.30145"
               y1="0"
               x2="169.30145"
               y2="5"
               style="visibility:inherit"
               fill="#000000"
               stroke="#cccccc"
               stroke-width="1px"
               id="line186" />
            <line
               x1="197.16908"
               y1="0"
               x2="197.16908"
               y2="5"
               style="visibility:inherit"
               fill="#000000"
               stroke="#cccccc"
               stroke-width="1px"
               id="line188" />
            <line
               x1="225.03671"
               y1="0"
               x2="225.03671"
               y2="5"
               style="visibility:inherit"
               fill="#000000"
               stroke="#cccccc"
               stroke-width="1px"
               id="line190" />
            <line
               x1="252.90434"
               y1="0"
               x2="252.90434"
               y2="5"
               style="visibility:inherit"
               fill="#000000"
               stroke="#cccccc"
               stroke-width="1px"
               id="line192" />
          </g>
          <g
             transform="translate(0,8)"
             id="g216">
            <text
               x="2.0957091"
               y="0"
               dx="0em"
               dy="0.94999999em"
               style="font-weight:200;font-size:12px;font-family:Roboto, sans-serif;text-anchor:middle;visibility:inherit"
               fill="#212121"
               stroke="none"
               stroke-width="1px"
               id="text196">0</text>
            <text
               x="29.963335"
               y="0"
               dx="0em"
               dy="0.94999999em"
               style="font-weight:200;font-size:12px;font-family:Roboto, sans-serif;text-anchor:middle;visibility:inherit"
               fill="#212121"
               stroke="none"
               stroke-width="1px"
               id="text198">1k</text>
            <text
               x="57.830959"
               y="0"
               dx="0em"
               dy="0.94999999em"
               style="font-weight:200;font-size:12px;font-family:Roboto, sans-serif;text-anchor:middle;visibility:inherit"
               fill="#212121"
               stroke="none"
               stroke-width="1px"
               id="text200">2k</text>
            <text
               x="85.698586"
               y="0"
               dx="0em"
               dy="0.94999999em"
               style="font-weight:200;font-size:12px;font-family:Roboto, sans-serif;text-anchor:middle;visibility:inherit"
               fill="#212121"
               stroke="none"
               stroke-width="1px"
               id="text202">3k</text>
            <text
               x="113.56621"
               y="0"
               dx="0em"
               dy="0.94999999em"
               style="font-weight:200;font-size:12px;font-family:Roboto, sans-serif;text-anchor:middle;visibility:inherit"
               fill="#212121"
               stroke="none"
               stroke-width="1px"
               id="text204">4k</text>
            <text
               x="141.43384"
               y="0"
               dx="0em"
               dy="0.94999999em"
               style="font-weight:200;font-size:12px;font-family:Roboto, sans-serif;text-anchor:middle;visibility:inherit"
               fill="#212121"
               stroke="none"
               stroke-width="1px"
               id="text206">5k</text>
            <text
               x="169.30145"
               y="0"
               dx="0em"
               dy="0.94999999em"
               style="font-weight:200;font-size:12px;font-family:Roboto, sans-serif;text-anchor:middle;visibility:inherit"
               fill="#212121"
               stroke="none"
               stroke-width="1px"
               id="text208">6k</text>
            <text
               x="197.16908"
               y="0"
               dx="0em"
               dy="0.94999999em"
               style="font-weight:200;font-size:12px;font-family:Roboto, sans-serif;text-anchor:middle;visibility:inherit"
               fill="#212121"
               stroke="none"
               stroke-width="1px"
               id="text210">7k</text>
            <text
               x="225.03671"
               y="0"
               dx="0em"
               dy="0.94999999em"
               style="font-weight:200;font-size:12px;font-family:Roboto, sans-serif;text-anchor:middle;visibility:inherit"
               fill="#212121"
               stroke="none"
               stroke-width="1px"
               id="text212">8k</text>
            <text
               x="252.90434"
               y="0"
               dx="0em"
               dy="0.94999999em"
               style="font-weight:200;font-size:12px;font-family:Roboto, sans-serif;text-anchor:middle;visibility:inherit"
               fill="#212121"
               stroke="none"
               stroke-width="1px"
               id="text214">9k</text>
          </g>
          <line
             x1="0"
             y1="0"
             x2="278.4375"
             y2="0"
             fill="#000000"
             stroke="#cccccc"
             stroke-width="1px"
             id="line218" />
        </g>
      </g>
    </g>
  </g>
  <text
     xml:space="preserve"
     style="white-space:pre;inline-size:30.8954;fill:#000000"
     x="140.76408"
     y="195.8457"
     id="text496"
     transform="translate(24.725518,-1.4688427)"><tspan
       x="140.76408"
       y="195.8457"
       id="tspan623">Step</tspan></text>
  <text
     xml:space="preserve"
     style="fill:#000000"
     x="-108.5209"
     y="11.915531"
     id="text500"
     transform="rotate(-90)"><tspan
       sodipodi:role="line"
       id="tspan498"
       x="-108.5209"
       y="11.915531">Accuracy</tspan></text>
</svg>
