<?xml version="1.0" encoding="UTF-8" standalone="no"?>
<svg
   viewBox="0 0 330 200"
   version="1.1"
   id="svg847"
   sodipodi:docname="transformer_acc.svg"
   inkscape:version="1.2.2 (732a01da63, 2022-12-09)"
   xmlns:inkscape="http://www.inkscape.org/namespaces/inkscape"
   xmlns:sodipodi="http://sodipodi.sourceforge.net/DTD/sodipodi-0.dtd"
   xmlns="http://www.w3.org/2000/svg"
   xmlns:svg="http://www.w3.org/2000/svg">
  <defs
     id="defs851" />
  <sodipodi:namedview
     id="namedview849"
     pagecolor="#ffffff"
     bordercolor="#000000"
     borderopacity="0.25"
     inkscape:showpageshadow="2"
     inkscape:pageopacity="0.0"
     inkscape:pagecheckerboard="0"
     inkscape:deskcolor="#d1d1d1"
     showgrid="false"
     inkscape:zoom="4.0848485"
     inkscape:cx="165"
     inkscape:cy="119.46588"
     inkscape:window-width="1920"
     inkscape:window-height="1009"
     inkscape:window-x="-8"
     inkscape:window-y="-8"
     inkscape:window-maximized="1"
     inkscape:current-layer="svg847" />
  <g
     id="g845"
     transform="scale(1,0.93896016)">
    <g
       id="g843">
      <g
         id="g673">
        <g
           id="g671">
          <g
             id="g637">
            <line
               x1="51.5625"
               y1="169.55945"
               x2="46.5625"
               y2="169.55945"
               style="visibility:inherit"
               fill="#000000"
               stroke="#cccccc"
               stroke-width="1px"
               id="line609" />
            <line
               x1="51.5625"
               y1="157.20222"
               x2="46.5625"
               y2="157.20222"
               style="visibility:inherit"
               fill="#000000"
               stroke="#cccccc"
               stroke-width="1px"
               id="line611" />
            <line
               x1="51.5625"
               y1="144.845"
               x2="46.5625"
               y2="144.845"
               style="visibility:inherit"
               fill="#000000"
               stroke="#cccccc"
               stroke-width="1px"
               id="line613" />
            <line
               x1="51.5625"
               y1="132.48778"
               x2="46.5625"
               y2="132.48778"
               style="visibility:inherit"
               fill="#000000"
               stroke="#cccccc"
               stroke-width="1px"
               id="line615" />
            <line
               x1="51.5625"
               y1="120.13055"
               x2="46.5625"
               y2="120.13055"
               style="visibility:inherit"
               fill="#000000"
               stroke="#cccccc"
               stroke-width="1px"
               id="line617" />
            <line
               x1="51.5625"
               y1="107.77333"
               x2="46.5625"
               y2="107.77333"
               style="visibility:inherit"
               fill="#000000"
               stroke="#cccccc"
               stroke-width="1px"
               id="line619" />
            <line
               x1="51.5625"
               y1="95.416115"
               x2="46.5625"
               y2="95.416115"
               style="visibility:inherit"
               fill="#000000"
               stroke="#cccccc"
               stroke-width="1px"
               id="line621" />
            <line
               x1="51.5625"
               y1="83.058891"
               x2="46.5625"
               y2="83.058891"
               style="visibility:inherit"
               fill="#000000"
               stroke="#cccccc"
               stroke-width="1px"
               id="line623" />
            <line
               x1="51.5625"
               y1="70.701668"
               x2="46.5625"
               y2="70.701668"
               style="visibility:inherit"
               fill="#000000"
               stroke="#cccccc"
               stroke-width="1px"
               id="line625" />
            <line
               x1="51.5625"
               y1="58.344444"
               x2="46.5625"
               y2="58.344444"
               style="visibility:inherit"
               fill="#000000"
               stroke="#cccccc"
               stroke-width="1px"
               id="line627" />
            <line
               x1="51.5625"
               y1="45.987221"
               x2="46.5625"
               y2="45.987221"
               style="visibility:inherit"
               fill="#000000"
               stroke="#cccccc"
               stroke-width="1px"
               id="line629" />
            <line
               x1="51.5625"
               y1="33.630001"
               x2="46.5625"
               y2="33.630001"
               style="visibility:inherit"
               fill="#000000"
               stroke="#cccccc"
               stroke-width="1px"
               id="line631" />
            <line
               x1="51.5625"
               y1="21.272778"
               x2="46.5625"
               y2="21.272778"
               style="visibility:inherit"
               fill="#000000"
               stroke="#cccccc"
               stroke-width="1px"
               id="line633" />
            <line
               x1="51.5625"
               y1="8.915556"
               x2="46.5625"
               y2="8.915556"
               style="visibility:inherit"
               fill="#000000"
               stroke="#cccccc"
               stroke-width="1px"
               id="line635" />
          </g>
          <g
             transform="translate(41.5625)"
             id="g667">
            <text
               x="0"
               y="169.55945"
               dx="0em"
               dy="0.30000001em"
               style="font-weight:200;font-size:12px;font-family:Roboto, sans-serif;text-anchor:end;visibility:inherit"
               fill="#212121"
               stroke="none"
               stroke-width="1px"
               id="text639">0.4</text>
            <text
               x="0"
               y="157.20222"
               dx="0em"
               dy="0.30000001em"
               style="font-weight:200;font-size:12px;font-family:Roboto, sans-serif;text-anchor:end;visibility:hidden"
               fill="#212121"
               stroke="none"
               stroke-width="1px"
               id="text641">0.42</text>
            <text
               x="0"
               y="144.845"
               dx="0em"
               dy="0.30000001em"
               style="font-weight:200;font-size:12px;font-family:Roboto, sans-serif;text-anchor:end;visibility:inherit"
               fill="#212121"
               stroke="none"
               stroke-width="1px"
               id="text643">0.44</text>
            <text
               x="0"
               y="132.48778"
               dx="0em"
               dy="0.30000001em"
               style="font-weight:200;font-size:12px;font-family:Roboto, sans-serif;text-anchor:end;visibility:hidden"
               fill="#212121"
               stroke="none"
               stroke-width="1px"
               id="text645">0.46</text>
            <text
               x="0"
               y="120.13055"
               dx="0em"
               dy="0.30000001em"
               style="font-weight:200;font-size:12px;font-family:Roboto, sans-serif;text-anchor:end;visibility:inherit"
               fill="#212121"
               stroke="none"
               stroke-width="1px"
               id="text647">0.48</text>
            <text
               x="0"
               y="107.77333"
               dx="0em"
               dy="0.30000001em"
               style="font-weight:200;font-size:12px;font-family:Roboto, sans-serif;text-anchor:end;visibility:hidden"
               fill="#212121"
               stroke="none"
               stroke-width="1px"
               id="text649">0.5</text>
            <text
               x="0"
               y="95.416115"
               dx="0em"
               dy="0.30000001em"
               style="font-weight:200;font-size:12px;font-family:Roboto, sans-serif;text-anchor:end;visibility:inherit"
               fill="#212121"
               stroke="none"
               stroke-width="1px"
               id="text651">0.52</text>
            <text
               x="0"
               y="83.058891"
               dx="0em"
               dy="0.30000001em"
               style="font-weight:200;font-size:12px;font-family:Roboto, sans-serif;text-anchor:end;visibility:hidden"
               fill="#212121"
               stroke="none"
               stroke-width="1px"
               id="text653">0.54</text>
            <text
               x="0"
               y="70.701668"
               dx="0em"
               dy="0.30000001em"
               style="font-weight:200;font-size:12px;font-family:Roboto, sans-serif;text-anchor:end;visibility:inherit"
               fill="#212121"
               stroke="none"
               stroke-width="1px"
               id="text655">0.56</text>
            <text
               x="0"
               y="58.344444"
               dx="0em"
               dy="0.30000001em"
               style="font-weight:200;font-size:12px;font-family:Roboto, sans-serif;text-anchor:end;visibility:hidden"
               fill="#212121"
               stroke="none"
               stroke-width="1px"
               id="text657">0.58</text>
            <text
               x="0"
               y="45.987221"
               dx="0em"
               dy="0.30000001em"
               style="font-weight:200;font-size:12px;font-family:Roboto, sans-serif;text-anchor:end;visibility:inherit"
               fill="#212121"
               stroke="none"
               stroke-width="1px"
               id="text659">0.6</text>
            <text
               x="0"
               y="33.630001"
               dx="0em"
               dy="0.30000001em"
               style="font-weight:200;font-size:12px;font-family:Roboto, sans-serif;text-anchor:end;visibility:hidden"
               fill="#212121"
               stroke="none"
               stroke-width="1px"
               id="text661">0.62</text>
            <text
               x="0"
               y="21.272778"
               dx="0em"
               dy="0.30000001em"
               style="font-weight:200;font-size:12px;font-family:Roboto, sans-serif;text-anchor:end;visibility:inherit"
               fill="#212121"
               stroke="none"
               stroke-width="1px"
               id="text663">0.64</text>
            <text
               x="0"
               y="8.915556"
               dx="0em"
               dy="0.30000001em"
               style="font-weight:200;font-size:12px;font-family:Roboto, sans-serif;text-anchor:end;visibility:hidden"
               fill="#212121"
               stroke="none"
               stroke-width="1px"
               id="text665">0.66</text>
          </g>
          <line
             x1="51.5625"
             y1="0"
             x2="51.5625"
             y2="177"
             fill="#000000"
             stroke="#cccccc"
             stroke-width="1px"
             id="line669" />
        </g>
      </g>
      <g
         transform="translate(51)"
         clip-path="url(#clip_0)"
         id="g780">
        <clipPath
           id="clip_0">
          <rect
             width="278"
             height="177"
             id="rect675"
             x="0"
             y="0" />
        </clipPath>
        <g
           id="g736">
          <g
             id="g734">
            <g
               id="g702">
              <line
                 x1="1.2418218"
                 y1="0"
                 x2="1.2418218"
                 y2="177"
                 fill="#000000"
                 stroke="#424242"
                 stroke-width="1px"
                 opacity="0.25"
                 id="line678" />
              <line
                 x1="25.563639"
                 y1="0"
                 x2="25.563639"
                 y2="177"
                 fill="#000000"
                 stroke="#424242"
                 stroke-width="1px"
                 opacity="0.25"
                 id="line680" />
              <line
                 x1="49.885456"
                 y1="0"
                 x2="49.885456"
                 y2="177"
                 fill="#000000"
                 stroke="#424242"
                 stroke-width="1px"
                 opacity="0.25"
                 id="line682" />
              <line
                 x1="74.207275"
                 y1="0"
                 x2="74.207275"
                 y2="177"
                 fill="#000000"
                 stroke="#424242"
                 stroke-width="1px"
                 opacity="0.25"
                 id="line684" />
              <line
                 x1="98.529091"
                 y1="0"
                 x2="98.529091"
                 y2="177"
                 fill="#000000"
                 stroke="#424242"
                 stroke-width="1px"
                 opacity="0.25"
                 id="line686" />
              <line
                 x1="122.85091"
                 y1="0"
                 x2="122.85091"
                 y2="177"
                 fill="#000000"
                 stroke="#424242"
                 stroke-width="1px"
                 opacity="0.25"
                 id="line688" />
              <line
                 x1="147.17273"
                 y1="0"
                 x2="147.17273"
                 y2="177"
                 fill="#000000"
                 stroke="#424242"
                 stroke-width="1px"
                 opacity="0.25"
                 id="line690" />
              <line
                 x1="171.49454"
                 y1="0"
                 x2="171.49454"
                 y2="177"
                 fill="#000000"
                 stroke="#424242"
                 stroke-width="1px"
                 opacity="0.25"
                 id="line692" />
              <line
                 x1="195.81636"
                 y1="0"
                 x2="195.81636"
                 y2="177"
                 fill="#000000"
                 stroke="#424242"
                 stroke-width="1px"
                 opacity="0.25"
                 id="line694" />
              <line
                 x1="220.13817"
                 y1="0"
                 x2="220.13817"
                 y2="177"
                 fill="#000000"
                 stroke="#424242"
                 stroke-width="1px"
                 opacity="0.25"
                 id="line696" />
              <line
                 x1="244.45999"
                 y1="0"
                 x2="244.45999"
                 y2="177"
                 fill="#000000"
                 stroke="#424242"
                 stroke-width="1px"
                 opacity="0.25"
                 id="line698" />
              <line
                 x1="268.7818"
                 y1="0"
                 x2="268.7818"
                 y2="177"
                 fill="#000000"
                 stroke="#424242"
                 stroke-width="1px"
                 opacity="0.25"
                 id="line700" />
            </g>
            <g
               id="g732">
              <line
                 x1="0"
                 y1="169.55945"
                 x2="278.4375"
                 y2="169.55945"
                 fill="#000000"
                 stroke="#424242"
                 stroke-width="1px"
                 opacity="0.25"
                 id="line704" />
              <line
                 x1="0"
                 y1="157.20222"
                 x2="278.4375"
                 y2="157.20222"
                 fill="#000000"
                 stroke="#424242"
                 stroke-width="1px"
                 opacity="0.25"
                 id="line706" />
              <line
                 x1="0"
                 y1="144.845"
                 x2="278.4375"
                 y2="144.845"
                 fill="#000000"
                 stroke="#424242"
                 stroke-width="1px"
                 opacity="0.25"
                 id="line708" />
              <line
                 x1="0"
                 y1="132.48778"
                 x2="278.4375"
                 y2="132.48778"
                 fill="#000000"
                 stroke="#424242"
                 stroke-width="1px"
                 opacity="0.25"
                 id="line710" />
              <line
                 x1="0"
                 y1="120.13055"
                 x2="278.4375"
                 y2="120.13055"
                 fill="#000000"
                 stroke="#424242"
                 stroke-width="1px"
                 opacity="0.25"
                 id="line712" />
              <line
                 x1="0"
                 y1="107.77333"
                 x2="278.4375"
                 y2="107.77333"
                 fill="#000000"
                 stroke="#424242"
                 stroke-width="1px"
                 opacity="0.25"
                 id="line714" />
              <line
                 x1="0"
                 y1="95.416115"
                 x2="278.4375"
                 y2="95.416115"
                 fill="#000000"
                 stroke="#424242"
                 stroke-width="1px"
                 opacity="0.25"
                 id="line716" />
              <line
                 x1="0"
                 y1="83.058891"
                 x2="278.4375"
                 y2="83.058891"
                 fill="#000000"
                 stroke="#424242"
                 stroke-width="1px"
                 opacity="0.25"
                 id="line718" />
              <line
                 x1="0"
                 y1="70.701668"
                 x2="278.4375"
                 y2="70.701668"
                 fill="#000000"
                 stroke="#424242"
                 stroke-width="1px"
                 opacity="0.25"
                 id="line720" />
              <line
                 x1="0"
                 y1="58.344444"
                 x2="278.4375"
                 y2="58.344444"
                 fill="#000000"
                 stroke="#424242"
                 stroke-width="1px"
                 opacity="0.25"
                 id="line722" />
              <line
                 x1="0"
                 y1="45.987221"
                 x2="278.4375"
                 y2="45.987221"
                 fill="#000000"
                 stroke="#424242"
                 stroke-width="1px"
                 opacity="0.25"
                 id="line724" />
              <line
                 x1="0"
                 y1="33.630001"
                 x2="278.4375"
                 y2="33.630001"
                 fill="#000000"
                 stroke="#424242"
                 stroke-width="1px"
                 opacity="0.25"
                 id="line726" />
              <line
                 x1="0"
                 y1="21.272778"
                 x2="278.4375"
                 y2="21.272778"
                 fill="#000000"
                 stroke="#424242"
                 stroke-width="1px"
                 opacity="0.25"
                 id="line728" />
              <line
                 x1="0"
                 y1="8.915556"
                 x2="278.4375"
                 y2="8.915556"
                 fill="#000000"
                 stroke="#424242"
                 stroke-width="1px"
                 opacity="0.25"
                 id="line730" />
            </g>
          </g>
        </g>
        <g
           id="g742">
          <g
             id="g740">
            <line
               x1="0"
               y1="416.70389"
               x2="278.4375"
               y2="416.70389"
               fill="#000000"
               stroke="#999999"
               stroke-width="1.5px"
               id="line738" />
          </g>
        </g>
        <g
           id="g748">
          <g
             id="g746">
            <line
               x1="1.2418218"
               y1="0"
               x2="1.2418218"
               y2="177"
               fill="#000000"
               stroke="#999999"
               stroke-width="1.5px"
               id="line744" />
          </g>
        </g>
        <g
           id="g778">
          <g
             id="g762">
            <g
               id="g760">
              <g
                 id="g758">
                <g
                   id="g752">
                  <path
                     stroke="#ee3377"
                     stroke-width="2px"
                     d="m 1.3768079,143.88209 h 0.1362022 l 0.1362022,0 0.1362021,0 h 0.1362022 l 0.1362022,-15.04076 0.1362022,2.80124 0.1362021,2.0794 0.1362022,1.59842 0.1362022,-9.38286 0.1362022,-7.56557 0.1362021,-6.20445 0.1362022,-5.15927 0.1362022,4.52775 0.1362022,3.84568 0.1362021,3.29331 0.1362022,2.84019 0.1362022,2.46429 0.1362022,2.14943 0.1362021,1.88339 0.1362022,1.65694 0.1362022,1.46286 0.1362022,1.29555 0.1362021,1.15055 0.1362022,1.02428 0.1362022,0.91386 0.1362022,0.81694 0.1362021,0.73156 0.1362022,0.65614 0.1362022,0.5893 0.1362022,0.52994 0.1362021,0.4771 0.1362022,0.42997 0.1362022,0.38784 0.1362022,0.35013 0.1362021,0.31632 0.1362022,0.28598 0.1362022,0.25869 0.1362022,0.23415 0.1362021,0.21203 0.1362022,0.19209 0.1362022,0.1741 0.1362022,0.15785 0.1362021,0.14316 0.1362022,0.12989 0.1362022,0.11787 0.1362022,0.107 0.1362021,0.0971 0.1362022,0.0882 0.1362022,0.0801 0.1362022,0.0728 0.1362021,0.0661 0.1362022,0.0601 0.1362022,0.0546 0.1362022,0.0497 0.1362022,0.0451 0.1362021,0.041 0.1362022,0.0373 0.1362022,0.0339 0.1362022,0.0308 0.1362021,0.0281 0.1362022,0.0255 0.1362022,0.0232 0.1362022,0.0211 0.136202,0.0192 0.136202,0.0175 0.136202,0.0159 0.136203,-4.32572 0.136202,-4.65844 0.136202,-2.06851 0.136202,-1.15879 0.136202,-0.33126 0.136203,-3.19305 0.136202,-0.73657 0.136202,0.77542 0.136202,-2.18541 0.136202,-1.26576 0.136202,0.29359 0.136203,-0.45545 0.136202,-1.13699 0.136202,-2.47959 0.136202,-0.81124 0.136202,-1.46064 0.136202,-2.05151 0.136203,-1.14434 0.136202,-3.20845 0.136202,-0.75242 0.136202,-0.68466 0.136202,-0.62301 0.136203,-2.01156 0.136202,-1.10814 0.136202,0.43622 0.136202,-1.76991 0.136202,0.55626 0.136202,1.22845 0.136203,-3.21569 0.136202,0.68504 0.136202,-0.0989 0.136202,0.63227 0.136202,2.74206 0.136202,1.05078 0.136203,-3.37715 0.136202,0.53793 0.136202,0.48951 0.136202,1.88988 0.136202,0.27535 0.136202,3.86159 0.136203,0.62522 0.136202,0.56894 0.136202,1.96213 0.136202,1.06333 0.136202,-0.47677 0.136203,0.28834 0.136202,1.70677 0.136202,0.83097 0.136202,0.75617 0.136202,-1.47844 0.136202,-2.06756 0.136203,1.72944 0.136202,0.85161 0.136202,0.0528 0.136202,0.048 0.136202,4.3768 0.136202,2.53852 0.136203,1.58786 0.136202,-1.44377 0.136202,0.85272 0.136202,0.77596 0.136202,1.42831 0.136203,-3.03331 0.136202,0.1284 0.136202,1.56121 0.136202,0.69851 0.136202,1.35783 0.136202,1.23562 0.136203,1.84659 0.136202,0.23604 0.136202,0.2148 0.136202,-1.24889 0.136202,1.03005 0.136202,0.93734 0.136203,0.1308 0.136202,1.56338 0.136202,-0.74385 0.136202,0.76745 0.136202,0.69838 0.136203,-2.25318 0.136202,0.11613 0.136202,0.82786 0.136202,2.1977 0.136202,-0.16662 0.136202,-1.59597 0.136203,1.43637 0.136202,-0.13726 0.136202,-2.29143 0.136202,-1.36303 0.136202,-2.68471 0.136202,-1.7209 0.136203,-2.2882 0.136202,-0.63791 0.136202,-0.5805 0.136202,-3.41696 0.136202,-0.9429 0.136202,-1.58022 0.136203,0.72853 0.136202,-2.22574 0.136202,-0.58108 0.136202,0.91558 0.136202,-1.33335 0.136203,-0.49118 0.136202,-0.44697 0.136202,-3.29545 0.136202,1.3342 0.136202,1.9363 0.136202,-0.4045 0.136203,-1.81245 0.136202,-1.64932 0.136202,-2.22306 0.136202,-1.30081 0.136202,-1.18374 0.136202,-1.0772 0.136203,2.63063 0.136202,-1.93919 0.136202,-0.3203 0.136202,-1.01366 0.136202,-2.36677 0.136203,0.73493 0.136202,-0.0534 0.136202,-0.0486 0.136202,-0.0442 0.136202,0.68195 0.136202,0.62057 0.136203,-0.87963 0.136202,-0.0783 0.136202,-3.68212 0.136202,-3.350729 0.136202,0.561714 0.136202,-0.211016 0.136203,-0.9142 0.136202,0.612429 0.136202,-1.609216 0.136202,-2.186563 0.136202,-0.54542 0.136203,0.225843 0.136202,1.649868 0.136202,-0.665147 0.136202,1.561243 0.136202,-0.02362 0.136202,0.700682 0.136203,-0.806731 0.136202,-0.01195 0.136202,-1.455225 0.136202,0.842272 0.136202,1.488643 0.136202,-2.256213 0.136203,-1.330978 0.136202,0.955336 0.136202,0.147181 0.136202,2.300461 0.136202,-0.07311 0.136202,-0.06653 0.136203,-1.504891 0.136202,-2.091627 0.136202,0.985322 0.136202,-1.992059 0.136202,-2.534949 0.136203,-0.140277 0.136202,0.594523 0.136202,-3.069858 0.136202,-1.349224 0.136202,-2.672141 0.136202,1.179227 0.136203,1.073096 0.136202,0.254341 0.136202,-1.2129 0.136202,-1.103739 0.136202,0.439948 0.136202,1.122529 0.136203,0.299326 0.136202,-3.338489 0.136202,1.295026 0.136202,-0.988053 0.136202,1.267398 0.136203,-1.73537 0.136202,-1.579187 0.136202,-0.714884 0.136202,1.515982 0.136202,0.657368 0.136202,2.042557 0.136203,1.13655 0.136202,-0.41009 0.136202,0.348993 0.136202,1.761936 0.136202,-0.563166 0.136202,0.93187 0.136203,-0.596349 0.136202,-1.264853 0.136202,-1.873192 0.136202,-1.704605 0.136202,-2.273362 0.136203,-1.346588 0.136202,0.218956 0.136202,0.921426 0.136202,2.282849 0.136202,-2.255658 0.136202,0.113875 0.136203,-0.61855 0.136202,-0.56288 0.136202,-1.234396 0.136202,-0.401125 0.136202,2.523678 0.136202,0.130021 0.136203,0.840494 0.136202,1.487025 0.136202,0.631018 0.136202,1.296401 0.136202,-0.986801 0.136202,1.990713 0.136203,1.089374 0.136202,0.269154 0.136202,-2.643769 0.136202,-3.850181 0.136202,-1.337141 0.136203,-1.216798 0.136202,-1.107286 0.136202,0.43672 0.136202,1.119591 0.136202,0.296653 0.136202,0.269953 0.136203,1.690009 0.136202,-0.628618 0.136202,-1.294219 0.136202,2.43314 0.136202,-0.674546 0.136202,-0.613837 0.136203,0.88576 0.136202,-0.63831 0.136202,-2.025209 0.136202,1.045758 0.136202,-0.492711 0.136203,0.273808 0.136202,-1.195185 0.136202,-0.365444 0.136202,-1.776901 0.136202,-0.172632 0.136202,-0.157095 0.136203,0.579218 0.136202,0.52709 0.136202,1.924002 0.136202,1.028666 0.136202,-1.952612 0.136202,1.833997 0.136203,1.668938 0.136202,0.796557 0.136202,-0.719484 0.136202,-0.65473 0.136202,-1.31798 0.136202,0.244989 0.136203,-0.499235 0.136202,0.990047 0.136202,0.178767 0.136202,-0.559498 0.136202,-2.675666 0.136203,-0.268333 0.136202,-0.966358 0.136202,-0.157211 0.136202,0.579114 0.136202,0.526994 0.136202,2.646091 0.136203,1.685767 0.136202,0.811873 0.136202,2.183155 0.136202,-0.179855 0.136202,-1.60802 0.136202,-1.463298 0.136203,-0.609425 0.136202,-1.276753 0.136202,1.004682 0.136202,-3.41879 0.136202,-1.666747 0.136203,-0.07239 0.136202,-1.510225 0.136202,-0.652132 0.136202,-1.315613 0.136202,-1.919383 0.136202,-0.302291 0.136203,0.447091 0.136202,0.406852 0.136202,0.370236 0.136202,1.059091 0.136202,1.685947 0.136202,0.812037 0.136203,0.01678 0.136202,0.01527 0.136202,0.01389 0.136202,1.456995 0.136202,0.603689 0.136203,1.271533 0.136202,2.601446 0.136202,-2.687909 0.136202,4.053579 0.136202,0.07788 0.136202,-0.651306 0.136203,0.129487 0.136202,-0.604342 0.136202,-1.272126 0.136202,-2.601984 0.136202,0.520895 0.136202,-1.69251 0.136203,-1.540184 0.136202,-1.401567 0.136202,0.168922 0.136202,0.153718 0.136202,0.86206 0.136202,-0.659877 0.136203,-2.767011 0.136202,1.092894 0.136202,-1.17199 0.136202,-1.066511 0.136202,-1.6927 0.136203,0.626166 0.136202,-0.152364 0.136202,-0.138652 0.136202,-0.848345 0.136202,1.394529 0.136202,0.546847 0.136203,0.49763 0.136202,0.452843 0.136202,-1.754436 0.136202,-0.152189 0.136202,-0.138492 0.136202,-0.8482 0.136203,2.116837 0.136202,1.204146 0.136202,-1.07075 0.136202,-0.252211 0.136202,1.214839 0.136203,0.383329 0.136202,1.79318 0.136202,0.909618 0.136202,0.827752 0.136202,0.03108 0.136202,0.750457 0.136203,1.405092 0.136202,1.278634 0.136202,-1.00297 0.136202,-1.634875 0.136202,-0.765564 0.136202,-2.141011 0.136203,0.940379 0.136202,-0.588606 0.136202,0.186544 0.136202,-1.274593 0.136202,-0.437708 0.136203,-0.398313 0.136202,0.35971 0.136202,0.327336 0.136202,0.297876 0.136202,0.271067 0.136202,-0.475504 0.136203,-1.154882 0.136202,1.115582 0.136202,0.293003 0.136202,0.266633 0.136202,0.964812 0.136202,0.877979 0.136203,0.07679 0.136202,-2.818825 0.136202,-0.398607 0.136202,1.081619 0.136202,-1.18225 0.136202,-1.075848 0.136203,3.354029 0.136202,0.163464 0.136202,-2.739947 0.136202,-1.771176 0.136202,-1.611771 0.136203,-0.02236 0.136202,-0.742523 0.136202,1.490828 0.136202,-0.0877 0.136202,-1.524153 0.136202,1.50172 0.136203,2.088741 0.136202,1.178578 0.136202,0.350331 0.136202,-1.125547 0.136202,-0.302075 0.136202,1.169462 0.136203,1.064211 0.136202,3.134959 0.136202,-0.03589 0.136202,-1.477008 0.136202,-2.066252 0.136203,0.286233 0.136202,-1.183875 0.136202,1.811373 0.136202,0.203997 0.136202,2.352165 0.136202,-1.470404 0.136203,0.106279 0.136202,-0.625461 0.136202,-1.291342 0.136202,0.269227 0.136202,-0.477179 0.136202,0.287942 0.136203,0.984203 0.136202,0.17345 0.136202,-1.286509 0.136202,-0.448551 0.136202,0.313994 0.136203,3.896613 0.136202,-1.509308 0.136202,0.07088 0.136202,-0.657677 0.136202,0.845865 0.136202,0.04756 0.136203,0.04328 0.136202,-0.68279 0.136202,0.100837 0.136202,-0.630414 0.136202,-1.295849 0.136202,-1.901398 0.136203,-1.730273 0.136202,0.591976 0.136202,-0.90565 0.136202,0.620206 0.136202,0.564388 0.136202,1.235768 0.136203,-1.041974 0.136202,0.496151 0.136202,1.895849 0.136202,0.280871 0.136202,-1.188755 0.136203,0.362581 0.136202,-1.836575 0.136202,0.495241 0.136202,0.450668 0.136202,-1.034239 0.136202,0.50319 0.136203,1.902254 0.136202,0.2867 0.136202,0.260897 0.136202,1.681768 0.136202,2.252584 0.136202,1.327675 0.136203,-0.958341 0.136202,0.57226 0.136202,-0.201419 0.136202,-0.183291 0.136202,-0.888971 0.136203,1.357564 0.136202,1.957559 0.136202,-1.107325 0.136202,1.881038 0.136202,0.267393 0.136202,0.965503 0.136203,-0.565744 0.136202,-0.514826 0.136202,-0.468492 0.136202,0.295848 0.136202,1.713572 0.136202,-0.607175 0.136203,-1.996878 0.136202,-1.094987 0.136202,0.447914 0.136202,0.407601 0.136202,-1.073434 0.136202,-0.254649 0.136203,0.490445 0.136202,-3.16457 0.136202,-2.879759 0.136202,-0.454057 0.136202,-1.135364 0.136203,-0.311009 0.136202,1.883509 0.136202,0.269641 0.136202,-0.476802 0.136202,-1.878237 0.136202,0.457327 0.136203,0.416168 0.136202,-0.343463 0.136202,-1.034723 0.136202,-0.219426 0.136202,0.522498 0.136202,-3.857577 0.136203,2.267006 0.136202,-0.825723 0.136202,2.13729 0.136202,1.222759 0.136202,0.390535 0.136203,1.077563 0.136202,1.702757 0.136202,-0.617017 0.136202,-0.561486 0.136202,0.211224 0.136202,0.192213 0.136203,0.174914 0.136202,-1.285176 0.136202,-1.891686 0.136202,0.44509 0.136202,-2.483668 0.136202,2.072913 0.136203,-0.280177 0.136202,-0.977132 0.136202,-0.889191 0.136202,-0.08699 0.136202,-0.07916 0.136203,0.650138 0.136202,1.313801 0.136202,-0.248792 0.136202,1.21795 0.136202,-0.336016 0.136202,1.860752 0.136203,0.971109 0.136202,-2.727166 0.136202,0.406978 0.136202,1.092526 0.136202,0.272023 0.136202,0.969716 0.136203,1.604618 0.136202,-2.872849 0.136202,-1.16994 0.136202,-1.786822 0.136202,0.540516 0.136202,-0.230307 0.136203,0.512597 0.136202,-0.255712 0.136202,-0.954871 0.136202,-1.591108 0.136202,2.162967 0.136203,-0.9204 0.136202,-1.559739 0.136202,1.469337 0.136202,-1.551603 0.136202,2.198916 0.136202,-0.165513 0.136203,-0.87279 0.136202,-2.238589 0.136202,0.129407 0.136202,0.11776 0.136202,1.551513 0.136202,-0.754646 0.136203,-0.686728 0.136202,-1.347099 0.136202,-0.503683 0.136202,-0.458353 0.136202,0.305072 0.136203,-0.444557 0.136202,-0.404547 0.136202,1.07621 0.136202,1.701527 0.136202,0.104038 0.136202,0.81685 0.136203,1.46551 0.136202,1.333613 0.136202,1.213589 0.136202,1.104365 0.136202,1.727148 0.136202,3.016056 0.136203,1.30026 0.136202,-0.983291 0.136202,-2.339142 0.136202,-2.128619 0.136202,0.22948 0.136203,-1.235521 0.136202,0.320023 0.136202,-0.430954 0.136202,0.330007 0.136202,1.744658 0.136202,2.309815 0.136203,0.657579 0.136202,-0.123778 0.136202,2.053889 0.136202,2.591214 0.136202,0.913654 0.136202,0.831425 0.136203,0.756597 0.136202,-0.755848 0.136202,0.75653 0.136202,-1.478085 0.136202,-0.622882 0.136202,-2.733346 0.136203,-1.042997 0.136202,-1.671299 0.136202,0.645641 0.136202,-0.856818 0.136202,-0.05753 0.136203,-0.774527 0.136202,-1.426991 0.136202,-0.57639 0.136202,-1.246687 0.136202,-0.412313 0.136202,0.34697 0.136203,-0.406432 0.136202,-0.369853 0.136202,0.385609 0.136202,1.073079 0.136202,-0.467848 0.136202,-1.147915 0.136203,-1.044602 0.136202,-2.394939 0.136202,-0.01287 0.136202,0.710463 0.136202,0.646521 0.136203,0.588334 0.136202,0.535384 0.136202,0.4872 0.136202,-0.278824 0.136202,2.634972 0.136202,-1.213049 0.136203,-1.103875 0.136202,-0.282354 0.136202,1.909584 0.136202,-1.150977 0.136202,1.119134 0.136202,2.462764 0.136203,0.796763 0.136202,2.169406 0.136202,-3.081066 0.136202,0.08493 0.136202,-1.367062 0.136203,-2.688379 0.136202,1.164451 0.136202,-3.995576 0.136202,1.419251 0.136202,0.569344 0.136202,-0.204073 0.136203,1.258644 0.136202,4.034069 0.136202,1.504476 0.136202,-0.797453 0.136202,-0.0035 0.136202,1.441159 0.136203,-0.855071 0.136202,0.666236 0.136202,-0.838076 0.136202,-1.484822 0.136202,-1.351188 0.136202,-0.507408 0.136203,0.982609 0.136202,0.894174 0.136202,-2.797175 0.136202,-0.378907 0.136202,-1.066977 0.136203,-2.415301"
                     style="fill:none"
                     fill="none"
                     id="path750" />
                </g>
                <g
                   id="g756">
                  <path
                     stroke="#0077bb"
                     stroke-width="2px"
                     d="m 1.926481,139.45852 0.1143125,0 0.4572502,0 0.1143125,0 0.3429376,0 h 0.1143126 l 0.3429376,0 0.1143125,0 h 0.1143126 0.4572501 1.0288129 l 0.3429376,0 0.4572502,0 0.2286251,0 H 6.38467 6.4989826 6.7276077 l 0.228625,0 0.1143126,0 h 0.3429376 0.1143125 l 0.1143126,0 0.1143125,0 0.1143126,0 0.6858752,0 h 0.2286251 l 0.1143125,0 H 9.0138585 9.128171 9.4711086 l 0.1143126,0.7534 0.1143125,-0.0713 0.1143125,0.68187 0.5715628,-0.12794 0.571563,-0.1155 0.342937,-0.10435 0.114313,-0.0943 0.685875,-0.81861 0.9145,0.72186 0.342938,-0.076 0.114313,-0.0689 0.800187,-0.0624 0.342938,-0.0566 0.228625,-2.22434 0.685875,0.15186 0.114313,-7.08569 0.114312,-5.71038 0.342938,-0.13969 0.114312,-0.84685 0.800188,-4.36599 0.228625,-1.09117 0.228625,0.44506 0.114313,0.40443 0.114312,1.08488 0.800188,-5.46622 0.571563,-2.81929 0.228625,0.30184 0.114313,0.27443 0.114312,0.24954 0.342938,-1.20392 0.342937,-1.09483 0.228625,1.14924 0.114313,-1.81394 0.342938,0.49401 0.685875,-2.40854 0.114312,-1.47653 0.228625,-2.77155 0.342938,-4.66352 0.228625,-4.956463 0.114313,-0.93968 0.228625,0.572708 0.228625,-2.333834 0.114312,-2.123338 0.800188,-5.499767 0.914501,-0.0093 0.114312,-0.72189 0.114313,-0.656824 0.45725,-2.737749 1.143125,-1.777718 0.114313,-2.330841 0.228625,-1.407592 0.228625,-1.994023 0.228625,1.038392 0.342938,-2.621008 0.114312,-2.384954 0.114313,-2.883306 0.342937,-1.910546 1.143126,-1.025414 0.228625,-0.220004 0.685875,-0.91326 0.342938,-0.117983 0.114312,-0.8204 0.114313,1.392544 0.114312,-0.158858 0.228625,-2.283582 0.45725,-2.07801 0.228626,-0.464962 0.228625,1.002864 0.228625,-1.939328 0.571562,1.087136 0.228625,-0.436658 0.457251,1.74154 0.800187,0.158862 0.114313,2.283428 0.571563,-0.06096 0.114312,2.083375 0.114313,-0.955929 0.228625,1.981885 0.114312,-1.761201 0.114313,0.536132 0.45725,-0.225058 0.114313,-0.204801 0.228625,0.526563 0.342937,1.905035 0.45725,-1.831077 0.114313,-1.666274 0.114313,-2.94216 0.114312,-2.677357 0.228625,-1.723465 0.342938,3.422131 0.114312,-1.876342 0.114313,-0.28162 0.342937,-0.969195 0.114313,-0.169045 0.228625,1.272013 0.685875,0.44461 0.228625,1.830438 0.342938,0.952773 0.114313,4.431626 0.228625,-0.957665 0.114312,-0.871475 0.571563,4.910315 0.114312,0.903788 0.457251,2.248284 0.228625,1.333018 0.342937,0.500127 0.45725,-0.257803 0.457251,-0.947518 0.228625,1.276511 0.45725,1.161626 0.114312,-1.794593 0.114313,-1.633079 0.228625,-0.773182 0.114313,3.573909 0.45725,0.400588 0.114312,0.364534 0.45725,-1.094109 0.114313,-1.708557 0.114313,0.583966 1.143125,1.244325 0.571563,0.41942 0.800187,-0.331247 0.114313,0.411484 0.571563,-0.338468 0.114312,2.543662 0.228625,-0.536936 0.228625,-0.488611 0.45725,3.11995 1.028813,-1.438347 0.114313,-1.308896 0.114312,2.373487 0.114313,2.872792 0.342938,1.901322 0.685875,-1.121464 0.800188,0.405301 0.114312,-1.769924 0.114313,-3.036465 0.114312,0.8014 0.228625,-0.696561 0.114313,-0.633869 0.342937,-2.002655 0.114313,-0.396583 0.571563,3.203695 0.114312,3.628279 0.45725,-0.262849 0.800188,1.899555 0.342938,0.302762 0.114312,-2.576153 0.228625,-0.205548 0.228626,-3.751633 0.342937,2.289347 1.257438,4.222057 0.342938,-0.435428 0.114312,1.742509 0.114313,-0.553065 0.228625,0.922544 0.228625,0.126597 0.114312,-1.310631 0.228626,-1.905588 0.571562,-0.308252 0.114313,-1.706343 0.685875,2.724728 0.228625,-1.085083 0.114313,-1.70034 0.114312,-0.834394 0.114313,-1.472214 0.114312,0.08612 0.114313,0.07837 0.228625,-0.641603 0.114312,2.267807 0.114313,-3.639628 0.571563,-1.886229 0.114312,-2.429383 0.114313,-1.497823 0.228625,1.488647 0.45725,-0.07116 0.228625,2.073992 0.228625,0.461499 0.45725,-3.14462 0.114313,-0.722853 0.114312,-0.657796 0.457251,1.540153 0.45725,1.40154 0.114312,-0.863347 0.342938,-0.785645 0.228625,-0.714938 0.114312,1.488155 0.114313,0.641306 0.114313,-0.12933 0.114312,-0.830605 0.114313,-0.75585 0.228625,-2.113658 0.114312,0.928239 0.571563,1.557612 0.114313,-4.285907 0.342937,-1.048508 0.114313,0.471691 0.342937,0.429239 0.228625,-1.035226 0.457251,0.483777 0.228625,-0.985595 0.228625,1.954774 0.228625,-1.072822 0.342937,0.449566 0.457251,0.409104 0.114312,-1.053548 0.228625,-0.958729 0.342938,-0.872443 0.45725,-1.506838 0.571563,-1.371223 0.800187,-0.534898 0.114313,-0.486757 0.228625,-1.868782 0.114313,-1.700592 0.114312,-0.121705 0.114313,-3.675333 0.114312,-1.205805 0.114313,-1.810198 0.342937,-1.647279 0.457251,-0.78611 0.114312,0.710474 0.45725,-1.492218 0.342938,2.206664 0.228625,-1.556518 0.228625,1.435236 0.342938,-2.25852 0.114312,-1.342336 0.114313,1.630142 0.114312,-0.655323 0.114313,0.116574 0.228625,-1.31975 0.114312,0.22486 0.114313,1.630456 0.228625,0.770797 0.114313,-0.724408 0.114312,-2.085045 0.114313,-1.184472 0.228625,-1.790788 0.228625,1.222049 0.114312,-0.313768 0.800188,-0.998445 0.342938,0.517249 0.114312,1.183612 0.114313,-1.061662 0.228625,-0.966112 0.342938,-0.166247 0.228625,3.4133 0.228625,0.967351 0.45725,-0.545543 0.45725,-2.635193 0.342938,0.453641 0.114312,-1.725938 0.114313,-0.857685 0.114312,2.071173 0.114313,1.884767 0.571562,0.289305 0.685876,-0.449651 0.228625,-1.122097 0.114312,3.256391 0.114313,0.111649 0.114312,0.101602 0.228626,2.231205 0.342937,3.45623 0.114313,0.293503 0.342937,1.69292 0.114313,-2.024023 0.114312,-0.416028 0.228625,-2.517337 0.228626,-0.864944 0.685875,-3.638765 0.342937,0.253308 0.114313,-0.482407 0.342938,-1.864824 0.114312,1.154676 0.114313,1.050756 0.228625,-2.608394 0.114312,-0.23489 0.114313,-0.21375 0.571563,2.657154 0.45725,3.130928 0.114312,2.136227 0.228625,-1.620615 0.228625,-0.04893 0.228625,2.094225 0.114313,1.192829 0.114313,-3.192024 0.114312,-2.191828 0.114313,0.144189 0.342937,0.131211 0.228625,2.258151 0.228625,-0.796749 0.342938,0.700791 0.228625,-0.788113 0.114313,-0.717183 0.114312,2.911948 0.45725,1.22404 0.228625,3.252624 0.114313,0.82114 0.228625,-2.104429 0.342938,-2.627949 0.45725,-1.678515 0.342937,1.324218 0.342938,-1.646629 0.114313,0.640317 0.228625,-0.843145 0.228625,2.797322 0.228625,0.406812 0.571563,1.083117 0.228625,-1.153115 0.114312,0.376499 0.114313,-1.083219 0.114312,-1.698645 0.342938,-0.832852 0.685875,0.667939 0.228625,2.033657 0.114313,-0.288121 0.114312,2.589477 0.228625,0.930591 0.45725,1.559753 0.22863,-0.0065 0.11431,0.707042 0.45725,-0.782426 0.11431,-2.850759 0.11431,0.257476 0.11432,0.234303 0.34293,0.213215 0.11432,-2.65764 0.11431,3.997799 0.22862,2.212163 0.34294,-0.838597 0.22863,2.088542 0.11431,0.474741 0.22862,1.857847 0.11432,-2.586859 0.34293,-2.354041 0.34294,-0.0034 0.11431,-2.141869 0.80019,1.615481 0.11431,-2.807413 0.11432,-1.128912 0.11431,-1.02731 0.11431,-0.934852 0.11431,-0.850716 0.11432,-0.06123 0.22862,2.795944 0.11431,1.831392 0.11432,-1.1851 0.34294,2.486143 0.11431,0.123639 0.11431,0.112512 0.11431,-0.61053 0.22863,0.157333 0.68587,0.143173 0.11432,-2.721379 0.34293,-0.337703 0.80019,0.405605 0.34294,-1.056733 0.80019,1.177125 0.11431,0.358265 0.11431,0.326022 0.22863,-1.129154 0.11431,2.537055 0.11431,0.882886 0.34294,-2.761157 0.11431,0.339012 0.22863,0.308502 0.22862,-1.858012 0.11431,0.447958 0.45725,0.407641 0.11432,3.22262 0.45725,0.08092 0.11431,2.925302 0.11431,0.523276 0.11431,-0.949652 0.34294,0.56165 0.11432,0.511102 0.11431,-0.247816 0.34294,-3.077179 0.11431,-1.374399 0.9145,2.313881 0.45725,-2.171868 0.22862,-1.263485 0.22863,-0.436852 0.11431,1.741212 0.34294,0.158669 0.11431,1.570223 0.22863,-0.709845 0.11431,-0.64596 0.11431,0.83801 0.11431,1.475505 0.34294,-2.934791 0.9145,3.745591 0.22863,-0.156096 0.22862,-0.854963 0.22863,1.360732 0.11431,3.377018 0.11431,-0.491499 0.22863,0.97857 0.22862,-0.535335 0.11431,0.938678 0.11432,0.854198 0.34293,0.0644 0.22863,0.05861 0.80019,0.766249 0.11431,-0.01563 0.34294,0.698693 0.22862,-2.928772 0.68588,-3.3781 0.11431,0.490514 0.22863,1.872201 0.22862,1.703703 0.45725,1.550369 0.45725,0.697918 0.22863,2.773857 0.22862,-1.75329 0.34294,0.543254 0.11431,-0.931472 0.11431,-2.273472 0.11432,-2.781775 0.68587,-0.392667 0.11431,-1.783161 0.68588,0.516076 0.22862,0.469629 0.22863,-0.998471 0.11431,-1.621527 0.11432,-0.04976 1.02881,2.093473 0.22862,0.479228 0.34294,2.574845 0.45725,-0.508557 0.22863,2.388879 0.11431,0.748047 0.11431,0.680723 0.34294,-2.945124 0.11431,0.884519 0.22863,0.804912 0.11431,-0.693363 0.11431,0.794872 0.34294,4.287919 0.11431,-0.375493 1.14313,-1.767533 0.22862,0.530294 0.11431,-2.369099 0.34294,0.695786 0.11431,3.484832 0.11432,-0.393384 0.34293,-0.35798 0.11432,0.387154 0.11431,-2.499357 1.71469,0.577252 0.34294,-1.61345 0.22862,-0.0424 0.11431,-0.03859 0.22863,-0.03512 0.11431,1.393878 0.34294,-2.296156 0.34294,0.762164 0.11431,2.832321 0.11431,-1.700087 0.11431,-0.834165 0.22863,0.666744 0.22862,-0.819097 0.22863,0.680455 0.22862,-0.0937 0.11432,-0.08527 0.22862,-0.790512 0.22863,-0.0064 0.22862,1.419966 0.11431,-0.846583 0.11432,-0.05747 0.11431,-1.478132 0.11431,0.08073 1.14313,-3.491118 0.45725,0.387667 0.45725,-0.360141 0.11431,-0.327728 0.11431,-0.298233 0.22863,1.154441 0.34294,0.337627 0.34293,1.020155 0.22863,1.64126 0.22862,2.206461 0.11432,2.720798 0.22862,0.337175 0.45725,-1.83192 0.11431,0.471702 0.11432,-0.996585 0.22862,1.23186 0.11431,-0.304842 0.34294,-1.703238 0.11431,-1.549947 0.11432,1.441214 0.11431,3.450253 0.11431,0.288065 0.11431,0.262138 0.57157,-1.900202 0.11431,-0.303351 0.22862,-0.27605 0.45725,-1.677038 0.11432,-2.239023 0.22862,2.239989 0.45725,1.325475 0.22863,0.493264 0.45725,-1.689878 0.11431,-2.250707 0.11431,0.09061 0.11432,0.08245 0.22862,-2.06372 0.34294,0.260767 0.11431,1.663132 0.22863,0.800531 0.11431,-0.69735 0.11431,0.791245 0.68588,1.432951 0.22862,1.303986 0.11431,1.899541 0.22863,1.015668 0.11431,0.21134 0.34294,0.905237 0.11431,1.536681 0.57156,-0.02745 0.11432,0.687935 0.11431,-2.938563 0.34294,-2.674093 0.22862,-0.294673 0.11431,-1.693985 0.11432,-4.393194 0.11431,0.279694 0.11431,-0.458397 0.11431,-0.417141 0.34294,1.046235 0.34294,-0.47376 0.57156,0.994712 0.11431,3.04394 0.11432,2.057066 0.11431,1.159016 0.45725,-0.371129 0.45725,2.513939 0.22863,-1.989815 0.11431,2.466768 0.45725,0.106007 0.45725,0.809385 0.80019,-1.402211 0.22862,-1.276012 0.34294,1.690495 0.22862,0.112518 0.11432,0.10239 0.22862,-1.332657 0.11431,1.638948 0.11432,0.06561 0.22862,0.0597 0.11431,1.480164 0.34294,1.34695 1.94331,1.938642 0.11432,1.051247 0.11431,0.956634 0.11431,-0.555296 0.45725,-1.218234 0.34294,0.31724 0.11431,0.288688 0.34294,-0.450212 0.11431,-1.835526 0.11432,-1.670329 0.45725,1.331668 0.11431,1.924735 0.11431,0.325676 0.22863,1.009281 0.11431,-0.507389 0.11431,0.251195 0.22863,-1.910164 0.22862,1.826336 0.68588,0.236132 0.22862,-0.498038 0.57156,0.972618 0.11432,-1.966583 1.02881,1.774993 0.11431,0.189411 1.25744,-0.540554 0.45725,0.221014 0.11431,0.201123 0.34294,0.183021 0.11431,-0.546368 0.34294,0.928637 0.22863,-1.293687 0.11431,-2.60309 0.11431,1.908689 0.80019,-1.11476 0.11431,1.124317 0.11431,0.310213 0.11432,0.282294 0.22862,-0.45603 0.11431,-1.127903 0.22863,1.112356 0.11431,-1.126503 0.11431,-0.312204 0.11432,0.428813 0.57156,0.39022 0.22862,0.355101 0.57157,-1.815611 0.11431,-0.939287 0.34294,-0.854751 0.80018,0.648009 0.22863,1.302604 1.14313,-0.240464 0.22862,1.919929 0.11431,0.321303 0.22863,-1.846366 0.11431,1.171473 0.22863,1.778959 0.11431,-1.232814 0.68587,1.016887 0.11432,-0.500465 0.68587,1.683328 0.11431,1.531828 1.02882,-0.03187 0.45725,0.683913 0.22862,-2.229305 0.45725,1.535918 0.68588,-1.453982 0.22862,-2.036042 0.11431,0.285954 0.22863,2.398966 0.34294,1.470144 0.22862,-0.088 0.11432,-0.793001 0.45725,-0.72163 0.11431,0.76915 0.22862,0.699926 0.11432,-2.214733 0.11431,-2.728323 0.11431,-3.908607 0.34294,-1.418084 0.11431,0.848295 0.11431,0.771949 0.45725,-0.01045 0.22863,1.416328 0.11431,3.42761 0.11431,0.980374 0.22863,0.89214 0.22862,0.811848 0.22863,0.02587 0.34294,0.02354 0.34293,-3.543165 0.11432,-0.372614 0.11431,0.37384 0.34294,0.340194 0.22862,1.73541 0.11431,-1.985361 0.34294,1.757906 0.11431,0.886775 0.34294,0.806967 0.34294,-1.40441 0.11431,2.28657 0.11431,1.367863 0.11432,1.244755 0.34293,0.419809 0.45726,1.094945 0.22862,-1.142352 0.11431,-0.326622 0.11432,0.415689 0.34293,-0.334638 0.11432,-0.304521 0.22862,3.287469 0.45725,1.565762 0.11431,1.424844 0.11432,0.583693 0.34293,-1.607591 0.45725,-1.462908 0.11432,-0.618328 0.22862,1.576069 0.11431,0.721309 0.11432,-0.05653 0.11431,-0.764356 0.22862,-2.121396 0.34294,-1.93047 0.11431,-1.043814 0.11432,1.188882 0.11431,0.368963 0.45725,-2.515909 0.11431,1.988022 0.57156,0.383267 0.22863,-0.364142 0.11431,0.381546 0.11431,1.77304 0.45725,-0.525282 0.34294,2.373659 0.22863,0.734198 0.34294,0.668119 0.11431,1.320904 0.11431,-2.362559 0.11431,-1.437014 0.11432,1.543984 0.22862,-1.446641 0.22863,-2.029359 0.34293,0.292033 0.11432,0.265749 0.22862,0.241832 0.11431,0.932985 0.11432,0.849016 0.34293,-0.653228 0.22863,0.118477 0.11431,0.107815 0.11431,-0.614804 0.11432,-0.559472 0.80018,0.916714 0.11432,0.83421 0.34293,0.759131 0.57157,-1.447942 0.45725,1.534039 0.22862,-0.02986 0.45725,-4.30467 0.11431,-1.778499 0.22863,-0.1926 0.45725,-1.6011 0.11431,1.394666 0.11431,0.556228 0.22863,-1.632581 0.11431,1.366017 0.11432,0.530158 0.45725,2.621195 0.45725,1.67237 0.22862,0.09602 0.11431,1.513214 0.22863,0.66411 0.68587,2.030173 0.11432,-0.291294 0.34293,-0.265078 0.34294,-0.954135 0.45725,0.55757 0.22863,-1.631363 0.45725,0.654211 0.45725,-2.256334 0.11431,-1.340349 0.11431,-0.5068 0.45725,2.39048 0.11431,0.03658 0.34294,-2.818375 0.11431,-0.425969 0.11432,-1.100551 0.34293,-1.714416 0.34294,0.57863 0.11431,-1.612195 0.22863,-1.467098 0.22863,-0.622144 0.11431,1.572601 0.11431,0.0052 0.80019,1.430596 0.22862,-0.83691 0.11432,1.377164 0.68587,-0.172614 0.11431,-0.157079 0.11432,0.569973 0.11431,-0.194239 0.11431,0.536157 0.22863,-0.225012 0.34293,2.646906 0.80019,0.982851 0.11431,1.607309 0.11432,1.462651 1.02881,0.618098 0.34294,-3.002116 0.11431,-4.157758 0.34294,-0.218976 0.11431,-0.199268 0.11431,1.957415 0.11431,-0.357501 0.11432,-1.751159 0.34293,-2.306473 0.11432,0.03986 0.11431,-0.676645 0.11431,0.09717 0.45725,0.08843 0.11432,0.793382 0.11431,-0.703855 0.34294,1.498244 0.22862,2.076317 0.22863,0.463614 0.22862,1.847723 0.11431,0.968513 0.11432,2.30718 0.22862,-0.03922 0.11431,-0.03569 0.57157,1.393356 0.34293,1.267955 0.22863,1.153839 0.34294,0.337079 0.34293,-0.406177 0.11432,0.343297 0.22862,1.025315 0.22863,-1.918629 0.68587,1.105714 0.11431,-1.132549 0.22863,-1.030619 0.22862,-0.224949 0.57157,-0.917618 0.45725,1.303715 0.11431,0.473467 0.11431,1.856687 0.11432,-1.162081 1.37175,0.36834 0.22862,-0.377729 0.22863,2.507935 0.22862,-0.569448 0.11431,-1.944031 0.34294,0.369684 0.11431,1.762245 0.11432,-0.535108 0.11431,-0.486948 0.11431,-1.156038 0.11431,-0.33908 0.11432,-1.734396 0.22862,1.273366 0.11431,0.445849 0.11432,1.118637 0.22862,1.01796 0.57156,-1.925324 0.34294,1.099623 0.22863,-0.425177 0.11431,-3.238577 0.22862,0.617479 0.34294,3.413572 0.34294,2.393435 0.22862,1.465109 0.34294,-0.09258 0.11432,-0.08425 0.22862,-4.354169 0.11431,-2.53646 0.34294,-0.169431 0.22863,-0.154182 0.11431,-0.140305 0.9145,-2.266427 0.11431,-0.636614 0.22863,2.985263 0.57156,-0.135078 0.57156,0.589997 0.11431,1.962731 0.11432,2.499002 0.22862,1.561175 0.11431,2.133585 0.22863,1.228647 0.22862,-3.159432 0.34294,-0.02342 0.11431,1.404524 0.45725,-0.147716 0.57157,2.004329 0.22862,-1.02773 0.68588,1.203518 0.11431,1.808118 0.11431,-1.206281 0.11432,1.041036 0.11431,-0.478491 0.34294,-0.435426 0.22862,3.168345 0.34294,0.03153 0.11431,-2.11006 0.34294,1.644429 0.22862,1.496433 0.22863,0.64883 0.11431,-0.83539 0.11431,1.37854 0.45725,-1.59719 0.45725,-0.740534 0.11432,-2.099715 0.11431,-4.049492 0.45725,-1.546287 0.11431,0.01871 0.22863,2.155779 0.11431,-3.028658 0.22862,1.521421 0.11432,1.384493 0.11431,1.259888 0.22862,-0.279334 0.11432,-3.105861 0.11431,0.738248 0.11431,2.097641 0.34294,1.195936 0.22862,1.801219 0.11432,-1.212559 0.68587,0.322404 0.11431,0.293388 0.11432,0.266983 0.45725,0.242955 0.22862,0.221089 0.22863,-0.511725 0.45725,0.960165 0.80019,-0.552084 0.34293,0.923437 0.22863,-1.298424 0.22862,-0.468648 0.11432,-0.426469 0.22862,-3.952672 0.22863,-0.745264 0.22862,0.747642 0.11431,0.680354 0.11432,-0.09379 0.34293,0.627564 0.11432,1.284001 0.34293,-2.396143 0.11432,-0.04174 0.34293,0.674932 0.34294,2.75294 0.45725,0.366424 0.68588,-1.805302 0.11431,0.495923 0.34294,2.590041 0.11431,-1.207647 0.22863,0.326874 0.22862,-1.841292 0.11431,1.17609 0.22863,-1.068509 0.11431,0.45349 0.22863,1.125594 0.11431,1.02429 0.11431,-1.206647 0.11431,1.040703 0.22863,-0.478794 0.22862,-0.435703 0.11432,2.455178 0.45725,-0.617456 0.11431,0.86395 0.22862,2.924941 0.34294,2.6617 0.22863,0.99631 0.34293,-1.2321 0.68588,-3.25997 0.68587,1.31093 0.45725,-1.65872 0.34294,3.48098 0.57156,1.02895 0.22863,0.93633 0.34294,-0.57376 0.68587,0.19079 0.11432,-1.96513 0.22862,1.06339 0.34294,-3.30981 0.34294,-0.16026 0.11431,0.56709 0.11431,1.22896 1.02881,2.54419 0.11432,0.17646 0.11431,-0.55234 0.11431,0.9232 0.22863,-3.43738 0.22862,1.14948 0.34294,1.04603 0.11431,0.23897 0.45725,0.93038 0.22863,-0.57919 0.11431,-0.52706 0.11431,0.23329 0.11431,0.92521 0.9145,1.55486 1.02882,2.12784 0.22862,-0.20242 0.34294,-0.1842 0.57156,0.5453 0.34294,-0.92962 0.11431,-0.84595 0.34294,-0.76981 0.11431,-1.41345 0.34294,-0.57332 0.34294,-0.52172 0.22862,-3.32644 0.22863,3.3892 0.34294,1.65833 0.34293,-0.62966 0.11432,-1.28592 0.11431,0.96858 0.22862,-1.25736 0.9145,0.99457"
                     style="fill:none"
                     fill="none"
                     id="path754" />
                </g>
              </g>
            </g>
          </g>
          <g
             opacity="0.2"
             id="g776">
            <g
               id="g774">
              <g
                 id="g772">
                <g
                   id="g766">
                  <path
                     stroke="#ee3377"
                     stroke-width="2px"
                     d="M 1.3768079,143.88209 H 1.5130101 1.6492123 1.7854144 1.9216166 L 2.0578188,71.664554 2.194021,143.88209 H 2.3302231 2.4664253 L 2.6026275,71.664554 H 2.7388297 2.8750318 3.011234 L 3.1474362,143.88209 H 3.2836384 3.4198405 3.5560427 3.6922449 3.8284471 3.9646492 4.1008514 4.2370536 4.3732558 4.5094579 4.6456601 4.7818623 4.9180645 5.0542666 5.1904688 5.326671 5.4628732 5.5990753 5.7352775 5.8714797 6.0076819 6.143884 6.2800862 6.4162884 6.5524906 6.6886927 6.8248949 6.9610971 7.0972993 7.2335014 7.3697036 7.5059058 7.642108 7.7783101 7.9145123 8.0507145 8.1869167 8.3231188 8.459321 8.5955232 8.7317254 8.8679276 9.0041297 9.1403319 9.2765341 9.4127363 9.5489384 9.6851406 9.8213428 9.957545 h 0.136202 0.136202 0.136202 l 0.136203,-48.145016 0.136202,-8.024174 0.136202,24.07252 0.136202,8.02417 0.136202,8.02418 0.136203,-32.096696 0.136202,24.072516 0.136202,16.04833 0.136202,-32.09667 0.136202,8.02417 0.136202,16.04835 0.136203,-8.02418 0.136202,-8.02417 0.136202,-16.048346 0.136202,16.048346 0.136202,-8.02417 0.136202,-8.024176 0.136203,8.024176 0.136202,-24.072523 0.136202,24.072523 h 0.136202 0.136202 l 0.136203,-16.04835 0.136202,8.024174 0.136202,16.048346 0.136202,-24.07252 0.136202,24.07252 0.136202,8.02417 0.136203,-48.145036 0.136202,40.120866 0.136202,-8.02417 0.136202,8.02417 0.136202,24.0725 0.136202,-16.04833 0.136203,-48.145036 0.136202,40.120866 h 0.136202 l 0.136202,16.04835 0.136202,-16.04835 0.136202,40.12085 0.136203,-32.09668 h 0.136202 l 0.136202,16.04833 0.136202,-8.02415 0.136202,-16.04835 0.136203,8.02417 0.136202,16.04833 0.136202,-8.02415 h 0.136202 l 0.136202,-24.07252 0.136202,-8.024176 0.136203,40.120846 0.136202,-8.02415 0.136202,-8.02418 h 0.136202 l 0.136202,48.14502 0.136202,-16.04834 0.136203,-8.02418 0.136202,-32.09667 0.136202,24.0725 h 0.136202 l 0.136202,8.02417 0.136203,-48.145016 0.136202,32.096696 0.136202,16.04832 0.136202,-8.02417 0.136202,8.02417 h 0.136202 l 0.136203,8.02418 0.136202,-16.04835 h 0.136202 l 0.136202,-16.04833 0.136202,24.0725 h 0.136202 l 0.136203,-8.02417 0.136202,16.04835 0.136202,-24.0725 0.136202,16.04832 h 0.136202 l 0.136203,-32.09667 0.136202,24.0725 0.136202,8.02417 0.136202,16.04835 0.136202,-24.07252 0.136202,-16.04833 0.136203,32.09668 0.136202,-16.04835 0.136202,-24.0725 0.136202,8.02417 0.136202,-16.04834 0.136202,8.02417 0.136203,-8.02417 0.136202,16.04834 h 0.136202 l 0.136202,-32.09669 0.136202,24.07252 0.136202,-8.02417 0.136203,24.07252 0.136202,-32.096696 0.136202,16.048346 0.136202,16.04835 0.136202,-24.07252 0.136203,8.02417 h 0.136202 l 0.136202,-32.096693 0.136202,48.145043 0.136202,8.02415 0.136202,-24.0725 0.136203,-16.048346 h 0.136202 l 0.136202,-8.024174 0.136202,8.024174 h 0.136202 0.136202 l 0.136203,40.120846 0.136202,-48.14502 0.136202,16.04835 0.136202,-8.024176 0.136202,-16.048347 0.136203,32.096693 0.136202,-8.02417 h 0.136202 0.136202 l 0.136202,8.02417 h 0.136202 l 0.136203,-16.048346 0.136202,8.024176 0.136202,-40.120869 h 0.136202 l 0.136202,40.120869 0.136202,-8.024176 0.136203,-8.024174 0.136202,16.04835 0.136202,-24.072523 0.136202,-8.024173 0.136202,16.048346 0.136203,8.024174 0.136202,16.048346 0.136202,-24.07252 0.136202,24.07252 0.136202,-16.048346 0.136202,8.024176 0.136203,-16.04835 0.136202,8.024174 0.136202,-16.048347 0.136202,24.072523 0.136202,8.02417 0.136202,-40.120866 0.136203,8.024173 0.136202,24.072523 0.136202,-8.024176 0.136202,24.072516 0.136202,-24.072516 h 0.136202 l 0.136203,-16.048347 0.136202,-8.024173 0.136202,32.096696 0.136202,-32.096696 0.136202,-8.024173 0.136203,24.072519 0.136202,8.024174 0.136202,-40.120829 0.136202,16.048309 0.136202,-16.048309 0.136202,40.120829 h 0.136203 L 33.111915,87.7129 33.248117,71.664554 h 0.136202 l 0.136202,16.048346 0.136202,8.024174 0.136203,-8.024174 0.136202,-40.120828 0.136202,48.145002 0.136202,-24.07252 0.136202,24.07252 0.136203,-32.096693 h 0.136202 l 0.136202,8.024173 0.136202,24.07252 0.136202,-8.024174 0.136202,16.04835 0.136203,-8.024176 0.136202,-16.048347 0.136202,8.024173 0.136202,16.04835 0.136202,-24.072523 0.136202,16.048347 0.136203,-16.048347 0.136202,-8.024173 0.136202,-8.024173 h 0.136202 l 0.136202,-8.024136 0.136203,8.024136 0.136202,16.048346 0.136202,8.024173 0.136202,16.04835 0.136202,-48.145005 0.136202,24.072482 0.136203,-8.024173 h 0.136202 l 0.136202,-8.024173 0.136202,8.024173 0.136202,32.096696 0.136202,-24.072523 0.136203,8.024173 0.136202,8.024174 0.136202,-8.024174 0.136202,8.024174 0.136202,-24.07252 0.136202,32.096696 0.136203,-8.024176 0.136202,-8.024174 0.136202,-32.096655 0.136202,-16.048347 0.136202,24.072483 h 0.136203 0.136202 l 0.136202,16.048346 0.136202,8.024173 0.136202,-8.024173 h 0.136202 l 0.136203,16.048347 0.136202,-24.07252 0.136202,-8.024173 0.136202,40.120869 0.136202,-32.096696 h 0.136202 L 41.55645,87.7129 41.692652,71.664554 41.828854,55.616245 41.965056,87.7129 l 0.136202,-16.048346 0.136203,8.024173 0.136202,-16.048346 0.136202,8.024173 0.136202,-16.048309 0.136202,16.048309 h 0.136202 l 0.136203,8.024173 h 0.136202 l 0.136202,16.048347 0.136202,-8.024174 0.136202,-32.096655 0.136202,40.120829 h 0.136203 L 44.008089,87.7129 44.144291,71.664554 h 0.136202 l 0.136202,-8.024173 0.136202,16.048346 0.136203,-8.024173 0.136202,16.048346 0.136202,-8.024173 0.136202,-8.024173 0.136202,-24.072482 0.136203,24.072482 0.136202,-8.024173 0.136202,8.024173 0.136202,8.024173 h 0.136202 l 0.136202,24.072523 0.136203,-8.024176 0.136202,-8.024174 0.136202,16.04835 0.136202,-24.072523 0.136202,-16.048346 h 0.136202 l 0.136203,8.024173 0.136202,-8.024173 0.136202,24.072519 0.136202,-48.145002 0.136202,16.048347 0.136203,16.048309 0.136202,-16.048309 0.136202,8.024136 0.136202,-8.024136 0.136202,-8.024173 0.136202,16.048309 0.136203,8.024173 h 0.136202 0.136202 l 0.136202,8.024173 0.136202,8.024173 0.136202,-8.024173 0.136203,-8.024173 h 0.136202 0.136202 l 0.136202,16.048346 0.136202,-8.024173 0.136203,8.024173 0.136202,16.04835 0.136202,-56.169178 0.136202,72.217518 0.136202,-40.120863 0.136202,-8.024173 0.136203,8.024173 0.136202,-8.024173 0.136202,-8.024173 0.136202,-16.048309 0.136202,32.096655 0.136202,-24.072482 h 0.136203 0.136202 l 0.136202,16.048309 h 0.136202 l 0.136202,8.024173 0.136202,-16.048346 0.136203,-24.072483 0.136202,40.120829 0.136202,-24.072482 h 0.136202 l 0.136202,-8.024173 0.136203,24.072482 0.136202,-8.024173 h 0.136202 l 0.136202,-8.024136 0.136202,24.072482 0.136202,-8.024173 h 0.136203 0.136202 l 0.136202,-24.072482 0.136202,16.048309 h 0.136202 l 0.136202,-8.024136 0.136203,32.096655 0.136202,-8.024173 0.136202,-24.072482 0.136202,8.024136 0.136202,16.048346 0.136203,-8.024173 0.136202,16.048346 0.136202,-8.024173 h 0.136202 l 0.136202,-8.024173 0.136202,8.024173 0.136203,8.024173 h 0.136202 l 0.136202,-24.072519 0.136202,-8.024136 0.136202,8.024136 0.136202,-16.048309 0.136203,32.096655 0.136202,-16.048346 0.136202,8.024173 0.136202,-16.048309 0.136202,8.024136 h 0.136203 l 0.136202,8.024173 h 0.136202 0.136202 0.136202 l 0.136202,-8.024173 0.136203,-8.024136 0.136202,24.072482 0.136202,-8.024173 h 0.136202 l 0.136202,8.024173 h 0.136202 l 0.136203,-8.024173 0.136202,-32.096656 0.136202,24.072483 0.136202,16.048346 0.136202,-24.072482 h 0.136202 l 0.136203,48.145005 0.136202,-32.096696 0.136202,-32.096656 0.136202,8.024174 h 0.136202 l 0.136203,16.048309 0.136202,-8.024136 0.136202,24.072482 0.136202,-16.048346 0.136202,-16.048309 0.136202,32.096655 0.136203,8.024173 0.136202,-8.024173 0.136202,-8.024173 0.136202,-16.048309 0.136202,8.024136 0.136202,16.048346 h 0.136203 l 0.136202,24.072523 0.136202,-32.096696 0.136202,-16.048309 0.136202,-8.024173 0.136203,24.072482 0.136202,-16.048309 0.136202,32.096655 0.136202,-16.048346 0.136202,24.07252 0.136202,-40.120829 0.136203,16.048309 0.136202,-8.024173 0.136202,-8.024136 0.136202,16.048309 0.136202,-8.024173 0.136202,8.024173 0.136203,8.024173 0.136202,-8.024173 0.136202,-16.048309 0.136202,8.024136 0.136202,8.024173 0.136203,40.120866 0.136202,-56.169175 0.136202,16.048309 0.136202,-8.024173 0.136202,16.048346 0.136202,-8.024173 h 0.136203 l 0.136202,-8.024173 0.136202,8.024173 0.136202,-8.024173 0.136202,-8.024136 0.136202,-8.024173 h 0.136203 l 0.136202,24.072482 0.136202,-16.048309 0.136202,16.048309 h 0.136202 l 0.136202,8.024173 0.136203,-24.072482 0.136202,16.048309 0.136202,16.048346 0.136202,-16.048346 0.136202,-16.048309 0.136203,16.048309 0.136202,-24.072482 0.136202,24.072482 h 0.136202 L 69.205491,55.616245 69.341693,71.664554 69.477896,87.7129 69.614098,71.664554 H 69.7503 l 0.136202,16.048346 0.136202,8.024174 0.136202,-8.024174 0.136203,-24.072519 0.136202,16.048346 0.136202,-8.024173 h 0.136202 l 0.136202,-8.024173 0.136203,24.072519 0.136202,8.024174 0.136202,-32.096693 0.136202,32.096693 0.136202,-16.048347 0.136202,8.024173 0.136203,-16.048346 h 0.136202 0.136202 l 0.136202,8.024173 0.136202,16.048347 0.136202,-24.07252 0.136203,-16.048309 0.136202,8.024136 0.136202,16.048346 h 0.136202 l 0.136202,-16.048346 0.136202,8.024173 0.136203,8.024173 0.136202,-40.120829 h 0.136202 l 0.136202,24.072483 0.136202,-8.024136 0.136203,8.024136 0.136202,24.072519 0.136202,-16.048346 0.136202,-8.024173 0.136202,-16.048309 0.136202,24.072482 h 0.136203 l 0.136202,-8.024173 0.136202,-8.024136 0.136202,8.024136 0.136202,8.024173 0.136202,-48.145002 0.136203,64.193348 0.136202,-32.096655 0.136202,32.096655 0.136202,-8.024173 0.136202,-8.024173 0.136203,8.024173 0.136202,8.024173 0.136202,-24.072519 h 0.136202 l 0.136202,8.024173 h 0.136202 0.136203 l 0.136202,-16.048309 0.136202,-8.024173 0.136202,24.072482 0.136202,-32.096656 0.136202,48.145002 0.136203,-24.072519 0.136202,-8.024136 h 0.136202 l 0.136202,8.024136 h 0.136202 l 0.136203,8.024173 0.136202,8.024173 0.136202,-16.048346 0.136202,16.048346 0.136202,-16.048346 0.136202,24.072519 0.136203,-8.024173 0.136202,-40.120829 0.136202,32.096656 0.136202,8.024173 0.136202,-8.024173 0.136202,8.024173 0.136203,8.024173 0.136202,-48.145002 0.136202,16.048347 0.136202,-8.024173 0.136202,24.072482 0.136202,-8.024173 0.136203,8.024173 0.136202,-8.024173 0.136202,-8.024136 0.136202,-8.024173 0.136202,40.120828 0.136203,-32.096655 0.136202,-8.024173 0.136202,32.096655 0.136202,-32.096655 0.136202,40.120828 0.136202,-24.072519 0.136203,-8.024136 0.136202,-16.048347 0.136202,24.072483 h 0.136202 l 0.136202,16.048346 0.136202,-24.072482 h 0.136203 l 0.136202,-8.024173 0.136202,8.024173 h 0.136202 l 0.136202,8.024136 0.136203,-8.024136 h 0.136202 l 0.136202,16.048309 0.136202,8.024173 0.136202,-16.048346 0.136202,8.024173 0.136203,8.024173 h 0.136202 0.136202 0.136202 l 0.136202,8.024173 0.136202,16.04835 0.136203,-16.04835 0.136202,-24.072519 0.136202,-16.048309 h 0.136202 l 0.136202,24.072482 0.136203,-16.048309 0.136202,16.048309 0.136202,-8.024173 0.136202,8.024173 0.136202,16.048346 0.136202,8.024174 0.136203,-16.048347 0.136202,-8.024173 0.136202,24.07252 0.136202,8.024176 0.136202,-16.04835 h 0.136202 0.136203 L 88.273796,71.664554 88.409998,87.7129 88.5462,63.640381 l 0.136202,8.024173 0.136202,-24.072482 0.136203,16.048309 0.136202,-8.024136 0.136202,24.072482 0.136202,-16.048346 0.136202,8.024173 0.136203,-8.024173 0.136202,-8.024136 0.136202,8.024136 0.136202,-8.024136 0.136202,8.024136 0.136202,8.024173 0.136203,-8.024173 h 0.136202 l 0.136202,8.024173 0.136202,8.024173 0.136202,-16.048346 0.136202,-8.024136 h 0.136203 l 0.136202,-16.048347 0.136202,24.072483 0.136202,8.024173 h 0.136202 0.136203 0.136202 0.136202 l 0.136202,-8.024173 0.136202,32.096693 0.136202,-40.120829 h 0.136203 l 0.136202,8.024136 0.136202,24.072519 0.136202,-32.096655 0.136202,24.072482 0.136202,16.048347 0.136203,-16.048347 0.136202,16.048347 0.136202,-56.169176 0.136202,32.096656 0.136202,-16.048309 0.136203,-16.048347 0.136202,40.120829 0.136202,-56.169175 0.136202,56.169175 0.136202,-8.024173 0.136202,-8.024173 0.136203,16.048346 0.136202,32.096693 0.136202,-24.07252 0.136202,-24.072519 0.136202,8.024173 0.136202,16.048346 0.136203,-24.072519 0.136202,16.048346 0.136202,-16.048346 0.136202,-8.024136 h 0.136202 l 0.136202,8.024136 0.136203,16.048346 h 0.136202 l 0.136202,-40.120829 0.136202,24.072483 0.136202,-8.024136 0.136203,-16.048347"
                     style="fill:none"
                     fill="none"
                     id="path764" />
                </g>
                <g
                   id="g770">
                  <path
                     stroke="#0077bb"
                     stroke-width="2px"
                     d="M 1.926481,139.45852 H 2.0407935 2.4980437 2.6123562 2.9552938 3.0696064 3.412544 3.5268565 3.6411691 4.0984192 5.1272321 5.4701697 5.9274199 6.156045 6.38467 6.4989826 6.7276077 6.9562327 7.0705453 7.4134829 7.5277954 7.642108 7.7564205 7.8707331 8.5566083 8.7852334 8.8995459 9.0138585 9.128171 9.4711086 l 0.1143126,7.92129 0.1143125,-7.92129 0.1143125,7.92129 0.5715628,-7.92129 h 0.571563 0.342937 0.114313 l 0.685875,-7.9213 0.9145,15.84259 0.342938,-7.92129 h 0.114313 0.800187 0.342938 l 0.228625,-23.76389 0.685875,23.76389 0.114313,-79.212962 0.114312,7.921278 0.342938,55.449084 0.114312,-7.92129 0.800188,-39.60648 0.228625,31.68518 0.228625,15.84259 h 0.114313 l 0.114312,7.9213 0.800188,-71.291662 0.571563,23.763869 0.228625,31.685203 H 19.4163 19.530612 L 19.87355,99.852019 h 0.342937 l 0.228625,23.763901 0.114313,-31.685178 0.342938,23.763888 0.685875,-31.685203 0.114312,7.921315 0.228625,-15.842592 0.342938,-23.763906 0.228625,-7.921277 0.114313,39.60646 0.228625,15.842592 0.228625,-31.685183 h 0.114312 l 0.800188,-39.606461 0.914501,55.449052 0.114312,-7.921277 h 0.114313 l 0.45725,-23.763906 1.143125,7.921314 0.114313,-7.921314 0.228625,7.921314 0.228625,-7.921314 0.228625,31.685183 0.342938,-39.60646 h 0.114312 l 0.114313,-7.921314 0.342937,7.921314 1.143126,7.921277 0.228625,7.921314 0.685875,-7.921314 0.342938,7.921314 0.114312,-7.921314 0.114313,23.763906 0.114312,-15.842592 0.228625,-23.763905 h 0.45725 l 0.228626,15.842591 0.228625,15.842592 0.228625,-31.685183 0.571562,31.685183 0.228625,-15.842592 0.457251,23.763906 0.800187,-15.842592 0.114313,23.763869 0.571563,-23.763869 0.114312,23.763869 0.114313,-31.685183 0.228625,31.685183 0.114312,-39.60646 0.114313,23.763869 0.45725,-7.921278 h 0.114313 l 0.228625,7.921278 0.342937,15.842591 0.45725,-39.60646 h 0.114313 l 0.114313,-15.842592 h 0.114312 l 0.228625,7.921278 0.342938,55.449089 0.114312,-55.449089 0.114313,15.842591 0.342937,-7.921277 0.114313,7.921277 0.228625,15.842592 0.685875,-7.921278 0.228625,15.842592 0.342938,-7.921314 0.114313,39.606494 0.228625,-55.449086 h 0.114312 l 0.571563,63.370386 0.114312,-39.60648 0.457251,15.842592 0.228625,-7.921315 0.342937,-7.921277 0.45725,-7.921314 0.457251,-7.921278 0.228625,23.763869 h 0.45725 l 0.114312,-31.685183 h 0.114313 l 0.228625,7.921314 0.114313,47.527772 0.45725,-31.68518 h 0.114312 l 0.45725,-15.842592 0.114313,-7.921314 0.114313,23.763906 1.143125,7.921277 0.571563,-7.921277 0.800187,-7.921314 0.114313,7.921314 0.571563,-7.921314 0.114312,31.685183 0.228625,-31.685183 h 0.228625 l 0.45725,39.606494 1.028813,-47.527772 h 0.114313 l 0.114312,39.606461 0.114313,7.921311 0.342938,-7.921311 0.685875,-31.685183 0.800188,15.842591 0.114312,-23.763869 0.114313,-15.842591 0.114312,39.60646 0.228625,-15.842591 h 0.114313 l 0.342937,-15.842592 0.114313,15.842592 0.571563,39.606494 0.114312,7.9213 0.45725,-39.60648 0.800188,23.763869 0.342938,-15.842592 0.114312,-31.685183 0.228625,23.763906 0.228626,-39.606497 0.342937,63.370366 1.257438,23.763901 0.342938,-47.52777 0.114312,23.763869 0.114313,-23.763869 0.228625,15.842592 0.228625,-7.921315 0.114312,-15.842591 0.228626,-7.921278 0.571562,15.842592 0.114313,-15.842592 0.685875,47.527772 0.228625,-39.606494 0.114313,-7.921278 0.114312,7.921278 0.114313,-7.921278 0.114312,15.842592 h 0.114313 l 0.228625,-7.921314 0.114312,31.685183 0.114313,-63.370366 0.571563,15.842591 0.114312,-7.921277 0.114313,7.921277 0.228625,31.685183 0.45725,-15.842591 0.228625,23.763906 0.228625,-15.842592 0.45725,-39.606497 0.114313,23.763905 h 0.114312 l 0.457251,23.763869 h 0.45725 l 0.114312,-23.763869 h 0.342938 0.228625 l 0.114312,23.763869 0.114313,-7.921277 0.114313,-7.921314 0.114312,-7.921278 h 0.114313 l 0.228625,-15.842591 0.114312,31.685183 0.571563,7.921277 0.114313,-63.370366 0.342937,31.685183 0.114313,15.842592 h 0.342937 l 0.228625,-15.842592 0.457251,15.842592 0.228625,-15.842592 0.228625,31.685183 0.228625,-31.685183 0.342937,15.842592 h 0.457251 l 0.114312,-15.842592 h 0.228625 0.342938 l 0.45725,-7.921277 h 0.571563 l 0.800187,7.921277 h 0.114313 l 0.228625,-15.842591 h 0.114313 l 0.114312,15.842591 0.114313,-39.606461 0.114312,23.76387 0.114313,-7.921278 h 0.342937 l 0.457251,7.921278 0.114312,15.842591 0.45725,-23.763869 0.342938,39.606461 0.228625,-39.606461 0.228625,31.685183 0.342938,-39.606497 0.114312,7.921314 0.114313,31.685183 0.114312,-23.763905 0.114313,7.921314 0.228625,-15.842592 0.114312,15.842592 0.114313,15.842591 0.228625,-7.921314 0.114313,-15.842591 0.114312,-15.842592 0.114313,7.921314 0.228625,-7.921314 0.228625,31.685183 0.114312,-15.842591 0.800188,-7.921278 0.342938,15.842592 0.114312,7.921277 0.114313,-23.763869 h 0.228625 l 0.342938,7.921278 0.228625,39.606497 0.228625,-23.763906 0.45725,-15.842591 0.45725,-23.76387 0.342938,31.685184 0.114312,-23.763906 0.114313,7.921314 0.114312,31.685183 h 0.114313 l 0.571562,-15.842591 0.685876,-7.921314 0.228625,-7.921278 0.114312,47.527775 0.114313,-31.685183 h 0.114312 l 0.228626,23.763869 0.342937,15.842591 0.114313,-31.685183 0.342937,15.842592 0.114313,-39.606461 0.114312,15.842592 0.228625,-23.763906 0.228626,15.842592 0.685875,-31.6851838 0.342937,39.6064978 0.114313,-7.921314 0.342938,-15.842592 0.114312,31.685183 h 0.114313 l 0.228625,-39.606461 0.114312,23.76387 h 0.114313 l 0.571563,31.685183 0.45725,7.921314 0.114312,-7.921314 0.228625,-39.606461 0.228625,15.842592 0.228625,23.763869 0.114313,-7.921278 0.114313,-47.527775 0.114312,7.921278 0.114313,23.763906 h 0.342937 l 0.228625,23.763869 0.228625,-31.685183 0.342938,15.842591 0.228625,-15.842591 h 0.114313 l 0.114312,39.606497 0.45725,-15.842592 0.228625,23.763869 0.114313,-23.763869 0.228625,-31.685183 0.342938,-7.921314 0.45725,7.921314 0.342937,31.685183 0.342938,-31.685183 0.114313,23.763869 0.228625,-15.842591 0.228625,39.606497 0.228625,-23.763906 0.571563,7.921314 0.228625,-23.763905 0.114312,15.842591 0.114313,-15.842591 0.114312,-7.921278 0.342938,7.921278 0.685875,15.842591 0.228625,15.842592 0.114313,-23.763869 0.114312,31.685183 0.228625,-15.842592 0.45725,7.921278 0.22863,-15.842592 0.11431,7.921314 0.45725,-15.842591 0.11431,-23.763906 0.11431,31.685183 h 0.11432 0.34293 l 0.11432,-31.685183 0.11431,71.291681 0.22862,-15.842592 0.34294,-31.685183 0.22863,31.685183 0.11431,-15.842592 0.22862,15.842592 0.11432,-47.527775 h 0.34293 l 0.34294,23.763869 0.11431,-23.763869 0.80019,39.606461 0.11431,-47.527775 0.11432,15.842592 h 0.11431 0.11431 0.11431 l 0.11432,7.921314 0.22862,31.685183 0.11431,-7.921314 0.11432,-31.685183 0.34294,39.606497 0.11431,-23.763906 h 0.11431 l 0.11431,-7.921277 0.22863,7.921277 h 0.68587 l 0.11432,-31.685183 0.34293,23.763906 0.80019,7.921277 0.34294,-15.842591 0.80019,23.763905 0.11431,-7.921314 h 0.11431 l 0.22863,-15.842591 0.11431,39.606497 0.11431,-15.842592 0.34294,-39.606497 0.11431,31.685183 h 0.22863 l 0.22862,-23.763869 0.11431,23.763869 h 0.45725 l 0.11432,31.685183 0.45725,-31.685183 0.11431,31.685183 0.11431,-23.763869 0.11431,-15.842591 0.34294,15.842591 h 0.11432 l 0.11431,-7.921314 0.34294,-31.685183 0.11431,15.842592 0.9145,39.606497 0.45725,-47.527775 0.22862,7.921278 0.22863,7.921314 0.11431,23.763869 0.34294,-15.842592 0.11431,15.842592 0.22863,-23.763869 h 0.11431 l 0.11431,15.842591 0.11431,7.921278 0.34294,-47.527775 0.9145,71.291681 0.22863,-39.606498 0.22862,-7.921277 0.22863,23.763869 0.11431,23.763906 0.11431,-39.606498 0.22863,15.842592 0.22862,-15.842592 0.11431,15.842592 h 0.11432 l 0.34293,-7.921278 h 0.22863 l 0.80019,7.921278 0.11431,-7.921278 0.34294,7.921278 0.22862,-39.606461 0.68588,-7.921314 0.11431,39.606497 0.22863,15.842592 h 0.22862 0.45725 l 0.45725,-7.921314 0.22863,23.763906 0.22862,-47.527775 0.34294,23.763869 0.11431,-15.842592 0.11431,-15.842591 0.11432,-7.921278 0.68587,23.763869 0.11431,-15.842591 0.68588,23.763905 h 0.22862 l 0.22863,-15.842591 0.11431,-7.921314 0.11432,15.842591 1.02881,23.763906 0.22862,-15.842592 0.34294,23.763869 0.45725,-31.685183 0.22863,31.685183 0.11431,-15.842591 h 0.11431 l 0.34294,-39.606461 0.11431,39.606461 h 0.22863 l 0.11431,-15.842592 0.11431,15.842592 0.34294,39.606494 0.11431,-47.527772 1.14313,-15.842591 0.22862,23.763869 0.11431,-31.685183 0.34294,31.685183 0.11431,31.685183 0.11432,-39.606461 h 0.34293 l 0.11432,7.921278 0.11431,-31.685183 1.71469,31.685183 0.34294,-23.763869 0.22862,15.842591 h 0.11431 0.22863 l 0.11431,15.842592 0.34294,-39.606497 0.34294,31.685183 0.11431,23.763906 0.11431,-47.527775 0.11431,7.921277 0.22863,15.842592 0.22862,-15.842592 0.22863,15.842592 0.22862,-7.921278 h 0.11432 l 0.22862,-7.921314 0.22863,7.921314 0.22862,15.842592 0.11431,-23.763906 0.11432,7.921314 0.11431,-15.842591 0.11431,15.842591 1.14313,-39.606497 0.45725,39.606497 0.45725,-7.921314 h 0.11431 0.11431 l 0.22863,15.842592 0.34294,-7.921278 0.34293,7.921278 0.22863,7.921314 0.22862,7.921277 0.11432,7.921315 0.22862,-23.763906 0.45725,-23.763869 0.11431,23.763869 0.11432,-15.842592 0.22862,23.763906 0.11431,-15.842592 0.34294,-15.842591 h 0.11431 l 0.11432,31.685183 0.11431,23.763869 0.11431,-31.685183 h 0.11431 l 0.57157,-23.763869 0.11431,15.842591 h 0.22862 l 0.45725,-15.842591 0.11432,-7.921314 0.22862,47.527774 0.45725,-7.921277 0.22863,-7.921314 0.45725,-23.763869 0.11431,-7.921314 0.11431,23.763905 h 0.11432 l 0.22862,-23.763905 0.34294,23.763905 0.11431,15.842592 0.22863,-7.921314 0.11431,-15.842592 0.11431,15.842592 0.68588,7.921314 h 0.22862 l 0.11431,7.921277 0.22863,-7.921277 0.11431,-7.921314 0.34294,7.921314 0.11431,7.921277 0.57156,-15.842591 0.11432,7.921314 0.11431,-39.606497 h 0.34294 l 0.22862,23.763905 0.11431,-15.842591 0.11432,-31.685184 0.11431,47.527775 0.11431,-7.921314 h 0.11431 l 0.34294,15.842592 0.34294,-15.842592 0.57156,15.842592 0.11431,23.763906 0.11432,-7.921315 0.11431,-7.921277 0.45725,-15.842592 0.45725,31.685184 0.22863,-47.527775 0.11431,47.527775 0.45725,-23.763906 0.45725,7.921314 0.80019,-23.763906 h 0.22862 l 0.34294,31.685183 0.22862,-15.842591 h 0.11432 l 0.22862,-15.842592 0.11431,31.685183 0.11432,-15.842591 h 0.22862 l 0.11431,15.842591 h 0.34294 l 1.94331,7.921315 0.11432,-7.921315 h 0.11431 l 0.11431,-15.842591 0.45725,-7.921278 0.34294,15.842592 h 0.11431 l 0.34294,-7.921314 0.11431,-15.842592 h 0.11432 l 0.45725,31.685183 0.11431,7.921315 0.11431,-15.842592 0.22863,7.921277 0.11431,-15.842591 0.11431,7.921314 0.22863,-23.763906 0.22862,39.606498 0.68588,-15.842592 0.22862,-7.921314 0.57156,15.842591 0.11432,-31.685183 1.02881,39.606498 0.11431,-15.842592 1.25744,-7.921314 0.45725,7.921314 h 0.11431 0.34294 l 0.11431,-7.921314 0.34294,15.842591 0.22863,-23.763869 0.11431,-15.842591 0.11431,47.527775 0.80019,-31.685184 0.11431,23.763869 0.11431,-7.921277 h 0.11432 l 0.22862,-7.921314 0.11431,-7.921278 0.22863,23.763869 0.11431,-23.763869 0.11431,7.921278 0.11432,7.921314 h 0.57156 0.22862 l 0.57157,-23.763906 0.11431,7.921314 h 0.34294 l 0.80018,15.842592 0.22863,7.921277 1.14313,-15.842591 0.22862,23.763906 0.11431,-15.842592 0.22863,-23.763906 0.11431,31.685183 0.22863,7.921315 0.11431,-31.685184 0.68587,23.763869 0.11432,-15.842591 0.68587,23.763906 h 0.11431 l 1.02882,-15.842592 0.45725,7.921277 0.22862,-31.685183 0.45725,39.606498 0.68588,-31.685184 0.22862,-7.921314 0.11431,23.763906 0.22863,23.763869 0.34294,-7.921277 0.22862,-15.842592 0.11432,-7.921314 h 0.45725 l 0.11431,15.842591 h 0.22862 l 0.11432,-31.685183 0.11431,-7.921277 0.11431,-15.842592 0.34294,23.763869 0.11431,23.763906 h 0.11431 l 0.45725,-7.921314 0.22863,15.842591 0.11431,23.763903 0.11431,-23.763903 h 0.22863 0.22862 l 0.22863,-7.921277 h 0.34294 l 0.34293,-39.606497 0.11432,31.685183 0.11431,7.921314 h 0.34294 l 0.22862,15.842592 0.11431,-39.606498 0.34294,39.606498 0.11431,-7.921315 h 0.34294 l 0.34294,-23.763869 0.11431,39.606461 0.11431,-7.921277 h 0.11432 l 0.34293,-7.921315 0.45726,7.921315 0.22862,-23.763906 0.11431,7.921314 0.11432,7.921277 0.34293,-7.921277 h 0.11432 l 0.22862,39.60648 0.45725,-15.842611 h 0.11431 l 0.11432,-7.921277 0.34293,-23.763906 h 0.45725 l 0.11432,7.921314 0.22862,23.763869 0.11431,-7.921277 0.11432,-7.921315 0.11431,-7.921277 0.22862,-15.842592 h 0.34294 l 0.11431,7.921278 0.11432,23.763906 0.11431,-7.921315 0.45725,-31.685183 0.11431,47.527775 0.57156,-15.842592 0.22863,-7.921277 0.11431,7.921277 0.11431,15.842592 0.45725,-23.763869 0.34294,31.68518 0.22863,-15.842588 h 0.34294 l 0.11431,7.921277 0.11431,-39.606461 0.11431,7.921278 0.11432,31.685183 0.22862,-31.685183 0.22863,-7.921278 0.34293,23.763869 h 0.11432 0.22862 l 0.11431,7.921315 h 0.11432 l 0.34293,-15.842592 0.22863,7.921277 h 0.11431 l 0.11431,-7.921277 h 0.11432 l 0.80018,15.842592 h 0.11432 0.34293 l 0.57157,-23.763906 0.45725,31.685183 0.22862,-15.842592 0.45725,-47.527774 0.11431,23.763905 0.22863,15.842592 0.45725,-15.842592 0.11431,31.685184 0.11431,-7.921315 0.22863,-23.763869 0.11431,31.685184 0.11432,-7.921315 0.45725,23.763903 0.45725,-7.921311 0.22862,-15.842592 0.11431,15.842592 0.22863,-7.921277 0.68587,15.842588 0.11432,-23.763903 h 0.34293 l 0.34294,-7.921277 0.45725,15.842592 0.22863,-23.763906 0.45725,23.763906 0.45725,-31.685184 0.11431,7.921278 0.11431,7.921314 0.45725,31.68518 0.11431,-23.763903 0.34294,-31.685183 0.11431,23.763906 0.11432,-7.921314 0.34293,-7.921278 0.34294,23.763869 0.11431,-23.763869 h 0.22863 l 0.22863,7.921278 0.11431,23.763906 0.11431,-15.842592 0.80019,15.842592 0.22862,-23.763906 0.11432,23.763906 0.68587,-15.842592 h 0.11431 l 0.11432,7.921277 0.11431,-7.921277 0.11431,7.921277 0.22863,-7.921277 0.34293,31.68518 0.80019,-15.842588 0.11431,7.921277 h 0.11432 l 1.02881,-7.921277 0.34294,-39.606498 0.11431,-15.842591 0.34294,39.606497 h 0.11431 l 0.11431,23.763869 0.11431,-23.763869 0.11432,-15.842592 0.34293,-7.921314 0.11432,23.763906 0.11431,-7.921314 0.11431,7.921314 h 0.45725 l 0.11432,7.921277 0.11431,-15.842591 0.34294,23.763906 0.22862,7.921277 0.22863,-15.842592 0.22862,15.842592 0.11431,-7.921277 0.11432,15.842588 0.22862,-23.763903 h 0.11431 l 0.57157,15.842592 h 0.34293 0.22863 l 0.34294,-7.921277 0.34293,-7.921315 0.11432,7.921315 0.22862,7.921277 0.22863,-31.685183 0.68587,31.685183 0.11431,-23.763869 h 0.22863 l 0.22862,7.921277 0.57157,-7.921277 0.45725,23.763869 0.11431,-7.921277 0.11431,15.842588 0.11432,-31.68518 1.37175,15.842592 0.22862,-7.921315 0.22863,31.685203 0.22862,-31.685203 0.11431,-15.842591 0.34294,23.763906 0.11431,15.842588 0.11432,-23.763903 h 0.11431 l 0.11431,-7.921277 0.11431,7.921277 0.11432,-15.842591 0.22862,31.685183 0.11431,-7.921277 0.11432,7.921277 h 0.22862 l 0.57156,-31.685183 0.34294,31.685183 0.22863,-15.842592 0.11431,-31.685183 0.22862,39.606498 0.34294,31.685178 0.34294,-7.92129 0.22862,-7.9213 0.34294,-15.842588 h 0.11432 l 0.22862,-47.527775 0.11431,15.842591 0.34294,23.763869 h 0.22863 0.11431 l 0.9145,-23.763869 0.11431,15.842592 0.22863,39.60648 0.57156,-31.685203 0.57156,7.921315 0.11431,15.842588 0.11432,7.9213 0.22862,-7.9213 0.11431,7.9213 0.22863,-7.9213 0.22862,-47.527772 0.34294,31.685184 0.11431,15.842588 0.45725,-15.842588 0.57157,23.763888 0.22862,-31.685203 0.68588,23.763903 0.11431,7.9213 0.11431,-31.685203 0.11432,23.763903 0.11431,-15.842588 h 0.34294 l 0.22862,39.606478 0.34294,-31.685201 0.11431,-23.763869 0.34294,39.60648 h 0.22862 l 0.22863,-7.9213 0.11431,-15.842588 0.11431,23.763888 0.45725,-31.685203 0.45725,7.921315 0.11432,-15.842592 0.11431,-23.763906 0.45725,23.763906 0.11431,15.842592 0.22863,23.763888 0.11431,-55.449072 0.22862,47.527772 h 0.11432 0.11431 l 0.22862,-15.842588 0.11432,-31.685184 0.11431,39.606461 0.11431,15.842611 0.34294,-7.9213 0.22862,7.9213 0.11432,-31.685203 0.68587,15.842592 h 0.11431 0.11432 0.45725 0.22862 l 0.22863,-7.921277 0.45725,15.842588 0.80019,-15.842588 0.34293,15.842588 0.22863,-23.763903 0.22862,7.921315 h 0.11432 l 0.22862,-39.606498 0.22863,31.685183 0.22862,15.842592 h 0.11431 l 0.11432,-7.921277 0.34293,7.921277 0.11432,7.921311 0.34293,-39.606494 0.11432,23.763906 0.34293,7.921277 0.34294,23.763901 0.45725,-23.763901 0.68588,-23.763869 0.11431,23.763869 0.34294,23.763901 0.11431,-39.606493 0.22863,15.842592 0.22862,-23.763869 0.11431,31.68518 0.22863,-23.763903 0.11431,15.842592 0.22863,7.921311 h 0.11431 l 0.11431,-23.763903 0.11431,23.763903 0.22863,-15.842588 h 0.22862 l 0.11432,31.685178 0.45725,-31.685178 0.11431,15.842588 0.22862,23.76389 h 0.34294 l 0.22863,-15.84259 0.34293,-23.763888 0.68588,-23.763906 0.68587,47.527794 0.45725,-31.685203 0.34294,55.449093 0.57156,-23.76389 h 0.22863 l 0.34294,-15.842611 0.68587,7.921311 0.11432,-23.763903 0.22862,31.685203 0.34294,-47.527794 0.34294,31.685183 0.11431,7.921311 0.11431,7.9213 1.02881,15.84259 0.11432,-23.76389 0.11431,-7.921311 0.11431,15.842611 0.22863,-47.527794 0.22862,47.527794 h 0.34294 l 0.11431,-7.9213 0.45725,7.9213 0.22863,-15.842611 h 0.11431 l 0.11431,7.921311 0.11431,7.9213 0.9145,7.92129 1.02882,7.9213 0.22862,-23.76389 h 0.34294 l 0.57156,7.9213 0.34294,-15.842611 h 0.11431 0.34294 l 0.11431,-7.921277 0.34294,7.921277 h 0.34294 l 0.22862,-31.685183 0.22863,71.291684 0.34294,-15.8426 0.34293,-23.763901 0.11432,-7.921277 0.11431,23.763888 0.22862,-23.763888 0.9145,23.763888"
                     style="fill:none"
                     fill="none"
                     id="path768" />
                </g>
              </g>
            </g>
          </g>
        </g>
      </g>
      <g
         transform="translate(51,177)"
         clip-path="url(#clip_1)"
         id="g841">
        <clipPath
           id="clip_1">
          <rect
             width="278"
             height="23"
             id="rect782"
             x="0"
             y="0" />
        </clipPath>
        <g
           id="g839">
          <g
             id="g809">
            <line
               x1="1.2418218"
               y1="0"
               x2="1.2418218"
               y2="5"
               style="visibility:inherit"
               fill="#000000"
               stroke="#cccccc"
               stroke-width="1px"
               id="line785" />
            <line
               x1="25.563639"
               y1="0"
               x2="25.563639"
               y2="5"
               style="visibility:inherit"
               fill="#000000"
               stroke="#cccccc"
               stroke-width="1px"
               id="line787" />
            <line
               x1="49.885456"
               y1="0"
               x2="49.885456"
               y2="5"
               style="visibility:inherit"
               fill="#000000"
               stroke="#cccccc"
               stroke-width="1px"
               id="line789" />
            <line
               x1="74.207275"
               y1="0"
               x2="74.207275"
               y2="5"
               style="visibility:inherit"
               fill="#000000"
               stroke="#cccccc"
               stroke-width="1px"
               id="line791" />
            <line
               x1="98.529091"
               y1="0"
               x2="98.529091"
               y2="5"
               style="visibility:inherit"
               fill="#000000"
               stroke="#cccccc"
               stroke-width="1px"
               id="line793" />
            <line
               x1="122.85091"
               y1="0"
               x2="122.85091"
               y2="5"
               style="visibility:inherit"
               fill="#000000"
               stroke="#cccccc"
               stroke-width="1px"
               id="line795" />
            <line
               x1="147.17273"
               y1="0"
               x2="147.17273"
               y2="5"
               style="visibility:inherit"
               fill="#000000"
               stroke="#cccccc"
               stroke-width="1px"
               id="line797" />
            <line
               x1="171.49454"
               y1="0"
               x2="171.49454"
               y2="5"
               style="visibility:inherit"
               fill="#000000"
               stroke="#cccccc"
               stroke-width="1px"
               id="line799" />
            <line
               x1="195.81636"
               y1="0"
               x2="195.81636"
               y2="5"
               style="visibility:inherit"
               fill="#000000"
               stroke="#cccccc"
               stroke-width="1px"
               id="line801" />
            <line
               x1="220.13817"
               y1="0"
               x2="220.13817"
               y2="5"
               style="visibility:inherit"
               fill="#000000"
               stroke="#cccccc"
               stroke-width="1px"
               id="line803" />
            <line
               x1="244.45999"
               y1="0"
               x2="244.45999"
               y2="5"
               style="visibility:inherit"
               fill="#000000"
               stroke="#cccccc"
               stroke-width="1px"
               id="line805" />
            <line
               x1="268.7818"
               y1="0"
               x2="268.7818"
               y2="5"
               style="visibility:inherit"
               fill="#000000"
               stroke="#cccccc"
               stroke-width="1px"
               id="line807" />
          </g>
          <g
             transform="translate(0,8)"
             id="g835">
            <text
               x="1.2418218"
               y="0"
               dx="0em"
               dy="0.94999999em"
               style="font-weight:200;font-size:12px;font-family:Roboto, sans-serif;text-anchor:middle;visibility:hidden"
               fill="#212121"
               stroke="none"
               stroke-width="1px"
               id="text811">0</text>
            <text
               x="25.563639"
               y="0"
               dx="0em"
               dy="0.94999999em"
               style="font-weight:200;font-size:12px;font-family:Roboto, sans-serif;text-anchor:middle;visibility:inherit"
               fill="#212121"
               stroke="none"
               stroke-width="1px"
               id="text813">20k</text>
            <text
               x="49.885456"
               y="0"
               dx="0em"
               dy="0.94999999em"
               style="font-weight:200;font-size:12px;font-family:Roboto, sans-serif;text-anchor:middle;visibility:hidden"
               fill="#212121"
               stroke="none"
               stroke-width="1px"
               id="text815">40k</text>
            <text
               x="74.207275"
               y="0"
               dx="0em"
               dy="0.94999999em"
               style="font-weight:200;font-size:12px;font-family:Roboto, sans-serif;text-anchor:middle;visibility:inherit"
               fill="#212121"
               stroke="none"
               stroke-width="1px"
               id="text817">60k</text>
            <text
               x="98.529091"
               y="0"
               dx="0em"
               dy="0.94999999em"
               style="font-weight:200;font-size:12px;font-family:Roboto, sans-serif;text-anchor:middle;visibility:hidden"
               fill="#212121"
               stroke="none"
               stroke-width="1px"
               id="text819">80k</text>
            <text
               x="122.85091"
               y="0"
               dx="0em"
               dy="0.94999999em"
               style="font-weight:200;font-size:12px;font-family:Roboto, sans-serif;text-anchor:middle;visibility:inherit"
               fill="#212121"
               stroke="none"
               stroke-width="1px"
               id="text821">100k</text>
            <text
               x="147.17273"
               y="0"
               dx="0em"
               dy="0.94999999em"
               style="font-weight:200;font-size:12px;font-family:Roboto, sans-serif;text-anchor:middle;visibility:hidden"
               fill="#212121"
               stroke="none"
               stroke-width="1px"
               id="text823">120k</text>
            <text
               x="171.49454"
               y="0"
               dx="0em"
               dy="0.94999999em"
               style="font-weight:200;font-size:12px;font-family:Roboto, sans-serif;text-anchor:middle;visibility:inherit"
               fill="#212121"
               stroke="none"
               stroke-width="1px"
               id="text825">140k</text>
            <text
               x="195.81636"
               y="0"
               dx="0em"
               dy="0.94999999em"
               style="font-weight:200;font-size:12px;font-family:Roboto, sans-serif;text-anchor:middle;visibility:hidden"
               fill="#212121"
               stroke="none"
               stroke-width="1px"
               id="text827">160k</text>
            <text
               x="220.13817"
               y="0"
               dx="0em"
               dy="0.94999999em"
               style="font-weight:200;font-size:12px;font-family:Roboto, sans-serif;text-anchor:middle;visibility:inherit"
               fill="#212121"
               stroke="none"
               stroke-width="1px"
               id="text829">180k</text>
            <text
               x="244.45999"
               y="0"
               dx="0em"
               dy="0.94999999em"
               style="font-weight:200;font-size:12px;font-family:Roboto, sans-serif;text-anchor:middle;visibility:hidden"
               fill="#212121"
               stroke="none"
               stroke-width="1px"
               id="text831">200k</text>
            <text
               x="268.7818"
               y="0"
               dx="0em"
               dy="0.94999999em"
               style="font-weight:200;font-size:12px;font-family:Roboto, sans-serif;text-anchor:middle;visibility:hidden"
               fill="#212121"
               stroke="none"
               stroke-width="1px"
               id="text833">220k</text>
          </g>
          <line
             x1="0"
             y1="0"
             x2="278.4375"
             y2="0"
             fill="#000000"
             stroke="#cccccc"
             stroke-width="1px"
             id="line837" />
        </g>
      </g>
    </g>
  </g>
  <text
     xml:space="preserve"
     style="fill:#000000"
     x="170.87537"
     y="195.11127"
     id="text855"><tspan
       sodipodi:role="line"
       id="tspan853"
       x="170.87537"
       y="195.11127">Step</tspan></text>
  <text
     xml:space="preserve"
     style="fill:#000000"
     x="-110.23457"
     y="11.670727"
     id="text859"
     transform="rotate(-90)"><tspan
       sodipodi:role="line"
       id="tspan857"
       x="-110.23457"
       y="11.670727">Accuracy</tspan><tspan
       sodipodi:role="line"
       x="-110.23457"
       y="26.670727"
       id="tspan861" /></text>
</svg>
