<?xml version="1.0" encoding="UTF-8" standalone="no"?>
<svg
   viewBox="0 0 330 200"
   version="1.1"
   id="svg222"
   sodipodi:docname="transformer_loss.svg"
   inkscape:version="1.2.2 (732a01da63, 2022-12-09)"
   xmlns:inkscape="http://www.inkscape.org/namespaces/inkscape"
   xmlns:sodipodi="http://sodipodi.sourceforge.net/DTD/sodipodi-0.dtd"
   xmlns="http://www.w3.org/2000/svg"
   xmlns:svg="http://www.w3.org/2000/svg">
  <defs
     id="defs226" />
  <sodipodi:namedview
     id="namedview224"
     pagecolor="#ffffff"
     bordercolor="#000000"
     borderopacity="0.25"
     inkscape:showpageshadow="2"
     inkscape:pageopacity="0.0"
     inkscape:pagecheckerboard="0"
     inkscape:deskcolor="#d1d1d1"
     showgrid="false"
     inkscape:zoom="4.0848485"
     inkscape:cx="165"
     inkscape:cy="99.881306"
     inkscape:window-width="1920"
     inkscape:window-height="1009"
     inkscape:window-x="-8"
     inkscape:window-y="-8"
     inkscape:window-maximized="1"
     inkscape:current-layer="svg222" />
  <g
     id="g220"
     transform="scale(1,0.93522303)">
    <g
       id="g218">
      <g
         id="g54">
        <g
           id="g52">
          <g
             id="g24">
            <line
               x1="51.5625"
               y1="166.70442"
               x2="46.5625"
               y2="166.70442"
               style="visibility:inherit"
               fill="#000000"
               stroke="#cccccc"
               stroke-width="1px"
               id="line2" />
            <line
               x1="51.5625"
               y1="150.86182"
               x2="46.5625"
               y2="150.86182"
               style="visibility:inherit"
               fill="#000000"
               stroke="#cccccc"
               stroke-width="1px"
               id="line4" />
            <line
               x1="51.5625"
               y1="135.01923"
               x2="46.5625"
               y2="135.01923"
               style="visibility:inherit"
               fill="#000000"
               stroke="#cccccc"
               stroke-width="1px"
               id="line6" />
            <line
               x1="51.5625"
               y1="119.17664"
               x2="46.5625"
               y2="119.17664"
               style="visibility:inherit"
               fill="#000000"
               stroke="#cccccc"
               stroke-width="1px"
               id="line8" />
            <line
               x1="51.5625"
               y1="103.33405"
               x2="46.5625"
               y2="103.33405"
               style="visibility:inherit"
               fill="#000000"
               stroke="#cccccc"
               stroke-width="1px"
               id="line10" />
            <line
               x1="51.5625"
               y1="87.491455"
               x2="46.5625"
               y2="87.491455"
               style="visibility:inherit"
               fill="#000000"
               stroke="#cccccc"
               stroke-width="1px"
               id="line12" />
            <line
               x1="51.5625"
               y1="71.648857"
               x2="46.5625"
               y2="71.648857"
               style="visibility:inherit"
               fill="#000000"
               stroke="#cccccc"
               stroke-width="1px"
               id="line14" />
            <line
               x1="51.5625"
               y1="55.806267"
               x2="46.5625"
               y2="55.806267"
               style="visibility:inherit"
               fill="#000000"
               stroke="#cccccc"
               stroke-width="1px"
               id="line16" />
            <line
               x1="51.5625"
               y1="39.963676"
               x2="46.5625"
               y2="39.963676"
               style="visibility:inherit"
               fill="#000000"
               stroke="#cccccc"
               stroke-width="1px"
               id="line18" />
            <line
               x1="51.5625"
               y1="24.121082"
               x2="46.5625"
               y2="24.121082"
               style="visibility:inherit"
               fill="#000000"
               stroke="#cccccc"
               stroke-width="1px"
               id="line20" />
            <line
               x1="51.5625"
               y1="8.2784901"
               x2="46.5625"
               y2="8.2784901"
               style="visibility:inherit"
               fill="#000000"
               stroke="#cccccc"
               stroke-width="1px"
               id="line22" />
          </g>
          <g
             transform="translate(41.5625)"
             id="g48">
            <text
               x="0"
               y="166.70442"
               dx="0em"
               dy="0.30000001em"
               style="font-weight:200;font-size:12px;font-family:Roboto, sans-serif;text-anchor:end;visibility:inherit"
               fill="#212121"
               stroke="none"
               stroke-width="1px"
               id="text26">0.66</text>
            <text
               x="0"
               y="150.86182"
               dx="0em"
               dy="0.30000001em"
               style="font-weight:200;font-size:12px;font-family:Roboto, sans-serif;text-anchor:end;visibility:hidden"
               fill="#212121"
               stroke="none"
               stroke-width="1px"
               id="text28">0.68</text>
            <text
               x="0"
               y="135.01923"
               dx="0em"
               dy="0.30000001em"
               style="font-weight:200;font-size:12px;font-family:Roboto, sans-serif;text-anchor:end;visibility:inherit"
               fill="#212121"
               stroke="none"
               stroke-width="1px"
               id="text30">0.7</text>
            <text
               x="0"
               y="119.17664"
               dx="0em"
               dy="0.30000001em"
               style="font-weight:200;font-size:12px;font-family:Roboto, sans-serif;text-anchor:end;visibility:hidden"
               fill="#212121"
               stroke="none"
               stroke-width="1px"
               id="text32">0.72</text>
            <text
               x="0"
               y="103.33405"
               dx="0em"
               dy="0.30000001em"
               style="font-weight:200;font-size:12px;font-family:Roboto, sans-serif;text-anchor:end;visibility:inherit"
               fill="#212121"
               stroke="none"
               stroke-width="1px"
               id="text34">0.74</text>
            <text
               x="0"
               y="87.491455"
               dx="0em"
               dy="0.30000001em"
               style="font-weight:200;font-size:12px;font-family:Roboto, sans-serif;text-anchor:end;visibility:hidden"
               fill="#212121"
               stroke="none"
               stroke-width="1px"
               id="text36">0.76</text>
            <text
               x="0"
               y="71.648857"
               dx="0em"
               dy="0.30000001em"
               style="font-weight:200;font-size:12px;font-family:Roboto, sans-serif;text-anchor:end;visibility:inherit"
               fill="#212121"
               stroke="none"
               stroke-width="1px"
               id="text38">0.78</text>
            <text
               x="0"
               y="55.806267"
               dx="0em"
               dy="0.30000001em"
               style="font-weight:200;font-size:12px;font-family:Roboto, sans-serif;text-anchor:end;visibility:hidden"
               fill="#212121"
               stroke="none"
               stroke-width="1px"
               id="text40">0.8</text>
            <text
               x="0"
               y="39.963676"
               dx="0em"
               dy="0.30000001em"
               style="font-weight:200;font-size:12px;font-family:Roboto, sans-serif;text-anchor:end;visibility:inherit"
               fill="#212121"
               stroke="none"
               stroke-width="1px"
               id="text42">0.82</text>
            <text
               x="0"
               y="24.121082"
               dx="0em"
               dy="0.30000001em"
               style="font-weight:200;font-size:12px;font-family:Roboto, sans-serif;text-anchor:end;visibility:hidden"
               fill="#212121"
               stroke="none"
               stroke-width="1px"
               id="text44">0.84</text>
            <text
               x="0"
               y="8.2784901"
               dx="0em"
               dy="0.30000001em"
               style="font-weight:200;font-size:12px;font-family:Roboto, sans-serif;text-anchor:end;visibility:inherit"
               fill="#212121"
               stroke="none"
               stroke-width="1px"
               id="text46">0.86</text>
          </g>
          <line
             x1="51.5625"
             y1="0"
             x2="51.5625"
             y2="177"
             fill="#000000"
             stroke="#cccccc"
             stroke-width="1px"
             id="line50" />
        </g>
      </g>
      <g
         transform="translate(51)"
         clip-path="url(#clip_0)"
         id="g155">
        <clipPath
           id="clip_0">
          <rect
             width="278"
             height="177"
             id="rect56"
             x="0"
             y="0" />
        </clipPath>
        <g
           id="g111">
          <g
             id="g109">
            <g
               id="g83">
              <line
                 x1="1.6459725"
                 y1="0"
                 x2="1.6459725"
                 y2="177"
                 fill="#000000"
                 stroke="#424242"
                 stroke-width="1px"
                 opacity="0.25"
                 id="line59" />
              <line
                 x1="25.480604"
                 y1="0"
                 x2="25.480604"
                 y2="177"
                 fill="#000000"
                 stroke="#424242"
                 stroke-width="1px"
                 opacity="0.25"
                 id="line61" />
              <line
                 x1="49.315235"
                 y1="0"
                 x2="49.315235"
                 y2="177"
                 fill="#000000"
                 stroke="#424242"
                 stroke-width="1px"
                 opacity="0.25"
                 id="line63" />
              <line
                 x1="73.149864"
                 y1="0"
                 x2="73.149864"
                 y2="177"
                 fill="#000000"
                 stroke="#424242"
                 stroke-width="1px"
                 opacity="0.25"
                 id="line65" />
              <line
                 x1="96.984497"
                 y1="0"
                 x2="96.984497"
                 y2="177"
                 fill="#000000"
                 stroke="#424242"
                 stroke-width="1px"
                 opacity="0.25"
                 id="line67" />
              <line
                 x1="120.81913"
                 y1="0"
                 x2="120.81913"
                 y2="177"
                 fill="#000000"
                 stroke="#424242"
                 stroke-width="1px"
                 opacity="0.25"
                 id="line69" />
              <line
                 x1="144.65376"
                 y1="0"
                 x2="144.65376"
                 y2="177"
                 fill="#000000"
                 stroke="#424242"
                 stroke-width="1px"
                 opacity="0.25"
                 id="line71" />
              <line
                 x1="168.48839"
                 y1="0"
                 x2="168.48839"
                 y2="177"
                 fill="#000000"
                 stroke="#424242"
                 stroke-width="1px"
                 opacity="0.25"
                 id="line73" />
              <line
                 x1="192.32303"
                 y1="0"
                 x2="192.32303"
                 y2="177"
                 fill="#000000"
                 stroke="#424242"
                 stroke-width="1px"
                 opacity="0.25"
                 id="line75" />
              <line
                 x1="216.15765"
                 y1="0"
                 x2="216.15765"
                 y2="177"
                 fill="#000000"
                 stroke="#424242"
                 stroke-width="1px"
                 opacity="0.25"
                 id="line77" />
              <line
                 x1="239.99228"
                 y1="0"
                 x2="239.99228"
                 y2="177"
                 fill="#000000"
                 stroke="#424242"
                 stroke-width="1px"
                 opacity="0.25"
                 id="line79" />
              <line
                 x1="263.8269"
                 y1="0"
                 x2="263.8269"
                 y2="177"
                 fill="#000000"
                 stroke="#424242"
                 stroke-width="1px"
                 opacity="0.25"
                 id="line81" />
            </g>
            <g
               id="g107">
              <line
                 x1="0"
                 y1="166.70442"
                 x2="278.4375"
                 y2="166.70442"
                 fill="#000000"
                 stroke="#424242"
                 stroke-width="1px"
                 opacity="0.25"
                 id="line85" />
              <line
                 x1="0"
                 y1="150.86182"
                 x2="278.4375"
                 y2="150.86182"
                 fill="#000000"
                 stroke="#424242"
                 stroke-width="1px"
                 opacity="0.25"
                 id="line87" />
              <line
                 x1="0"
                 y1="135.01923"
                 x2="278.4375"
                 y2="135.01923"
                 fill="#000000"
                 stroke="#424242"
                 stroke-width="1px"
                 opacity="0.25"
                 id="line89" />
              <line
                 x1="0"
                 y1="119.17664"
                 x2="278.4375"
                 y2="119.17664"
                 fill="#000000"
                 stroke="#424242"
                 stroke-width="1px"
                 opacity="0.25"
                 id="line91" />
              <line
                 x1="0"
                 y1="103.33405"
                 x2="278.4375"
                 y2="103.33405"
                 fill="#000000"
                 stroke="#424242"
                 stroke-width="1px"
                 opacity="0.25"
                 id="line93" />
              <line
                 x1="0"
                 y1="87.491455"
                 x2="278.4375"
                 y2="87.491455"
                 fill="#000000"
                 stroke="#424242"
                 stroke-width="1px"
                 opacity="0.25"
                 id="line95" />
              <line
                 x1="0"
                 y1="71.648857"
                 x2="278.4375"
                 y2="71.648857"
                 fill="#000000"
                 stroke="#424242"
                 stroke-width="1px"
                 opacity="0.25"
                 id="line97" />
              <line
                 x1="0"
                 y1="55.806267"
                 x2="278.4375"
                 y2="55.806267"
                 fill="#000000"
                 stroke="#424242"
                 stroke-width="1px"
                 opacity="0.25"
                 id="line99" />
              <line
                 x1="0"
                 y1="39.963676"
                 x2="278.4375"
                 y2="39.963676"
                 fill="#000000"
                 stroke="#424242"
                 stroke-width="1px"
                 opacity="0.25"
                 id="line101" />
              <line
                 x1="0"
                 y1="24.121082"
                 x2="278.4375"
                 y2="24.121082"
                 fill="#000000"
                 stroke="#424242"
                 stroke-width="1px"
                 opacity="0.25"
                 id="line103" />
              <line
                 x1="0"
                 y1="8.2784901"
                 x2="278.4375"
                 y2="8.2784901"
                 fill="#000000"
                 stroke="#424242"
                 stroke-width="1px"
                 opacity="0.25"
                 id="line105" />
            </g>
          </g>
        </g>
        <g
           id="g117">
          <g
             id="g115">
            <line
               x1="0"
               y1="689.50995"
               x2="278.4375"
               y2="689.50995"
               fill="#000000"
               stroke="#999999"
               stroke-width="1.5px"
               id="line113" />
          </g>
        </g>
        <g
           id="g123">
          <g
             id="g121">
            <line
               x1="1.6459725"
               y1="0"
               x2="1.6459725"
               y2="177"
               fill="#000000"
               stroke="#999999"
               stroke-width="1.5px"
               id="line119" />
          </g>
        </g>
        <g
           id="g153">
          <g
             id="g137">
            <g
               id="g135">
              <g
                 id="g133">
                <g
                   id="g127">
                  <path
                     stroke="#ee3377"
                     stroke-width="2px"
                     d="m 1.7782547,122.33343 0.133474,8.11382 0.1334739,-6.11174 0.1334739,0.88951 0.133474,3.45462 0.1334739,3.15539 0.1334739,1.0449 0.133474,-2.23494 0.1334739,-0.32827 0.133474,1.62604 0.1334739,1.39424 0.1334739,0.97869 0.133474,0.79782 0.1334739,-0.23388 0.1334739,0.45682 0.133474,0.38404 0.1334739,-0.54381 0.1334739,-0.11737 0.133474,0.42199 0.1334739,0.32836 0.1334739,0.24607 0.133474,-0.20374 0.1334739,-0.4835 0.1334739,-0.46117 0.133474,0.2615 0.1334739,-0.52385 0.1334739,-0.22999 0.133474,0.30535 0.1334739,-0.41594 0.1334739,0.36678 0.133474,0.52142 0.1334739,-0.1515 0.1334739,0.19585 0.133474,-0.29921 0.1334739,-0.62977 0.133474,-0.10968 0.1334739,-0.18288 0.1334739,-0.64472 0.133474,0.0417 0.1334739,-0.0359 0.1334739,0.0379 0.133474,0.30181 0.1334739,0.29057 0.1334739,0.23782 0.133474,0.38617 0.1334739,-0.11618 0.1334739,-0.31892 0.133474,0.16859 0.1334739,0.19135 0.1334739,0.0253 0.133474,-0.19353 0.1334739,-0.10149 0.1334739,-0.0563 0.133474,-0.152 0.1334739,0.0609 0.1334739,0.0937 0.133474,-0.33425 0.1334739,-0.35958 0.1334739,-0.33594 0.133474,-0.13131 0.1334739,0.2049 0.133474,0.3009 0.1334742,-0.19706 0.133474,-0.0192 0.133474,-0.11835 0.133473,-0.13453 0.133474,-0.46213 0.133474,0.66612 0.133474,0.42359 0.133474,-0.10886 0.133474,0.40633 0.133474,-2.88755 0.133474,0.12195 0.133474,-0.71912 0.133474,-2.02211 0.133474,-0.56665 0.133474,-1.23824 0.133474,-1.77574 0.133474,-0.10905 0.133474,0.16384 0.133474,0.14116 0.133473,-0.17599 0.133474,-0.22365 0.133474,0.45978 0.133474,-0.93952 0.133474,0.3924 0.133474,0.46241 0.133474,-0.14157 0.133474,0.43586 0.133474,0.17273 0.133474,-0.038 0.133474,0.0707 0.133474,-1.14148 0.133474,-0.38707 0.133474,-0.21713 0.133474,-1.53548 0.133473,-0.854 0.133474,-1.04821 0.133474,-0.54253 0.133474,-0.79809 0.133474,-1.07434 0.133474,-1.21347 0.133474,-1.37523 0.133474,-0.93618 0.133474,-1.16226 0.133474,-1.48902 0.133474,-2.0939 0.133474,-1.1976 0.133474,-1.27988 0.133474,-1.00155 0.133474,-1.00109 0.133473,-0.80024 0.133474,-2.80427 0.133474,-1.04307 0.133474,-0.914587 0.133474,-1.464807 0.133474,-1.371439 0.133474,-0.803993 0.133474,-0.642276 0.133474,-0.459798 0.133474,-0.75946 0.133474,-1.212609 0.133474,-2.33287 0.133474,-2.084265 0.133474,-2.168704 0.133474,-0.469602 0.133473,-1.588101 0.133474,-1.829612 0.133474,-1.522231 0.133474,-0.70853 0.133474,-1.648264 0.133474,-1.506407 0.133474,-0.765942 0.133474,-1.457671 0.133474,-1.616007 0.133474,-1.276533 0.133474,-2.059922 0.133474,-1.372411 0.133474,-1.16898 0.133474,-1.018619 0.133474,-0.21032 0.133474,-0.997258 0.133473,-0.952556 0.133474,-0.662102 0.133474,-1.255446 0.133474,0.105523 0.133474,0.02375 0.133474,-0.694424 0.133474,-1.228998 0.133474,-1.841714 0.133474,-1.165069 0.133474,-0.848053 0.133474,-1.201326 0.133474,-0.217762 0.133474,0.451762 0.133474,-0.603732 0.133474,0.380367 0.133473,0.53457 0.133474,0.365413 0.133474,-0.0125 0.133474,-0.448525 0.133474,1.070582 0.133474,0.530461 0.133474,0.243755 0.133474,-0.434196 0.133474,0.538664 0.133474,-0.217586 0.133474,0.02383 0.133474,0.13856 0.133474,-0.05888 0.133474,1.207188 0.133474,1.366534 0.133473,-0.395909 0.133474,-0.161953 0.133474,0.164205 0.133474,0.838549 0.133474,2.443663 0.133474,2.349713 0.133474,0.861056 0.133474,0.169761 0.133474,1.122564 0.133474,-0.666408 0.133474,2.576832 0.133474,-0.344602 0.133474,0.16458 0.133474,1.195829 0.133474,-0.386685 0.133474,-0.372047 0.133473,0.25901 0.133474,0.350044 0.133474,-1.389379 0.133474,0.953145 0.133474,0.792748 0.133474,0.423983 0.133474,3.066555 0.133474,1.633371 0.133474,0.652456 0.133474,0.08088 0.133474,0.994798 0.133474,-0.904971 0.133474,0.942996 0.133474,0.466056 0.133474,0.420694 0.133473,-0.738112 0.133474,-1.344633 0.133474,1.160746 0.133474,-0.458516 0.133474,-1.646343 0.133474,-1.915008 0.133474,-0.359017 0.133474,-0.387573 0.133474,0.479044 0.133474,0.203038 0.133474,-0.777833 0.133474,1.744065 0.133474,1.535619 0.133474,-1.597351 0.133474,1.760061 0.133473,-1.576424 0.133474,-0.527292 0.133474,0.133855 0.133474,0.876686 0.133474,1.963206 0.133474,-0.427903 0.133474,1.569016 0.133474,2.801152 0.133474,1.112144 0.133474,0.347513 0.133474,2.547666 0.133474,0.519859 0.133474,1.527768 0.133474,-1.480041 0.133474,-0.730606 0.133473,0.608672 0.133474,1.174309 0.133474,1.034363 0.133474,-0.793729 0.133474,0.111095 0.133474,0.542154 0.133474,2.727203 0.133474,-1.562436 0.133474,0.02257 0.133474,-2.660888 0.133474,0.887236 0.133474,0.621796 0.133474,0.285617 0.133474,-0.184192 0.133474,-0.796263 0.133474,-1.509308 0.133473,0.04971 0.133474,0.995999 0.133474,-0.354246 0.133474,0.202048 0.133474,0.867553 0.133474,-0.732483 0.133474,1.42707 0.133474,0.851197 0.133474,1.983223 0.133474,1.742696 0.133474,1.623749 0.133474,1.006677 0.133474,-0.01457 0.133474,-0.721807 0.133474,-2.048116 0.133473,1.970638 0.133474,-0.992463 0.133474,0.03215 0.133474,0.390579 0.133474,1.237623 0.133474,-0.558569 0.133474,-3.061167 0.133474,-0.989214 0.133474,-0.74587 0.133474,-0.949806 0.133474,-0.201562 0.133474,-1.460711 0.133474,0.454179 0.133474,-3.197608 0.133474,0.178166 0.133473,-0.284531 0.133474,3.802869 0.133474,3.411676 0.133474,1.649149 0.133474,0.59374 0.133474,1.079796 0.133474,0.600478 0.133474,-1.479596 0.133474,-0.854026 0.133474,-1.040999 0.133474,-2.205302 0.133474,1.226577 0.133474,1.344789 0.133474,-2.093856 0.133474,0.562359 0.133474,0.872769 0.133473,-0.583536 0.133474,-0.102793 0.133474,2.46529 0.133474,-1.381664 0.133474,0.198807 0.133474,0.707247 0.133474,0.893573 0.133474,-0.262541 0.133474,1.737657 0.133474,0.0057 0.133474,-0.04384 0.133474,-0.924574 0.133474,0.525328 0.133474,-2.744811 0.133474,0.119146 0.133473,1.310134 0.133474,-2.332794 0.133474,-1.123237 0.133474,-1.738819 0.133474,0.18242 0.133474,0.460284 0.133474,0.642712 0.133474,0.05623 0.133474,0.540621 0.133474,-1.134363 0.133474,0.544846 0.133474,0.552882 0.133474,2.752001 0.133474,0.06127 0.133474,1.16439 0.133473,-0.626393 0.133474,-0.992535 0.133474,-1.055783 0.133474,-2.710193 0.133474,-2.020543 0.133474,-1.15563 0.133474,-2.429226 0.133474,1.178288 0.133474,1.645803 0.133474,1.891808 0.133474,0.546682 0.133474,1.139093 0.133474,-1.54799 0.133474,3.206637 0.133474,2.531904 0.133473,-0.535218 0.133474,2.357298 0.133474,0.935913 0.133474,1.784389 0.133474,2.211243 0.133474,0.29217 0.133474,0.41903 0.133474,-0.1638 0.133474,0.16696 0.133474,-0.83291 0.133474,-1.592154 0.133474,-0.934027 0.133474,-0.444933 0.133474,0.530937 0.133474,-0.44437 0.133474,-0.966633 0.133473,-0.976411 0.133474,-1.247324 0.133474,-2.282006 0.133474,1.074891 0.133474,-4.357615 0.133474,-0.242257 0.133474,0.55123 0.133474,0.286379 0.133474,1.064392 0.133474,2.079852 0.133474,3.122736 0.133474,-0.413889 0.133474,2.53036 0.133474,2.230534 0.133474,0.964338 0.133473,-0.30415 0.133474,-0.64592 0.133474,-1.534366 0.133474,-0.432886 0.133474,2.465882 0.133474,0.2317 0.133474,0.36733 0.133474,1.78831 0.133474,1.92736 0.133474,-0.10666 0.133474,1.02959 0.133474,0.14574 0.133474,0.96539 0.133474,-1.21728 0.133474,-0.28092 0.133473,-0.60307 0.133474,-0.57009 0.133474,2.83909 0.133474,-0.16924 0.133474,0.18661 0.133474,0.58391 0.133474,-2.14408 0.133474,-0.57939 0.133474,0.77507 0.133474,0.19813 0.133474,-1.47243 0.133474,-1.07752 0.133474,-1.55618 0.133474,-1.1939 0.133474,-1.487811 0.133474,-0.628209 0.133473,-0.371638 0.133474,-1.91928 0.133474,-1.881083 0.133474,0.358689 0.133474,1.082599 0.133474,0.797145 0.133474,2.024923 0.133474,-1.28714 0.133474,1.032622 0.133474,-0.390264 0.133474,1.332178 0.133474,0.396655 0.133474,0.594264 0.133474,-0.478743 0.133474,-0.435925 0.133473,-0.468624 0.133474,-0.60123 0.133474,0.695473 0.133474,1.324719 0.133474,-0.481002 0.133474,0.06453 0.133474,-0.678532 0.133474,-0.725886 0.133474,-1.096918 0.133474,-0.175205 0.133474,2.722265 0.133474,0.362531 0.133474,-0.858842 0.133474,1.641672 0.133474,0.55194 0.133473,-3.882179 0.133474,-0.635797 0.133474,3.249526 0.133474,2.32509 0.133474,2.20822 0.133474,0.89998 0.133474,0.34837 0.133474,-1.43128 0.133474,-0.13812 0.133474,1.94823 0.133474,-1.18056 0.133474,-2.38043 0.133474,-1.35957 0.133474,-0.0236 0.133474,1.30713 0.133473,0.44255 0.133474,-1.99124 0.133474,-1.357066 0.133474,-2.217346 0.133474,-0.46625 0.133474,2.241771 0.133474,1.276311 0.133474,-0.28532 0.133474,1.75292 0.133474,-2.756924 0.133474,-0.712246 0.133474,-3.041111 0.133474,1.035194 0.133474,0.353845 0.133474,0.663972 0.133474,1.811537 0.133473,0.127092 0.133474,-5.32e-4 0.133474,-0.42963 0.133474,-0.0089 0.133474,-0.44804 0.133474,1.948802 0.133474,0.49101 0.133474,-0.1429 0.133474,-3.505088 0.133474,1.422697 0.133474,-0.640742 0.133474,1.21823 0.133474,-0.740772 0.133474,-1.348503 0.133474,-0.216382 0.133473,0.210422 0.133474,-0.0375 0.133474,0.368508 0.133474,0.754966 0.133474,1.627936 0.133474,1.96341 0.133474,-0.77083 0.133474,1.11567 0.133474,-0.13548 0.133474,-0.33872 0.133474,-1.50806 0.133474,-0.19552 0.133474,0.2651 0.133474,-1.630206 0.133474,-0.621319 0.133473,1.348916 0.133474,0.190544 0.133474,3.566405 0.133474,-1.12203 0.133474,0.22299 0.133474,0.55954 0.133474,-0.43466 0.133474,-2.18662 0.133474,-0.30013 0.133474,-0.231568 0.133474,-1.651042 0.133474,-2.823671 0.133474,-2.298239 0.133474,0.985765 0.133474,-0.35773 0.133474,0.356307 0.133473,0.280224 0.133474,1.585266 0.133474,-1.735284 0.133474,-2.449029 0.133474,0.967617 0.133474,-1.375128 0.133474,-0.758633 0.133474,-1.254291 0.133474,1.701382 0.133474,0.222803 0.133474,-0.31001 0.133474,-1.229438 0.133474,-1.711759 0.133474,0.184756 0.133474,2.482606 0.133473,1.170514 0.133474,0.196902 0.133474,-0.897953 0.133474,1.793497 0.133474,0.742025 0.133474,-0.5971 0.133474,3.695943 0.133474,2.697652 0.133474,0.954886 0.133474,0.76298 0.133474,1.12912 0.133474,-1.65412 0.133474,-0.19685 0.133474,-0.20586 0.133474,2.79935 0.133473,0.32318 0.133474,-1.07555 0.133474,-0.0232 0.133474,1.32889 0.133474,0.0356 0.133474,0.11686 0.133474,3.98874 0.133474,-1.90642 0.133474,1.00682 0.133474,-2.37269 0.133474,-2.20613 0.133474,-1.19649 0.133474,-1.709841 0.133474,-2.168724 0.133474,0.338811 0.133473,0.466706 0.133474,-0.139189 0.133474,-1.120229 0.133474,-0.224858 0.133474,1.761269 0.133474,1.746275 0.133474,-0.203607 0.133474,3.067887 0.133474,-1.78239 0.133474,1.21284 0.133474,0.60999 0.133474,1.05055 0.133474,-0.26771 0.133474,0.16604 0.133474,-0.80252 0.133474,-1.36728 0.133473,-0.029 0.133474,0.29801 0.133474,0.0763 0.133474,-1.04802 0.133474,-1.00796 0.133474,2.81544 0.133474,-1.26979 0.133474,-1.37166 0.133474,0.61884 0.133474,-0.17972 0.133474,-1.084707 0.133474,3.886847 0.133474,1.35184 0.133474,1.294 0.133474,-0.17627 0.133473,0.1276 0.133474,-1.31304 0.133474,-0.91176 0.133474,2.29818 0.133474,1.29538 0.133474,-2.20435 0.133474,0.42239 0.133474,1.79123 0.133474,-0.99459 0.133474,1.08306 0.133474,-1.18891 0.133474,0.3522 0.133474,0.34299 0.133474,2.34916 0.133474,-0.95651 0.133473,-0.0355 0.133474,-1.84142 0.133474,1.09688 0.133474,0.78554 0.133474,0.76592 0.133474,1.19934 0.133474,0.20883 0.133474,-1.05034 0.133474,0.37242 0.133474,0.58492 0.133474,-0.29609 0.133474,-0.96208 0.133474,0.99036 0.133474,-1.53509 0.133474,-1.08105 0.133474,-1.67494 0.133473,-1.98974 0.133474,-1.3917 0.133474,-1.21113 0.133474,-2.560998 0.133474,-1.384479 0.133474,0.780126 0.133474,1.882811 0.133474,3.04701 0.133474,-0.68058 0.133474,0.74744 0.133474,0.1045 0.133474,-0.37734 0.133474,-0.62159 0.133474,-2.34064 0.133474,-2.394444 0.133473,-0.741025 0.133474,-0.532923 0.133474,-2.514378 0.133474,-3.50556 0.133474,-0.589465 0.133474,-1.590886 0.133474,0.784629 0.133474,1.268098 0.133474,-0.991285 0.133474,1.584681 0.133474,0.446309 0.133474,3.382713 0.133474,0.871265 0.133474,1.233424 0.133474,-0.907061 0.133473,0.763083 0.133474,0.119788 0.133474,0.58632 0.133474,0.948747 0.133474,0.02585 0.133474,1.679376 0.133474,0.844409 0.133474,0.19862 0.133474,0.88369 0.133474,0.86438 0.133474,0.12035 0.133474,-1.60649 0.133474,0.23507 0.133474,0.38631 0.133474,1.84396 0.133473,2.66461 0.133474,-0.26639 0.133474,-0.89576 0.133474,-0.42745 0.133474,-0.73169 0.133474,-0.0223 0.133474,0.25581 0.133474,-0.0552 0.133474,-3.18351 0.133474,1.56227 0.133474,0.7523 0.133474,0.39758 0.133474,-1.7372 0.133474,-0.15032 0.133474,-1.27929 0.133474,-2.585855 0.133473,-1.237128 0.133474,-2.164969 0.133474,3.558453 0.133474,0.327922 0.133474,1.549957 0.133474,2.73004 0.133474,-0.13814 0.133474,4.23602 0.133474,-1.3119 0.133474,-0.8853 0.133474,0.34372 0.133474,-1.41491 0.133474,-5.32879 0.133474,-1.538158 0.133474,2.314703 0.133473,-0.708858 0.133474,-1.402442 0.133474,0.845312 0.133474,-0.140978 0.133474,1.508525 0.133474,1.814486 0.133474,1.71386 0.133474,0.2652 0.133474,-1.86552 0.133474,-0.32897 0.133474,2.16162 0.133474,-0.18884 0.133474,1.00378 0.133474,1.61373"
                     style="fill:none"
                     fill="none"
                     id="path125" />
                </g>
                <g
                   id="g131">
                  <path
                     stroke="#0077bb"
                     stroke-width="2px"
                     d="m 2.3169174,121.17063 0.1120228,3.49133 0.448091,1.52078 0.1120228,1.60951 0.3360683,0.86548 0.1120228,0.99924 0.3360683,-0.31176 0.1120227,-0.28994 0.1120228,-0.17816 0.4480911,-1.13996 1.0082049,-1.15473 0.3360683,0.9422 0.448091,-0.18025 0.2240456,-0.23288 0.2240455,0.78419 0.1120228,-0.043 0.2240455,0.68205 0.2240455,0.7766 0.1120228,0.20581 0.3360683,0.0806 0.1120228,0.13564 0.1120227,0.64976 0.1120228,0.2969 0.1120228,-0.64542 0.6721366,-1.44038 0.2240455,-2.12416 0.1120228,-2.76428 0.1120227,-2.99651 0.1120228,-1.80868 0.3360683,-2.33105 0.1120228,-2.2574 0.1120227,-2.00141 0.1120225,-1.61683 0.560114,-2.14539 0.560114,-2.45693 0.336068,-2.18021 0.112023,-2.31738 0.672137,-1.39175 0.896182,-1.108243 0.336068,-2.079107 0.112023,-1.184566 0.784159,1.290489 0.336068,-1.384963 0.224046,2.677867 0.672137,-0.469262 0.112022,3.991305 0.112023,2.5485 0.336068,1.05432 0.112023,0.7763 0.78416,2.0747 0.224045,0.45324 0.224046,-0.80891 0.112022,-2.23593 0.112023,-2.21051 0.78416,2.71886 0.560113,0.53385 0.224046,-1.14889 0.112023,-1.80736 0.112022,-1.55651 0.336069,-0.57443 0.336068,-0.2164 0.224046,-1.49776 0.112022,0.34829 0.336069,-1.097992 0.672136,-0.242994 0.112023,0.43411 0.224046,0.523616 0.336068,3.3315 0.224045,3.42308 0.112023,-0.93398 0.224046,-1.0706 0.224045,0.23927 0.112023,1.98702 0.784159,3.87639 0.896182,-0.10455 0.112023,-0.10916 0.112023,-0.0641 0.448091,2.82131 1.120228,0.58766 0.112023,0.35843 0.224045,1.23225 0.224046,0.70341 0.224045,-2.94546 0.336068,2.99807 0.112023,1.38531 0.112023,1.89189 0.336068,1.69788 1.120228,-0.0987 0.224045,0.14193 0.672137,1.48969 0.336068,-1.91859 0.112023,-0.002 0.112023,-1.48008 0.112023,-0.65093 0.224045,1.03407 0.448091,0.42663 0.224046,0.44998 0.224045,-0.7576 0.224046,0.746 0.560114,-0.27977 0.224045,0.26398 0.448091,-2.38059 0.78416,0.17825 0.112022,-3.09207 0.560114,-0.47526 0.112023,-2.17364 0.112023,-0.0575 0.224045,-1.61459 0.112023,1.13599 0.112023,0.0449 0.448091,0.36079 0.112023,0.43321 0.224045,0.58846 0.336068,-1.18388 0.448092,0.29814 0.112022,0.16819 0.112023,2.11618 0.112023,2.48469 0.224045,2.25695 0.336069,-4.27794 0.112022,0.95378 0.112023,0.7942 0.336069,1.78261 0.112022,0.004 0.224046,-0.87356 0.672136,-0.0208 0.224046,-1.48485 0.336068,0.35769 0.112023,-5.20967 0.224046,1.85169 0.112022,0.55889 0.560114,-5.25767 0.112023,-1.27521 0.448091,-1.54523 0.224046,-1.68745 0.336068,-0.74817 0.448091,-0.53873 0.448091,0.0426 0.224045,-1.81419 0.448092,-1.32323 0.112022,1.59375 0.112023,2.07799 0.224046,1.30146 0.112022,-3.70687 0.448091,-0.51252 0.112023,0.0628 0.448091,0.93478 0.112023,1.41893 0.112023,-0.84908 1.120227,-2.33749 0.560114,-1.267396 0.78416,1.199083 0.112022,-1.183133 0.560114,0.0013 0.112023,-2.732428 0.224046,1.188619 0.224045,2.408907 0.448091,-3.509324 1.008205,1.67426 0.112023,1.585824 0.112023,-2.407592 0.112022,-2.76797 0.336069,-3.105083 0.672136,-0.214277 0.78416,-0.115433 0.112022,1.99827 0.112023,3.177518 0.112023,-0.826753 0.224045,0.373029 0.112023,1.412218 0.336069,2.617232 0.112022,1.662178 0.560114,-4.980834 0.112023,-3.535172 0.448091,0.291359 0.784159,-2.200001 0.336069,-0.971304 0.112022,2.513398 0.224046,-0.395728 0.224045,3.985785 0.336069,-3.416523 1.23225,-5.037481 0.336068,-0.970656 0.112023,-2.517384 0.112023,1.544557 0.224046,-1.378285 0.224045,0.454345 0.112023,1.781025 0.224045,1.887669 0.560114,0.304326 0.112023,1.501419 0.672137,-2.222344 0.224045,1.478443 0.112023,2.032685 0.112023,1.278967 0.112022,1.286911 0.112023,-0.100302 0.112023,-0.936288 0.224045,0.419274 0.112023,-2.078886 0.112023,3.657148 0.560114,2.205815 0.112023,2.84303 0.112022,1.254792 0.224046,-2.359035 0.448091,0.370935 0.224046,-2.564 0.224045,-0.167777 0.448091,3.991797 0.112023,1.18873 0.112023,0.5699 0.448091,-0.56489 0.448091,-1.47208 0.112023,0.74943 0.336068,0.30638 0.224045,-0.41121 0.112023,-1.907595 0.112023,-1.81773 0.112023,0.661215 0.112022,0.616845 0.112023,0.432882 0.224046,2.922093 0.112023,-0.48151 0.560113,-2.278465 0.112023,4.725925 0.336068,0.66026 0.112023,-0.49884 0.336068,-0.28997 0.224046,1.32604 0.448091,-0.0155 0.224046,1.31986 0.224045,-2.51248 0.224046,1.12159 0.336068,-0.74109 0.448091,-0.98898 0.112023,1.38389 0.224045,0.84142 0.336069,1.77375 0.448091,2.41785 0.560114,2.08703 0.784159,2.41527 0.112023,0.47261 0.224045,2.0287 0.112023,2.34218 0.112023,-0.23429 0.112023,4.25066 0.112022,1.43117 0.112023,2.122 0.336068,1.77336 0.448091,0.15678 0.112023,-0.72999 0.448091,1.98541 0.336069,-2.8646 0.224045,1.59123 0.224046,-1.05989 0.336068,3.4281 0.112023,1.63033 0.112022,-1.98187 0.112023,0.77737 0.112023,0.64111 0.224046,0.58201 0.112022,-1.2165 0.112023,-2.10178 0.224046,-0.62671 0.112022,1.2039 0.112023,2.80686 0.112023,1.23443 0.224045,2.2032 0.224046,-1.53027 0.112023,0.31869 0.784159,1.53176 0.336068,0.99877 0.112023,-1.00136 0.112023,1.0573 0.224045,0.88777 0.336069,-0.14248 0.224045,-3.79728 0.224046,-0.86215 0.448091,0.55378 0.448091,2.5545 0.336068,-0.69966 0.112023,1.26643 0.112023,0.0554 0.112023,-2.33741 0.112022,-1.4957 0.560114,-0.37443 0.672137,0.53342 0.224045,1.41216 0.112023,-3.89784 0.112023,0.79157 0.112023,-0.18204 0.224045,-2.73242 0.336068,-3.61913 0.112023,-0.55147 0.336068,-1.56955 0.112023,2.65717 0.112023,-0.0418 0.224046,3.3498 0.224045,0.42465 0.672137,3.80319 0.336068,-0.0756 0.112023,1.5661 0.336068,1.97289 0.112023,-1.35637 0.112023,-1.23115 0.224045,2.87028 0.112023,-0.64271 0.112023,0.60148 0.560113,-2.16827 0.448092,-3.72038 0.112022,-2.54888 0.224046,2.4379 0.224045,-0.17734 0.224046,-2.10033 0.112023,-1.5278 0.112022,3.63073 0.112023,2.39821 0.112023,0.0781 0.336068,-0.79306 0.224046,-3.22948 0.224045,1.47293 0.336069,-0.28084 0.224045,0.65535 0.112023,0.4374 0.112023,-3.91837 0.448091,-2.0527 0.224045,-3.91208 0.112023,-0.23207 0.224046,2.63741 0.336068,3.7264 0.448091,2.088 0.336068,-1.81991 0.336069,2.19918 0.112022,-0.58717 0.224046,1.2902 0.224045,-4.25224 0.224046,-0.39726 0.560114,-0.90498 0.224045,0.59182 0.112023,-0.27145 0.112023,1.68365 0.112023,1.72728 0.336068,1.45526 0.672136,-0.99819 0.224046,-2.39299 0.112023,0.15549 0.112023,-2.70178 0.224045,-1.65873 0.448091,-1.47298 0.224046,0.019 0.112022,-1.19791 0.448092,1.79637 0.112022,2.82406 0.112023,-0.4269 0.112023,0.18 0.33607,-0.63555 0.11202,3.42121 0.11202,-4.98657 0.22405,-3.25955 0.33607,0.90796 0.22404,-2.88448 0.11203,0.0804 0.22404,-1.61284 0.11202,3.53228 0.33607,2.32008 0.33607,-0.95153 0.11202,2.90093 0.78416,-2.52534 0.11203,3.14193 0.11202,1.29272 0.11202,1.30334 0.11202,1.04461 0.11203,0.65019 0.11202,0.99417 0.22404,-4.23258 0.11203,-2.71825 0.11202,1.06244 0.33607,-3.31858 0.11202,-0.2987 0.11202,0.16133 0.11203,2.33374 0.22404,-0.16004 0.67214,0.0467 0.11202,3.72107 0.33607,0.41326 0.78416,-0.65398 0.33607,1.07406 0.78416,-1.48736 0.11202,-0.19942 0.11202,-0.99639 0.22405,0.66852 0.11202,-3.3515 0.11202,-0.78317 0.33607,2.82591 0.11202,-0.13853 0.22405,-0.30284 0.22405,2.65905 0.11202,-0.29285 0.44809,-0.3636 0.11202,-4.24576 0.44809,-0.22241 0.11203,-4.16095 0.11202,-0.85487 0.11202,1.08058 0.33607,-0.72018 0.11202,-0.66077 0.11203,0.30241 0.33606,3.70344 0.11203,1.61391 0.89618,-2.94215 0.44809,2.54613 0.22405,1.25242 0.22404,0.7349 0.11202,-1.36859 0.33607,-0.25681 0.11202,-1.45191 0.22405,0.59243 0.11202,0.54242 0.11203,-0.66665 0.11202,-1.40281 0.33607,3.48032 0.89618,-4.93492 0.22404,0.12297 0.22405,1.02193 0.22405,-2.20553 0.11202,-4.05299 0.11202,0.35378 0.22405,-0.69696 0.22404,0.97796 0.11203,-1.07408 0.11202,-1.14614 0.33607,-0.23925 0.22404,-0.30179 0.78416,-1.05882 0.11202,0.4096 0.33607,-1.32386 0.22405,3.39297 0.67213,4.66173 0.11203,-0.9319 0.22404,-2.04675 0.22405,-1.93658 0.44809,-1.64246 0.44809,-0.66617 0.22405,-2.71476 0.22404,1.29714 0.33607,-0.76873 0.11202,0.98047 0.11203,2.53795 0.11202,4.57337 0.67213,-0.1598 0.11203,3.29008 0.67213,-0.91064 0.22405,-1.41631 0.22405,1.32534 0.11202,1.37411 0.11202,0.33821 1.00821,-2.54584 0.22404,-0.67914 0.33607,-2.75394 0.44809,0.76365 0.22405,-2.16494 0.11202,-0.55892 0.11202,-1.69146 0.33607,3.67406 0.11202,-1.22002 0.22405,-0.56628 0.11202,0.26879 0.11202,-0.54485 0.33607,-5.40138 0.11202,-0.18583 1.12023,2.28603 0.22405,-0.41561 0.11202,2.37039 0.33607,-0.84426 0.11202,-3.46294 0.11202,0.95692 0.33607,0.41778 0.11203,-0.44471 0.11202,2.20445 1.68034,-0.95041 0.33607,1.77712 0.22404,-0.34948 0.11203,-0.0504 0.22404,0.31692 0.11202,-1.61347 0.33607,2.61768 0.33607,-1.07208 0.11202,-3.31745 0.11203,1.34715 0.11202,1.62925 0.22405,-0.92682 0.22404,2.50933 0.22405,0.0156 0.22404,-0.47143 0.11202,-0.044 0.22405,1.0239 0.22405,-0.3962 0.22404,-1.30704 0.11202,0.15358 0.11203,0.34093 0.11202,1.31128 0.11202,-0.61748 1.12023,4.59446 0.44809,0.26478 0.44809,0.25938 0.11202,0.21672 0.11203,0.79197 0.22404,-0.9636 0.33607,-0.28332 0.33607,-1.34146 0.22405,-3.02016 0.22404,-2.75426 0.11202,-3.38119 0.22405,-0.82802 0.44809,1.53836 0.11202,-0.51712 0.11203,1.84708 0.22404,-0.65371 0.11202,-0.10222 0.33607,1.38115 0.11202,1.73605 0.11203,-0.82802 0.11202,-4.32658 0.11202,-0.50386 0.11203,-0.14814 0.56011,2.51205 0.11202,0.34615 0.22405,0.085 0.44809,2.64883 0.11202,2.40844 0.22405,-3.02669 0.44809,-1.6503 0.22404,-0.46085 0.4481,1.74776 0.11202,2.31437 0.11202,0.0211 0.11202,-0.26241 0.22405,2.45308 0.33607,-0.29904 0.11202,-2.31484 0.22405,-0.66574 0.11202,1.32012 0.11202,-0.62922 0.67214,-1.77484 0.22404,-1.55512 0.11203,-3.11561 0.22404,-1.29136 0.11202,-0.50298 0.33607,-1.392529 0.11203,-1.488904 0.56011,0.438309 0.11202,-1.140552 0.11202,2.822996 0.33607,3.23619 0.22405,0.22449 0.11202,1.95168 0.11202,5.44724 0.11203,0.56693 0.11202,0.93383 0.11202,0.41183 0.33607,-1.30832 0.33607,-0.1124 0.56011,-1.34608 0.11203,-3.51884 0.11202,-2.65761 0.11202,-0.96902 0.44809,0.3575 0.44809,-3.2715 0.22405,1.73183 0.11202,-2.961866 0.44809,-0.364833 0.44809,-1.492303 0.78416,2.624886 0.22405,2.035906 0.33607,-1.56673 0.22404,0.1439 0.11203,-0.457463 0.22404,1.105343 0.11202,-2.34625 0.11203,-0.431809 0.22404,-0.303412 0.11202,-1.544386 0.33607,-2.064893 1.90439,-2.344642 0.11202,-1.296241 0.11203,-0.78059 0.11202,0.131601 0.44809,1.665254 0.33607,-0.347582 0.11202,1.12217 0.33607,0.372954 0.11202,1.856024 0.11202,1.856723 0.4481,-1.498778 0.11202,-2.160869 0.11202,-0.738869 0.22405,-1.258569 0.11202,0.60313 0.11202,-0.708677 0.22405,1.848168 0.22404,-1.720151 0.67214,-0.343634 0.22405,0.830703 0.56011,-1.325217 0.11202,2.573307 1.00821,-1.786287 0.11202,-0.446455 1.23225,0.661115 0.44809,-0.233035 0.11202,0.274782 0.33607,-0.469851 0.11202,0.474562 0.33607,-0.418871 0.22405,1.455203 0.11202,2.892589 0.11202,-1.777572 0.78416,1.289709 0.11203,-1.408146 0.11202,-0.798886 0.11202,0.250713 0.22405,0.543707 0.11202,0.996257 0.22405,-1.753198 0.11202,1.889284 0.11202,0.304277 0.11202,-0.292839 0.56012,-0.133645 0.22404,0.274601 0.56012,2.964303 0.11202,1.557806 0.33607,1.282662 0.78416,-0.790324 0.22404,-0.799317 1.12023,0.162254 0.22405,-1.924366 0.11202,-0.0025 0.22404,1.990276 0.11203,-0.888022 0.22404,-2.267587 0.11203,0.603766 0.67213,-1.680894 0.11202,-0.119165 0.67214,-2.436536 0.11202,-2.260736 1.00821,0.895009 0.44809,-1.124584 0.22405,2.015678 0.44809,-1.620778 0.67213,1.761757 0.22405,3.055678 0.11202,-0.630245 0.22405,-1.911254 0.33607,-2.015944 0.22404,-0.919087 0.11202,0.596631 0.44809,0.475315 0.11203,-0.929879 0.22404,-0.544972 0.11203,2.519528 0.11202,3.23467 0.11202,4.576306 0.33607,0.985898 0.11202,-1.213373 0.11203,-0.616878 0.44809,-0.04624 0.22404,-1.9803 0.11202,-4.164493 0.11203,-1.181884 0.22404,-1.594458 0.22405,-1.203731 0.22404,4.98e-4 0.33607,-0.627013 0.33607,4.020853 0.11202,1.006742 0.11203,-0.09578 0.33606,-0.07754 0.22405,-2.517529 0.11202,2.485763 0.33607,-1.114423 0.11202,-1.68584 0.33607,-1.56241 0.33607,1.209068 0.11202,-2.906899 0.11203,-1.977345 0.11202,-1.985283 0.33607,-0.626531 0.44809,0.0043 0.22404,1.479386 0.11203,0.304564 0.11202,-0.883466 0.33607,0.800553 0.11202,-0.133224 0.22405,-4.288553 0.44809,-2.052007 0.11202,-1.446942 0.11202,-1.010864 0.33607,1.851024 0.44809,1.563164 0.11202,0.444488 0.22405,-1.489781 0.11202,-0.423918 0.11203,-0.261461 0.11202,1.105823 0.22404,2.675433 0.33607,2.194805 0.11202,1.583666 0.11203,-1.264624 0.11202,-0.630888 0.44809,2.757853 0.11202,-2.377959 0.56012,-0.134422 0.22404,0.676304 0.11203,-0.146155 0.11202,-2.508275 0.44809,1.43792 0.33607,-2.764572 0.22404,-1.304995 0.33607,-0.735248 0.11203,-1.740621 0.11202,2.204766 0.11202,1.684014 0.11202,-2.008914 0.22405,1.443364 0.22404,2.008296 0.33607,0.581957 0.11203,-0.464555 0.22404,-0.732826 0.11202,-1.802748 0.11203,-0.903665 0.33606,0.975894 0.22405,0.08003 0.11202,0.09959 0.11203,0.581041 0.11202,1.462826 0.78416,-0.902599 0.11202,-0.510017 0.33607,-0.603872 0.56011,1.348484 0.44809,-2.482459 0.22405,-0.07334 0.44809,5.793003 0.11202,2.072476 0.22405,0.227391 0.44809,1.946369 0.11202,-1.094872 0.11203,-0.752912 0.22404,2.677311 0.11202,-1.575713 0.11203,-0.503546 0.44809,-2.799302 0.44809,-1.545686 0.22404,0.02164 0.11203,-1.434864 0.22404,-0.901637 0.67214,-2.87393 0.11202,0.446611 0.33607,-0.255917 0.33607,1.10588 0.44809,-1.186755 0.22405,1.661167 0.44809,-1.084134 0.44809,2.882345 0.11202,1.818676 0.11202,0.3712 0.44809,-3.109881 0.11203,0.853221 0.33607,2.640588 0.11202,0.59582 0.11202,1.517661 0.33607,2.297645 0.33607,-0.863543 0.11202,1.222219 0.22405,1.57321 0.22404,1.109893 0.11202,-1.752132 0.11203,-0.294801 0.78416,-2.184743 0.22404,0.92549 0.11202,-1.211536 0.67214,-0.325179 0.11202,0.721415 0.11203,-0.159712 0.11202,0.750613 0.11202,-0.697124 0.22405,0.518593 0.33607,-3.552802 0.78416,-1.645409 0.11202,-1.927896 0.11202,-2.099778 1.00821,-0.02003 0.33606,3.660105 0.11203,4.176899 0.33606,0.296132 0.11203,-0.340578 0.11202,-1.439631 0.11202,0.109682 0.11203,2.163125 0.33606,4.010542 0.11203,-0.680591 0.11202,1.14621 0.11202,0.282756 0.44809,0.315276 0.11203,-0.878927 0.11202,0.08796 0.33607,-2.032223 0.22404,-2.357927 0.22405,-0.900197 0.22404,-1.754055 0.11203,-1.760243 0.11202,-2.22712 0.22405,-0.130278 0.11202,0.04669 0.56011,-1.641927 0.33607,-2.171652 0.22405,-1.202977 0.33606,-0.733606 0.33607,0.128251 0.11202,-0.746548 0.22405,-0.679325 0.22405,2.550154 0.67213,-1.323283 0.11203,0.938423 0.22404,0.768907 0.22405,-0.33867 0.56011,1.151653 0.44809,-1.685409 0.11202,-0.547754 0.11203,-0.233936 0.11202,1.79916 1.34427,-0.646674 0.22405,0.543247 0.22404,-2.600174 0.22405,0.184866 0.11202,2.716266 0.33607,-1.089692 0.11202,-2.442685 0.11203,0.314788 0.11202,0.454338 0.11202,1.042921 0.11202,0.183828 0.11203,1.650129 0.22404,-2.118225 0.11203,0.581253 0.11202,-1.576323 0.22404,-1.710655 0.56012,1.879665 0.33607,-1.190737 0.22404,0.21776 0.11202,3.520965 0.22405,-0.837233 0.33607,-4.283637 0.33607,-2.482651 0.22404,-1.73647 0.33607,-0.45762 0.11202,0.456574 0.22405,5.57081 0.11202,3.47232 0.33607,0.629582 0.22404,0.587202 0.11203,-0.453519 0.89618,2.931619 0.11202,1.239906 0.22405,-3.87343 0.56011,0.906814 0.56012,-0.684602 0.11202,-2.246583 0.11202,-3.422341 0.22405,-2.001074 0.11202,-2.774923 0.22405,-1.716803 0.22404,3.390362 0.33607,0.946647 0.11202,-2.018961 0.44809,0.547672 0.56012,-2.463296 0.22404,1.112426 0.67214,-1.482792 0.11202,-1.082181 0.11202,1.77041 0.11203,-1.303624 0.11202,-0.107946 0.33607,0.139395 0.22404,-3.417265 0.33607,0.260042 0.11202,2.675357 0.33607,-2.438997 0.22405,-2.15013 0.22404,-1.316001 0.11203,0.506653 0.11202,-1.140704 0.44809,1.296724 0.44809,1.038645 0.11202,2.177794 0.11203,4.388801 0.44809,2.210184 0.11202,0.231399 0.22405,-2.458884 0.11202,4.089628 0.22404,-1.105821 0.11203,-1.411138 0.11202,-0.891644 0.22405,-0.195895 0.11202,3.911212 0.11202,-0.366688 0.11202,-2.132178 0.33607,-1.611246 0.22405,-1.753138 0.11202,2.912164 0.67214,-0.897539 0.11202,-0.877411 0.11202,-0.01555 0.44809,-0.01556 0.22405,0.355418 0.22405,0.922431 0.44809,-1.709305 0.78416,0.215859 0.33606,-1.701563 0.22405,1.363833 0.22405,0.581747 0.11202,0.921394 0.22404,4.220208 0.22405,0.447257 0.22404,-1.130887 0.11203,-0.44727 0.11202,0.181931 0.33607,-0.971244 0.11202,-1.287646 0.33607,2.681573 0.11202,-0.585536 0.33607,-0.848091 0.33607,-3.680515 0.44809,-0.835766 0.67214,1.863775 0.11202,-0.475378 0.33607,-2.213549 0.11202,1.591256 0.22405,-0.706258 0.22404,1.460411 0.11202,-1.357397 0.22405,0.98838 0.11202,-1.100127 0.22405,-1.63349 0.11202,-0.612536 0.11202,1.485271 0.11203,-1.703146 0.22404,1.111618 0.22405,0.386359 0.11202,-3.327534 0.44809,0.09128 0.11202,-1.364272 0.22405,-3.855368 0.33607,-2.668147 0.22404,-1.042937 0.33607,1.225187 0.67214,3.861474 0.67213,-1.501853 0.4481,2.070453 0.33606,-4.005714 0.56012,-1.353056 0.22404,-1.14026 0.33607,0.294455 0.67214,-0.494062 0.11202,2.198065 0.22405,-1.477709 0.33606,4.422387 0.33607,0.571476 0.11203,-0.698983 0.11202,-1.090288 1.0082,-2.846159 0.11203,0.577757 0.11202,1.015688 0.11202,-0.746665 0.22405,3.792025 0.22404,-1.359019 0.33607,-1.352135 0.11202,0.23756 0.4481,-0.174469 0.22404,0.71077 0.11202,0.1647 0.11203,-1.292277 0.11202,-0.396691 0.89618,-2.36375 1.00821,-2.336231 0.22404,-0.339967 0.33607,0.347677 0.56011,-1.16915 0.33607,1.258185 0.11202,1.154249 0.33607,0.866036 0.11203,1.469003 0.33606,0.435547 0.33607,0.955528 0.22405,3.957851 0.22404,-4.365854 0.33607,-1.238374 0.33607,1.065199 0.11202,1.473223 0.11203,-1.36355 0.22404,1.610175 0.89618,-1.394696"
                     style="fill:none"
                     fill="none"
                     id="path129" />
                </g>
              </g>
            </g>
          </g>
          <g
             opacity="0.2"
             id="g151">
            <g
               id="g149">
              <g
                 id="g147">
                <g
                   id="g141">
                  <path
                     stroke="#ee3377"
                     stroke-width="2px"
                     d="m 1.7782547,122.33343 0.133474,15.49739 0.1334739,-24.11811 0.1334739,13.72868 0.133474,12.21503 0.1334739,4.17368 0.1334739,-6.38469 0.133474,-17.72054 0.1334739,8.83357 0.133474,12.78973 0.1334739,0.59641 0.1334739,-1.23995 0.133474,-0.12563 0.1334739,-7.3702 0.1334739,5.5132 0.133474,-0.0621 0.1334739,-7.76586 0.1334739,3.21735 0.133474,4.85531 0.1334739,-0.39023 0.1334739,-0.40996 0.133474,-4.09034 0.1334739,-2.98246 0.1334739,-0.31652 0.133474,6.76075 0.1334739,-7.68847 0.1334739,2.44028 0.133474,5.27609 0.1334739,-7.16713 0.1334739,7.74032 0.133474,2.01432 0.1334739,-6.5618 0.1334739,3.52878 0.133474,-5.07326 0.1334739,-3.84893 0.133474,4.93194 0.1334739,-0.9018 0.1334739,-5.17746 0.133474,6.7711 0.1334739,-0.79916 0.1334739,0.76577 0.133474,2.91541 0.1334739,0.1848 0.1334739,-0.2813 0.133474,1.86629 0.1334739,-5.11702 0.1334739,-2.34364 0.133474,5.03549 0.1334739,0.42077 0.1334739,-1.63528 0.133474,-2.38603 0.1334739,0.81997 0.1334739,0.3967 0.133474,-1.11365 0.1334739,2.19996 0.1334739,0.423 0.133474,-4.63855 0.1334739,-0.61601 0.1334739,-0.0995 0.133474,1.92848 0.1334739,3.59218 0.133474,1.26894 0.1334742,-5.21641 0.133474,1.77413 0.133474,-1.1187 0.133473,-0.29811 0.133474,-3.76825 0.133474,12.05262 0.133474,-2.02353 0.133474,-5.48393 0.133474,5.6083 0.133474,-36.15062 0.133474,30.51376 0.133474,-9.21435 0.133474,-15.18517 0.133474,14.13535 0.133474,-8.02379 0.133474,-7.20764 0.133474,16.73115 0.133474,2.92141 0.133474,-0.0879 0.133473,-3.38118 0.133474,-0.70543 0.133474,7.36718 0.133474,-15.08276 0.133474,13.85494 0.133474,1.17017 0.133474,-6.24668 0.133474,6.27279 0.133474,-2.48708 0.133474,-2.16876 0.133474,1.17045 0.133474,-13.39629 0.133474,7.2396 0.133474,1.50081 0.133474,-14.86381 0.133473,6.03549 0.133474,-3.01163 0.133474,4.5698 0.133474,-3.38193 0.133474,-3.86745 0.133474,-2.62008 0.133474,-3.01082 0.133474,3.50271 0.133474,-3.44804 0.133474,-4.792848 0.133474,-8.209723 0.133474,7.864537 0.133474,-2.11172 0.133474,1.812427 0.133474,-0.996465 0.133473,1.23046 0.133474,-23.066695 0.133474,16.764159 0.133474,0.384422 0.133474,-7.028036 0.133474,-0.427434 0.133474,4.933407 0.133474,0.992829 0.133474,1.385229 0.133474,-3.78935 0.133474,-5.794412 0.133474,-13.659846 0.133474,0.429369 0.133474,-3.02249 0.133474,16.710051 0.133473,-12.897283 0.133474,-4.271552 0.133474,1.585702 0.133474,7.518832 0.133474,-11.149965 0.133474,-0.0721 0.133474,6.720952 0.133474,-8.451792 0.133474,-3.216968 0.133474,2.155914 0.133474,-9.980837 0.133474,5.579066 0.133474,0.887918 0.133474,0.501703 0.133474,7.962459 0.133474,-8.954061 0.133473,-0.500569 0.133474,2.274705 0.133474,-7.254807 0.133474,13.86641 0.133474,-0.803073 0.133474,-7.955944 0.133474,-6.634124 0.133474,-8.036965 0.133474,5.676565 0.133474,2.357331 0.133474,-4.773302 0.133474,9.727152 0.133474,7.22138 0.133474,-11.275934 0.133474,10.330698 0.133473,2.093731 0.133474,-1.344955 0.133474,-3.83359 0.133474,-4.85725 0.133474,16.430447 0.133474,-4.930763 0.133474,-2.655161 0.133474,-7.289037 0.133474,10.375362 0.133474,-7.864112 0.133474,2.464838 0.133474,1.298591 0.133474,-2.055252 0.133474,14.008574 0.133474,2.977683 0.133473,-18.21615 0.133474,2.2036 0.133474,3.462011 0.133474,7.656934 0.133474,18.67314 0.133474,1.399772 0.133474,-14.190916 0.133474,-6.820009 0.133474,10.756479 0.133474,-18.754916 0.133474,35.369594 0.133474,-29.88354 0.133474,5.312965 0.133474,11.622914 0.133474,-16.38767 0.133474,-0.224034 0.133473,6.639696 0.133474,1.270498 0.133474,-18.976872 0.133474,24.638658 0.133474,-0.829041 0.133474,-3.304645 0.133474,29.785901 0.133474,-12.857718 0.133474,-9.265677 0.133474,-5.698378 0.133474,10.235513 0.133474,-20.113753 0.133474,19.628009 0.133474,-4.35635 0.133474,-0.03796 0.133473,-12.454929 0.133474,-7.477236 0.133474,26.492918 0.133474,-16.831063 0.133474,-13.656588 0.133474,-4.631517 0.133474,15.373784 0.133474,-0.676302 0.133474,9.241503 0.133474,-2.58769 0.133474,-10.695525 0.133474,27.243252 0.133474,-0.572005 0.133474,-33.275154 0.133474,35.707226 0.133473,-35.311992 0.133474,10.080601 0.133474,6.818781 0.133474,8.387533 0.133474,12.949125 0.133474,-24.604664 0.133474,21.760078 0.133474,15.259429 0.133474,-15.965618 0.133474,-7.38375 0.133474,24.793668 0.133474,-19.983539 0.133474,11.718859 0.133474,-31.892338 0.133474,6.847015 0.133473,14.150265 0.133474,6.893521 0.133474,-0.380644 0.133474,-19.277771 0.133474,9.25987 0.133474,4.90064 0.133474,24.820482 0.133474,-44.935462 0.133474,16.048764 0.133474,-29.793644 0.133474,36.762709 0.133474,-2.062098 0.133474,-3.11352 0.133474,-4.934493 0.133474,-6.984976 0.133474,-8.71898 0.133473,15.813116 0.133474,10.564032 0.133474,-14.006732 0.133474,5.826802 0.133474,7.596546 0.133474,-16.910619 0.133474,23.262545 0.133474,-4.971512 0.133474,13.429252 0.133474,-0.68929 0.133474,0.42106 0.133474,-5.2326 0.133474,-10.340522 0.133474,-7.872752 0.133474,-15.458581 0.133473,42.604715 0.133474,-30.952717 0.133474,10.392123 0.133474,4.014705 0.133474,9.802179 0.133474,-18.720073 0.133474,-28.365213 0.133474,19.960541 0.133474,1.714598 0.133474,-3.01182 0.133474,7.364015 0.133474,-14.192096 0.133474,19.815828 0.133474,-40.121225 0.133474,34.310995 0.133473,-4.962916 0.133474,45.131026 0.133474,-0.54372 0.133474,-16.17195 0.133474,-10.077628 0.133474,5.994368 0.133474,-4.24596 0.133474,-22.511455 0.133474,5.471181 0.133474,-2.931508 0.133474,-13.977695 0.133474,35.926677 0.133474,2.54005 0.133474,-36.862374 0.133474,27.419645 0.133474,4.011349 0.133473,-15.308387 0.133474,4.758052 0.133474,28.431455 0.133474,-40.278638 0.133474,16.179123 0.133474,5.848145 0.133474,2.77754 0.133474,-11.952143 0.133474,21.961873 0.133474,-17.505948 0.133474,-0.545092 0.133474,-9.82975 0.133474,15.18544 0.133474,-35.809535 0.133474,29.076925 0.133473,13.35234 0.133474,-39.166831 0.133474,11.106717 0.133474,-7.963027 0.133474,19.608273 0.133474,3.2698 0.133474,2.487266 0.133474,-5.87378 0.133474,5.438367 0.133474,-18.070304 0.133474,17.523511 0.133474,0.63414 0.133474,24.987528 0.133474,-27.145047 0.133474,12.318197 0.133473,-18.733198 0.133474,-4.694643 0.133474,-1.695287 0.133474,-19.438112 0.133474,4.952576 0.133474,7.589607 0.133474,-15.306692 0.133474,37.654261 0.133474,6.372888 0.133474,4.3792 0.133474,-13.054036 0.133474,7.129026 0.133474,-28.717385 0.133474,51.281195 0.133474,-4.29039 0.133473,-31.547238 0.133474,31.603848 0.133474,-13.43586 0.133474,10.36342 0.133474,6.52723 0.133474,-19.11186 0.133474,1.70185 0.133474,-6.057017 0.133474,3.511397 0.133474,-10.942646 0.133474,-9.269029 0.133474,5.72038 0.133474,4.500354 0.133474,10.398071 0.133474,-10.305813 0.133474,-6.247295 0.133473,-1.075266 0.133474,-3.986565 0.133474,-12.743789 0.133474,35.016858 0.133474,-59.286298 0.133474,41.368587 0.133474,8.574267 0.133474,-2.391561 0.133474,8.930975 0.133474,12.34728 0.133474,13.66745 0.133474,-36.173096 0.133474,32.299986 0.133474,-0.80105 0.133474,-11.83826 0.133473,-13.130094 0.133474,-4.101485 0.133474,-10.517573 0.133474,10.704307 0.133474,31.775665 0.133474,-22.35838 0.133474,1.73863 0.133474,16.15608 0.133474,3.33331 0.133474,-20.67287 0.133474,12.51829 0.133474,-8.79094 0.133474,9.25298 0.133474,-23.286525 0.133474,9.186735 0.133473,-3.860314 0.133474,-0.236687 0.133474,37.309691 0.133474,-30.58671 0.133474,3.78449 0.133474,4.60116 0.133474,-29.727123 0.133474,15.241394 0.133474,14.470139 0.133474,-5.63534 0.133474,-18.36365 0.133474,2.915407 0.133474,-6.395926 0.133474,2.469182 0.133474,-4.459656 0.133474,8.063358 0.133473,2.22258 0.133474,-17.567657 0.133474,-1.494862 0.133474,23.005269 0.133474,8.402125 0.133474,-2.08911 0.133474,14.43913 0.133474,-34.77578 0.133474,24.488 0.133474,-14.77723 0.133474,18.74798 0.133474,-9.06252 0.133474,2.59227 0.133474,-11.327961 0.133474,-0.003 0.133473,-0.799249 0.133474,-1.942031 0.133474,13.806593 0.133474,7.68705 0.133474,-18.738765 0.133474,5.580385 0.133474,-8.191683 0.133474,-1.204681 0.133474,-4.848468 0.133474,9.144336 0.133474,32.018916 0.133474,-23.49701 0.133474,-13.208286 0.133474,26.924646 0.133474,-10.46648 0.133473,-48.715987 0.133474,32.188699 0.133474,42.534458 0.133474,-7.02204 0.133474,1.02668 0.133474,-12.32787 0.133474,-5.22912 0.133474,-19.425406 0.133474,12.937226 0.133474,23.04347 0.133474,-32.81609 0.133474,-14.512495 0.133474,8.962513 0.133474,13.484352 0.133474,14.76249 0.133473,-8.29933 0.133474,-26.599578 0.133474,5.055079 0.133474,-10.915686 0.133474,17.23928 0.133474,29.622865 0.133474,-8.48555 0.133474,-16.075154 0.133474,22.361784 0.133474,-48.356446 0.133474,19.961721 0.133474,-26.588527 0.133474,42.251172 0.133474,-6.53535 0.133474,3.79969 0.133474,13.4147 0.133473,-16.90452 0.133474,-1.290946 0.133474,-4.768297 0.133474,4.244829 0.133474,-4.887939 0.133474,26.183563 0.133474,-14.24894 0.133474,-6.552442 0.133474,-37.500483 0.133474,51.248055 0.133474,-21.504412 0.133474,20.014512 0.133474,-20.548462 0.133474,-7.493335 0.133474,11.230607 0.133473,4.525898 0.133474,-2.544301 0.133474,4.473723 0.133474,4.66249 0.133474,10.45469 0.133474,5.35536 0.133474,-28.417103 0.133474,20.190433 0.133474,-12.7861 0.133474,-2.393683 0.133474,-13.331327 0.133474,13.07566 0.133474,4.92241 0.133474,-20.793741 0.133474,9.579607 0.133473,21.270184 0.133474,-11.52188 0.133474,37.70016 0.133474,-48.527459 0.133474,13.822739 0.133474,3.96248 0.133474,-10.487163 0.133474,-19.900909 0.133474,18.774368 0.133474,0.461665 0.133474,-16.003485 0.133474,-14.680248 0.133474,3.014463 0.133474,34.190689 0.133474,-13.94195 0.133474,7.576008 0.133473,-0.489048 0.133474,14.78067 0.133474,-35.309722 0.133474,-9.665774 0.133474,35.513696 0.133474,-25.062885 0.133474,5.474817 0.133474,-6.265945 0.133474,31.586523 0.133474,-14.727274 0.133474,-5.697339 0.133474,-10.525882 0.133474,-6.588562 0.133474,19.360632 0.133474,25.716425 0.133473,-12.09619 0.133474,-9.647409 0.133474,-11.968147 0.133474,29.007046 0.133474,-9.88952 0.133474,-14.137141 0.133474,47.103371 0.133474,-7.39617 0.133474,-16.66638 0.133474,-1.17744 0.133474,4.83119 0.133474,-29.795768 0.133474,14.537802 0.133474,-0.29698 0.133474,33.185306 0.133473,-24.71359 0.133474,-15.218305 0.133474,10.617435 0.133474,14.99984 0.133474,-13.04072 0.133474,0.93825 0.133474,43.13781 0.133474,-61.513123 0.133474,30.462953 0.133474,-36.54325 0.133474,-0.522146 0.133474,9.012135 0.133474,-6.90032 0.133474,-6.808582 0.133474,25.692773 0.133473,1.75988 0.133474,-6.265477 0.133474,-11.039624 0.133474,8.828328 0.133474,21.843223 0.133474,1.59467 0.133474,-19.919083 0.133474,36.146373 0.133474,-50.824166 0.133474,31.497946 0.133474,-5.48544 0.133474,5.50513 0.133474,-13.59686 0.133474,4.55177 0.133474,-10.595759 0.133474,-7.077564 0.133473,13.502813 0.133474,3.60403 0.133474,-2.16517 0.133474,-12.4164 0.133474,-0.602741 0.133474,41.474161 0.133474,-42.576009 0.133474,-2.401665 0.133474,20.745054 0.133474,-8.2541 0.133474,-10.235135 0.133474,54.154775 0.133474,-24.27983 0.133474,0.70907 0.133474,-15.04229 0.133473,3.20011 0.133474,-15.879496 0.133474,3.145484 0.133474,34.754432 0.133474,-8.84424 0.133474,-37.59033 0.133474,26.98154 0.133474,15.63181 0.133474,-29.162476 0.133474,22.090586 0.133474,-24.161182 0.133474,15.934642 0.133474,0.24982 0.133474,22.63369 0.133474,-34.380404 0.133473,9.276494 0.133474,-20.100962 0.133474,30.806392 0.133474,-2.36238 0.133474,0.56743 0.133474,5.5818 0.133474,-9.80642 0.133474,-13.7819 0.133474,14.75815 0.133474,2.73344 0.133474,-9.20401 0.133474,-7.696075 0.133474,20.731835 0.133474,-27.070349 0.133474,3.509887 0.133474,-7.679834 0.133473,-5.17269 0.133474,4.655171 0.133474,0.614545 0.133474,-16.209623 0.133474,10.511434 0.133474,22.666689 0.133474,13.03223 0.133474,14.8183 0.133474,-38.370695 0.133474,15.186345 0.133474,-6.39635 0.133474,-5.249183 0.133474,-3.091376 0.133474,-19.72206 0.133474,-2.938448 0.133473,15.976856 0.133474,1.571207 0.133474,-22.549081 0.133474,-13.527504 0.133474,28.89548 0.133474,-11.716352 0.133474,24.803721 0.133474,6.1565 0.133474,-23.83615 0.133474,27.63055 0.133474,-11.06389 0.133474,33.07303 0.133474,-24.52228 0.133474,4.89526 0.133474,-22.549741 0.133473,17.650091 0.133474,-6.384639 0.133474,5.303479 0.133474,4.61329 0.133474,-9.305718 0.133474,18.398398 0.133474,-7.59801 0.133474,-6.33105 0.133474,7.81052 0.133474,0.66913 0.133474,-7.40264 0.133474,-19.066769 0.133474,18.855339 0.133474,1.9155 0.133474,16.58243 0.133473,10.96229 0.133474,-29.90205 0.133474,-7.259389 0.133474,4.307579 0.133474,-3.807718 0.133474,7.149708 0.133474,3.06843 0.133474,-3.20025 0.133474,-34.813835 0.133474,49.547335 0.133474,-7.43748 0.133474,-3.18892 0.133474,-23.32222 0.133474,15.8948 0.133474,-12.694453 0.133474,-15.796685 0.133473,12.400019 0.133474,-11.546473 0.133474,61.428612 0.133474,-32.33634 0.133474,13.90607 0.133474,14.66198 0.133474,-29.13859 0.133474,48.46362 0.133474,-57.407486 0.133474,3.428017 0.133474,12.770559 0.133474,-19.196656 0.133474,-44.902459 0.133474,36.789337 0.133474,41.271418 0.133473,-31.280429 0.133474,-8.415343 0.133474,23.572602 0.133474,-10.113465 0.133474,18.186835 0.133474,4.90809 0.133474,0.69637 0.133474,-14.38223 0.133474,-23.409564 0.133474,15.207257 0.133474,27.344287 0.133474,-23.95466 0.133474,13.06254 0.133474,7.78097"
                     style="fill:none"
                     fill="none"
                     id="path139" />
                </g>
                <g
                   id="g145">
                  <path
                     stroke="#0077bb"
                     stroke-width="2px"
                     d="m 2.3169174,121.17063 0.1120228,6.66845 0.448091,0.98693 0.1120228,2.97659 0.3360683,-0.39485 0.1120228,2.04779 0.3360683,-5.4725 0.1120227,-0.34448 0.1120228,0.28428 0.4480911,-6.7795 1.0082049,-1.68991 0.3360683,14.22194 0.448091,-7.56581 0.2240456,-0.66171 0.2240455,8.25944 0.1120228,-6.18398 0.2240455,6.38266 0.2240455,1.67748 0.1120228,-4.3665 0.3360683,-0.94018 0.1120228,0.62007 0.1120227,5.14946 0.1120228,-2.74133 0.1120228,-9.05052 0.6721366,-8.70963 0.2240455,-8.51992 0.1120228,-8.862136 0.1120227,-5.377319 0.1120228,9.131495 0.3360683,-7.387387 0.1120228,-1.694438 0.1120227,0.326584 0.1120225,1.983721 0.560114,-7.323882 0.560114,-5.566272 0.336068,0.424035 0.112023,-3.730804 0.672137,7.611042 0.896182,1.639999 0.336068,-11.675511 0.112023,7.604432 0.784159,25.767561 0.336068,-27.897034 0.224046,43.021714 0.672137,-31.746206 0.112022,48.438696 0.112023,-11.79733 0.336068,-13.8436 0.112023,-1.99303 0.78416,15.08143 0.224045,-15.77614 0.224046,-13.462965 0.112022,-16.563686 0.112023,-1.97036 0.78416,52.240691 0.560113,-21.42041 0.224046,-18.07399 0.112023,-8.439705 0.112022,0.961573 0.336069,9.311428 0.336068,3.389017 0.224046,-14.413297 0.112022,18.955724 0.336069,-15.682146 0.672136,8.378656 0.112023,7.26496 0.224046,1.42767 0.336068,31.67208 0.224045,4.35305 0.112023,-44.917855 0.224046,-2.451335 0.224045,13.46575 0.112023,19.63915 0.784159,22.96249 0.896182,-40.31513 0.112023,-0.15591 0.112023,0.39075 0.448091,31.97576 1.120228,-21.98071 0.112023,-1.95771 0.224045,10.06314 0.224046,-4.64063 0.224045,-39.823115 0.336068,63.068605 0.112023,-14.91448 0.112023,7.01279 0.336068,-0.26266 1.120228,-18.25906 0.224045,2.57475 0.672137,15.11387 0.336068,-36.37267 0.112023,19.37036 0.112023,-16.42025 0.112023,7.73115 0.224045,18.06884 0.448091,-5.71443 0.224046,0.68622 0.224045,-12.96636 0.224046,15.94768 0.560114,-10.65062 0.224045,5.7615 0.448091,-29.118096 0.78416,26.048956 0.112022,-36.156565 0.560114,25.981965 0.112023,-19.345291 0.112023,21.338071 0.224045,-17.358021 0.112023,28.946381 0.112023,-10.98698 0.448091,3.55488 0.112023,1.1654 0.224045,2.15813 0.336068,-19.10379 0.448092,15.28271 0.112022,-1.14566 0.112023,21.81206 0.112023,6.21084 0.224045,-0.0458 0.336069,-70.351934 0.112022,53.851654 0.112023,-0.81945 0.336069,11.77655 0.112022,-17.98409 0.224046,-9.74255 0.672136,8.60217 0.224046,-16.28852 0.336068,18.98764 0.112023,-61.501368 0.224046,73.249348 0.112022,-12.51262 0.560114,-64.069371 0.112023,38.991757 0.448091,-4.275377 0.224046,-3.125607 0.336068,8.749149 0.448091,1.57881 0.448091,5.920049 0.224045,-20.58788 0.448092,3.640812 0.112022,31.087608 0.112023,6.9743 0.224046,-6.55022 0.112022,-54.346559 0.448091,31.785863 0.112023,5.880536 0.448091,9.75085 0.112023,6.31429 0.112023,-23.781143 1.120227,-17.387015 0.560114,9.552459 0.78416,26.137909 0.112022,-25.269963 0.560114,11.977118 0.112023,-30.373344 0.224046,40.834729 0.224045,14.74739 0.448091,-63.349205 1.008205,54.086025 0.112023,0.69165 0.112023,-42.785449 0.112022,-6.41179 0.336069,-6.51368 0.672136,29.01498 0.78416,0.883999 0.112022,23.37014 0.112023,15.10103 0.112023,-41.314386 0.224045,12.504174 0.112023,11.919562 0.336069,14.80126 0.112022,-7.99442 0.560114,-72.149161 0.112023,11.082118 0.448091,38.981841 0.784159,-27.39042 0.336069,11.452186 0.112022,37.747606 0.224046,-29.810217 0.224045,48.287747 0.336069,-78.262081 1.23225,-21.427168 0.336068,40.149459 0.112023,-18.156518 0.112023,42.615288 0.224046,-30.931467 0.224045,18.984284 0.112023,15.195223 0.224045,2.96597 0.560114,-15.705042 0.112023,13.605362 0.672137,-39.873727 0.224045,38.897517 0.112023,7.63668 0.112023,-6.34196 0.112022,1.36724 0.112023,-14.126564 0.112023,-9.389049 0.224045,14.125524 0.112023,-27.338059 0.112023,61.654818 0.560114,-12.46877 0.112023,9.28598 0.112022,-14.80409 0.224046,-38.898791 0.448091,27.973941 0.224046,-32.23945 0.224045,24.060705 0.448091,46.049675 0.112023,-27.1533 0.112023,-5.68719 0.448091,-12.038924 0.448091,-10.644816 0.112023,23.21146 0.336068,-4.17345 0.224045,-7.666703 0.112023,-17.037815 0.112023,-0.90907 0.112023,25.726108 0.112022,0.16822 0.112023,-1.4272 0.224046,28.09075 0.112023,-34.895603 0.560113,-20.447795 0.112023,75.548088 0.336068,-40.44804 0.112023,-12.21867 0.336068,1.82196 0.224046,17.66568 0.448091,-13.58024 0.224046,14.82203 0.224045,-41.261551 0.224046,37.865921 0.336068,-19.574747 0.448091,-3.495486 0.112023,25.376293 0.224045,-4.6436 0.336069,11.20057 0.448091,8.9306 0.560114,-1.25813 0.784159,5.73426 0.112023,-19.16979 0.224045,17.76242 0.112023,5.51183 0.112023,-26.28531 0.112023,49.59852 0.112022,-27.07697 0.112023,9.10699 0.336068,-1.75171 0.448091,-16.1887 0.112023,-9.69614 0.448091,29.441 0.336069,-51.903487 0.224045,46.644587 0.224046,-27.86569 0.336068,48.80673 0.112023,-16.54716 0.112022,-38.50516 0.112023,28.67626 0.112023,-0.73664 0.224046,-0.0155 0.112022,-19.40134 0.112023,-11.05303 0.224046,14.28785 0.112022,19.71342 0.112023,19.01464 0.112023,-14.66467 0.224045,11.99856 0.224046,-39.27972 0.112023,19.0136 0.784159,13.79739 0.336068,-4.3904 0.112023,-21.22499 0.112023,21.87273 0.224045,-0.82635 0.336069,-10.5595 0.224045,-40.751348 0.224046,28.815258 0.448091,14.87043 0.448091,22.78388 0.336068,-33.60268 0.112023,21.14577 0.112023,-12.18968 0.112023,-26.53116 0.112022,7.01491 0.560114,10.96276 0.672137,9.71289 0.224045,10.29718 0.112023,-57.587844 0.112023,48.206674 0.112023,-10.0263 0.224045,-28.5196 0.336068,-12.58468 0.112023,30.46589 0.336068,-11.86338 0.112023,45.39387 0.112023,-27.33169 0.224046,37.64303 0.224045,-29.15191 0.672137,37.96394 0.336068,-39.29468 0.112023,18.16582 0.336068,6.08587 0.112023,-35.01879 0.112023,0.0348 0.224045,44.34037 0.112023,-36.16294 0.112023,13.18166 0.560113,-30.17363 0.448092,-19.413891 0.112022,9.296371 0.224046,52.85963 0.224045,-26.62016 0.224046,-21.54398 0.112023,4.26112 0.112022,55.7892 0.112023,-10.06394 0.112023,-23.38081 0.336068,-9.60137 0.224046,-27.864505 0.224045,49.019615 0.336069,-18.01345 0.224045,10.12125 0.112023,-1.7663 0.112023,-47.95998 0.448091,16.81123 0.224045,-22.712537 0.112023,36.977067 0.224046,31.65092 0.336068,14.73733 0.448091,-14.47798 0.336068,-41.33327 0.336069,42.83658 0.112022,-28.76021 0.224046,20.27254 0.224045,-60.292439 0.224046,38.580799 0.560114,-6.0386 0.224045,15.72609 0.112023,-8.99995 0.112023,21.45177 0.112023,2.16852 0.336068,-1.29519 0.672136,-25.80529 0.224046,-16.49603 0.112023,25.92347 0.112023,-31.591909 0.224045,8.887629 0.448091,0.40515 0.224046,15.10428 0.112022,-13.50191 0.448092,32.07184 0.112022,13.21518 0.112023,-33.29772 0.112023,6.31637 0.33607,-8.88164 0.11202,44.43957 0.11202,-89.998544 0.22405,14.202484 0.33607,43.04622 0.22404,-41.230347 0.11203,30.058377 0.22404,-18.733056 0.11202,55.555016 0.33607,-9.9365 0.33607,-34.03116 0.11202,41.85358 0.78416,-57.391005 0.11203,60.444425 0.11202,-17.40491 0.11202,1.41063 0.11202,-1.57135 0.11203,-3.33779 0.11202,4.47217 0.22404,-57.080903 0.11203,12.593316 0.11202,39.289487 0.33607,-47.615547 0.11202,30.235617 0.11202,4.81268 0.11203,24.29928 0.22404,-25.37502 0.67214,2.13694 0.11202,40.8733 0.33607,-33.03251 0.78416,-11.44487 0.33607,18.54646 0.78416,-27.38626 0.11202,12.82315 0.11202,-9.05458 0.22405,17.50255 0.11202,-43.998346 0.11202,25.185446 0.33607,39.31773 0.11202,-30.11225 0.22405,-1.96431 0.22405,32.60711 0.11202,-30.13977 0.44809,-1.07904 0.11202,-43.498679 0.44809,40.458099 0.11203,-43.983897 0.11202,32.573217 0.11202,20.65015 0.33607,-18.92795 0.11202,-0.06 0.11203,10.04132 0.33606,38.09147 0.11203,-19.51347 0.89618,-49.00895 0.44809,58.0387 0.22405,-11.82844 0.22404,-4.49781 0.11202,-22.63714 0.33607,10.98448 0.11202,-13.53567 0.22405,21.26291 0.11202,0.0368 0.11203,-12.89176 0.11202,-8.84613 0.33607,52.85411 0.89618,-90.022251 0.22404,51.263731 0.22405,10.11148 0.22405,-34.838714 0.11202,-22.732841 0.11202,44.911095 0.22405,-11.32111 0.22404,17.91322 0.11203,-21.8224 0.11202,-1.874849 0.33607,8.930449 0.22404,-0.93409 0.78416,-8.713313 0.11202,15.257023 0.33607,-18.851093 0.22405,51.085353 0.67213,17.49037 0.11203,-57.48973 0.22404,-13.319149 0.22405,-0.822715 0.44809,1.331499 0.44809,9.205245 0.22405,-23.428314 0.22404,41.861834 0.33607,-21.656863 0.11202,18.666763 0.11203,18.28575 0.11202,25.15386 0.67213,-48.01749 0.11203,38.17216 0.67213,-43.38451 0.22405,-6.52926 0.22405,29.04652 0.11202,1.86724 0.11202,-10.13589 1.00821,-31.70687 0.22404,18.19542 0.33607,-23.732654 0.44809,36.330554 0.22405,-31.776328 0.11202,15.679738 0.11202,-13.142661 0.33607,57.925331 0.11202,-50.704471 0.22405,6.043611 0.11202,8.71242 0.11202,-8.77167 0.33607,-54.506386 0.11202,52.549196 1.12023,27.27928 0.22405,-27.73216 0.11202,30.53996 0.33607,-33.348005 0.11202,-29.940575 0.11202,45.64647 0.33607,-5.03341 0.11203,-9.16554 0.11202,28.99043 1.68034,-32.849512 0.33607,29.355442 0.22404,-21.85181 0.11203,2.9731 0.22404,4.03156 0.11202,-21.132029 0.33607,45.399439 0.33607,-38.379761 0.11202,-26.020582 0.11203,48.511403 0.11202,4.4817 0.22405,-26.771623 0.22404,37.252703 0.22405,-25.19891 0.22404,-5.39573 0.11202,4.27811 0.22405,11.82117 0.22405,-14.75489 0.22404,-10.516678 0.11202,14.922078 0.11203,2.23519 0.11202,11.12263 0.11202,-20.11942 1.12023,57.29299 0.44809,-43.51303 0.44809,0.20472 0.11202,-0.21463 0.11203,6.60848 0.22404,-18.7145 0.33607,6.59513 0.33607,-12.040388 0.22405,-19.993733 0.22404,-0.06572 0.11202,-9.720165 0.22405,24.98748 0.44809,25.465009 0.11202,-21.300398 0.11203,25.751888 0.22404,-25.939471 0.11202,5.473921 0.33607,16.37969 0.11202,5.32439 0.11203,-26.753448 0.11202,-39.701014 0.11202,38.148079 0.11203,3.448553 0.56011,29.40955 0.11202,-21.55346 0.22405,-2.55549 0.44809,28.57196 0.11202,-0.0221 0.22405,-57.981945 0.44809,12.266543 0.22404,11.565832 0.4481,24.07926 0.11202,8.04334 0.11202,-23.16608 0.11202,-3.12925 0.22405,29.90965 0.33607,-28.12593 0.11202,-22.696906 0.22405,16.008586 0.11202,21.39936 0.11202,-20.33925 0.67214,-13.358431 0.22404,0.666623 0.11203,-18.893963 0.22404,17.153963 0.11202,7.468265 0.33607,-10.386789 0.11203,-2.463374 0.56011,19.924566 0.11202,-17.10458 0.11202,42.89891 0.33607,7.41401 0.22405,-30.22717 0.11202,19.41545 0.11202,40.7913 0.11203,-48.7784 0.11202,4.64351 0.11202,-4.86613 0.33607,-18.700903 0.33607,11.979663 0.56011,-13.819946 0.11203,-25.487908 0.11202,6.05041 0.11202,16.10443 0.44809,13.770184 0.44809,-39.9648 0.22405,52.3212 0.11202,-50.420481 0.44809,25.894094 0.44809,-12.892278 0.78416,44.254245 0.22405,-3.91937 0.33607,-37.993267 0.22404,17.440127 0.11203,-6.537849 0.22404,16.907029 0.11202,-37.245665 0.11203,18.925314 0.22404,0.994811 0.11202,-14.092001 0.33607,-7.327801 1.90439,-5.17321 0.11202,9.304251 0.11203,4.433216 0.11202,9.354866 0.44809,17.172189 0.33607,-20.699593 0.11202,15.982993 0.33607,-7.202445 0.11202,16.851505 0.11202,1.8638 0.4481,-35.426631 0.11202,-8.855336 0.11202,13.639119 0.22405,-6.513302 0.11202,19.426969 0.11202,-13.972501 0.22405,27.700712 0.22404,-37.799822 0.67214,13.574482 0.22405,12.704553 0.56011,-23.123966 0.11202,41.991723 1.00821,-45.866626 0.11202,13.100731 1.23225,11.859884 0.44809,-9.273893 0.11202,5.409378 0.33607,-7.99891 0.11202,10.023613 0.33607,-9.452458 0.22405,20.404171 0.11202,17.42615 0.11202,-48.998086 0.78416,32.303336 0.11203,-28.686461 0.11202,5.361407 0.11202,10.863325 0.22405,3.506204 0.11202,5.572035 0.22405,-29.55323 0.11202,38.71881 0.11202,-15.721898 0.11202,-6.330345 0.56012,1.475976 0.22404,4.402431 0.56012,30.160166 0.11202,-12.66342 0.33607,-1.49935 0.78416,-21.750543 0.22404,-0.890231 1.12023,9.884804 0.22405,-23.02241 0.11202,19.429188 0.22404,22.139922 0.11203,-29.990814 0.22404,-16.216517 0.11203,29.636321 0.67213,-24.781337 0.11202,15.67166 0.67214,-25.867749 0.11202,-0.483194 1.00821,32.803102 0.44809,-21.544921 0.22405,33.767229 0.44809,-38.389397 0.67213,35.962937 0.22405,16.13866 0.11202,-37.899019 0.22405,-14.863677 0.33607,-3.074474 0.22404,10.171348 0.11202,15.922229 0.44809,-0.751326 0.11203,-15.137947 0.22404,3.346855 0.11203,33.505041 0.11202,10.46554 0.11202,18.14174 0.33607,-35.31709 0.11202,-23.450502 0.11203,5.414382 0.44809,5.723497 0.22404,-21.535762 0.11202,-26.249102 0.11203,28.975604 0.22404,-5.766037 0.22405,2.746946 0.22404,12.176599 0.33607,-6.97185 0.33607,51.015945 0.11202,-29.46928 0.11203,-11.243447 0.33606,0.106847 0.22405,-27.18853 0.11202,53.0746 0.33607,-37.516302 0.11202,-7.463496 0.33607,-0.314402 0.33607,29.23179 0.11202,-44.523892 0.11203,7.421475 0.11202,-2.065545 0.33607,13.111968 0.44809,6.382754 0.22404,16.394091 0.11203,-11.574188 0.11202,-12.895773 0.33607,17.827857 0.11202,-9.574744 0.22405,-46.303552 0.44809,20.561961 0.11202,4.670941 0.11202,3.398365 0.33607,30.787889 0.44809,-1.347411 0.11202,-10.866583 0.22405,-21.047374 0.11202,10.353125 0.11203,1.381169 0.11202,14.93058 0.22404,18.545947 0.33607,-2.66489 0.11202,-4.595634 0.11203,-30.063994 0.11202,5.776896 0.44809,37.021772 0.11202,-54.306708 0.56012,22.550214 0.22404,8.873655 0.11203,-8.462132 0.11202,-26.391926 0.44809,41.338323 0.33607,-45.256427 0.22404,13.452952 0.33607,5.025523 0.11203,-11.90606 0.11202,42.097014 0.11202,-3.581369 0.11202,-39.348511 0.22405,36.349722 0.22404,7.72039 0.33607,-13.839922 0.11203,-11.045951 0.22404,-3.445345 0.11202,-12.620841 0.11203,8.18706 0.33606,19.980323 0.22405,-8.978093 0.11202,0.297311 0.11203,5.449037 0.11202,10.378667 0.78416,-24.819679 0.11202,3.459414 0.33607,-1.552841 0.56011,21.08897 0.44809,-41.217548 0.22405,24.285541 0.44809,65.108237 0.11202,-35.54618 0.22405,-18.428476 0.44809,19.327156 0.11202,-31.845211 0.11203,2.704689 0.22404,37.360682 0.11202,-44.578521 0.11203,10.33726 0.44809,-26.011942 0.44809,11.129757 0.22404,15.869112 0.11203,-16.161795 0.22404,4.489873 0.67214,-22.815986 0.11202,34.020956 0.33607,-7.359246 0.33607,14.87515 0.44809,-24.367835 0.22405,30.456819 0.44809,-28.842174 0.44809,42.987862 0.11202,-8.93622 0.11202,-14.264379 0.44809,-38.307476 0.11203,40.924581 0.33607,20.712854 0.11202,-20.079045 0.11202,10.838491 0.33607,10.184144 0.33607,-32.826664 0.11202,22.311593 0.22405,5.122121 0.22404,-3.57476 0.11202,-30.690388 0.11203,14.440446 0.78416,-21.294165 0.22404,32.373402 0.11202,-22.819243 0.67214,8.636873 0.11202,11.303649 0.11203,-9.068887 0.11202,9.95501 0.11202,-15.335351 0.22405,12.810834 0.33607,-44.719125 0.78416,17.640463 0.11202,-4.784162 0.11202,-3.837697 1.00821,21.008563 0.33606,40.870328 0.11203,9.40227 0.33606,-38.942745 0.11203,-6.778412 0.11202,-12.552286 0.11202,15.774966 0.11203,22.925717 0.33606,22.68997 0.11203,-48.113151 0.11202,19.617201 0.11202,-8.447736 0.44809,0.644101 0.11203,-12.953657 0.11202,9.864264 0.33607,-23.469625 0.22404,-5.651163 0.22405,13.839073 0.22404,-10.387496 0.11203,-1.822815 0.11202,-6.94777 0.22405,21.071122 0.11202,1.835988 0.56011,-18.715681 0.33607,-7.527755 0.22405,8.591405 0.33606,4.01225 0.33607,8.842588 0.11202,-9.591742 0.22405,3.78e-4 0.22405,35.203781 0.67213,-40.48804 0.11203,23.806785 0.22404,-0.945095 0.22405,-11.537503 0.56011,16.220484 0.44809,-30.371267 0.11202,10.955204 0.11203,2.93911 0.11202,22.356021 1.34427,-25.376765 0.22405,12.574666 0.22404,-34.383658 0.22405,28.344721 0.11202,28.311527 0.33607,-39.572163 0.11202,-16.122938 0.11203,28.195902 0.11202,1.865354 0.11202,6.994136 0.11202,-8.502548 0.11203,16.476056 0.22404,-40.22047 0.11203,27.875975 0.11202,-23.391815 0.22404,-3.068902 0.56012,38.18179 0.33607,-32.235913 0.22404,14.459237 0.11202,36.920029 0.22405,-44.903452 0.33607,-39.130615 0.33607,15.727326 0.22404,5.808247 0.33607,12.472965 0.11202,9.700099 0.22405,57.28142 0.11202,-17.74575 0.33607,-28.113654 0.22404,0.158688 0.11203,-10.976357 0.89618,37.159123 0.11202,-15.865194 0.22405,-55.574943 0.56011,49.240395 0.56012,-16.775585 0.11202,-18.039945 0.11202,-15.310564 0.22405,12.369519 0.11202,-10.599396 0.22405,8.981965 0.22404,55.029468 0.33607,-23.762021 0.11202,-32.004562 0.44809,26.499198 0.56012,-32.907541 0.22404,37.26696 0.67214,-27.723331 0.11202,2.96843 0.11202,30.613289 0.11203,-32.385537 0.11202,11.981698 0.33607,2.640288 0.22404,-39.379058 0.33607,37.441701 0.11202,27.096887 0.33607,-54.150809 0.22405,0.770637 0.22404,7.11798 0.11203,18.9357 0.11202,-17.797309 0.44809,25.941829 0.44809,-1.57083 0.11202,13.695871 0.11203,26.74452 0.44809,-19.818043 0.11202,-19.77631 0.22405,-29.66064 0.11202,70.302363 0.22404,-53.63759 0.11203,-4.49823 0.11202,4.361024 0.22405,6.838894 0.11202,45.438632 0.11202,-43.621011 0.11202,-19.983251 0.33607,3.655968 0.22405,-3.187835 0.11202,50.083553 0.67214,-39.417868 0.11202,-0.673895 0.11202,8.698867 0.44809,-0.01572 0.22405,4.106443 0.22405,6.65556 0.44809,-28.319084 0.78416,19.681408 0.33606,-21.088829 0.22405,32.358388 0.22405,-7.326007 0.11202,4.355595 0.22404,37.574891 0.22405,-37.701473 0.22404,-17.087674 0.11203,6.46486 0.11202,6.543849 0.33607,-12.631134 0.11202,-4.486804 0.33607,42.814771 0.11202,-33.619632 0.33607,-3.502804 0.33607,-32.319484 0.44809,27.927817 0.67214,29.159126 0.11202,-24.126804 0.33607,-19.788397 0.11202,40.062065 0.22405,-23.936672 0.22404,23.36783 0.11202,-29.848554 0.22405,24.706789 0.11202,-22.217257 0.22405,-7.026383 0.11202,9.710439 0.11202,22.696438 0.11203,-33.941588 0.22404,29.572018 0.22405,-6.946826 0.11202,-40.879114 0.44809,34.65925 0.11202,-16.081483 0.22405,-29.04312 0.33607,9.33598 0.22404,15.389742 0.33607,24.158439 0.67214,30.517254 0.67213,-55.731034 0.4481,38.190431 0.33606,-65.442512 0.56012,25.468266 0.22404,1.011337 0.33607,14.801023 0.67214,-8.466853 0.11202,29.418476 0.22405,-38.64388 0.33606,64.078907 0.33607,-38.365502 0.11203,-13.544737 0.11202,-5.046817 1.0082,-20.599968 0.11203,35.197355 0.11202,5.443655 0.11202,-18.56601 0.22405,49.683221 0.22404,-53.441787 0.33607,-1.282537 0.11202,16.311135 0.4481,-4.340533 0.22404,9.661524 0.11202,-5.356685 0.11203,-16.023929 0.11202,8.658686 0.89618,-22.252904 1.00821,-2.05799 0.22404,19.844487 0.33607,7.300511 0.56011,-16.505943 0.33607,25.801224 0.11202,0.103353 0.33607,-2.048123 0.11203,7.565669 0.33606,-10.01384 0.33607,6.213111 0.22405,34.314678 0.22404,-88.5277622 0.33607,30.3839202 0.33607,24.356882 0.11202,5.598802 0.11203,-30.046477 0.22404,31.677836 0.89618,-31.77727"
                     style="fill:none"
                     fill="none"
                     id="path143" />
                </g>
              </g>
            </g>
          </g>
        </g>
      </g>
      <g
         transform="translate(51,177)"
         clip-path="url(#clip_1)"
         id="g216">
        <clipPath
           id="clip_1">
          <rect
             width="278"
             height="23"
             id="rect157"
             x="0"
             y="0" />
        </clipPath>
        <g
           id="g214">
          <g
             id="g184">
            <line
               x1="1.6459725"
               y1="0"
               x2="1.6459725"
               y2="5"
               style="visibility:inherit"
               fill="#000000"
               stroke="#cccccc"
               stroke-width="1px"
               id="line160" />
            <line
               x1="25.480604"
               y1="0"
               x2="25.480604"
               y2="5"
               style="visibility:inherit"
               fill="#000000"
               stroke="#cccccc"
               stroke-width="1px"
               id="line162" />
            <line
               x1="49.315235"
               y1="0"
               x2="49.315235"
               y2="5"
               style="visibility:inherit"
               fill="#000000"
               stroke="#cccccc"
               stroke-width="1px"
               id="line164" />
            <line
               x1="73.149864"
               y1="0"
               x2="73.149864"
               y2="5"
               style="visibility:inherit"
               fill="#000000"
               stroke="#cccccc"
               stroke-width="1px"
               id="line166" />
            <line
               x1="96.984497"
               y1="0"
               x2="96.984497"
               y2="5"
               style="visibility:inherit"
               fill="#000000"
               stroke="#cccccc"
               stroke-width="1px"
               id="line168" />
            <line
               x1="120.81913"
               y1="0"
               x2="120.81913"
               y2="5"
               style="visibility:inherit"
               fill="#000000"
               stroke="#cccccc"
               stroke-width="1px"
               id="line170" />
            <line
               x1="144.65376"
               y1="0"
               x2="144.65376"
               y2="5"
               style="visibility:inherit"
               fill="#000000"
               stroke="#cccccc"
               stroke-width="1px"
               id="line172" />
            <line
               x1="168.48839"
               y1="0"
               x2="168.48839"
               y2="5"
               style="visibility:inherit"
               fill="#000000"
               stroke="#cccccc"
               stroke-width="1px"
               id="line174" />
            <line
               x1="192.32303"
               y1="0"
               x2="192.32303"
               y2="5"
               style="visibility:inherit"
               fill="#000000"
               stroke="#cccccc"
               stroke-width="1px"
               id="line176" />
            <line
               x1="216.15765"
               y1="0"
               x2="216.15765"
               y2="5"
               style="visibility:inherit"
               fill="#000000"
               stroke="#cccccc"
               stroke-width="1px"
               id="line178" />
            <line
               x1="239.99228"
               y1="0"
               x2="239.99228"
               y2="5"
               style="visibility:inherit"
               fill="#000000"
               stroke="#cccccc"
               stroke-width="1px"
               id="line180" />
            <line
               x1="263.8269"
               y1="0"
               x2="263.8269"
               y2="5"
               style="visibility:inherit"
               fill="#000000"
               stroke="#cccccc"
               stroke-width="1px"
               id="line182" />
          </g>
          <g
             transform="translate(0,8)"
             id="g210">
            <text
               x="1.6459725"
               y="0"
               dx="0em"
               dy="0.94999999em"
               style="font-weight:200;font-size:12px;font-family:Roboto, sans-serif;text-anchor:middle;visibility:hidden"
               fill="#212121"
               stroke="none"
               stroke-width="1px"
               id="text186">0</text>
            <text
               x="25.480604"
               y="0"
               dx="0em"
               dy="0.94999999em"
               style="font-weight:200;font-size:12px;font-family:Roboto, sans-serif;text-anchor:middle;visibility:inherit"
               fill="#212121"
               stroke="none"
               stroke-width="1px"
               id="text188">20k</text>
            <text
               x="49.315235"
               y="0"
               dx="0em"
               dy="0.94999999em"
               style="font-weight:200;font-size:12px;font-family:Roboto, sans-serif;text-anchor:middle;visibility:hidden"
               fill="#212121"
               stroke="none"
               stroke-width="1px"
               id="text190">40k</text>
            <text
               x="73.149864"
               y="0"
               dx="0em"
               dy="0.94999999em"
               style="font-weight:200;font-size:12px;font-family:Roboto, sans-serif;text-anchor:middle;visibility:inherit"
               fill="#212121"
               stroke="none"
               stroke-width="1px"
               id="text192">60k</text>
            <text
               x="96.984497"
               y="0"
               dx="0em"
               dy="0.94999999em"
               style="font-weight:200;font-size:12px;font-family:Roboto, sans-serif;text-anchor:middle;visibility:hidden"
               fill="#212121"
               stroke="none"
               stroke-width="1px"
               id="text194">80k</text>
            <text
               x="120.81913"
               y="0"
               dx="0em"
               dy="0.94999999em"
               style="font-weight:200;font-size:12px;font-family:Roboto, sans-serif;text-anchor:middle;visibility:inherit"
               fill="#212121"
               stroke="none"
               stroke-width="1px"
               id="text196">100k</text>
            <text
               x="144.65376"
               y="0"
               dx="0em"
               dy="0.94999999em"
               style="font-weight:200;font-size:12px;font-family:Roboto, sans-serif;text-anchor:middle;visibility:hidden"
               fill="#212121"
               stroke="none"
               stroke-width="1px"
               id="text198">120k</text>
            <text
               x="168.48839"
               y="0"
               dx="0em"
               dy="0.94999999em"
               style="font-weight:200;font-size:12px;font-family:Roboto, sans-serif;text-anchor:middle;visibility:inherit"
               fill="#212121"
               stroke="none"
               stroke-width="1px"
               id="text200">140k</text>
            <text
               x="192.32303"
               y="0"
               dx="0em"
               dy="0.94999999em"
               style="font-weight:200;font-size:12px;font-family:Roboto, sans-serif;text-anchor:middle;visibility:hidden"
               fill="#212121"
               stroke="none"
               stroke-width="1px"
               id="text202">160k</text>
            <text
               x="216.15765"
               y="0"
               dx="0em"
               dy="0.94999999em"
               style="font-weight:200;font-size:12px;font-family:Roboto, sans-serif;text-anchor:middle;visibility:inherit"
               fill="#212121"
               stroke="none"
               stroke-width="1px"
               id="text204">180k</text>
            <text
               x="239.99228"
               y="0"
               dx="0em"
               dy="0.94999999em"
               style="font-weight:200;font-size:12px;font-family:Roboto, sans-serif;text-anchor:middle;visibility:hidden"
               fill="#212121"
               stroke="none"
               stroke-width="1px"
               id="text206">200k</text>
            <text
               x="263.8269"
               y="0"
               dx="0em"
               dy="0.94999999em"
               style="font-weight:200;font-size:12px;font-family:Roboto, sans-serif;text-anchor:middle;visibility:inherit"
               fill="#212121"
               stroke="none"
               stroke-width="1px"
               id="text208">220k</text>
          </g>
          <line
             x1="0"
             y1="0"
             x2="278.4375"
             y2="0"
             fill="#000000"
             stroke="#cccccc"
             stroke-width="1px"
             id="line212" />
        </g>
      </g>
    </g>
  </g>
  <text
     xml:space="preserve"
     style="fill:#000000"
     x="165.97922"
     y="194.86646"
     id="text490"><tspan
       sodipodi:role="line"
       id="tspan488"
       x="165.97922"
       y="194.86646">Step</tspan></text>
  <text
     xml:space="preserve"
     style="fill:#000000"
     x="-131.52844"
     y="13.219232"
     id="text494"
     transform="rotate(-90)"><tspan
       sodipodi:role="line"
       id="tspan492"
       x="-131.52844"
       y="13.219232">CrossEntropyLoss</tspan></text>
</svg>
